<?xml version="1.0" encoding="utf-8"?>
<!-- Generator: Adobe Illustrator 20.1.0, SVG Export Plug-In . SVG Version: 6.00 Build 0)  -->
<svg version="1.1" id="Layer_1" xmlns="http://www.w3.org/2000/svg" xmlns:xlink="http://www.w3.org/1999/xlink" x="0px" y="0px"
	 viewBox="0 0 400 225" style="enable-background:new 0 0 400 225;" xml:space="preserve">
<style type="text/css">
	.st0{fill:#DDDDDD;}
	.st1{fill:#C6C6C6;}
	.st2{fill:#8DB7E2;}
	.st3{fill:#2376C1;}
	.st4{fill:none;}
</style>
<title>accordion</title>
<g id="Layer_2">
	<g id="accordion">
		<g>
			<rect x="125.9" y="81.9" class="st0" width="157.9" height="79.3"/>
			<rect x="125.9" y="81.9" class="st1" width="157.9" height="13.2"/>
			<path class="st2" d="M122.8,32.1h164.4c1.7,0,3,1.4,3,3v21.6c0,1.7-1.4,3-3,3H122.8c-1.7,0-3-1.4-3-3V35.1
				C119.8,33.4,121.1,32.1,122.8,32.1z"/>
			<path class="st2" d="M122.8,62.3h164.4c1.7,0,3,1.4,3,3v21.6c0,1.7-1.4,3-3,3H122.8c-1.7,0-3-1.4-3-3V65.3
				C119.8,63.6,121.1,62.3,122.8,62.3z"/>
			<path class="st2" d="M122.8,165.3h164.4c1.7,0,3,1.4,3,3v21.6c0,1.7-1.4,3-3,3H122.8c-1.7,0-3-1.4-3-3v-21.6
				C119.8,166.6,121.1,165.3,122.8,165.3z"/>
			<rect x="148.1" y="174.4" class="st3" width="53.4" height="9.4"/>
			<rect x="148.1" y="71.4" class="st3" width="43.2" height="9.3"/>
			<rect x="134.9" y="98.3" class="st2" width="120.1" height="9.3"/>
			<rect x="134.9" y="113.4" class="st2" width="99" height="9.3"/>
			<rect x="134.9" y="128.6" class="st2" width="78.7" height="9.4"/>
			<rect x="134.9" y="143.7" class="st2" width="93.6" height="9.4"/>
			<rect x="148.1" y="41.3" class="st3" width="56.4" height="9.3"/>
			<path class="st3" d="M140.1,178.6c0.3,0.3,0.3,0.7,0,0.9c0,0,0,0,0,0l-7.6,7.6c-0.3,0.3-0.7,0.3-0.9,0l-1.7-1.7
				c-0.3-0.3-0.3-0.7,0-0.9c0,0,0,0,0,0l5.4-5.4l-5.4-5.4c-0.3-0.3-0.3-0.7,0-0.9c0,0,0,0,0,0l1.7-1.7c0.3-0.3,0.7-0.3,0.9,0
				L140.1,178.6z"/>
			<path class="st3" d="M140.1,45.4c0.3,0.3,0.3,0.7,0,0.9c0,0,0,0,0,0l-7.6,7.6c-0.3,0.3-0.7,0.3-0.9,0l-1.7-1.7
				c-0.3-0.3-0.3-0.7,0-0.9c0,0,0,0,0,0l5.4-5.5l-5.4-5.5c-0.3-0.3-0.3-0.7,0-0.9c0,0,0,0,0,0l1.7-1.7c0.3-0.3,0.7-0.3,0.9,0
				L140.1,45.4z"/>
			<path class="st3" d="M135.5,81.2c-0.3,0.3-0.7,0.3-0.9,0c0,0,0,0,0,0l-7.6-7.6c-0.3-0.3-0.3-0.7,0-0.9l1.7-1.7
				c0.3-0.3,0.7-0.3,0.9,0c0,0,0,0,0,0l5.4,5.4l5.5-5.4c0.3-0.3,0.7-0.3,0.9,0c0,0,0,0,0,0l1.7,1.7c0.3,0.3,0.3,0.7,0,0.9
				L135.5,81.2z"/>
		</g>
		<rect class="st4" width="400" height="225"/>
	</g>
</g>
</svg>
