<?xml version="1.0" encoding="utf-8"?>
<svg viewBox="0 0 64 64" fill="none" xmlns="http://www.w3.org/2000/svg">
  <path d="M 0 32 C 0 14.327 14.327 0 32 0 C 49.673 0 64 14.327 64 32 C 64 49.673 49.673 64 32 64 C 14.327 64 0 49.673 0 32 Z M 16.82 15.996 C 16.821 21.287 20.21 25.572 24.371 28.266 C 28.337 30.834 33.04 28.174 37.066 25.7 C 42.153 22.574 48.753 22.257 54.278 25.446 C 56.381 26.661 58.121 28.266 59.461 30.117 C 59.854 30.659 60.78 30.402 60.728 29.735 C 60.002 20.607 54.951 11.979 46.421 7.054 C 39.082 2.817 48.372 11.428 27.474 6.835 C 23.586 5.981 19.209 6.921 17.818 10.651 C 17.192 12.331 16.821 14.166 16.82 15.996 Z M 25.743 53.165 C 30.326 50.519 32.342 45.441 32.595 40.49 C 32.836 35.772 28.18 33.029 24.025 30.779 C 18.774 27.937 15.199 22.379 15.199 16 C 15.199 13.571 15.72 11.262 16.653 9.175 C 16.926 8.565 16.24 7.891 15.689 8.27 C 8.147 13.462 3.2 22.151 3.2 32 C 3.2 40.475 6.012 28.124 12.484 48.518 C 13.688 52.312 16.69 55.634 20.616 54.973 C 22.384 54.675 24.159 54.079 25.743 53.165 Z M 53.468 26.856 C 48.885 24.211 43.479 25.003 39.066 27.26 C 34.859 29.41 34.811 34.814 34.941 39.537 C 35.104 45.506 32.079 51.38 26.554 54.57 C 24.451 55.784 22.19 56.488 19.917 56.724 C 19.252 56.792 19.011 57.724 19.615 58.011 C 27.883 61.947 37.881 61.886 46.41 56.962 C 53.749 52.725 41.648 56.464 56.074 40.662 C 58.757 37.723 60.132 33.462 57.597 30.393 C 56.455 29.01 55.051 27.771 53.468 26.856 Z" fill="white"/>
</svg>