<svg width="54" height="52" viewBox="0 0 54 52" fill="var(--color-text)" xmlns="http://www.w3.org/2000/svg">
<path fill-rule="evenodd" clip-rule="evenodd" d="M27.9661 14.8V5.2L36.28 0.400002L44.5938 5.2V14.8L36.28 19.6L27.9661 14.8ZM27 16.24L18.6861 21.04V30.64L27 35.44L35.3138 30.64V21.04L27 16.24ZM27 19.5655L32.4338 22.7028V28.9772L27 32.1145L21.5661 28.9772V22.7028L27 19.5655ZM37.2461 30.64L45.56 35.44L53.8738 30.64V21.04L45.56 16.24L37.2461 21.04V30.64ZM45.56 32.1145L40.1261 28.9772V22.7028L45.56 19.5655L50.9938 22.7028V28.9772L45.56 32.1145ZM26.0338 46.8V37.2L17.7199 32.4L9.4061 37.2V46.8L17.7199 51.6L26.0338 46.8ZM17.7199 48.2745L23.1538 45.1372V38.8628L17.7199 35.7255L12.2861 38.8628V45.1372L17.7199 48.2745ZM16.7538 30.64V21.04L8.43995 16.24L0.126099 21.04V30.64L8.43995 35.44L16.7538 30.64ZM13.8738 22.7028V28.9772L8.43995 32.1145L3.0061 28.9772V22.7028L8.43995 19.5655L13.8738 22.7028ZM17.7199 19.6L26.0338 14.8V5.2L17.7199 0.400002L9.4061 5.2V14.8L17.7199 19.6ZM23.1538 13.1372L17.7199 16.2745L12.2861 13.1372V6.86277L17.7199 3.72554L23.1538 6.86277V13.1372ZM27.9661 46.8L36.28 51.6L44.5938 46.8V37.2L36.28 32.4L27.9661 37.2V46.8ZM30.8461 45.1372V38.8628L36.28 35.7255L41.7138 38.8628V45.1372L36.28 48.2745L30.8461 45.1372ZM41.7138 13.1372L36.28 16.2745L30.8461 13.1372V6.86277L36.28 3.72554L41.7138 6.86277V13.1372Z" fill="white"/>
</svg>
