<svg width="51" height="56" viewBox="0 0 51 56" fill="none" xmlns="http://www.w3.org/2000/svg">
<path fill-rule="evenodd" clip-rule="evenodd" d="M24.9834 10.7848C22.0121 10.7848 19.595 8.36588 19.595 5.39238C19.595 2.419 22.0121 0 24.9834 0C27.9547 0 30.3721 2.419 30.3721 5.39238C30.3721 8.36588 27.9547 10.7848 24.9834 10.7848ZM24.9834 2.93812C23.631 2.93812 22.5309 4.03911 22.5309 5.39238C22.5309 6.74565 23.631 7.84664 24.9834 7.84664C26.3358 7.84664 27.4361 6.74565 27.4361 5.39238C27.4361 4.03911 26.3358 2.93812 24.9834 2.93812Z" fill="white"/>
<path d="M23.595 11.6767C24.0579 11.7835 24.5399 11.84 25.0348 11.84C25.5298 11.84 26.0119 11.7835 26.475 11.6766V21.7634C26.0119 21.6565 25.5298 21.6 25.0348 21.6C24.5399 21.6 24.0579 21.6565 23.595 21.7633V11.6767Z" fill="white"/>
<path d="M20.3571 23.6364L11.6185 18.5912C11.4796 19.0457 11.2874 19.4914 11.0399 19.9201C10.7925 20.3488 10.5026 20.7379 10.1786 21.0854L18.9139 26.1288C19.2021 25.1879 19.7017 24.3386 20.3571 23.6364Z" fill="white"/>
<path d="M18.9139 29.8712L10.1785 34.9146C10.5026 35.2622 10.7926 35.6514 11.0401 36.0801C11.2875 36.5088 11.4796 36.9544 11.6186 37.4087L20.357 32.3636C19.7017 31.6614 19.2021 30.8121 18.9139 29.8712Z" fill="white"/>
<path d="M23.595 34.2367V44.3234C24.058 44.2165 24.5401 44.16 25.0351 44.16C25.5301 44.16 26.012 44.2165 26.475 44.3233V34.2366C26.0119 34.3435 25.5298 34.4 25.0348 34.4C24.5399 34.4 24.0579 34.3435 23.595 34.2367Z" fill="white"/>
<path d="M29.7128 32.3635L38.4514 37.4088C38.5904 36.9543 38.7825 36.5086 39.03 36.0799C39.2775 35.6512 39.5674 35.2621 39.8914 34.9146L31.156 29.8712C30.8678 30.8121 30.3682 31.6614 29.7128 32.3635Z" fill="white"/>
<path d="M31.156 26.1288L39.8914 21.0854C39.5673 20.7378 39.2774 20.3486 39.0299 19.9199C38.7824 19.4912 38.5903 19.0456 38.4514 18.5913L29.7128 23.6365C30.3682 24.3387 30.8678 25.188 31.156 26.1288Z" fill="white"/>
<path fill-rule="evenodd" clip-rule="evenodd" d="M10.1003 19.437C8.61468 22.0103 5.31132 22.8941 2.73619 21.4074C0.161177 19.9207 -0.725191 16.6179 0.760473 14.0447C2.24614 11.4714 5.54974 10.5874 8.12476 12.0741C10.6999 13.5608 11.586 16.8638 10.1003 19.437ZM3.30496 15.5137C2.62875 16.6849 3.03221 18.1881 4.20418 18.8647C5.37614 19.5414 6.87965 19.1392 7.55586 17.968C8.23207 16.7968 7.82874 15.2934 6.65677 14.6167C5.48481 13.9401 3.98116 14.3425 3.30496 15.5137Z" fill="white"/>
<path fill-rule="evenodd" clip-rule="evenodd" d="M10.1519 36.6523C11.6376 39.2255 10.7513 42.5282 8.17619 44.015C5.60118 45.5017 2.29771 44.6179 0.812044 42.0447C-0.673621 39.4714 0.212614 36.1684 2.78763 34.6817C5.36276 33.195 8.66625 34.079 10.1519 36.6523ZM3.35653 40.5756C4.03273 41.7468 5.53625 42.149 6.70821 41.4724C7.88018 40.7957 8.28364 39.2926 7.60743 38.1213C6.93123 36.9501 5.42758 36.5477 4.25561 37.2243C3.08365 37.901 2.68032 39.4044 3.35653 40.5756Z" fill="white"/>
<path fill-rule="evenodd" clip-rule="evenodd" d="M25.0865 45.2152C28.0579 45.2152 30.475 47.6341 30.475 50.6076C30.475 53.581 28.0579 56 25.0865 56C22.1152 56 19.6978 53.581 19.6978 50.6076C19.6978 47.6341 22.1152 45.2152 25.0865 45.2152ZM25.0865 53.0619C26.439 53.0619 27.539 51.9609 27.539 50.6076C27.539 49.2544 26.439 48.1534 25.0865 48.1534C23.7341 48.1534 22.6338 49.2544 22.6338 50.6076C22.6338 51.9609 23.7341 53.0619 25.0865 53.0619Z" fill="white"/>
<path fill-rule="evenodd" clip-rule="evenodd" d="M39.9696 36.563C41.4553 33.9897 44.7586 33.1059 47.3337 34.5926C49.9088 36.0793 50.7951 39.3821 49.3095 41.9553C47.8238 44.5286 44.5202 45.4126 41.9452 43.9259C39.3701 42.4391 38.4839 39.1362 39.9696 36.563ZM46.765 40.4863C47.4412 39.3151 47.0377 37.8119 45.8658 37.1353C44.6938 36.4586 43.1903 36.8608 42.5141 38.032C41.8379 39.2032 42.2412 40.7066 43.4132 41.3833C44.5851 42.0599 46.0888 41.6575 46.765 40.4863Z" fill="white"/>
<path fill-rule="evenodd" clip-rule="evenodd" d="M39.918 19.3477C38.4324 16.7745 39.3186 13.4718 41.8937 11.985C44.4688 10.4983 47.7722 11.3821 49.2579 13.9553C50.7436 16.5286 49.8573 19.8316 47.2823 21.3183C44.7072 22.805 41.4037 21.921 39.918 19.3477ZM46.7134 15.4244C46.0372 14.2532 44.5337 13.851 43.3617 14.5276C42.1898 15.2043 41.7863 16.7074 42.4625 17.8787C43.1387 19.0499 44.6424 19.4523 45.8143 18.7757C46.9863 18.099 47.3896 16.5956 46.7134 15.4244Z" fill="white"/>
<path fill-rule="evenodd" clip-rule="evenodd" d="M24.9834 25.4981C23.631 25.4981 22.5309 26.5991 22.5309 27.9524C22.5309 29.3056 23.631 30.4066 24.9834 30.4066C26.3358 30.4066 27.4361 29.3056 27.4361 27.9524C27.4361 26.5991 26.3358 25.4981 24.9834 25.4981ZM24.9834 33.3447C22.0121 33.3447 19.595 30.9259 19.595 27.9524C19.595 24.979 22.0121 22.56 24.9834 22.56C27.9547 22.56 30.3721 24.979 30.3721 27.9524C30.3721 30.9259 27.9547 33.3447 24.9834 33.3447Z" fill="white"/>
</svg>
