<svg width="971" height="356" viewBox="0 0 971 356" fill="none" xmlns="http://www.w3.org/2000/svg">
<path d="M934.402 62.2H525.102V74.2H934.402C947.602 74.2 958.402 85 958.402 98.2V258.4C958.402 271.6 947.602 282.4 934.402 282.4H910.202L919.502 273.1H906.502L891.202 288.4L906.502 303.7H919.502L910.202 294.4H934.402C954.302 294.4 970.402 278.3 970.402 258.4V98.2C970.402 78.3 954.302 62.2 934.402 62.2ZM479.102 83.3999H492.102L507.402 68.0999L492.102 52.7999H479.102L488.402 62.0999H42.1016V74.0999H488.302L479.102 83.3999ZM411.402 273.1H398.402L383.102 288.4L398.402 303.7H411.402L402.102 294.4H522.502V282.4H402.202L411.402 273.1Z" fill="url(#paint0_linear_772_3)"/>
<path d="M18.6016 0.699951H355.602C365.502 0.699951 373.602 8.79995 373.602 18.7V117.7C373.602 127.6 365.502 135.7 355.602 135.7H18.6016C8.70156 135.7 0.601562 127.6 0.601562 117.7V18.7C0.601562 8.69995 8.70156 0.699951 18.6016 0.699951Z" fill="#F2F2F2"/>
<path fill-rule="evenodd" clip-rule="evenodd" d="M322.901 35.2C324.901 33.9 327.201 33.2 329.601 33.2C332.801 33.2 335.801 34.5 338.101 36.7C340.301 38.9 341.601 42 341.601 45.2C341.601 47.6 340.901 49.8999 339.601 51.8999C338.301 53.8999 336.401 55.3999 334.201 56.2999C332.001 57.1999 329.601 57.3999 327.301 56.9999C325.001 56.4999 322.801 55.4 321.201 53.7C319.501 52 318.401 49.8999 317.901 47.5999C317.401 45.2999 317.701 42.9 318.601 40.7C319.401 38.4 321.001 36.6 322.901 35.2ZM327.801 49.7999L335.601 41.9999L334.201 40.5999L327.801 46.9999L324.901 44.0999L323.501 45.4999L327.801 49.7999Z" fill="#333333"/>
<path d="M34 58.9L39.4 43.6H42.8L48.2 58.9H45.2L43.9 55.1H38.2L36.9 58.9H34ZM43.2 52.9L41.1 46.7H41L38.9 52.9H43.2Z" fill="#171717"/>
<path d="M49.1992 53.2C49.1992 49.7 51.2992 47.2999 54.6992 47.2999C57.4992 47.2999 59.3992 48.8999 59.5992 51.3999H56.9992C56.7992 50.2999 55.9992 49.4999 54.6992 49.4999C52.9992 49.4999 51.8992 50.9 51.8992 53.2C51.8992 55.5 52.9992 56.9999 54.6992 56.9999C55.8992 56.9999 56.7992 56.2999 56.9992 55.0999H59.5992C59.3992 57.4999 57.5992 59.2 54.6992 59.2C51.2992 59.1 49.1992 56.7 49.1992 53.2Z" fill="#171717"/>
<path d="M61.3008 55.7C61.3008 53.1 63.4008 52.5 65.7008 52.2C67.7008 52 68.5008 51.9 68.5008 51.2C68.5008 50.1 67.8008 49.3999 66.6008 49.3999C65.3008 49.3999 64.5008 50.0999 64.3008 50.8999L61.8008 50.4999C62.4008 48.3999 64.2008 47.2999 66.7008 47.2999C68.9008 47.2999 71.4008 48.2 71.4008 51.2V58.8999H68.8008V57.2999H68.7008C68.2008 58.2999 67.1008 59.0999 65.3008 59.0999C62.9008 59.1999 61.3008 58 61.3008 55.7ZM68.5008 54.7999V53.3999C68.1008 53.6999 66.7008 53.8999 66.0008 53.9999C64.8008 54.1999 63.9008 54.5999 63.9008 55.5999C63.9008 56.5999 64.7008 57.0999 65.8008 57.0999C67.5008 57.1999 68.5008 56.0999 68.5008 54.7999Z" fill="#171717"/>
<path d="M73.3984 53.2C73.3984 49.4 75.4984 47.3 78.0984 47.3C80.0984 47.3 80.9984 48.5 81.3984 49.3H81.4984V43.6H84.1985V58.9H81.4984V57.1H81.2984C80.8984 57.9 79.9984 59.1 77.9984 59.1C75.3984 59.1 73.3984 57 73.3984 53.2ZM81.5984 53.2C81.5984 51 80.5984 49.5 78.8984 49.5C77.0984 49.5 76.1985 51 76.1985 53.2C76.1985 55.3 77.0984 56.9 78.8984 56.9C80.5984 56.9 81.5984 55.4 81.5984 53.2Z" fill="#171717"/>
<path d="M86.6016 53.2999C86.6016 49.7999 88.7016 47.3999 92.0016 47.3999C94.8016 47.3999 97.2016 49.1999 97.2016 53.1999V53.9999H89.2016C89.2016 55.9999 90.4016 57.0999 92.1016 57.0999C93.3016 57.0999 94.2016 56.5999 94.5016 55.5999L97.0016 55.8999C96.5016 57.8999 94.7016 59.1999 92.0016 59.1999C88.8016 59.0999 86.6016 56.8999 86.6016 53.2999ZM94.7016 52.0999C94.7016 50.4999 93.6016 49.3999 92.1016 49.3999C90.5016 49.3999 89.4015 50.5999 89.3015 52.0999H94.7016Z" fill="#171717"/>
<path d="M99.6016 47.4999H102.202V49.3999H102.302C102.802 48.0999 103.902 47.2999 105.502 47.2999C107.002 47.2999 108.202 48.0999 108.602 49.3999H108.702C109.202 48.0999 110.502 47.2999 112.102 47.2999C114.202 47.2999 115.702 48.7 115.702 51.2V58.8999H113.002V51.5999C113.002 50.1999 112.102 49.4999 111.002 49.4999C109.702 49.4999 108.902 50.4 108.902 51.7V58.7999H106.302V51.3999C106.302 50.1999 105.502 49.4999 104.402 49.4999C103.202 49.4999 102.302 50.4999 102.302 51.8999V58.8999H99.6016V47.4999Z" fill="#171717"/>
<path d="M117.9 62.8999L118.5 60.7999C119.7 61.0999 120.5 61.0999 121 59.6999L121.2 59.0999L117 47.3999H119.9L122.5 56.0999H122.6L125.2 47.3999H128.1L123.5 60.1999C122.9 61.9999 121.6 63.0999 119.5 63.0999C119 63.1999 118.3 63.0999 117.9 62.8999Z" fill="#171717"/>
<path d="M141.901 50.7999C141.701 49.9999 141.001 49.3999 139.801 49.3999C138.701 49.3999 137.801 49.8999 137.801 50.6999C137.801 51.3999 138.301 51.7999 139.401 51.9999L141.401 52.3999C143.601 52.8999 144.601 53.8999 144.601 55.4999C144.601 57.6999 142.601 59.1999 139.701 59.1999C136.901 59.1999 135.101 57.9999 134.801 55.8999L137.401 55.5999C137.601 56.5999 138.401 57.1999 139.701 57.1999C141.001 57.1999 141.801 56.5999 141.801 55.7999C141.801 55.1999 141.301 54.6999 140.301 54.4999L138.301 54.0999C136.101 53.5999 135.101 52.4999 135.101 50.8999C135.101 48.7999 137.001 47.3999 139.701 47.3999C142.401 47.3999 143.901 48.5999 144.301 50.5999L141.901 50.7999Z" fill="#171717"/>
<path d="M152.6 49.5999H150.3V55.4999C150.3 56.5999 150.8 56.7999 151.5 56.7999C151.8 56.7999 152.1 56.7 152.3 56.7L152.8 58.7999C152.5 58.8999 152 58.9999 151.2 59.0999C149.2 59.1999 147.6 58.0999 147.6 55.8999V49.4999H146V47.3999H147.6V44.7H150.3V47.3999H152.6V49.5999Z" fill="#171717"/>
<path d="M154.301 55.7C154.301 53.1 156.401 52.5 158.701 52.2C160.701 52 161.501 51.9 161.501 51.2C161.501 50.1 160.801 49.3999 159.601 49.3999C158.301 49.3999 157.501 50.0999 157.301 50.8999L154.801 50.4999C155.401 48.3999 157.201 47.2999 159.701 47.2999C161.901 47.2999 164.401 48.2 164.401 51.2V58.8999H161.801V57.2999H161.701C161.201 58.2999 160.101 59.0999 158.301 59.0999C155.901 59.1999 154.301 58 154.301 55.7ZM161.501 54.7999V53.3999C161.101 53.6999 159.701 53.8999 159.001 53.9999C157.801 54.1999 156.901 54.5999 156.901 55.5999C156.901 56.5999 157.701 57.0999 158.801 57.0999C160.501 57.1999 161.501 56.0999 161.501 54.7999Z" fill="#171717"/>
<path d="M166.901 47.4999H169.501V49.3999H169.601C170.001 48.0999 171.101 47.2999 172.401 47.2999C172.701 47.2999 173.101 47.2999 173.401 47.3999V49.8999C173.201 49.7999 172.601 49.7 172.101 49.7C170.601 49.7 169.501 50.7 169.501 52.2V58.8999H166.801V47.4999H166.901Z" fill="#171717"/>
<path d="M181.6 49.5999H179.3V55.4999C179.3 56.5999 179.8 56.7999 180.5 56.7999C180.8 56.7999 181.1 56.7 181.3 56.7L181.8 58.7999C181.5 58.8999 181 58.9999 180.2 59.0999C178.2 59.1999 176.6 58.0999 176.6 55.8999V49.4999H175V47.3999H176.6V44.7H179.3V47.3999H181.6V49.5999Z" fill="#171717"/>
<path d="M36.6 80.6L40.6 90.2H40.7L44.7 80.6H46.4V92.2H45V83.4H44.9L41.3 92.2H40L36.4 83.4H36.3V92.2H35V80.6H36.6Z" fill="#808080"/>
<path d="M48.5 89.7001C48.5 87.7001 50.3 87.3001 51.9 87.1001C53.5 86.9001 54.1 87 54.1 86.3C54.1 85.2 53.5 84.5001 52.3 84.5001C51 84.5001 50.3 85.2 50 85.8L48.7 85.3C49.4 83.7 50.9 83.3 52.2 83.3C53.3 83.3 55.4 83.6001 55.4 86.4001V92.1001H54.1V91.0001H54C53.7 91.6001 52.9 92.4001 51.4 92.4001C49.8 92.4001 48.5 91.4001 48.5 89.7001ZM54.2 89.1001V87.9001C54 88.2001 52.5 88.3001 51.9 88.4001C50.9 88.5001 49.9 88.9001 49.9 89.9001C49.9 90.8001 50.7 91.3 51.7 91.3C53.3 91.2 54.2 90.1001 54.2 89.1001Z" fill="#808080"/>
<path d="M57.4984 95.3L57.7984 94.1C58.7984 94.3 59.3984 94.2 59.8984 92.9L60.0984 92.2L56.8984 83.4H58.3984L60.7984 90.3H60.8984L63.2984 83.4H64.7984L61.0984 93.4C60.5984 94.8 59.6984 95.4 58.4984 95.4C57.9984 95.5 57.6984 95.4 57.4984 95.3Z" fill="#808080"/>
<path d="M75.1008 92.2H73.7008V82.0999H73.6008L70.8008 83.9999V82.5999L73.7008 80.7H75.1008V92.2Z" fill="#808080"/>
<path d="M78.5 91.2L82.3 87C83.6 85.5 84.3 84.7 84.3 83.7C84.3 82.5 83.3 81.7 82.1 81.7C80.8 81.7 79.9 82.6 79.9 83.9H78.6C78.6 81.9 80.1 80.5 82.2 80.5C84.2 80.5 85.7 81.9 85.7 83.7C85.7 85 85.1 86 83.1 88.1L80.5 90.9V91H85.9V92.2H78.6V91.2H78.5Z" fill="#808080"/>
<path d="M91.8984 84.6H89.9984V89.7C89.9984 90.8 90.5985 91 91.1985 91C91.4985 91 91.6984 91 91.7984 90.9L92.0984 92.1C91.8984 92.2 91.5984 92.3 91.0984 92.3C89.9984 92.3 88.6985 91.6 88.6985 90.1V84.7H87.3984V83.6H88.6985V81.5H89.9984V83.6H91.8984V84.6Z" fill="#808080"/>
<path d="M95.4992 92.2H94.1992V80.6H95.4992V84.9H95.5992C95.9992 84 96.7992 83.4 98.1992 83.4C99.9992 83.4 101.199 84.4 101.199 86.7V92.2H99.8992V86.8C99.8992 85.4 99.0992 84.6 97.8992 84.6C96.5992 84.6 95.5992 85.5 95.5992 87V92.2H95.4992Z" fill="#808080"/>
<path d="M528.602 0.699951H865.602C875.502 0.699951 883.602 8.79995 883.602 18.7V117.7C883.602 127.6 875.502 135.7 865.602 135.7H528.602C518.702 135.7 510.602 127.6 510.602 117.7V18.7C510.602 8.69995 518.702 0.699951 528.602 0.699951Z" fill="#F2F2F2"/>
<path d="M846.602 56.2C852.677 56.2 857.602 51.2751 857.602 45.2C857.602 39.1248 852.677 34.2 846.602 34.2C840.526 34.2 835.602 39.1248 835.602 45.2C835.602 51.2751 840.526 56.2 846.602 56.2Z" stroke="#B3B3B3" stroke-miterlimit="10"/>
<path d="M846.601 53.4999C851.185 53.4999 854.901 49.7839 854.901 45.1999C854.901 40.616 851.185 36.8999 846.601 36.8999C842.017 36.8999 838.301 40.616 838.301 45.1999C838.301 49.7839 842.017 53.4999 846.601 53.4999Z" stroke="#B3B3B3" stroke-width="0.75" stroke-miterlimit="10"/>
<path d="M528.602 220.9H865.602C875.502 220.9 883.602 229 883.602 238.9V337.9C883.602 347.8 875.502 355.9 865.602 355.9H528.602C518.702 355.9 510.602 347.8 510.602 337.9V238.9C510.602 228.9 518.702 220.9 528.602 220.9Z" fill="#F2F2F2"/>
<path d="M846.602 276.4C852.677 276.4 857.602 271.475 857.602 265.4C857.602 259.325 852.677 254.4 846.602 254.4C840.526 254.4 835.602 259.325 835.602 265.4C835.602 271.475 840.526 276.4 846.602 276.4Z" stroke="#B3B3B3" stroke-miterlimit="10"/>
<path d="M846.601 273.7C851.185 273.7 854.901 269.984 854.901 265.4C854.901 260.816 851.185 257.1 846.601 257.1C842.017 257.1 838.301 260.816 838.301 265.4C838.301 269.984 842.017 273.7 846.601 273.7Z" stroke="#B3B3B3" stroke-width="0.75" stroke-miterlimit="10"/>
<path d="M18.6016 220.9H355.602C365.502 220.9 373.602 229 373.602 238.9V337.9C373.602 347.8 365.502 355.9 355.602 355.9H18.6016C8.70156 355.9 0.601562 347.8 0.601562 337.9V238.9C0.601562 228.9 8.70156 220.9 18.6016 220.9Z" fill="#F2F2F2"/>
<path d="M329.602 276.4C335.677 276.4 340.602 271.475 340.602 265.4C340.602 259.325 335.677 254.4 329.602 254.4C323.526 254.4 318.602 259.325 318.602 265.4C318.602 271.475 323.526 276.4 329.602 276.4Z" stroke="#B3B3B3" stroke-miterlimit="10"/>
<path d="M329.601 273.7C334.185 273.7 337.901 269.984 337.901 265.4C337.901 260.816 334.185 257.1 329.601 257.1C325.017 257.1 321.301 260.816 321.301 265.4C321.301 269.984 325.017 273.7 329.601 273.7Z" stroke="#B3B3B3" stroke-width="0.75" stroke-miterlimit="10"/>
<path d="M35.0039 265.8H40.7039C44.2039 265.8 46.1039 267.8 46.1039 270.7C46.1039 272.8 45.2039 274.3 43.4039 275L46.7039 281.1H43.6039L40.6039 275.5H37.8039V281.1H35.0039V265.8ZM40.3039 273.2C42.4039 273.2 43.3039 272.3 43.3039 270.7C43.3039 269.1 42.4039 268.1 40.3039 268.1H37.8039V273.2H40.3039Z" fill="#171717"/>
<path d="M47.9023 275.5C47.9023 272 50.0023 269.6 53.3023 269.6C56.1023 269.6 58.5023 271.4 58.5023 275.4V276.2H50.5023C50.5023 278.2 51.7023 279.3 53.4023 279.3C54.6023 279.3 55.5023 278.8 55.8023 277.8L58.3023 278.1C57.8023 280.1 56.0023 281.4 53.3023 281.4C50.0023 281.3 47.9023 279 47.9023 275.5ZM55.9023 274.3C55.9023 272.7 54.8023 271.6 53.3023 271.6C51.7023 271.6 50.6023 272.8 50.5023 274.3H55.9023Z" fill="#171717"/>
<path d="M67.4047 273C67.2047 272.2 66.5047 271.6 65.3047 271.6C64.2047 271.6 63.3047 272.1 63.3047 272.9C63.3047 273.6 63.8047 274 64.9047 274.2L66.9047 274.6C69.1047 275.1 70.1047 276.1 70.1047 277.7C70.1047 279.9 68.1047 281.4 65.2047 281.4C62.4047 281.4 60.6047 280.2 60.3047 278.1L62.9047 277.8C63.1047 278.8 63.9047 279.4 65.2047 279.4C66.5047 279.4 67.3047 278.8 67.3047 278C67.3047 277.4 66.8047 276.9 65.8047 276.7L63.8047 276.3C61.6047 275.8 60.6047 274.7 60.6047 273.1C60.6047 271 62.5047 269.6 65.2047 269.6C67.9047 269.6 69.4047 270.8 69.8047 272.8L67.4047 273Z" fill="#171717"/>
<path d="M79.6024 269.7H82.3023V281.2H79.7024V279.2H79.6024C79.1024 280.5 77.9024 281.4 76.2024 281.4C73.9024 281.4 72.4023 279.8 72.4023 277.1V269.8H75.1024V276.7C75.1024 278.2 76.0023 279.1 77.3023 279.1C78.5023 279.1 79.7024 278.2 79.7024 276.5V269.7H79.6024Z" fill="#171717"/>
<path d="M87.8055 281.1H85.1055V265.8H87.8055V281.1Z" fill="#171717"/>
<path d="M96.3031 271.7H94.0031V277.6C94.0031 278.7 94.5031 278.9 95.2031 278.9C95.5031 278.9 95.8031 278.8 96.0031 278.8L96.5031 280.9C96.2031 281 95.7031 281.1 94.9031 281.2C92.9031 281.3 91.3031 280.2 91.3031 278V271.6H89.7031V269.5H91.3031V266.8H94.0031V269.5H96.3031V271.7Z" fill="#171717"/>
<path d="M105.002 273C104.802 272.2 104.102 271.6 102.902 271.6C101.802 271.6 100.902 272.1 100.902 272.9C100.902 273.6 101.402 274 102.502 274.2L104.502 274.6C106.702 275.1 107.702 276.1 107.702 277.7C107.702 279.9 105.702 281.4 102.802 281.4C100.002 281.4 98.2023 280.2 97.9023 278.1L100.502 277.8C100.702 278.8 101.502 279.4 102.802 279.4C104.102 279.4 104.902 278.8 104.902 278C104.902 277.4 104.402 276.9 103.402 276.7L101.402 276.3C99.2023 275.8 98.2024 274.7 98.2024 273.1C98.2024 271 100.102 269.6 102.802 269.6C105.502 269.6 107.002 270.8 107.402 272.8L105.002 273Z" fill="#171717"/>
<path d="M114.605 277.9C114.605 275.3 116.705 274.7 119.005 274.4C121.005 274.2 121.805 274.1 121.805 273.4C121.805 272.3 121.105 271.6 119.905 271.6C118.605 271.6 117.805 272.3 117.605 273.1L115.105 272.7C115.705 270.6 117.505 269.5 120.005 269.5C122.205 269.5 124.705 270.4 124.705 273.4V281.1H122.105V279.5H122.005C121.505 280.5 120.405 281.3 118.605 281.3C116.205 281.3 114.605 280.2 114.605 277.9ZM121.805 277V275.6C121.405 275.9 120.005 276.1 119.305 276.2C118.105 276.4 117.205 276.8 117.205 277.8C117.205 278.8 118.005 279.3 119.105 279.3C120.805 279.4 121.805 278.3 121.805 277Z" fill="#171717"/>
<path d="M132.905 281.1H129.905L125.805 269.6H128.705L131.305 278.1H131.405L134.005 269.6H136.905L132.905 281.1Z" fill="#171717"/>
<path d="M138.004 277.9C138.004 275.3 140.104 274.7 142.404 274.4C144.404 274.2 145.204 274.1 145.204 273.4C145.204 272.3 144.504 271.6 143.304 271.6C142.004 271.6 141.204 272.3 141.004 273.1L138.504 272.7C139.104 270.6 140.904 269.5 143.404 269.5C145.604 269.5 148.104 270.4 148.104 273.4V281.1H145.504V279.5H145.404C144.904 280.5 143.804 281.3 142.004 281.3C139.704 281.3 138.004 280.2 138.004 277.9ZM145.204 277V275.6C144.804 275.9 143.404 276.1 142.704 276.2C141.504 276.4 140.604 276.8 140.604 277.8C140.604 278.8 141.404 279.3 142.504 279.3C144.204 279.4 145.204 278.3 145.204 277Z" fill="#171717"/>
<path d="M150.402 266.6C150.402 265.8 151.102 265.1 152.002 265.1C152.902 265.1 153.602 265.8 153.602 266.6C153.602 267.4 152.902 268.1 152.002 268.1C151.102 268 150.402 267.4 150.402 266.6ZM150.602 269.7H153.302V281.2H150.602V269.7Z" fill="#171717"/>
<path d="M158.805 281.1H156.105V265.8H158.805V281.1Z" fill="#171717"/>
<path d="M161.004 277.9C161.004 275.3 163.104 274.7 165.404 274.4C167.404 274.2 168.204 274.1 168.204 273.4C168.204 272.3 167.504 271.6 166.304 271.6C165.004 271.6 164.204 272.3 164.004 273.1L161.504 272.7C162.104 270.6 163.904 269.5 166.404 269.5C168.604 269.5 171.104 270.4 171.104 273.4V281.1H168.504V279.5H168.404C167.904 280.5 166.804 281.3 165.004 281.3C162.704 281.3 161.004 280.2 161.004 277.9ZM168.204 277V275.6C167.804 275.9 166.404 276.1 165.704 276.2C164.504 276.4 163.604 276.8 163.604 277.8C163.604 278.8 164.404 279.3 165.504 279.3C167.204 279.4 168.204 278.3 168.204 277Z" fill="#171717"/>
<path d="M173.705 265.8H176.405V271.5H176.505C176.905 270.7 177.805 269.5 179.805 269.5C182.405 269.5 184.505 271.6 184.505 275.4C184.505 279.2 182.505 281.3 179.805 281.3C177.805 281.3 176.905 280.1 176.505 279.3H176.305V281.1H173.605V265.8H173.705ZM179.105 279.1C180.905 279.1 181.805 277.5 181.805 275.4C181.805 273.3 180.905 271.7 179.105 271.7C177.405 271.7 176.405 273.1 176.405 275.4C176.405 277.7 177.405 279.1 179.105 279.1Z" fill="#171717"/>
<path d="M189.602 281.1H186.902V265.8H189.602V281.1Z" fill="#171717"/>
<path d="M191.805 275.5C191.805 272 193.905 269.6 197.205 269.6C200.005 269.6 202.405 271.4 202.405 275.4V276.2H194.405C194.405 278.2 195.605 279.3 197.305 279.3C198.505 279.3 199.405 278.8 199.705 277.8L202.205 278.1C201.705 280.1 199.905 281.4 197.205 281.4C193.905 281.3 191.805 279 191.805 275.5ZM199.905 274.3C199.905 272.7 198.805 271.6 197.305 271.6C195.705 271.6 194.605 272.8 194.505 274.3H199.905Z" fill="#171717"/>
<path d="M33.9023 314.4L38.2024 302.8H39.7024L44.0023 314.4H42.5023L41.3023 311.1H36.6024L35.4023 314.4H33.9023ZM40.8023 309.9L38.9023 304.7H38.8023L36.9023 309.9H40.8023Z" fill="#808080"/>
<path d="M51.0039 305.7H52.3039V314.4H51.0039V312.9H50.9039C50.5039 313.8 49.6039 314.5 48.3039 314.5C46.7039 314.5 45.5039 313.4 45.5039 311.2V305.7H46.8039V311.1C46.8039 312.4 47.6039 313.2 48.7039 313.2C49.7039 313.2 50.9039 312.5 50.9039 310.8V305.7H51.0039Z" fill="#808080"/>
<path d="M54.8039 316.1L55.9039 315.3C56.3039 315.8 56.8039 316.6 58.4039 316.6C59.8039 316.6 60.8039 315.9 60.8039 314.5V312.7H60.7039C60.4039 313.2 59.9039 314.2 58.2039 314.2C56.1039 314.2 54.5039 312.7 54.5039 309.9C54.5039 307.2 56.0039 305.5 58.2039 305.5C59.9039 305.5 60.4039 306.5 60.7039 307H60.8039V305.6H62.1039V314.6C62.1039 316.8 60.4039 317.8 58.3039 317.8C56.4039 317.9 55.3039 317 54.8039 316.1ZM60.8039 310C60.8039 308.1 59.9039 306.8 58.3039 306.8C56.6039 306.8 55.8039 308.2 55.8039 310C55.8039 311.8 56.7039 313.1 58.3039 313.1C59.9039 313.1 60.8039 311.9 60.8039 310Z" fill="#808080"/>
<path d="M70.1016 305.7H71.4016V314.4H70.1016V312.9H70.0016C69.6016 313.8 68.7016 314.5 67.4016 314.5C65.8016 314.5 64.6016 313.4 64.6016 311.2V305.7H65.9016V311.1C65.9016 312.4 66.7015 313.2 67.8015 313.2C68.8015 313.2 70.0016 312.5 70.0016 310.8V305.7H70.1016Z" fill="#808080"/>
<path d="M78.8023 308C78.6023 307.4 78.1023 306.8 76.9023 306.8C75.8023 306.8 75.0023 307.3 75.0023 308.1C75.0023 308.8 75.5023 309.1 76.5023 309.4L77.8023 309.7C79.4023 310.1 80.1024 310.8 80.1024 312.1C80.1024 313.6 78.7024 314.7 76.7024 314.7C74.9024 314.7 73.7023 313.9 73.4023 312.4L74.7024 312.1C74.9024 313 75.6024 313.5 76.7024 313.5C77.9024 313.5 78.7024 312.9 78.7024 312.1C78.7024 311.5 78.3023 311.1 77.4023 310.9L75.9023 310.6C74.3023 310.2 73.6024 309.4 73.6024 308.2C73.6024 306.7 75.0023 305.7 76.8023 305.7C78.5023 305.7 79.5023 306.5 79.9023 307.8L78.8023 308Z" fill="#808080"/>
<path d="M86.0039 306.8H84.1039V311.9C84.1039 313 84.7039 313.2 85.3039 313.2C85.6039 313.2 85.8039 313.2 85.9039 313.1L86.2039 314.3C86.0039 314.4 85.7039 314.5 85.2039 314.5C84.1039 314.5 82.8039 313.8 82.8039 312.3V306.9H81.5039V305.8H82.8039V303.7H84.1039V305.8H86.0039V306.8Z" fill="#808080"/>
<path d="M92.5039 311.5H93.9039C94.0039 312.6 95.1039 313.3 96.4039 313.3C97.9039 313.3 99.0039 312.5 99.0039 311.2C99.0039 309.9 98.0039 309 96.3039 309H95.4039V307.8H96.3039C97.7039 307.8 98.6039 307 98.6039 305.8C98.6039 304.6 97.8039 303.8 96.5039 303.8C95.3039 303.8 94.2039 304.5 94.1039 305.6H92.7039C92.8039 303.8 94.4039 302.5 96.4039 302.5C98.6039 302.5 99.9039 304 99.9039 305.6C99.9039 306.9 99.2039 307.9 98.0039 308.2V308.3C99.5039 308.5 100.304 309.6 100.304 311.1C100.304 313 98.6039 314.4 96.4039 314.4C94.2039 314.6 92.6039 313.3 92.5039 311.5Z" fill="#808080"/>
<path d="M102.703 305.7H104.003V307H104.103C104.403 306.1 105.303 305.5 106.403 305.5C106.603 305.5 107.003 305.5 107.103 305.5V306.9C107.003 306.9 106.603 306.8 106.303 306.8C105.003 306.8 104.103 307.7 104.103 308.8V314.3H102.803V305.7H102.703Z" fill="#808080"/>
<path d="M108.004 310.1C108.004 307.4 109.504 305.6 111.704 305.6C113.404 305.6 113.904 306.6 114.204 307.1H114.304V302.8H115.604V314.4H114.304V313.1H114.104C113.804 313.6 113.204 314.6 111.604 314.6C109.504 314.6 108.004 312.8 108.004 310.1ZM114.404 310C114.404 308 113.504 306.7 111.904 306.7C110.204 306.7 109.404 308.1 109.404 310C109.404 311.9 110.304 313.3 111.904 313.3C113.504 313.4 114.404 312 114.404 310Z" fill="#808080"/>
<path d="M545.004 45.8998V30.5999H550.304C554.904 30.5999 557.604 33.4999 557.604 38.1999C557.604 42.9999 554.804 45.8998 550.204 45.8998H545.004ZM550.004 43.4998C553.204 43.4998 554.804 41.7999 554.804 38.1999C554.804 34.6999 553.204 32.9998 550.104 32.9998H547.704V43.4998H550.004Z" fill="#171717"/>
<path d="M559.602 40.2999C559.602 36.7999 561.702 34.3999 565.002 34.3999C567.802 34.3999 570.202 36.1999 570.202 40.1999V40.9999H562.202C562.202 42.9999 563.402 44.0999 565.102 44.0999C566.302 44.0999 567.202 43.5999 567.502 42.5999L570.002 42.8999C569.502 44.8999 567.702 46.1999 565.002 46.1999C561.702 46.0999 559.602 43.8999 559.602 40.2999ZM567.702 39.0999C567.702 37.4999 566.602 36.3999 565.102 36.3999C563.502 36.3999 562.402 37.5999 562.302 39.0999H567.702Z" fill="#171717"/>
<path d="M572.004 42.7C572.004 40.1 574.104 39.5 576.404 39.2C578.404 39 579.204 38.9 579.204 38.2C579.204 37.1 578.504 36.3999 577.304 36.3999C576.004 36.3999 575.204 37.0999 575.004 37.8999L572.504 37.4999C573.104 35.3999 574.904 34.2999 577.404 34.2999C579.604 34.2999 582.104 35.2 582.104 38.2V45.8999H579.504V44.2999H579.404C578.904 45.2999 577.804 46.0999 576.004 46.0999C573.604 46.1999 572.004 45 572.004 42.7ZM579.204 41.7999V40.3999C578.804 40.6999 577.404 40.8999 576.704 40.9999C575.504 41.1999 574.604 41.5999 574.604 42.5999C574.604 43.5999 575.404 44.0999 576.504 44.0999C578.104 44.1999 579.204 43.0999 579.204 41.7999Z" fill="#171717"/>
<path d="M584.102 40.1999C584.102 36.3999 586.202 34.2998 588.802 34.2998C590.802 34.2998 591.702 35.4998 592.102 36.2998H592.202V30.5999H594.902V45.8998H592.202V44.0999H592.002C591.602 44.8999 590.702 46.0999 588.702 46.0999C586.102 46.0999 584.102 43.9999 584.102 40.1999ZM592.302 40.1999C592.302 37.9999 591.302 36.4998 589.602 36.4998C587.802 36.4998 586.902 37.9999 586.902 40.1999C586.902 42.2999 587.802 43.8998 589.602 43.8998C591.302 43.8998 592.302 42.3999 592.302 40.1999Z" fill="#171717"/>
<path d="M600.501 45.8998H597.801V30.5999H600.501V45.8998Z" fill="#171717"/>
<path d="M603.102 31.3999C603.102 30.5999 603.802 29.8999 604.702 29.8999C605.602 29.8999 606.302 30.5999 606.302 31.3999C606.302 32.1999 605.602 32.8999 604.702 32.8999C603.802 32.7999 603.102 32.1999 603.102 31.3999ZM603.302 34.4999H606.002V45.9999H603.302V34.4999Z" fill="#171717"/>
<path d="M611.501 45.8999H608.801V34.3999H611.401V36.2999H611.501C612.001 34.9999 613.201 34.2 614.901 34.2C617.301 34.2 618.801 35.7999 618.801 38.4999V45.7999H616.101V38.9999C616.101 37.4999 615.301 36.5999 613.901 36.5999C612.501 36.5999 611.501 37.6 611.501 39.2V45.8999Z" fill="#171717"/>
<path d="M621.102 40.2999C621.102 36.7999 623.202 34.3999 626.502 34.3999C629.302 34.3999 631.702 36.1999 631.702 40.1999V40.9999H623.702C623.702 42.9999 624.902 44.0999 626.602 44.0999C627.802 44.0999 628.702 43.5999 629.002 42.5999L631.502 42.8999C631.002 44.8999 629.202 46.1999 626.502 46.1999C623.202 46.0999 621.102 43.8999 621.102 40.2999ZM629.202 39.0999C629.202 37.4999 628.102 36.3999 626.602 36.3999C625.002 36.3999 623.902 37.5999 623.802 39.0999H629.202Z" fill="#171717"/>
<path d="M638.703 40.2C638.703 36.6 640.803 34.2999 644.203 34.2999C647.603 34.2999 649.703 36.7 649.703 40.2C649.703 43.7 647.603 46.0999 644.203 46.0999C640.903 46.0999 638.703 43.8 638.703 40.2ZM647.003 40.2C647.003 38.1 646.103 36.3999 644.303 36.3999C642.403 36.3999 641.503 38.1 641.503 40.2C641.503 42.3 642.403 43.9999 644.303 43.9999C646.103 43.9999 647.003 42.3 647.003 40.2Z" fill="#171717"/>
<path d="M657.804 36.5999H655.404V45.9999H652.704V36.5999H651.004V34.4999H652.704V33.3999C652.704 31.0999 654.304 29.8999 656.304 29.8999C657.204 29.8999 658.004 30.0999 658.404 30.1999L657.904 32.2999C657.704 32.1999 657.304 32.0999 656.904 32.0999C655.904 32.0999 655.504 32.5999 655.504 33.4999V34.3999H657.904V36.5999H657.804Z" fill="#171717"/>
<path d="M665.102 34.4999H667.702V36.3999H667.802C668.302 35.0999 669.402 34.2999 671.002 34.2999C672.502 34.2999 673.702 35.0999 674.102 36.3999H674.202C674.702 35.0999 676.002 34.2999 677.602 34.2999C679.702 34.2999 681.202 35.7 681.202 38.2V45.8999H678.502V38.5999C678.502 37.1999 677.602 36.4999 676.502 36.4999C675.202 36.4999 674.402 37.4 674.402 38.7V45.7999H671.802V38.3999C671.802 37.1999 671.002 36.4999 669.902 36.4999C668.702 36.4999 667.802 37.4999 667.802 38.8999V45.8999H665.102V34.4999Z" fill="#171717"/>
<path d="M683.402 42.7C683.402 40.1 685.502 39.5 687.802 39.2C689.802 39 690.602 38.9 690.602 38.2C690.602 37.1 689.902 36.3999 688.702 36.3999C687.402 36.3999 686.602 37.0999 686.402 37.8999L683.902 37.4999C684.502 35.3999 686.302 34.2999 688.802 34.2999C691.002 34.2999 693.502 35.2 693.502 38.2V45.8999H690.902V44.2999H690.802C690.302 45.2999 689.202 46.0999 687.402 46.0999C685.102 46.1999 683.402 45 683.402 42.7ZM690.602 41.7999V40.3999C690.202 40.6999 688.802 40.8999 688.102 40.9999C686.902 41.1999 686.002 41.5999 686.002 42.5999C686.002 43.5999 686.802 44.0999 687.902 44.0999C689.602 44.1999 690.602 43.0999 690.602 41.7999Z" fill="#171717"/>
<path d="M698.802 45.8999H696.102V34.3999H698.702V36.2999H698.802C699.302 34.9999 700.502 34.2 702.202 34.2C704.602 34.2 706.102 35.7999 706.102 38.4999V45.7999H703.402V38.9999C703.402 37.4999 702.602 36.5999 701.202 36.5999C699.802 36.5999 698.802 37.6 698.802 39.2V45.8999Z" fill="#171717"/>
<path d="M708.402 40.1999C708.402 36.3999 710.502 34.2998 713.102 34.2998C715.102 34.2998 716.002 35.4998 716.402 36.2998H716.502V30.5999H719.202V45.8998H716.502V44.0999H716.302C715.902 44.8999 715.002 46.0999 713.002 46.0999C710.402 46.0999 708.402 43.9999 708.402 40.1999ZM716.602 40.1999C716.602 37.9999 715.602 36.4998 713.902 36.4998C712.102 36.4998 711.202 37.9999 711.202 40.1999C711.202 42.2999 712.102 43.8998 713.902 43.8998C715.602 43.8998 716.602 42.3999 716.602 40.1999Z" fill="#171717"/>
<path d="M721.602 42.7C721.602 40.1 723.702 39.5 726.002 39.2C728.002 39 728.802 38.9 728.802 38.2C728.802 37.1 728.102 36.3999 726.902 36.3999C725.602 36.3999 724.802 37.0999 724.602 37.8999L722.102 37.4999C722.702 35.3999 724.502 34.2999 727.002 34.2999C729.202 34.2999 731.702 35.2 731.702 38.2V45.8999H729.102V44.2999H729.002C728.502 45.2999 727.402 46.0999 725.602 46.0999C723.202 46.1999 721.602 45 721.602 42.7ZM728.702 41.7999V40.3999C728.302 40.6999 726.902 40.8999 726.202 40.9999C725.002 41.1999 724.102 41.5999 724.102 42.5999C724.102 43.5999 724.902 44.0999 726.002 44.0999C727.702 44.1999 728.702 43.0999 728.702 41.7999Z" fill="#171717"/>
<path d="M739.901 36.5999H737.601V42.4999C737.601 43.5999 738.101 43.7999 738.801 43.7999C739.101 43.7999 739.401 43.7 739.601 43.7L740.101 45.7999C739.801 45.8999 739.301 45.9999 738.501 46.0999C736.501 46.1999 734.901 45.0999 734.901 42.8999V36.4999H733.301V34.3999H734.901V31.7H737.601V34.3999H739.901V36.5999Z" fill="#171717"/>
<path d="M741.504 40.2C741.504 36.6 743.604 34.2999 747.004 34.2999C750.404 34.2999 752.504 36.7 752.504 40.2C752.504 43.7 750.404 46.0999 747.004 46.0999C743.704 46.0999 741.504 43.8 741.504 40.2ZM749.804 40.2C749.804 38.1 748.904 36.3999 747.104 36.3999C745.204 36.3999 744.304 38.1 744.304 40.2C744.304 42.3 745.204 43.9999 747.104 43.9999C748.904 43.9999 749.804 42.3 749.804 40.2Z" fill="#171717"/>
<path d="M754.803 34.4999H757.403V36.3999H757.503C757.903 35.0999 759.003 34.2999 760.303 34.2999C760.603 34.2999 761.003 34.2999 761.303 34.3999V36.8999C761.103 36.7999 760.503 36.7 760.003 36.7C758.503 36.7 757.403 37.7 757.403 39.2V45.8999H754.703V34.4999H754.803Z" fill="#171717"/>
<path d="M763.404 49.8999L764.004 47.7999C765.204 48.0999 766.004 48.0999 766.504 46.6999L766.704 46.0999L762.504 34.3999H765.404L768.004 43.0999H768.104L770.704 34.3999H773.604L769.004 47.1999C768.404 48.9999 767.104 50.0999 765.004 50.0999C764.404 50.1999 763.804 50.0999 763.404 49.8999Z" fill="#171717"/>
<path d="M552.502 68.0999H552.402C552.002 68.8999 551.102 70.0999 549.102 70.0999C546.402 70.0999 544.402 68 544.402 64.2C544.402 60.4 546.502 58.2999 549.102 58.2999C551.102 58.2999 552.002 59.4999 552.402 60.2999H552.602V58.3999H555.302V74.2H552.602V68.0999H552.502ZM552.602 64.2C552.602 62 551.602 60.4999 549.902 60.4999C548.102 60.4999 547.202 62 547.202 64.2C547.202 66.3 548.102 67.8999 549.902 67.8999C551.602 67.8999 552.602 66.4 552.602 64.2Z" fill="#171717"/>
<path d="M565.302 58.4999H568.002V69.9999H565.402V67.9999H565.302C564.802 69.2999 563.602 70.1999 561.902 70.1999C559.602 70.1999 558.102 68.5999 558.102 65.8999V58.5999H560.802V65.4999C560.802 66.9999 561.702 67.8999 563.002 67.8999C564.202 67.8999 565.402 66.9999 565.402 65.2999V58.4999H565.302Z" fill="#171717"/>
<path d="M570.504 55.3999C570.504 54.5999 571.204 53.8999 572.104 53.8999C573.004 53.8999 573.704 54.5999 573.704 55.3999C573.704 56.1999 573.004 56.8999 572.104 56.8999C571.204 56.7999 570.504 56.1999 570.504 55.3999ZM570.804 58.4999H573.504V69.9999H570.804V58.4999Z" fill="#171717"/>
<path d="M576.102 68.1999L582.002 60.7999V60.6999H576.302V58.4999H585.302V60.2999L579.702 67.5999V67.6999H585.502V69.8999H576.102V68.1999Z" fill="#171717"/>
<path d="M592.801 65.8999C592.801 64.0999 594.001 62.9999 595.701 61.7999C594.801 60.6999 594.101 59.5999 594.101 58.1999C594.101 55.9999 595.701 54.3999 598.101 54.3999C600.501 54.3999 602.001 55.9999 602.001 57.8999C602.001 59.2999 601.201 60.4999 600.001 61.3999L599.001 62.0999L601.801 65.3999C602.201 64.5999 602.401 63.6999 602.401 62.6999H604.701C604.701 64.7999 604.101 66.2999 603.401 67.2999L605.601 69.8999H602.701L601.701 68.7999C600.601 69.6999 599.101 70.0999 597.801 70.0999C594.701 70.0999 592.801 68.2999 592.801 65.8999ZM597.101 63.4999L596.901 63.6999C595.901 64.3999 595.501 65.1999 595.501 65.7999C595.501 66.9999 596.501 67.9999 598.001 67.9999C598.801 67.9999 599.601 67.6999 600.401 67.1999L597.101 63.4999ZM598.401 59.8999C599.201 59.3999 599.601 58.7999 599.601 58.0999C599.601 57.3999 599.001 56.6999 598.001 56.6999C597.001 56.6999 596.401 57.4999 596.401 58.2999C596.401 58.9999 596.901 59.6999 597.501 60.4999L598.401 59.8999Z" fill="#171717"/>
<path d="M611.902 64.2999C611.902 60.7999 614.002 58.3999 617.302 58.3999C620.102 58.3999 622.502 60.1999 622.502 64.1999V64.9999H614.502C614.502 66.9999 615.702 68.0999 617.402 68.0999C618.602 68.0999 619.502 67.5999 619.802 66.5999L622.302 66.8999C621.802 68.8999 620.002 70.1999 617.302 70.1999C614.002 70.0999 611.902 67.8999 611.902 64.2999ZM619.902 63.0999C619.902 61.4999 618.802 60.3999 617.302 60.3999C615.702 60.3999 614.602 61.5999 614.502 63.0999H619.902Z" fill="#171717"/>
<path d="M629.102 62.6999L631.502 58.4999H634.402L630.902 64.1999L634.402 69.8999H631.602L629.202 65.7999L626.802 69.8999H623.902L627.402 64.1999L624.002 58.4999H626.902L629.102 62.6999Z" fill="#171717"/>
<path d="M635.504 64.2999C635.504 60.7999 637.604 58.3999 640.904 58.3999C643.704 58.3999 646.104 60.1999 646.104 64.1999V64.9999H638.104C638.104 66.9999 639.304 68.0999 641.004 68.0999C642.204 68.0999 643.104 67.5999 643.404 66.5999L645.904 66.8999C645.404 68.8999 643.604 70.1999 640.904 70.1999C637.604 70.0999 635.504 67.8999 635.504 64.2999ZM643.504 63.0999C643.504 61.4999 642.404 60.3999 640.904 60.3999C639.304 60.3999 638.204 61.5999 638.104 63.0999H643.504Z" fill="#171717"/>
<path d="M648.401 58.4999H651.001V60.3999H651.101C651.501 59.0999 652.601 58.2999 653.901 58.2999C654.201 58.2999 654.601 58.2999 654.901 58.3999V60.8999C654.701 60.7999 654.101 60.7 653.601 60.7C652.101 60.7 651.001 61.7 651.001 63.2V69.8999H648.301V58.4999H648.401Z" fill="#171717"/>
<path d="M655.801 64.2C655.801 60.7 657.901 58.2999 661.301 58.2999C664.101 58.2999 666.001 59.8999 666.201 62.3999H663.601C663.401 61.2999 662.601 60.4999 661.301 60.4999C659.601 60.4999 658.501 61.9 658.501 64.2C658.501 66.5 659.601 67.9999 661.301 67.9999C662.501 67.9999 663.401 67.2999 663.601 66.0999H666.201C666.001 68.4999 664.201 70.2 661.301 70.2C657.801 70.1 655.801 67.7 655.801 64.2Z" fill="#171717"/>
<path d="M668.203 55.3999C668.203 54.5999 668.903 53.8999 669.803 53.8999C670.703 53.8999 671.403 54.5999 671.403 55.3999C671.403 56.1999 670.703 56.8999 669.803 56.8999C668.903 56.7999 668.203 56.1999 668.203 55.3999ZM668.403 58.4999H671.103V69.9999H668.403V58.4999Z" fill="#171717"/>
<path d="M680.502 61.7999C680.302 60.9999 679.602 60.3999 678.402 60.3999C677.302 60.3999 676.402 60.8999 676.402 61.6999C676.402 62.3999 676.902 62.7999 678.002 62.9999L680.002 63.3999C682.202 63.8999 683.202 64.8999 683.202 66.4999C683.202 68.6999 681.202 70.1999 678.302 70.1999C675.502 70.1999 673.702 68.9999 673.402 66.8999L676.002 66.5999C676.202 67.5999 677.002 68.1999 678.302 68.1999C679.602 68.1999 680.402 67.5999 680.402 66.7999C680.402 66.1999 679.902 65.6999 678.902 65.4999L676.902 65.0999C674.702 64.5999 673.702 63.4999 673.702 61.8999C673.702 59.7999 675.602 58.3999 678.302 58.3999C681.002 58.3999 682.502 59.5999 682.902 61.5999L680.502 61.7999Z" fill="#171717"/>
<path d="M684.902 64.2999C684.902 60.7999 687.002 58.3999 690.302 58.3999C693.102 58.3999 695.502 60.1999 695.502 64.1999V64.9999H687.502C687.502 66.9999 688.702 68.0999 690.402 68.0999C691.602 68.0999 692.502 67.5999 692.802 66.5999L695.302 66.8999C694.802 68.8999 693.002 70.1999 690.302 70.1999C687.002 70.0999 684.902 67.8999 684.902 64.2999ZM693.002 63.0999C693.002 61.4999 691.902 60.3999 690.402 60.3999C688.802 60.3999 687.702 61.5999 687.602 63.0999H693.002Z" fill="#171717"/>
<path d="M704.401 61.7999C704.201 60.9999 703.501 60.3999 702.301 60.3999C701.201 60.3999 700.301 60.8999 700.301 61.6999C700.301 62.3999 700.801 62.7999 701.901 62.9999L703.901 63.3999C706.101 63.8999 707.101 64.8999 707.101 66.4999C707.101 68.6999 705.101 70.1999 702.201 70.1999C699.401 70.1999 697.601 68.9999 697.301 66.8999L699.901 66.5999C700.101 67.5999 700.901 68.1999 702.201 68.1999C703.501 68.1999 704.301 67.5999 704.301 66.7999C704.301 66.1999 703.801 65.6999 702.801 65.4999L700.801 65.0999C698.601 64.5999 697.601 63.4999 697.601 61.8999C697.601 59.7999 699.501 58.3999 702.201 58.3999C704.901 58.3999 706.401 59.5999 706.801 61.5999L704.401 61.7999Z" fill="#171717"/>
<path d="M546.604 91.5999L550.604 101.2H550.704L554.704 91.5999H556.404V103.2H555.004V94.3998H554.904L551.304 103.2H550.004L546.404 94.3998H546.304V103.2H545.004V91.5999H546.604Z" fill="#808080"/>
<path d="M558.504 100.7C558.504 98.7 560.304 98.2999 561.904 98.0999C563.504 97.8999 564.104 97.9999 564.104 97.2999C564.104 96.1999 563.504 95.4999 562.304 95.4999C561.004 95.4999 560.304 96.1999 560.004 96.7999L558.704 96.2999C559.404 94.6999 560.904 94.2999 562.204 94.2999C563.304 94.2999 565.404 94.5999 565.404 97.3999V103.1H564.104V102H564.004C563.704 102.6 562.904 103.4 561.404 103.4C559.804 103.4 558.504 102.4 558.504 100.7ZM564.204 100.1V98.8999C564.004 99.1999 562.504 99.2999 561.904 99.3999C560.904 99.4999 559.904 99.8999 559.904 100.9C559.904 101.8 560.704 102.3 561.704 102.3C563.304 102.2 564.204 101.1 564.204 100.1Z" fill="#808080"/>
<path d="M567.502 106.3L567.802 105.1C568.802 105.3 569.402 105.2 569.902 103.9L570.102 103.2L566.902 94.3999H568.402L570.802 101.3H570.902L573.302 94.3999H574.802L571.102 104.4C570.602 105.8 569.702 106.4 568.502 106.4C568.002 106.5 567.702 106.4 567.502 106.3Z" fill="#808080"/>
<path d="M581.004 102.2L584.804 97.9999C586.104 96.4999 586.804 95.6999 586.804 94.6999C586.804 93.4999 585.804 92.6999 584.604 92.6999C583.304 92.6999 582.404 93.5999 582.404 94.8999H581.104C581.104 92.8999 582.604 91.4999 584.704 91.4999C586.704 91.4999 588.204 92.8999 588.204 94.6999C588.204 95.9999 587.604 96.9999 585.604 99.0999L583.004 101.9V102H588.404V103.2H581.004V102.2Z" fill="#808080"/>
<path d="M590.504 97.3999C590.504 93.5999 592.004 91.3999 594.504 91.3999C597.004 91.3999 598.504 93.5999 598.504 97.3999C598.504 101.2 597.004 103.4 594.504 103.4C592.004 103.4 590.504 101.2 590.504 97.3999ZM597.204 97.3999C597.204 94.3999 596.204 92.6999 594.504 92.6999C592.804 92.6999 591.804 94.3999 591.804 97.3999C591.804 100.4 592.804 102.1 594.504 102.1C596.204 102.1 597.204 100.4 597.204 97.3999Z" fill="#808080"/>
<path d="M604.504 95.5999H602.604V100.7C602.604 101.8 603.204 102 603.804 102C604.104 102 604.304 102 604.404 101.9L604.704 103.1C604.504 103.2 604.204 103.3 603.704 103.3C602.604 103.3 601.304 102.6 601.304 101.1V95.6999H600.004V94.5999H601.304V92.4999H602.604V94.5999H604.504V95.5999Z" fill="#808080"/>
<path d="M608.105 103.2H606.805V91.5999H608.105V95.8998H608.205C608.605 94.9998 609.405 94.3998 610.805 94.3998C612.605 94.3998 613.805 95.3999 613.805 97.6999V103.2H612.505V97.7998C612.505 96.3998 611.705 95.5999 610.505 95.5999C609.205 95.5999 608.205 96.4998 608.205 97.9998V103.2H608.105Z" fill="#808080"/>
<path d="M620.305 100.7C620.305 98.7 622.105 98.2999 623.705 98.0999C625.305 97.8999 625.905 97.9999 625.905 97.2999C625.905 96.1999 625.305 95.4999 624.105 95.4999C622.805 95.4999 622.105 96.1999 621.805 96.7999L620.505 96.2999C621.205 94.6999 622.705 94.2999 624.005 94.2999C625.105 94.2999 627.205 94.5999 627.205 97.3999V103.1H625.905V102H625.805C625.505 102.6 624.705 103.4 623.205 103.4C621.605 103.4 620.305 102.4 620.305 100.7ZM625.905 100.1V98.8999C625.705 99.1999 624.205 99.2999 623.605 99.3999C622.605 99.4999 621.605 99.8999 621.605 100.9C621.605 101.8 622.405 102.3 623.405 102.3C625.005 102.2 625.905 101.1 625.905 100.1Z" fill="#808080"/>
<path d="M631.003 103.2H629.703V94.4999H631.003V95.8999H631.103C631.503 94.9999 632.303 94.3999 633.603 94.3999C635.403 94.3999 636.603 95.4999 636.603 97.6999V103.2H635.303V97.7999C635.303 96.3999 634.503 95.5999 633.303 95.5999C632.003 95.5999 631.103 96.4999 631.103 97.9999V103.2H631.003Z" fill="#808080"/>
<path d="M638.703 98.8998C638.703 96.1998 640.203 94.3998 642.403 94.3998C644.103 94.3998 644.603 95.3998 644.903 95.8998H645.003V91.5999H646.303V103.2H645.003V101.9H644.803C644.503 102.4 643.903 103.4 642.303 103.4C640.203 103.4 638.703 101.6 638.703 98.8998ZM645.003 98.8998C645.003 96.8998 644.103 95.5999 642.503 95.5999C640.803 95.5999 640.003 96.9998 640.003 98.8998C640.003 100.8 640.903 102.2 642.503 102.2C644.203 102.2 645.003 100.8 645.003 98.8998Z" fill="#808080"/>
<path d="M653.504 102.2L657.304 97.9999C658.604 96.4999 659.304 95.6999 659.304 94.6999C659.304 93.4999 658.304 92.6999 657.104 92.6999C655.804 92.6999 654.904 93.5999 654.904 94.8999H653.604C653.604 92.8999 655.104 91.4999 657.204 91.4999C659.204 91.4999 660.704 92.8999 660.704 94.6999C660.704 95.9999 660.104 96.9999 658.104 99.0999L655.504 101.9V102H660.904V103.2H653.604V102.2H653.504Z" fill="#808080"/>
<path d="M668.703 92.8998L662.703 92.7998V91.5999H670.103V92.8998L664.903 103.2H663.403L668.703 92.8998Z" fill="#808080"/>
<path d="M676.105 95.5999H674.206V100.7C674.206 101.8 674.806 102 675.406 102C675.706 102 675.905 102 676.005 101.9L676.305 103.1C676.105 103.2 675.805 103.3 675.305 103.3C674.205 103.3 672.906 102.6 672.906 101.1V95.6999H671.605V94.5999H672.906V92.4999H674.206V94.5999H676.105V95.5999Z" fill="#808080"/>
<path d="M679.702 103.2H678.402V91.5999H679.702V95.8998H679.802C680.202 94.9998 681.002 94.3998 682.402 94.3998C684.202 94.3998 685.402 95.3999 685.402 97.6999V103.2H684.002V97.7998C684.002 96.3998 683.202 95.5999 682.002 95.5999C680.702 95.5999 679.702 96.4998 679.702 97.9998V103.2Z" fill="#808080"/>
<path d="M545.002 265.8H554.902V268.1H547.702V272.2H554.402V274.5H547.702V278.7H554.902V281H544.902V265.8H545.002Z" fill="#171717"/>
<path d="M562.102 273.9L564.502 269.7H567.402L563.902 275.4L567.402 281.1H564.602L562.202 277L559.802 281.1H556.902L560.402 275.4L557.002 269.7H559.902L562.102 273.9Z" fill="#171717"/>
<path d="M568.902 277.9C568.902 275.3 571.002 274.7 573.302 274.4C575.302 274.2 576.102 274.1 576.102 273.4C576.102 272.3 575.402 271.6 574.202 271.6C572.902 271.6 572.102 272.3 571.902 273.1L569.402 272.7C570.002 270.6 571.802 269.5 574.302 269.5C576.502 269.5 579.002 270.4 579.002 273.4V281.1H576.402V279.5H576.302C575.802 280.5 574.702 281.3 572.902 281.3C570.502 281.3 568.902 280.2 568.902 277.9ZM576.102 277V275.6C575.702 275.9 574.302 276.1 573.602 276.2C572.402 276.4 571.502 276.8 571.502 277.8C571.502 278.8 572.302 279.3 573.402 279.3C575.002 279.4 576.102 278.3 576.102 277Z" fill="#171717"/>
<path d="M581.504 269.7H584.104V271.6H584.204C584.704 270.3 585.804 269.5 587.404 269.5C588.904 269.5 590.104 270.3 590.504 271.6H590.604C591.104 270.3 592.404 269.5 594.004 269.5C596.104 269.5 597.604 270.9 597.604 273.4V281.1H594.904V273.8C594.904 272.4 594.004 271.7 592.904 271.7C591.604 271.7 590.804 272.6 590.804 273.9V281H588.204V273.6C588.204 272.4 587.404 271.7 586.304 271.7C585.104 271.7 584.204 272.7 584.204 274.1V281.1H581.504V269.7Z" fill="#171717"/>
<path d="M605.504 269.7H608.204V271.6H608.404C608.804 270.8 609.704 269.6 611.704 269.6C614.304 269.6 616.404 271.7 616.404 275.5C616.404 279.3 614.404 281.4 611.704 281.4C609.704 281.4 608.804 280.2 608.404 279.4H608.304V285.5H605.604V269.7H605.504ZM610.904 279.1C612.704 279.1 613.604 277.5 613.604 275.4C613.604 273.3 612.704 271.7 610.904 271.7C609.204 271.7 608.204 273.1 608.204 275.4C608.204 277.7 609.104 279.1 610.904 279.1Z" fill="#171717"/>
<path d="M618.203 275.5C618.203 272 620.303 269.6 623.603 269.6C626.403 269.6 628.803 271.4 628.803 275.4V276.2H620.803C620.803 278.2 622.003 279.3 623.703 279.3C624.903 279.3 625.803 278.8 626.103 277.8L628.603 278.1C628.103 280.1 626.303 281.4 623.603 281.4C620.303 281.3 618.203 279 618.203 275.5ZM626.203 274.3C626.203 272.7 625.103 271.6 623.603 271.6C622.003 271.6 620.903 272.8 620.803 274.3H626.203Z" fill="#171717"/>
<path d="M631.104 269.7H633.704V271.6H633.804C634.204 270.3 635.304 269.5 636.604 269.5C636.904 269.5 637.304 269.5 637.604 269.6V272.1C637.404 272 636.804 271.9 636.304 271.9C634.804 271.9 633.704 272.9 633.704 274.4V281.1H631.004V269.7H631.104Z" fill="#171717"/>
<path d="M639.203 266.6C639.203 265.8 639.903 265.1 640.803 265.1C641.703 265.1 642.403 265.8 642.403 266.6C642.403 267.4 641.703 268.1 640.803 268.1C639.903 268 639.203 267.4 639.203 266.6ZM639.403 269.7H642.103V281.2H639.403V269.7Z" fill="#171717"/>
<path d="M644.402 275.4C644.402 271.8 646.502 269.5 649.902 269.5C653.302 269.5 655.402 271.9 655.402 275.4C655.402 278.9 653.302 281.3 649.902 281.3C646.502 281.3 644.402 279 644.402 275.4ZM652.602 275.4C652.602 273.3 651.702 271.6 649.902 271.6C648.002 271.6 647.102 273.3 647.102 275.4C647.102 277.5 648.002 279.2 649.902 279.2C651.702 279.2 652.602 277.5 652.602 275.4Z" fill="#171717"/>
<path d="M657.203 275.4C657.203 271.6 659.303 269.5 661.903 269.5C663.903 269.5 664.803 270.7 665.203 271.5H665.303V265.8H668.003V281.1H665.303V279.3H665.103C664.703 280.1 663.803 281.3 661.803 281.3C659.203 281.3 657.203 279.2 657.203 275.4ZM665.403 275.4C665.403 273.2 664.403 271.7 662.703 271.7C660.903 271.7 660.003 273.2 660.003 275.4C660.003 277.5 660.903 279.1 662.703 279.1C664.403 279.1 665.403 277.6 665.403 275.4Z" fill="#171717"/>
<path d="M550.702 302.8V311.1C550.702 313.3 549.402 314.6 547.402 314.6C545.502 314.6 544.102 313.5 544.102 311.7H545.502C545.502 312.7 546.302 313.3 547.402 313.3C548.602 313.3 549.302 312.5 549.302 311.1V302.8H550.702Z" fill="#808080"/>
<path d="M558.902 305.7H560.202V314.4H558.902V312.9H558.802C558.402 313.8 557.502 314.5 556.202 314.5C554.602 314.5 553.402 313.4 553.402 311.2V305.7H554.702V311.1C554.702 312.4 555.502 313.2 556.602 313.2C557.602 313.2 558.802 312.5 558.802 310.8V305.7H558.902Z" fill="#808080"/>
<path d="M564.003 314.4H562.703V305.7H564.003V307.1H564.103C564.503 306.2 565.303 305.6 566.603 305.6C568.403 305.6 569.603 306.7 569.603 308.9V314.4H568.303V309C568.303 307.6 567.503 306.8 566.303 306.8C565.003 306.8 564.103 307.7 564.103 309.2V314.4H564.003Z" fill="#808080"/>
<path d="M571.602 310.1C571.602 307.4 573.202 305.6 575.502 305.6C577.302 305.6 579.202 306.7 579.202 310V310.6H573.002C573.102 312.5 574.102 313.5 575.702 313.5C576.702 313.5 577.502 313 577.902 312.1L579.202 312.5C578.802 313.8 577.502 314.7 575.702 314.7C573.202 314.6 571.602 312.8 571.602 310.1ZM577.902 309.3C577.902 307.8 577.002 306.7 575.502 306.7C574.002 306.7 573.002 307.9 572.902 309.3H577.902Z" fill="#808080"/>
<path d="M585.801 313.4L589.601 309.2C590.901 307.7 591.601 306.9 591.601 305.9C591.601 304.7 590.601 303.9 589.401 303.9C588.101 303.9 587.201 304.8 587.201 306.1H585.901C585.901 304.1 587.401 302.7 589.501 302.7C591.501 302.7 593.001 304.1 593.001 305.9C593.001 307.2 592.401 308.2 590.401 310.3L587.801 313.1V313.2H593.201V314.4H585.901V313.4H585.801Z" fill="#808080"/>
<path d="M595.5 311.5H596.9C597 312.6 598.1 313.3 599.4 313.3C600.9 313.3 602 312.5 602 311.2C602 309.9 601 309 599.3 309H598.4V307.8H599.3C600.7 307.8 601.6 307 601.6 305.8C601.6 304.6 600.8 303.8 599.5 303.8C598.3 303.8 597.2 304.5 597.1 305.6H595.7C595.8 303.8 597.4 302.5 599.4 302.5C601.6 302.5 602.9 304 602.9 305.6C602.9 306.9 602.2 307.9 601 308.2V308.3C602.5 308.5 603.3 309.6 603.3 311.1C603.3 313 601.6 314.4 599.4 314.4C597.2 314.6 595.6 313.3 595.5 311.5Z" fill="#808080"/>
<path d="M605.703 305.7H607.003V307H607.103C607.403 306.1 608.303 305.5 609.403 305.5C609.603 305.5 610.003 305.5 610.103 305.5V306.9C610.003 306.9 609.603 306.8 609.303 306.8C608.003 306.8 607.103 307.7 607.103 308.8V314.3H605.803V305.7H605.703Z" fill="#808080"/>
<path d="M611 310.1C611 307.4 612.5 305.6 614.7 305.6C616.4 305.6 616.9 306.6 617.2 307.1H617.3V302.8H618.6V314.4H617.3V313.1H617.1C616.8 313.6 616.2 314.6 614.6 314.6C612.5 314.6 611 312.8 611 310.1ZM617.4 310C617.4 308 616.5 306.7 614.9 306.7C613.2 306.7 612.4 308.1 612.4 310C612.4 311.9 613.3 313.3 614.9 313.3C616.5 313.4 617.4 312 617.4 310Z" fill="#808080"/>
<path d="M629.602 306.8H627.702V311.9C627.702 313 628.302 313.2 628.902 313.2C629.202 313.2 629.402 313.2 629.502 313.1L629.802 314.3C629.602 314.4 629.302 314.5 628.802 314.5C627.702 314.5 626.402 313.8 626.402 312.3V306.9H625.102V305.8H626.402V303.7H627.702V305.8H629.602V306.8Z" fill="#808080"/>
<path d="M631.203 310.1C631.203 307.4 632.803 305.6 635.203 305.6C637.603 305.6 639.203 307.4 639.203 310.1C639.203 312.8 637.603 314.6 635.203 314.6C632.803 314.6 631.203 312.8 631.203 310.1ZM637.703 310.1C637.703 308.4 636.903 306.8 635.103 306.8C633.303 306.8 632.503 308.4 632.503 310.1C632.503 311.8 633.303 313.4 635.103 313.4C636.903 313.4 637.703 311.8 637.703 310.1Z" fill="#808080"/>
<path d="M651.6 302.8V311.1C651.6 313.3 650.3 314.6 648.3 314.6C646.4 314.6 645 313.5 645 311.7H646.4C646.4 312.7 647.2 313.3 648.3 313.3C649.5 313.3 650.2 312.5 650.2 311.1V302.8H651.6Z" fill="#808080"/>
<path d="M659.801 305.7H661.101V314.4H659.801V312.9H659.701C659.301 313.8 658.401 314.5 657.101 314.5C655.501 314.5 654.301 313.4 654.301 311.2V305.7H655.601V311.1C655.601 312.4 656.401 313.2 657.501 313.2C658.501 313.2 659.701 312.5 659.701 310.8V305.7H659.801Z" fill="#808080"/>
<path d="M664.902 314.4H663.602V302.8H664.902V314.4Z" fill="#808080"/>
<path d="M667.303 317.5L667.603 316.3C668.603 316.5 669.203 316.4 669.703 315.1L669.903 314.4L666.703 305.6H668.203L670.603 312.5H670.703L673.103 305.6H674.603L670.903 315.6C670.403 317 669.503 317.6 668.303 317.6C667.803 317.7 667.403 317.6 667.303 317.5Z" fill="#808080"/>
<path d="M686.301 304.1L680.301 304V302.8H687.701V304.1L682.501 314.4H681.001L686.301 304.1Z" fill="#808080"/>
<path d="M693.703 306.8H691.803V311.9C691.803 313 692.403 313.2 693.003 313.2C693.303 313.2 693.503 313.2 693.603 313.1L693.903 314.3C693.703 314.4 693.403 314.5 692.903 314.5C691.803 314.5 690.503 313.8 690.503 312.3V306.9H689.203V305.8H690.503V303.7H691.803V305.8H693.703V306.8Z" fill="#808080"/>
<path d="M697.3 314.4H696V302.8H697.3V307.1H697.4C697.8 306.2 698.6 305.6 700 305.6C701.8 305.6 703 306.6 703 308.9V314.4H701.7V309C701.7 307.6 700.9 306.8 699.7 306.8C698.4 306.8 697.4 307.7 697.4 309.2V314.4H697.3Z" fill="#808080"/>
<defs>
<linearGradient id="paint0_linear_772_3" x1="362.768" y1="401.206" x2="972.983" y2="-601.959" gradientUnits="userSpaceOnUse">
<stop stop-color="#A5FBFF"/>
<stop offset="0.2303" stop-color="#86A1FF" stop-opacity="0.7"/>
<stop offset="0.5247" stop-color="#CF36D2" stop-opacity="0.28"/>
<stop offset="0.7186" stop-color="#99309B" stop-opacity="0"/>
</linearGradient>
</defs>
</svg>
