<svg width="3680" height="2758" viewBox="0 0 3680 2758" fill="none" xmlns="http://www.w3.org/2000/svg">
<g filter="url(#filter0_f_1_1587)">
<g filter="url(#filter1_f_1_1587)">
<path d="M995.191 1627.84C995.191 1627.84 1004.19 2131.93 1494.57 2241.07C1909.26 2333.38 2129.82 1735.45 1798.92 1599.36C1572.2 1506.13 1532.75 1386.78 1475.99 1233.19C1385.96 989.55 978.406 1015.83 995.191 1627.84Z" fill="url(#paint0_radial_1_1587)"/>
</g>
<g filter="url(#filter2_f_1_1587)">
<path d="M1345.05 2340.54C2275.85 2820.43 3252.01 2778.97 3525.37 2247.93C3798.72 1716.88 3265.75 897.355 2334.95 417.461C1404.15 -62.4335 427.987 -20.9691 154.633 510.074C-118.721 1041.12 414.246 1860.64 1345.05 2340.54Z" fill="url(#paint1_radial_1_1587)"/>
</g>
<circle cx="1839.5" cy="1353.5" r="690.5" fill="url(#paint2_radial_1_1587)"/>
</g>
<g filter="url(#filter3_i_1_1587)">
<circle cx="1839.5" cy="1353.5" r="154.5" fill="url(#paint3_radial_1_1587)"/>
</g>
<path d="M1576.74 1253.48C1514.9 1264.4 1470.48 1286.88 1449.68 1317.67C1428.91 1348.44 1432.71 1386.03 1460.68 1425.18C1488.66 1464.34 1539.37 1503.04 1605.67 1535.8C1671.97 1568.56 1750.49 1593.7 1830.12 1607.68C1909.76 1621.66 1986.47 1623.77 2049.42 1613.7C2112.39 1603.64 2158.35 1581.93 2180.88 1551.68C2192.14 1536.56 2197.27 1519.69 2196.31 1501.72C2195.35 1483.75 2188.29 1464.66 2175.15 1445.1C2148.88 1405.99 2099.63 1367.06 2034.34 1333.82M1642.37 1199.46C1518.89 1187.24 1416.03 1197.58 1352.29 1228.57C1320.43 1244.06 1299.4 1264.19 1289.65 1287.83C1279.89 1311.47 1281.37 1338.65 1294.59 1368.29C1321.05 1427.59 1392.73 1492.73 1496.79 1551.97C1600.85 1611.2 1730.4 1660.62 1862.12 1691.32C1993.84 1722.02 2119.06 1731.98 2215.24 1719.41C2263.32 1713.13 2302.56 1701.43 2331.58 1685.08C2360.59 1668.74 2379.38 1647.76 2386.63 1622.94C2393.87 1598.12 2389.34 1570.21 2373.73 1540.61C2358.12 1511.01 2331.43 1479.72 2294.39 1448.16C2220.3 1385.02 2109.71 1324.94 1982.51 1278.73M1576.65 1252.99C1514.77 1263.92 1470.18 1286.43 1449.27 1317.39C1428.34 1348.39 1432.23 1386.21 1460.28 1425.47C1488.32 1464.73 1539.11 1503.47 1605.45 1536.25C1671.8 1569.03 1750.36 1594.19 1830.04 1608.17C1909.71 1622.16 1986.48 1624.27 2049.5 1614.2C2112.51 1604.13 2158.63 1582.38 2181.28 1551.98C2192.61 1536.77 2197.78 1519.79 2196.81 1501.7C2195.84 1483.61 2188.74 1464.43 2175.57 1444.82C2149.22 1405.61 2099.89 1366.63 2034.57 1333.38L2034.12 1334.27C2099.36 1367.48 2148.53 1406.37 2174.74 1445.38C2187.84 1464.88 2194.85 1483.89 2195.81 1501.75C2196.76 1519.6 2191.67 1536.36 2180.48 1551.38C2158.06 1581.47 2112.26 1603.16 2049.34 1613.21C1986.46 1623.26 1909.8 1621.16 1830.21 1607.19C1750.62 1593.22 1672.15 1568.08 1605.9 1535.35C1539.63 1502.61 1489 1463.96 1461.09 1424.89C1433.2 1385.85 1429.48 1348.49 1450.1 1317.95C1470.78 1287.33 1515.03 1264.89 1576.82 1253.98L1576.65 1252.99ZM1642.42 1198.96C1518.91 1186.74 1415.94 1197.07 1352.07 1228.12C1320.14 1243.64 1299 1263.85 1289.18 1287.64C1279.36 1311.43 1280.87 1338.76 1294.14 1368.5C1320.66 1427.94 1392.46 1493.15 1496.55 1552.41C1600.64 1611.67 1730.24 1661.1 1862 1691.81C1993.76 1722.51 2119.05 1732.48 2215.3 1719.91C2263.43 1713.62 2302.73 1701.91 2331.82 1685.52C2360.92 1669.13 2379.82 1648.06 2387.11 1623.08C2394.4 1598.1 2389.83 1570.06 2374.17 1540.38C2358.52 1510.7 2331.78 1479.37 2294.71 1447.78C2220.57 1384.59 2109.91 1324.48 1982.68 1278.26L1982.34 1279.2C2109.5 1325.39 2220.04 1385.45 2294.06 1448.54C2331.08 1480.08 2357.72 1511.32 2373.29 1540.85C2388.86 1570.37 2393.34 1598.14 2386.15 1622.8C2378.95 1647.46 2360.27 1668.35 2331.33 1684.65C2302.38 1700.95 2263.22 1712.64 2215.17 1718.92C2119.07 1731.47 1993.92 1721.52 1862.23 1690.83C1730.55 1660.14 1601.05 1610.74 1497.04 1551.54C1393 1492.31 1321.44 1427.23 1295.05 1368.09C1281.87 1338.54 1280.41 1311.5 1290.11 1288.02C1299.81 1264.53 1320.72 1244.47 1352.51 1229.02C1416.13 1198.09 1518.87 1187.75 1642.32 1199.96L1642.42 1198.96ZM1726.08 1775.19C1501.24 1714.93 1306.38 1628 1173.09 1536.17C1106.45 1490.25 1055.23 1443.13 1023.34 1397.52C991.452 1351.92 978.945 1307.89 989.598 1268.13C1000.25 1228.37 1033.09 1196.5 1083.51 1172.95C1133.92 1149.4 1201.84 1134.2 1282.51 1127.77C1443.84 1114.89 1656.06 1137.04 1880.9 1197.3C2105.75 1257.56 2300.61 1344.49 2433.89 1436.32C2500.53 1482.24 2551.76 1529.36 2583.64 1574.97C2615.53 1620.57 2628.04 1664.6 2617.39 1704.36C2606.73 1744.12 2573.89 1775.99 2523.48 1799.54C2473.06 1823.09 2405.14 1838.29 2324.47 1844.72C2163.14 1857.6 1950.92 1835.45 1726.08 1775.19Z" stroke="white" stroke-opacity="0.333"/>
<g filter="url(#filter4_i_1_1587)">
<path d="M2204.05 1698.72C2217.71 1734.04 2257.41 1751.59 2292.73 1737.94C2328.05 1724.28 2345.61 1684.57 2331.95 1649.26C2318.29 1613.94 2278.59 1596.38 2243.27 1610.04C2207.95 1623.7 2190.39 1663.4 2204.05 1698.72Z" fill="url(#paint4_radial_1_1587)"/>
</g>
<path d="M2261.76 1660L2278.53 1688.97L2284.11 1679.32L2272.94 1660H2261.76Z" fill="url(#paint5_linear_1_1587)"/>
<path d="M2261.76 1679.87L2267.56 1688.98H2279.15L2273.36 1679.87H2261.76Z" fill="url(#paint6_linear_1_1587)"/>
<path d="M2256.79 1669.11L2251 1679.04L2256.8 1688.97L2268.39 1669.11H2256.79Z" fill="url(#paint7_linear_1_1587)"/>
<g filter="url(#filter5_i_1_1587)">
<path d="M2384.51 1839.84C2409.17 1903.62 2480.88 1935.33 2544.67 1910.66C2608.45 1885.99 2640.16 1814.29 2615.49 1750.5C2590.83 1686.71 2519.12 1655 2455.33 1679.67C2391.55 1704.34 2359.84 1776.05 2384.51 1839.84Z" fill="url(#paint8_radial_1_1587)"/>
</g>
<path fill-rule="evenodd" clip-rule="evenodd" d="M2525.48 1762.94C2529.72 1766.08 2532.07 1768.91 2532.81 1771.73C2533.28 1773.33 2532.86 1775.24 2531.81 1776.68C2530.77 1778.12 2529.09 1778.92 2527.15 1778.92C2526.42 1778.92 2525.69 1778.81 2524.95 1778.6C2524.22 1780.67 2523.7 1782.7 2523.54 1784.46L2523.49 1785.09C2519.72 1778.44 2513.7 1773.33 2506.47 1770.88C2506.68 1770.82 2508.25 1770.34 2511.03 1768.64C2510.71 1768.16 2510.45 1767.63 2510.24 1767.2C2509.67 1765.82 2509.88 1763.53 2510.77 1761.82C2511.5 1760.38 2512.65 1759.43 2513.96 1759.16C2514.48 1759.05 2515.01 1759 2515.58 1759C2518.46 1759 2522.08 1760.44 2525.48 1762.94ZM2531.34 1772.15C2531.97 1774.66 2530.03 1778.38 2525.27 1777.05C2524.85 1776.89 2524.43 1776.79 2524.06 1776.73C2523.59 1777.85 2523.07 1779.13 2522.7 1780.57C2519.56 1776.31 2515.37 1772.9 2510.56 1770.72C2510.75 1770.6 2510.94 1770.48 2511.15 1770.36C2511.8 1769.97 2512.52 1769.54 2513.28 1769.01C2512.49 1768.05 2511.92 1767.2 2511.66 1766.62C2511.03 1765.12 2511.76 1761.24 2514.27 1760.7C2516.79 1760.17 2520.71 1761.34 2524.59 1764.22C2528.46 1767.09 2530.66 1769.65 2531.34 1772.15Z" fill="url(#paint9_linear_1_1587)"/>
<path d="M2517.52 1765.98C2518.57 1766.4 2519.93 1767.15 2521.6 1768.27C2523.59 1769.6 2525.32 1771.09 2526.42 1772.26C2524.59 1774.71 2523.38 1778.07 2522.65 1780.41C2523.02 1780.94 2523.44 1781.47 2523.8 1782.01C2524.17 1780.67 2524.8 1778.7 2525.64 1776.73C2525.84 1776.79 2526.11 1776.79 2526.37 1776.79C2527 1776.79 2527.73 1776.68 2528.31 1776.2C2528.72 1775.88 2529.2 1775.3 2529.14 1774.23C2529.14 1773.22 2528.36 1771.94 2526.73 1770.4C2525.58 1769.28 2524.01 1768.05 2522.44 1766.93C2517.94 1763.9 2514.8 1763.05 2513.38 1764.49C2512.44 1765.44 2512.55 1766.62 2512.86 1767.47C2511.19 1768.59 2509.77 1769.38 2508.83 1769.92C2509.46 1770.13 2510.03 1770.4 2510.66 1770.66C2512.34 1769.76 2514.75 1768.21 2517.52 1765.98ZM2527.42 1773.59C2527.57 1773.86 2527.62 1774.12 2527.62 1774.28C2527.62 1774.76 2527.47 1774.92 2527.36 1775.03C2527.15 1775.19 2526.73 1775.3 2526.37 1775.3C2526.68 1774.66 2527.05 1774.12 2527.42 1773.59ZM2514.48 1765.66C2514.64 1765.5 2515.06 1765.39 2515.74 1765.5C2515.22 1765.92 2514.69 1766.3 2514.17 1766.67C2514.12 1766.3 2514.17 1765.92 2514.48 1765.66Z" fill="url(#paint10_linear_1_1587)"/>
<path d="M2497.99 1767.95C2480.87 1767.95 2467 1782.06 2467 1799.47C2467 1816.89 2480.87 1831 2497.99 1831C2515.11 1831 2528.99 1816.89 2528.99 1799.47C2528.99 1782.06 2515.06 1767.95 2497.99 1767.95ZM2497.99 1829.24C2481.82 1829.24 2468.73 1815.93 2468.73 1799.47C2468.73 1783.02 2481.82 1769.7 2497.99 1769.7C2514.17 1769.7 2527.26 1783.02 2527.26 1799.47C2527.26 1815.93 2514.12 1829.24 2497.99 1829.24Z" fill="url(#paint11_linear_1_1587)"/>
<path d="M2507.1 1786.05C2509.7 1786.05 2511.81 1783.91 2511.81 1781.26C2511.81 1778.61 2509.7 1776.47 2507.1 1776.47C2504.5 1776.47 2502.39 1778.61 2502.39 1781.26C2502.39 1783.91 2504.5 1786.05 2507.1 1786.05Z" fill="url(#paint12_linear_1_1587)"/>
<path d="M2514.8 1789.62C2515.9 1789.62 2516.79 1788.72 2516.79 1787.6C2516.79 1786.48 2515.9 1785.57 2514.8 1785.57C2513.7 1785.57 2512.81 1786.48 2512.81 1787.6C2512.81 1788.72 2513.7 1789.62 2514.8 1789.62Z" fill="url(#paint13_linear_1_1587)"/>
<path d="M2521.92 1777.43C2521.87 1777.43 2521.81 1777.43 2521.81 1777.43C2521.5 1777.37 2521.29 1777.05 2521.34 1776.68C2521.81 1774.23 2523.8 1771.89 2523.91 1771.78C2524.12 1771.51 2524.54 1771.51 2524.75 1771.73C2525.01 1771.94 2525.01 1772.37 2524.8 1772.58C2524.75 1772.63 2522.91 1774.82 2522.49 1776.95C2522.44 1777.27 2522.18 1777.43 2521.92 1777.43Z" fill="url(#paint14_linear_1_1587)"/>
<path fill-rule="evenodd" clip-rule="evenodd" d="M2470.14 1799.4C2470.14 1799.42 2470.14 1799.45 2470.14 1799.47C2470.14 1799.53 2470.14 1799.58 2470.14 1799.64C2470.37 1814.77 2482.31 1827.05 2497.15 1827.47C2497.06 1827.48 2496.98 1827.48 2496.89 1827.49H2498C2498.66 1827.49 2499.27 1827.48 2499.88 1827.43L2499.8 1827.43C2514.3 1826.48 2525.79 1814.19 2525.79 1799.21H2525.73C2525.43 1796.12 2519.99 1794.34 2512.81 1793.72C2507.47 1793.3 2502.08 1793.83 2495.9 1795.75C2490.56 1797.34 2485.74 1797.08 2482.23 1796.65C2474.62 1795.77 2470.35 1795.64 2470.15 1799.21H2470.14C2470.14 1799.27 2470.14 1799.33 2470.14 1799.4ZM2496.06 1821.68C2496.87 1821.68 2497.53 1821.01 2497.53 1820.19C2497.53 1819.37 2496.87 1818.7 2496.06 1818.7C2495.25 1818.7 2494.59 1819.37 2494.59 1820.19C2494.59 1821.01 2495.25 1821.68 2496.06 1821.68ZM2505.17 1819.44C2505.17 1820.27 2504.51 1820.93 2503.7 1820.93C2502.89 1820.93 2502.24 1820.27 2502.24 1819.44C2502.24 1818.62 2502.89 1817.95 2503.7 1817.95C2504.51 1817.95 2505.17 1818.62 2505.17 1819.44ZM2499.93 1824.4C2500.54 1824.4 2501.03 1823.9 2501.03 1823.28C2501.03 1822.66 2500.54 1822.16 2499.93 1822.16C2499.32 1822.16 2498.83 1822.66 2498.83 1823.28C2498.83 1823.9 2499.32 1824.4 2499.93 1824.4ZM2507.78 1822.48C2507.78 1823.1 2507.29 1823.6 2506.68 1823.6C2506.08 1823.6 2505.58 1823.1 2505.58 1822.48C2505.58 1821.86 2506.08 1821.36 2506.68 1821.36C2507.29 1821.36 2507.78 1821.86 2507.78 1822.48ZM2489.83 1821.15C2491.16 1821.15 2492.23 1820.05 2492.23 1818.7C2492.23 1817.35 2491.16 1816.25 2489.83 1816.25C2488.5 1816.25 2487.42 1817.35 2487.42 1818.7C2487.42 1820.05 2488.5 1821.15 2489.83 1821.15ZM2513.75 1812.68C2513.75 1814.03 2512.67 1815.13 2511.34 1815.13C2510.01 1815.13 2508.94 1814.03 2508.94 1812.68C2508.94 1811.33 2510.01 1810.23 2511.34 1810.23C2512.67 1810.23 2513.75 1811.33 2513.75 1812.68Z" fill="url(#paint15_linear_1_1587)"/>
<path d="M2602.02 2106.52C2671.93 2162.84 2774.26 2151.82 2830.58 2081.91C2886.9 2012.01 2875.89 1909.68 2805.98 1853.36C2736.07 1797.04 2633.74 1808.05 2577.42 1877.96C2521.1 1947.87 2532.11 2050.2 2602.02 2106.52Z" fill="url(#paint16_radial_1_1587)"/>
<path d="M2704.5 1933L2664 1956.3V2002.7L2704.5 2026L2745 2002.7V1956.3L2704.5 1933ZM2733.04 1995.83L2704.5 2012.06L2675.96 1995.83V1963.17L2704.5 1946.73L2733.04 1963.17V1995.83Z" fill="url(#paint17_linear_1_1587)"/>
<path d="M2704.5 1946.73V1933L2664 1956.3V2002.7L2704.5 2026V2012.06L2675.96 1995.83V1963.17L2704.5 1946.73Z" fill="url(#paint18_linear_1_1587)"/>
<path d="M2704.5 2012.06L2704.5 2025.79L2745 2002.49L2745 1956.3L2704.5 1933V1946.73L2733.04 1962.96V1995.62L2704.5 2012.06Z" fill="url(#paint19_linear_1_1587)"/>
<path d="M2723.6 1990.21L2704.5 2001.03L2685.61 1990.21V1968.57L2704.5 1957.76L2723.6 1968.57V1990.21Z" fill="url(#paint20_linear_1_1587)"/>
<g filter="url(#filter6_i_1_1587)">
<path d="M2339.95 1543.81C2347.78 1564.06 2370.55 1574.13 2390.81 1566.3C2411.06 1558.46 2421.13 1535.69 2413.3 1515.44C2405.46 1495.18 2382.69 1485.12 2362.44 1492.95C2342.18 1500.78 2332.12 1523.55 2339.95 1543.81Z" fill="url(#paint21_radial_1_1587)"/>
</g>
<path fill-rule="evenodd" clip-rule="evenodd" d="M2388.22 1524.17L2372.32 1517.4C2371.73 1517.15 2371.05 1517.42 2370.79 1518.01L2364.02 1533.91C2363.77 1534.5 2364.04 1535.18 2364.63 1535.43L2367.82 1536.79L2373.14 1524.31L2378.07 1526.41C2379.07 1526.84 2379.84 1527.37 2380.38 1528C2380.92 1528.64 2381.23 1529.34 2381.32 1530.09C2381.4 1530.84 2381.28 1531.6 2380.95 1532.39C2380.64 1533.11 2380.19 1533.7 2379.6 1534.17C2379.02 1534.62 2378.3 1534.88 2377.46 1534.96C2376.61 1535.03 2375.68 1534.85 2374.66 1534.42L2372.77 1533.61L2370.87 1538.09L2380.53 1542.21C2381.12 1542.46 2381.81 1542.19 2382.06 1541.6L2388.83 1525.7C2389.08 1525.11 2388.81 1524.42 2388.22 1524.17ZM2375.46 1531.9C2376.04 1532.15 2376.53 1532.19 2376.93 1532.04C2377.33 1531.89 2377.64 1531.57 2377.85 1531.07C2378.06 1530.57 2378.09 1530.12 2377.92 1529.73C2377.75 1529.34 2377.37 1529.02 2376.79 1528.77L2375.14 1528.06L2373.81 1531.19L2375.46 1531.9ZM2374.49 1521.15L2384.07 1525.23L2383.21 1527.24L2373.64 1523.16L2374.49 1521.15Z" fill="url(#paint22_linear_1_1587)"/>
<path d="M2420.64 1396.61C2407.73 1394.6 2395.62 1403.44 2393.61 1416.36C2391.6 1429.27 2400.44 1441.38 2413.36 1443.39C2426.27 1445.4 2438.38 1436.56 2440.39 1423.64C2442.4 1410.73 2433.56 1398.62 2420.64 1396.61Z" fill="url(#paint23_radial_1_1587)"/>
<path fill-rule="evenodd" clip-rule="evenodd" d="M2422.27 1411.77C2422.66 1411.99 2423.14 1411.82 2423.28 1411.42C2423.44 1411.1 2423.29 1410.7 2422.97 1410.54C2419.82 1408.87 2417.25 1408.28 2413.57 1409.46C2409.7 1410.7 2406.77 1413.65 2408.14 1417.84C2409.34 1421.55 2413.44 1421.93 2417.05 1422.28C2419.81 1422.54 2422.24 1422.77 2422.82 1424.49C2423.46 1426.4 2421.75 1428.1 2420.03 1428.68C2416.76 1429.76 2414.51 1429.12 2411.79 1427.65C2411.45 1427.46 2411.03 1427.57 2410.82 1427.87C2410.59 1428.21 2410.71 1428.66 2411.06 1428.89C2414.13 1430.62 2416.97 1431.14 2420.58 1429.97C2424.16 1428.73 2428.12 1425.51 2426.75 1421.32C2425.57 1417.68 2421.62 1417.26 2418.06 1416.94C2415.13 1416.64 2412.4 1416.37 2411.72 1414.28C2411.23 1412.77 2412.8 1411.15 2414.11 1410.72C2417.31 1409.7 2419.63 1410.28 2422.27 1411.77ZM2425.4 1421.77C2425.84 1423.41 2425.31 1425.07 2424.15 1426.26L2424.07 1426.24C2424.38 1425.44 2424.23 1424.56 2424.01 1423.74C2423.36 1421.31 2420.41 1421.1 2417.28 1420.86C2413.82 1420.59 2410.19 1420.32 2409.31 1417.04C2408.91 1415.55 2409.17 1413.76 2410.3 1412.66L2410.36 1412.72C2410.21 1413.52 2410.26 1414.35 2410.47 1415.13C2411.19 1417.82 2414.49 1418.09 2417.84 1418.39C2421.27 1418.68 2424.65 1418.97 2425.4 1421.77Z" fill="url(#paint24_linear_1_1587)"/>
<path d="M2549.92 1381.92C2559.54 1395.09 2578.01 1397.97 2591.18 1388.35C2604.35 1378.73 2607.23 1360.26 2597.61 1347.09C2587.99 1333.92 2569.52 1331.05 2556.35 1340.66C2543.18 1350.28 2540.31 1368.75 2549.92 1381.92Z" fill="url(#paint25_radial_1_1587)"/>
<path d="M2577.3 1355.69C2577.42 1355.26 2577.2 1354.83 2576.82 1354.73L2576.82 1354.73C2576.43 1354.63 2576.03 1354.89 2575.92 1355.32L2574.96 1358.87L2573.18 1355.33C2572.99 1354.96 2572.55 1354.84 2572.2 1355.07L2572.2 1355.07C2571.85 1355.3 2571.72 1355.79 2571.9 1356.17L2573.67 1359.68L2569.84 1358.65C2569.46 1358.55 2569.06 1358.81 2568.94 1359.24L2568.94 1359.24C2568.83 1359.67 2569.04 1360.1 2569.42 1360.21L2573.29 1361.25L2569.97 1363.44C2569.62 1363.67 2569.49 1364.16 2569.67 1364.54L2569.68 1364.54C2569.86 1364.91 2570.3 1365.03 2570.65 1364.8L2573.96 1362.62L2571.95 1370.12L2570.54 1369.74C2570.16 1369.64 2569.75 1369.9 2569.64 1370.33L2569.64 1370.33C2569.52 1370.76 2569.74 1371.19 2570.12 1371.3L2571.53 1371.68L2571.1 1373.28C2570.99 1373.71 2571.21 1374.14 2571.59 1374.24L2571.59 1374.24C2571.97 1374.34 2572.37 1374.08 2572.49 1373.65L2572.92 1372.05L2574.27 1372.41C2574.65 1372.52 2575.06 1372.25 2575.17 1371.82L2575.17 1371.82C2575.29 1371.39 2575.07 1370.96 2574.69 1370.86L2573.33 1370.49L2575.34 1363L2577.12 1366.52C2577.31 1366.9 2577.75 1367.01 2578.1 1366.78L2578.1 1366.78C2578.45 1366.55 2578.58 1366.06 2578.39 1365.68L2576.61 1362.14L2580.44 1363.17C2580.82 1363.27 2581.22 1363.01 2581.34 1362.58L2581.34 1362.58C2581.46 1362.15 2581.24 1361.72 2580.86 1361.61L2577.04 1360.59L2580.33 1358.41C2580.68 1358.18 2580.81 1357.69 2580.62 1357.31L2580.62 1357.31C2580.43 1356.94 2579.99 1356.82 2579.64 1357.05L2576.36 1359.22L2577.3 1355.69Z" fill="url(#paint26_linear_1_1587)"/>
<g filter="url(#filter7_i_1_1587)">
<path d="M2760.29 1749.1C2787.99 1820.74 2868.53 1856.36 2940.17 1828.65C3011.8 1800.94 3047.42 1720.41 3019.71 1648.77C2992.01 1577.13 2911.47 1541.52 2839.83 1569.22C2768.2 1596.93 2732.58 1677.46 2760.29 1749.1Z" fill="url(#paint27_radial_1_1587)"/>
</g>
<path d="M2870.06 1722.18L2846.58 1724.81L2860.36 1693L2846.24 1673.74L2880.57 1669.82L2889.9 1648.39L2910.33 1676.17L2933.82 1673.54L2920.09 1705.2L2934.11 1724.32L2899.96 1728.2L2890.5 1749.95L2870.06 1722.18ZM2879.82 1720.07C2878.91 1720.52 2877.95 1720.88 2876.96 1721.15L2876.07 1721.41L2889.32 1739.41L2894.02 1728.59L2893.17 1728.49C2888.55 1727.91 2884.34 1725.41 2881.62 1721.66L2880.3 1719.85L2879.82 1720.07ZM2875.22 1703.76L2885.89 1718.53C2888.07 1721.53 2891.58 1723.32 2895.27 1723.32C2895.7 1723.32 2896.13 1723.31 2896.56 1723.25L2924.42 1720.09L2913.33 1704.92C2912.78 1704.17 2912.15 1703.5 2911.43 1702.91L2910.78 1702.36L2902.84 1720.29L2889.03 1702.02L2875.22 1703.76ZM2875.69 1685.76C2871.55 1686.18 2867.96 1688.84 2866.3 1692.67L2855.11 1718.5L2873.69 1716.41C2874.62 1716.31 2875.52 1716.08 2876.38 1715.78L2877.17 1715.48L2865.66 1699.6L2888.34 1696.73L2893.73 1683.84L2875.69 1685.76ZM2893.24 1698.8L2901.64 1709.94L2909.03 1693.25C2910.73 1689.44 2910.23 1684.99 2907.77 1681.61L2891.1 1658.95L2883.6 1676.17C2883.22 1677.03 2882.97 1677.92 2882.8 1678.82L2882.66 1679.66L2902.1 1677.61L2893.24 1698.8ZM2913.66 1681.15L2913.98 1681.94C2915.78 1686.25 2915.74 1691.16 2913.86 1695.41L2912.95 1697.46L2913.4 1697.77C2914.24 1698.34 2915.02 1698.99 2915.76 1699.7L2916.43 1700.36L2925.31 1679.85L2913.66 1681.15ZM2855.94 1678L2863.03 1687.66L2863.54 1686.99C2866.37 1683.33 2870.58 1680.96 2875.13 1680.47L2877.35 1680.23L2877.39 1679.68C2877.46 1678.57 2877.65 1677.46 2877.95 1676.36L2878.21 1675.44L2855.94 1678Z" fill="url(#paint28_linear_1_1587)"/>
<path d="M2885.23 1750.36C2870.47 1748.94 2857.24 1741.28 2848.57 1729.12L2854.51 1728.46C2855.48 1729.66 2856.53 1730.82 2857.6 1731.9C2864.04 1738.37 2872.1 1742.73 2880.93 1744.53L2885.23 1750.36Z" fill="url(#paint29_linear_1_1587)"/>
<path d="M2897.6 1744.87C2907.17 1743.33 2915.85 1738.85 2922.76 1731.92C2923.38 1731.3 2924.01 1730.63 2924.63 1729.93L2931.83 1729.11C2923.19 1741.24 2909.96 1748.93 2895.22 1750.37L2897.6 1744.87Z" fill="url(#paint30_linear_1_1587)"/>
<path d="M2933.29 1715.59C2935.25 1710.37 2936.25 1704.84 2936.25 1699.17C2936.25 1694.18 2935.46 1689.26 2933.92 1684.58L2936.81 1677.92C2939.84 1684.61 2941.38 1691.75 2941.38 1699.17C2941.38 1706.59 2939.86 1713.72 2936.83 1720.4L2933.29 1715.59Z" fill="url(#paint31_linear_1_1587)"/>
<path d="M2843.59 1720.48C2840.54 1713.79 2839 1706.62 2839 1699.19C2839 1691.71 2840.56 1684.51 2843.64 1677.78L2847.16 1682.59C2845.14 1687.88 2844.12 1693.46 2844.12 1699.19C2844.12 1704.21 2844.9 1709.14 2846.46 1713.84L2843.59 1720.48Z" fill="url(#paint32_linear_1_1587)"/>
<path d="M2848.79 1668.93C2857.45 1656.99 2870.59 1649.4 2885.21 1648L2882.81 1653.49C2873.25 1655.03 2864.54 1659.52 2857.62 1666.47C2857.11 1667 2856.58 1667.55 2856.05 1668.13L2848.79 1668.93Z" fill="url(#paint33_linear_1_1587)"/>
<path d="M2925.88 1669.91C2924.88 1668.69 2923.84 1667.55 2922.76 1666.45C2916.34 1660 2908.28 1655.63 2899.47 1653.84L2895.19 1648C2909.91 1649.42 2923.14 1657.09 2931.8 1669.24L2925.88 1669.91Z" fill="url(#paint34_linear_1_1587)"/>
<g filter="url(#filter8_i_1_1587)">
<path d="M1906.74 1630.73C1949.9 1627.27 1987.69 1659.46 1991.15 1702.62C1994.61 1745.78 1962.43 1783.58 1919.26 1787.04C1876.1 1790.5 1838.31 1758.31 1834.85 1715.15C1831.39 1671.98 1863.57 1634.19 1906.74 1630.73Z" fill="url(#paint35_radial_1_1587)"/>
</g>
<path fill-rule="evenodd" clip-rule="evenodd" d="M1901.46 1686.97L1933.91 1695.65L1930.28 1709.24C1930.22 1709.46 1930.16 1709.7 1930.09 1709.96C1929.36 1712.78 1928.13 1717.52 1924.91 1720.61C1920.52 1724.89 1913.91 1727.3 1908.37 1726.32L1908.32 1726.31L1908.28 1726.3C1902.95 1724.37 1898.43 1718.98 1896.76 1713.07L1896.76 1713.07C1895.56 1708.77 1896.85 1704.09 1897.63 1701.28C1897.7 1701.03 1897.76 1700.78 1897.82 1700.56L1901.46 1686.97ZM1902.2 1688.25L1898.84 1700.83C1898.78 1701.06 1898.71 1701.3 1898.64 1701.55C1897.86 1704.39 1896.65 1708.79 1897.77 1712.79C1899.36 1718.41 1903.65 1723.49 1908.59 1725.3C1913.74 1726.19 1919.99 1723.93 1924.18 1719.86L1924.18 1719.85C1927.17 1716.99 1928.33 1712.53 1929.08 1709.68C1929.14 1709.43 1929.2 1709.19 1929.26 1708.97L1932.63 1696.39L1902.2 1688.25Z" fill="url(#paint36_linear_1_1587)"/>
<path d="M1928.23 1698.86L1904.78 1692.59L1902.89 1699.65L1917.35 1718.23L1915.66 1719.08L1902.25 1702.02L1901.43 1705.11C1898.82 1714.87 1907.05 1720.97 1909.57 1721.65C1918.32 1722.75 1923.42 1716.43 1924.39 1712.79L1911.6 1696.48L1914.51 1697.26L1925.06 1710.72L1928.23 1698.86Z" fill="url(#paint37_linear_1_1587)"/>
<g filter="url(#filter9_i_1_1587)">
<path d="M1791.41 1804.27C1859.05 1861.87 1867.19 1963.39 1809.59 2031.03C1751.99 2098.67 1650.46 2106.8 1582.83 2049.2C1515.19 1991.6 1507.06 1890.08 1564.66 1822.45C1622.25 1754.81 1723.78 1746.67 1791.41 1804.27Z" fill="url(#paint38_radial_1_1587)"/>
<path d="M1791.41 1804.27C1859.05 1861.87 1867.19 1963.39 1809.59 2031.03C1751.99 2098.67 1650.46 2106.8 1582.83 2049.2C1515.19 1991.6 1507.06 1890.08 1564.66 1822.45C1622.25 1754.81 1723.78 1746.67 1791.41 1804.27Z" fill="url(#paint39_radial_1_1587)"/>
</g>
<g opacity="0.3">
<path d="M1688.17 1883C1699.21 1883 1709.39 1886.9 1716.97 1893.63C1716.35 1893.07 1715.7 1892.54 1715.04 1892.02C1712.27 1890.81 1708.82 1890.81 1707.44 1890.81C1695.9 1891.18 1671.95 1898.84 1666.03 1910.51C1663.02 1908.49 1660.74 1906.27 1659.53 1903.88C1664.89 1901.41 1670.19 1898.01 1672.79 1894.06C1672.79 1894.04 1672.84 1893.94 1672.91 1893.79C1673.55 1892.56 1676.15 1887.51 1670.06 1886.95C1669.04 1887.37 1668.21 1887.79 1667.37 1888.2C1668.24 1887.77 1669.11 1887.34 1670.19 1886.9C1675.6 1884.3 1681.67 1883 1688.17 1883Z" fill="url(#paint40_linear_1_1587)"/>
<path d="M1695.96 1971.26C1691.2 1971.48 1682.1 1964.32 1679.5 1954.78C1674.74 1936.56 1714.37 1927.46 1718.06 1927.24C1715.78 1927.37 1699.75 1930.91 1688.97 1937.9C1695.86 1940.49 1716.24 1947.74 1725.6 1947.26C1724.99 1948.77 1724.23 1950.31 1723.31 1951.86C1716.27 1954.07 1702.32 1960.57 1700.51 1966.92C1700.17 1968.14 1700.36 1969.12 1700.91 1969.84C1697.98 1970.9 1696.04 1971.26 1695.96 1971.26Z" fill="url(#paint41_linear_1_1587)"/>
</g>
<path d="M1672.79 1894.06C1666.94 1902.95 1647.45 1909.02 1644.2 1908.15C1644.42 1907.94 1644.42 1907.72 1644.63 1907.29C1645.71 1905.12 1647.01 1903.17 1648.53 1901.22C1650.05 1899.26 1651.56 1897.53 1653.3 1895.79C1655.03 1894.06 1656.76 1892.54 1658.71 1891.02C1660.01 1890.16 1661.09 1889.29 1662.39 1888.64C1665.21 1887.12 1668.02 1886.9 1668.89 1886.9C1677.34 1886.9 1672.79 1893.84 1672.79 1894.06Z" fill="url(#paint42_linear_1_1587)"/>
<path d="M1668.02 1956.51C1668.46 1959.33 1668.02 1970.17 1667.37 1971.26C1666.94 1971.26 1665.86 1971.26 1662.82 1969.74C1661.31 1968.87 1659.79 1967.79 1658.28 1966.92C1656.33 1965.4 1654.59 1963.88 1652.86 1962.15C1651.13 1960.41 1649.61 1958.68 1648.1 1956.73C1646.58 1954.78 1645.5 1952.82 1644.2 1950.66C1643.12 1948.49 1642.03 1946.32 1641.38 1943.93C1640.73 1941.55 1640.08 1939.16 1639.65 1936.78C1639.22 1934.39 1639 1931.79 1639 1929.19C1639 1926.59 1639.22 1923.98 1639.65 1921.6C1640.08 1919.21 1640.73 1916.61 1641.38 1914.44C1641.6 1914.01 1641.6 1913.57 1641.82 1913.14C1645.28 1917.69 1649.18 1921.81 1652.43 1926.15C1655.68 1930.49 1660.01 1937.43 1660.88 1938.95C1666.72 1947.84 1667.59 1953.69 1668.02 1956.51Z" fill="url(#paint43_linear_1_1587)"/>
<path d="M1733 1928.76C1733 1934.83 1731.92 1940.68 1729.75 1945.89C1724.34 1951.74 1687.08 1937.21 1686.65 1937C1681.45 1934.83 1666.07 1927.89 1664.77 1917.26C1662.82 1901.87 1693.8 1891.24 1707.44 1890.81C1709.17 1890.81 1714.16 1890.81 1716.97 1893.19C1726.72 1902.08 1733 1914.66 1733 1928.76Z" fill="url(#paint44_linear_1_1587)"/>
<path d="M1707.88 1970.39C1703.76 1972.34 1699.43 1970.82 1700.51 1966.92C1702.68 1959.33 1722.17 1951.52 1726.5 1951.09C1726.94 1951.09 1727.15 1951.31 1726.94 1951.74C1722.39 1959.76 1715.89 1966.27 1707.88 1970.39Z" fill="url(#paint45_linear_1_1587)"/>
<g filter="url(#filter10_i_1_1587)">
<path d="M1645.81 1591.99C1662.55 1606.24 1664.56 1631.37 1650.31 1648.11C1636.05 1664.85 1610.93 1666.86 1594.19 1652.6C1577.45 1638.35 1575.44 1613.23 1589.69 1596.49C1603.95 1579.75 1629.07 1577.74 1645.81 1591.99Z" fill="url(#paint46_radial_1_1587)"/>
</g>
<g clip-path="url(#clip0_1_1587)">
<path d="M1621.71 1616.66C1619.1 1615.96 1616.57 1617.12 1615.36 1619.45L1613.09 1618.84L1612.61 1620.63L1614.74 1621.2C1614.26 1624.1 1615.98 1626.77 1618.8 1627.53C1620.93 1628.1 1622.94 1627.75 1624.09 1626.51L1622.49 1624.75C1621.79 1625.45 1620.56 1625.64 1619.39 1625.32C1617.74 1624.88 1616.84 1623.54 1617.01 1621.81L1626.64 1624.39L1627.74 1622.77L1625.54 1622.18C1625.84 1619.68 1624.26 1617.34 1621.71 1616.66ZM1617.63 1620.06C1618.41 1618.79 1619.59 1618.23 1621.04 1618.61C1622.48 1619 1623.28 1620.17 1623.06 1621.52L1617.63 1620.06Z" fill="url(#paint47_linear_1_1587)"/>
<path d="M1616.87 1634.16L1616.21 1636.64C1608.23 1634.5 1603.49 1626.3 1605.63 1618.32L1608.11 1618.98C1606.34 1625.59 1610.27 1632.39 1616.87 1634.16ZM1623.95 1607.74L1623.29 1610.22C1629.89 1611.99 1633.82 1618.79 1632.05 1625.4L1634.53 1626.06C1636.67 1618.08 1631.93 1609.88 1623.95 1607.74Z" fill="url(#paint48_linear_1_1587)"/>
</g>
<g filter="url(#filter11_if_1_1587)">
<path d="M2037.34 1201.17C2037.87 1206.06 2042.27 1209.61 2047.17 1209.08C2052.06 1208.55 2055.61 1204.15 2055.08 1199.26C2054.55 1194.36 2050.15 1190.82 2045.26 1191.34C2040.36 1191.87 2036.82 1196.27 2037.34 1201.17Z" fill="url(#paint49_radial_1_1587)"/>
</g>
<path d="M2315.94 1323.5C2317.21 1335.25 2327.75 1343.75 2339.5 1342.48C2351.25 1341.22 2359.75 1330.67 2358.48 1318.92C2357.22 1307.17 2346.67 1298.68 2334.92 1299.94C2323.17 1301.21 2314.68 1311.75 2315.94 1323.5Z" fill="url(#paint50_radial_1_1587)"/>
<path d="M2343.41 1314.41C2343.79 1313.86 2344 1313.21 2344 1312.53C2343.99 1312.14 2343.85 1311.76 2343.61 1311.45C2343.5 1311.3 2343.34 1311.18 2343.17 1311.11C2343 1311.03 2342.81 1310.99 2342.62 1311C2341.08 1311 2340.3 1312.44 2340.3 1315.28C2340.3 1315.68 2340.32 1316.09 2340.37 1316.5L2338.09 1318.41C2337.54 1317.94 2336.82 1317.7 2335.95 1317.7C2335.3 1317.69 2334.67 1317.84 2334.09 1318.13C2333.52 1318.41 2333.02 1318.8 2332.61 1319.28C2332.15 1319.85 2331.78 1320.48 2331.51 1321.16C2331.16 1322 2330.99 1322.9 2331 1323.81C2330.98 1324.76 2331.19 1325.69 2331.6 1326.54C2331.28 1327.54 2331.12 1328.58 2331.13 1329.63C2331.13 1330.76 2331.47 1331.87 2332.11 1332.79C2332.77 1333.76 2333.62 1334.24 2334.65 1334.24C2334.68 1334.24 2334.71 1334.24 2334.74 1334.23C2334.77 1334.21 2334.8 1334.2 2334.82 1334.17C2334.85 1334.13 2334.87 1334.09 2334.89 1334.05C2334.9 1334 2334.9 1333.95 2334.9 1333.9C2334.88 1333.61 2334.72 1333.58 2334.65 1333.58C2333.86 1333.58 2333.24 1333.21 2332.73 1332.44C2332.22 1331.67 2331.96 1330.76 2331.97 1329.83C2331.96 1329.04 2332.05 1328.25 2332.22 1327.48C2333.06 1328.45 2334.26 1328.94 2335.78 1328.94C2336.81 1328.96 2337.84 1328.76 2338.78 1328.34C2339.61 1327.96 2340.31 1327.37 2340.83 1326.63C2341.33 1325.9 2341.7 1325.09 2341.93 1324.23C2342.17 1323.35 2342.29 1322.43 2342.29 1321.52C2342.29 1320.6 2342.1 1318.85 2341.72 1316.34C2342.36 1315.76 2342.92 1315.11 2343.41 1314.41V1314.41ZM2343.18 1312.62C2343.18 1313.35 2342.65 1314.27 2341.61 1315.34C2341.57 1314.94 2341.55 1314.6 2341.55 1314.33C2341.55 1312.65 2341.91 1311.8 2342.63 1311.8C2342.87 1311.8 2343.18 1311.88 2343.18 1312.62ZM2337.44 1318.97C2334.74 1321.28 2332.91 1323.47 2332 1325.5C2331.85 1324.97 2331.78 1324.43 2331.78 1323.89C2331.78 1323.25 2331.88 1322.62 2332.07 1322.01C2332.51 1320.59 2333.23 1319.57 2334.22 1318.97C2334.77 1318.65 2335.39 1318.49 2336.02 1318.49C2336.62 1318.49 2337.08 1318.65 2337.44 1318.97ZM2334.54 1322.96C2335.56 1321.76 2336.68 1320.64 2337.87 1319.62C2337.95 1319.88 2338 1320.14 2338 1320.41C2337.99 1321.25 2337.66 1322.06 2337.07 1322.65C2336.65 1323.12 2336.19 1323.35 2335.71 1323.35H2335.53L2335.56 1323.52C2335.58 1323.67 2335.65 1323.8 2335.75 1323.9C2335.86 1324 2335.99 1324.04 2336.14 1324.04C2336.74 1324.04 2337.32 1323.85 2337.8 1323.47C2338.24 1323.14 2338.59 1322.7 2338.79 1322.18C2338.99 1321.66 2339.08 1321.11 2339.07 1320.55C2339.08 1319.99 2338.91 1319.45 2338.6 1318.99L2340.46 1317.45C2340.66 1319.6 2340.77 1320.91 2340.77 1321.34C2340.77 1323.18 2340.38 1324.76 2339.62 1326.04C2339.23 1326.69 2338.68 1327.22 2338.03 1327.58C2337.3 1327.97 2336.48 1328.17 2335.65 1328.15C2334.21 1328.15 2333.17 1327.63 2332.49 1326.56C2332.94 1325.25 2333.64 1324.02 2334.54 1322.96V1322.96Z" fill="url(#paint51_linear_1_1587)"/>
<g filter="url(#filter12_if_1_1587)">
<path d="M2083.86 1319.48C2084.68 1315.14 2081.82 1310.96 2077.48 1310.14C2073.14 1309.32 2068.96 1312.18 2068.14 1316.52C2067.32 1320.86 2070.18 1325.04 2074.52 1325.86C2078.86 1326.68 2083.04 1323.82 2083.86 1319.48Z" fill="url(#paint52_radial_1_1587)"/>
</g>
<g filter="url(#filter13_iif_1_1587)">
<path d="M1626.63 1218.74C1619.86 1223.36 1618.11 1232.6 1622.74 1239.37C1627.36 1246.14 1636.6 1247.89 1643.37 1243.26C1650.14 1238.64 1651.89 1229.4 1647.26 1222.63C1642.64 1215.86 1633.4 1214.12 1626.63 1218.74Z" fill="url(#paint53_radial_1_1587)"/>
</g>
<path d="M2184.98 1474.63C2199.14 1469.67 2206.59 1454.17 2201.63 1440.02C2196.67 1425.86 2181.17 1418.41 2167.02 1423.37C2152.86 1428.33 2145.41 1443.83 2150.37 1457.98C2155.33 1472.14 2170.83 1479.59 2184.98 1474.63Z" fill="url(#paint54_radial_1_1587)"/>
<path d="M2180.55 1438.23L2179.04 1437.63L2175.92 1445.55L2172.61 1437.63L2171.12 1438.26L2175.07 1447.69L2175.06 1447.69L2165.22 1443.83L2164.65 1445.29L2172.98 1448.56L2164.99 1451.89L2165.61 1453.38L2175.06 1449.45L2175.06 1449.45L2171.32 1458.94L2172.78 1459.52L2175.93 1451.53L2179.28 1459.54L2180.78 1458.91L2176.82 1449.45L2186.34 1453.38L2186.95 1451.9L2178.92 1448.58L2187.01 1445.23L2186.4 1443.74L2176.83 1447.7L2176.82 1447.7L2176.82 1449.45L2175.06 1449.45L2175.06 1447.7L2176.82 1447.7L2180.55 1438.23Z" fill="url(#paint55_linear_1_1587)"/>
<g filter="url(#filter14_i_1_1587)">
<path d="M2110.05 1558.41C2092.1 1555.02 2074.8 1566.83 2071.41 1584.78C2068.02 1602.73 2079.83 1620.03 2097.78 1623.42C2115.73 1626.81 2133.03 1615 2136.42 1597.05C2139.81 1579.1 2128 1561.8 2110.05 1558.41Z" fill="url(#paint56_radial_1_1587)"/>
</g>
<path d="M2103.3 1586.09L2103.3 1586.1V1586.1L2101.68 1577.51L2100.31 1577.08L2099.47 1578.22L2099.47 1578.22L2103.3 1586.09Z" fill="url(#paint57_linear_1_1587)"/>
<path d="M2104.19 1582.5L2104.88 1585.83L2105.62 1582.45L2104.88 1581.97L2104.19 1582.51V1582.5Z" fill="url(#paint58_linear_1_1587)"/>
<path d="M2109.33 1583.09L2108.45 1583.19L2107.41 1586.47L2109.7 1583.88L2109.33 1583.09Z" fill="url(#paint59_linear_1_1587)"/>
<path d="M2116.89 1583.78V1582.37L2115.52 1581.93L2109.11 1587.94L2116.89 1583.78Z" fill="url(#paint60_linear_1_1587)"/>
<path d="M2101.22 1587.33L2099.31 1584.47L2098.44 1584.6L2098.31 1585.47L2101.22 1587.33Z" fill="url(#paint61_linear_1_1587)"/>
<path d="M2113.49 1590.26L2110.08 1590.93L2113.49 1591.67H2113.49L2114.01 1590.96L2113.49 1590.26Z" fill="url(#paint62_linear_1_1587)"/>
<path d="M2099.7 1590.94L2090.92 1589.84L2090.08 1590.98L2090.92 1592.12L2099.7 1590.94Z" fill="url(#paint63_linear_1_1587)"/>
<path d="M2096.46 1592.84L2096.19 1593.67L2096.91 1594.18L2099.94 1592.49L2096.46 1592.84Z" fill="url(#paint64_linear_1_1587)"/>
<path d="M2097.46 1595.26L2097.43 1596.13L2098.26 1596.42L2100.69 1593.87L2097.46 1595.26Z" fill="url(#paint65_linear_1_1587)"/>
<path d="M2101.83 1595.04L2099.24 1597.31L2099.48 1598.15L2100.36 1598.19L2101.83 1595.04Z" fill="url(#paint66_linear_1_1587)"/>
<path d="M2104.9 1596.05L2104.21 1599.4L2104.92 1599.91L2105.64 1599.39L2104.9 1596.05Z" fill="url(#paint67_linear_1_1587)"/>
<path d="M2116.91 1598.1V1598.1L2109.11 1593.95L2115.55 1599.95L2116.91 1599.51L2116.91 1598.1Z" fill="url(#paint68_linear_1_1587)"/>
<path d="M2108.31 1598.74L2106.56 1595.81L2106.96 1599.18L2107.8 1599.44L2108.32 1598.74L2108.31 1598.74Z" fill="url(#paint69_linear_1_1587)"/>
<path d="M2103.32 1595.82L2099.53 1603.71L2100.37 1604.85L2101.73 1604.41L2103.32 1595.82Z" fill="url(#paint70_linear_1_1587)"/>
<g filter="url(#filter15_i_1_1587)">
<path d="M1801.45 1578.25C1797.68 1560.38 1780.13 1548.95 1762.25 1552.72C1744.38 1556.49 1732.95 1574.04 1736.72 1591.91C1740.49 1609.79 1758.04 1621.22 1775.91 1617.45C1793.79 1613.68 1805.22 1596.13 1801.45 1578.25Z" fill="url(#paint71_radial_1_1587)"/>
</g>
<path d="M1778.55 1572.6H1782.6V1586.79H1778.55V1585.47C1777.92 1584.22 1776.06 1584.57 1775.78 1585.82V1591.64H1771.86V1585.4C1771.54 1584.71 1769.81 1584.21 1769.11 1585.55V1591.64H1765.45V1581.69H1769.11V1582.83C1771.04 1581.03 1774.24 1580.89 1775.41 1583.11C1775.41 1583.11 1776.68 1581.21 1778.55 1581.7V1572.6Z" fill="url(#paint72_linear_1_1587)"/>
<path d="M1755.01 1587.44H1758.97V1591.64H1755.01V1587.44Z" fill="url(#paint73_linear_1_1587)"/>
<path d="M1764.25 1584.45H1760.05V1591.64H1764.25V1584.45Z" fill="url(#paint74_linear_1_1587)"/>
<path d="M1782.57 1589.66C1782.57 1590.76 1781.67 1591.64 1780.55 1591.64C1779.43 1591.64 1778.52 1590.76 1778.52 1589.66C1778.52 1588.57 1779.43 1587.68 1780.55 1587.68C1781.67 1587.68 1782.57 1588.57 1782.57 1589.66Z" fill="url(#paint75_linear_1_1587)"/>
<path d="M1560.62 1508.42C1566.87 1495.43 1561.41 1479.83 1548.42 1473.58C1535.43 1467.34 1519.83 1472.8 1513.58 1485.79C1507.34 1498.78 1512.8 1514.37 1525.79 1520.62C1538.78 1526.87 1554.38 1521.41 1560.62 1508.42Z" fill="url(#paint76_radial_1_1587)"/>
<path d="M1529.98 1491.11C1530.09 1490.97 1530.21 1490.84 1530.32 1490.7C1530.33 1490.69 1530.34 1490.69 1530.35 1490.69C1530.36 1490.67 1530.37 1490.66 1530.38 1490.65L1530.39 1490.64C1530.48 1490.56 1530.56 1490.48 1530.66 1490.41C1530.99 1490.14 1531.36 1489.93 1531.76 1489.79C1532.99 1489.35 1534.36 1489.62 1535.43 1490.66C1536.93 1492.09 1536.8 1494.41 1535.6 1495.95C1534.09 1498.24 1531.49 1501.44 1535.09 1504.31C1535.73 1504.83 1536.21 1505.25 1538.25 1505.85C1536.92 1506.1 1535.68 1506.03 1534.31 1505.67C1533.33 1505.11 1531.8 1503.9 1531.28 1502.28C1530.5 1499.81 1532.67 1496.13 1533.72 1494.71C1535.16 1492.75 1532.83 1490.63 1531.11 1493C1530.21 1494.23 1528.64 1497.73 1529.19 1500.33C1529.51 1501.8 1529.93 1502.87 1531.62 1504.35C1531.3 1504.15 1531 1503.94 1530.71 1503.7C1526.79 1499.97 1527.25 1494.2 1529.98 1491.11Z" fill="url(#paint77_linear_1_1587)"/>
<path d="M1543.32 1502.89C1543.21 1503.03 1543.09 1503.16 1542.98 1503.3C1542.97 1503.31 1542.96 1503.31 1542.96 1503.31C1542.95 1503.33 1542.93 1503.34 1542.92 1503.35L1542.91 1503.36C1542.83 1503.44 1542.74 1503.52 1542.64 1503.59C1542.31 1503.86 1541.94 1504.06 1541.54 1504.21C1540.31 1504.65 1538.94 1504.38 1537.87 1503.34C1536.37 1501.9 1536.51 1499.59 1537.7 1498.05C1539.21 1495.76 1541.81 1492.56 1538.22 1489.69C1537.57 1489.17 1537.09 1488.75 1535.05 1488.15C1536.38 1487.89 1537.62 1487.97 1538.99 1488.33C1539.97 1488.89 1541.5 1490.1 1542.02 1491.72C1542.81 1494.18 1540.63 1497.87 1539.58 1499.28C1538.14 1501.25 1540.47 1503.37 1542.19 1501C1543.09 1499.76 1544.66 1496.27 1544.11 1493.67C1543.79 1492.2 1543.37 1491.13 1541.68 1489.65C1542 1489.84 1542.3 1490.06 1542.59 1490.3C1546.51 1494.03 1546.06 1499.8 1543.32 1502.89Z" fill="url(#paint78_linear_1_1587)"/>
<g filter="url(#filter16_i_1_1587)">
<path d="M2550.32 1595.68C2562.85 1628.09 2599.29 1644.2 2631.69 1631.67C2664.1 1619.13 2680.21 1582.7 2667.68 1550.29C2655.15 1517.88 2618.71 1501.77 2586.31 1514.3C2553.9 1526.84 2537.79 1563.27 2550.32 1595.68Z" fill="url(#paint79_radial_1_1587)"/>
</g>
<path d="M2595.97 1558.02L2589.89 1559.65L2599.22 1594.48L2605.3 1592.85L2595.97 1558.02Z" fill="url(#paint80_linear_1_1587)"/>
<path d="M2621.92 1588.4L2603.94 1574.55L2612.58 1553.57L2620.21 1551.53L2611.74 1572.46L2629.55 1586.35L2621.92 1588.4Z" fill="url(#paint81_linear_1_1587)"/>
<path d="M2793.61 1485.86C2817.29 1483.31 2834.42 1462.05 2831.87 1438.37C2829.33 1414.69 2808.06 1397.56 2784.38 1400.11C2760.71 1402.66 2743.58 1423.92 2746.12 1447.6C2748.67 1471.28 2769.94 1488.41 2793.61 1485.86Z" fill="url(#paint82_radial_1_1587)"/>
<path fill-rule="evenodd" clip-rule="evenodd" d="M2790.76 1438.08L2787.64 1432.2L2783.14 1430.81L2781.75 1435.31L2784.87 1441.2L2778.99 1444.32L2777.6 1448.82L2782.1 1450.2L2787.99 1447.08L2791.11 1452.97L2795.61 1454.35L2796.99 1449.85L2793.87 1443.97L2799.76 1440.85L2801.14 1436.35L2796.64 1434.96L2790.76 1438.08Z" fill="url(#paint83_linear_1_1587)"/>
<path fill-rule="evenodd" clip-rule="evenodd" d="M1840.13 1293.43C1839.56 1292.9 1839.26 1292.89 1839.21 1292.89C1839.16 1292.89 1838.87 1292.9 1838.3 1293.43C1837.71 1293.97 1837.01 1294.9 1836.26 1296.34C1834.75 1299.2 1833.31 1303.53 1832.07 1309.12C1829.59 1320.25 1828.04 1335.77 1828.04 1353C1828.04 1370.23 1829.59 1385.75 1832.07 1396.88C1833.31 1402.47 1834.75 1406.8 1836.26 1409.66C1837.01 1411.1 1837.71 1412.03 1838.3 1412.57C1838.87 1413.1 1839.16 1413.11 1839.21 1413.11C1839.26 1413.11 1839.56 1413.1 1840.13 1412.57C1840.71 1412.03 1841.42 1411.1 1842.17 1409.66C1843.68 1406.8 1845.12 1402.47 1846.36 1396.88C1848.84 1385.75 1850.39 1370.23 1850.39 1353C1850.39 1335.77 1848.84 1320.25 1846.36 1309.12C1845.12 1303.53 1843.68 1299.2 1842.17 1296.34C1841.42 1294.9 1840.71 1293.97 1840.13 1293.43ZM1853.2 1353C1853.2 1318.25 1846.94 1290.08 1839.21 1290.08C1831.49 1290.08 1825.22 1318.25 1825.22 1353C1825.22 1387.75 1831.49 1415.92 1839.21 1415.92C1846.94 1415.92 1853.2 1387.75 1853.2 1353Z" fill="white"/>
<path fill-rule="evenodd" clip-rule="evenodd" d="M1891.29 1324C1891.46 1323.25 1891.32 1322.99 1891.3 1322.95C1891.28 1322.91 1891.12 1322.66 1890.38 1322.42C1889.62 1322.19 1888.46 1322.05 1886.84 1322.11C1883.6 1322.24 1879.13 1323.16 1873.66 1324.88C1862.78 1328.3 1848.56 1334.71 1833.62 1343.33C1818.69 1351.94 1806.02 1361.05 1797.61 1368.76C1793.39 1372.63 1790.36 1376.04 1788.63 1378.78C1787.76 1380.15 1787.31 1381.22 1787.13 1382C1786.96 1382.75 1787.1 1383.01 1787.13 1383.05C1787.15 1383.09 1787.31 1383.34 1788.05 1383.58C1788.81 1383.81 1789.96 1383.95 1791.59 1383.89C1794.82 1383.76 1799.3 1382.84 1804.76 1381.12C1815.65 1377.7 1829.87 1371.29 1844.8 1362.67C1859.74 1354.06 1872.4 1344.95 1880.81 1337.24C1885.03 1333.37 1888.07 1329.96 1889.8 1327.22C1890.66 1325.85 1891.12 1324.78 1891.29 1324ZM1846.21 1365.11C1876.32 1347.73 1897.6 1328.23 1893.74 1321.54C1889.87 1314.85 1862.33 1323.52 1832.22 1340.89C1802.11 1358.27 1780.83 1377.77 1784.69 1384.46C1788.55 1391.15 1816.1 1382.48 1846.21 1365.11Z" fill="white"/>
<path fill-rule="evenodd" clip-rule="evenodd" d="M1890.36 1383.61C1891.1 1383.37 1891.26 1383.12 1891.28 1383.08C1891.31 1383.04 1891.45 1382.78 1891.27 1382.02C1891.1 1381.25 1890.64 1380.17 1889.78 1378.8C1888.05 1376.06 1885.01 1372.65 1880.79 1368.77C1872.39 1361.06 1859.72 1351.95 1844.79 1343.32C1829.87 1334.7 1815.65 1328.28 1804.77 1324.85C1799.31 1323.13 1794.83 1322.21 1791.6 1322.08C1789.98 1322.02 1788.82 1322.16 1788.06 1322.39C1787.32 1322.63 1787.17 1322.88 1787.14 1322.92C1787.12 1322.96 1786.98 1323.22 1787.15 1323.98C1787.33 1324.75 1787.78 1325.83 1788.65 1327.2C1790.38 1329.94 1793.41 1333.35 1797.63 1337.23C1806.04 1344.94 1818.7 1354.05 1833.63 1362.68C1848.56 1371.3 1862.78 1377.72 1873.66 1381.15C1879.12 1382.87 1883.59 1383.79 1886.83 1383.92C1888.45 1383.98 1889.6 1383.84 1890.36 1383.61ZM1832.22 1365.11C1862.33 1382.5 1889.86 1391.18 1893.72 1384.49C1897.58 1377.8 1876.3 1358.28 1846.2 1340.89C1816.1 1323.5 1788.57 1314.82 1784.71 1321.51C1780.85 1328.2 1802.12 1347.72 1832.22 1365.11Z" fill="white"/>
<path fill-rule="evenodd" clip-rule="evenodd" d="M1799 1335.38C1801.44 1335.38 1803.42 1337.36 1803.42 1339.81C1803.42 1342.25 1801.44 1344.23 1799 1344.23C1796.56 1344.23 1794.57 1342.25 1794.57 1339.81C1794.57 1337.36 1796.56 1335.38 1799 1335.38Z" fill="white"/>
<path fill-rule="evenodd" clip-rule="evenodd" d="M1869.32 1320.22C1871.76 1320.22 1873.74 1322.2 1873.74 1324.65C1873.74 1327.09 1871.76 1329.07 1869.32 1329.07C1866.87 1329.07 1864.89 1327.09 1864.89 1324.65C1864.89 1322.2 1866.87 1320.22 1869.32 1320.22Z" fill="white"/>
<path fill-rule="evenodd" clip-rule="evenodd" d="M1830.3 1389.7C1832.74 1389.7 1834.72 1391.68 1834.72 1394.12C1834.72 1396.57 1832.74 1398.55 1830.3 1398.55C1827.85 1398.55 1825.87 1396.57 1825.87 1394.12C1825.87 1391.68 1827.85 1389.7 1830.3 1389.7Z" fill="white"/>
<path fill-rule="evenodd" clip-rule="evenodd" d="M1838.97 1345.47C1843.11 1345.47 1846.46 1348.83 1846.46 1352.97C1846.46 1357.11 1843.11 1360.46 1838.97 1360.46C1834.83 1360.46 1831.47 1357.11 1831.47 1352.97C1831.47 1348.83 1834.83 1345.47 1838.97 1345.47Z" fill="white"/>
<path d="M2164.24 1279.85C2154.56 1283.24 2149.46 1293.84 2152.85 1303.52C2156.24 1313.21 2166.84 1318.31 2176.52 1314.91C2186.21 1311.52 2191.31 1300.92 2187.91 1291.24C2184.52 1281.56 2173.92 1276.46 2164.24 1279.85Z" fill="url(#paint84_radial_1_1587)"/>
<path fill-rule="evenodd" clip-rule="evenodd" d="M2170.31 1289.37C2165.93 1289.37 2162.37 1292.93 2162.37 1297.31C2162.37 1301.69 2165.93 1305.25 2170.31 1305.25C2174.68 1305.25 2178.25 1301.69 2178.25 1297.31C2178.25 1292.93 2174.68 1289.37 2170.31 1289.37ZM2171.78 1297.56C2171.88 1297.66 2171.99 1297.62 2172.1 1297.52C2172.81 1296.84 2173.57 1295.77 2173.82 1295.21C2173.88 1295.09 2173.99 1295.03 2174.1 1295.07C2174.24 1295.13 2174.24 1295.36 2174.11 1295.62C2173.78 1296.3 2173.33 1297.05 2172.42 1297.99C2172.4 1298 2172.39 1298.03 2172.38 1298.05C2172.37 1298.08 2172.36 1298.1 2172.36 1298.13C2172.36 1298.15 2172.37 1298.18 2172.38 1298.2C2172.39 1298.23 2172.41 1298.25 2172.43 1298.27C2172.51 1298.34 2172.64 1298.33 2172.76 1298.21C2173.23 1297.73 2173.54 1297.36 2173.81 1296.97C2173.88 1296.87 2173.97 1296.83 2174.05 1296.85C2174.17 1296.88 2174.19 1296.99 2174.15 1297.13C2174.09 1297.35 2173.47 1298.17 2173.22 1298.44C2172.55 1299.19 2171.88 1299.6 2170.59 1300.27C2170.14 1300.51 2169.8 1300.73 2169.6 1301.07C2169.41 1301.39 2169.36 1301.49 2169.34 1301.53C2169.3 1301.6 2169.3 1301.69 2169.32 1301.77C2169.35 1301.84 2169.4 1301.91 2169.48 1301.95C2169.51 1301.96 2169.55 1301.97 2169.6 1301.98C2169.64 1301.98 2169.68 1301.97 2169.72 1301.96C2169.75 1301.94 2169.79 1301.92 2169.82 1301.89C2169.85 1301.86 2169.87 1301.83 2169.89 1301.79L2169.89 1301.79C2169.89 1301.78 2169.89 1301.78 2170.12 1301.38C2170.3 1301.09 2170.57 1300.86 2170.88 1300.71C2172.17 1300.12 2172.7 1299.66 2173.45 1298.91C2173.79 1298.57 2174.26 1297.84 2174.39 1297.62C2174.75 1297.01 2174.57 1296.49 2174.24 1296.4C2174.23 1296.4 2174.22 1296.4 2174.22 1296.39C2174.21 1296.38 2174.21 1296.37 2174.21 1296.36C2174.21 1296.35 2174.21 1296.35 2174.21 1296.34C2174.47 1295.91 2174.58 1295.61 2174.63 1295.38C2174.69 1295.07 2174.6 1294.68 2174.17 1294.59C2174.16 1294.59 2174.16 1294.59 2174.15 1294.58C2174.14 1294.57 2174.14 1294.57 2174.14 1294.56C2174.14 1294.55 2174.14 1294.55 2174.14 1294.54C2174.16 1294.46 2174.19 1294.36 2174.2 1294.28L2174.21 1294.23C2174.3 1293.82 2174.05 1293.45 2173.74 1293.39C2173.64 1293.37 2173.53 1293.36 2173.43 1293.39C2173.33 1293.41 2173.24 1293.45 2173.15 1293.51C2173.14 1293.52 2173.13 1293.52 2173.11 1293.52C2173.1 1293.52 2173.09 1293.51 2173.08 1293.5C2173.04 1293.45 2172.99 1293.42 2172.93 1293.39C2172.88 1293.37 2172.82 1293.35 2172.76 1293.35C2172.49 1293.35 2172.22 1293.43 2172.03 1293.84C2171.89 1294.14 2171.68 1294.54 2171.07 1295.21C2170.51 1295.84 2169.73 1296.45 2169.24 1296.76C2169.16 1296.82 2169.04 1296.81 2169.05 1296.69C2169.06 1296.63 2169.08 1296.47 2169.12 1296.26C2169.18 1295.82 2169.28 1295.18 2169.3 1294.94C2169.36 1294.36 2169.04 1294.09 2168.69 1294.04C2168.4 1294 2167.96 1294.08 2167.72 1294.74C2167.69 1294.82 2167.66 1294.92 2167.62 1295.02C2167.46 1295.41 2167.24 1295.98 2167.04 1296.78C2166.87 1297.5 2166.84 1298.34 2167 1299.3C2167.01 1299.36 2167 1299.42 2166.97 1299.47C2166.92 1299.54 2166.87 1299.62 2166.82 1299.7C2166.65 1299.97 2166.46 1300.28 2166.34 1300.56C2166.31 1300.63 2166.3 1300.71 2166.32 1300.78C2166.35 1300.86 2166.4 1300.92 2166.47 1300.96C2166.5 1300.98 2166.54 1300.99 2166.58 1300.99C2166.62 1301 2166.67 1300.99 2166.71 1300.98C2166.74 1300.96 2166.78 1300.94 2166.81 1300.92C2166.84 1300.89 2166.87 1300.86 2166.89 1300.82C2166.96 1300.67 2167.09 1300.42 2167.17 1300.24C2167.2 1300.18 2167.23 1300.14 2167.25 1300.1L2167.26 1300.07C2167.38 1299.82 2167.46 1299.65 2167.5 1299.55C2167.53 1299.45 2167.55 1299.33 2167.49 1299.06C2167.39 1298.61 2167.36 1297.77 2167.54 1297.03C2167.74 1296.26 2167.98 1295.5 2168.27 1294.76C2168.34 1294.58 2168.45 1294.53 2168.55 1294.53C2168.66 1294.54 2168.85 1294.59 2168.8 1294.96C2168.71 1295.55 2168.59 1296.26 2168.53 1296.63L2168.5 1296.76C2168.48 1296.9 2168.45 1297.22 2168.71 1297.37C2168.91 1297.49 2169.13 1297.42 2169.38 1297.26C2169.93 1296.89 2170.87 1296.15 2171.47 1295.48C2172.09 1294.78 2172.29 1294.36 2172.45 1293.98C2172.52 1293.81 2172.71 1293.81 2172.78 1293.83C2172.84 1293.85 2172.92 1293.94 2172.87 1294.13C2172.73 1294.59 2172.16 1295.65 2171.06 1296.64C2170.94 1296.75 2170.95 1296.88 2171.02 1296.95C2171.08 1297.02 2171.19 1297.06 2171.32 1296.95C2172.31 1296.11 2172.87 1295.11 2173.12 1294.57C2173.21 1294.39 2173.28 1294.2 2173.34 1294.02C2173.39 1293.86 2173.51 1293.8 2173.6 1293.82C2173.72 1293.85 2173.8 1293.97 2173.76 1294.17C2173.7 1294.43 2173.61 1294.68 2173.49 1294.92C2173.17 1295.59 2172.51 1296.49 2171.79 1297.26C2171.77 1297.28 2171.75 1297.3 2171.74 1297.33C2171.72 1297.36 2171.72 1297.38 2171.72 1297.41C2171.72 1297.44 2171.72 1297.47 2171.73 1297.49C2171.75 1297.52 2171.76 1297.54 2171.78 1297.56ZM2167.32 1294.22C2167.36 1294.19 2167.35 1294.15 2167.34 1294.11L2167.33 1294.11C2167.28 1293.94 2166.98 1293.23 2166.9 1293.09C2166.86 1293.02 2166.81 1293.01 2166.75 1293.03C2166.68 1293.05 2166.6 1293.12 2166.46 1293.24C2166.33 1293.36 2166.25 1293.44 2166.21 1293.5C2166.18 1293.55 2166.19 1293.61 2166.25 1293.65C2166.38 1293.75 2167.05 1294.14 2167.21 1294.22L2167.21 1294.22C2167.24 1294.24 2167.28 1294.26 2167.32 1294.22L2167.32 1294.22ZM2172.79 1300.5C2172.74 1300.5 2172.73 1300.54 2172.72 1300.57L2172.72 1300.58C2172.66 1300.74 2172.46 1301.49 2172.44 1301.65C2172.43 1301.73 2172.46 1301.77 2172.52 1301.79C2172.59 1301.81 2172.7 1301.81 2172.88 1301.8C2173.06 1301.79 2173.17 1301.77 2173.24 1301.74C2173.29 1301.72 2173.32 1301.67 2173.3 1301.6C2173.25 1301.44 2172.96 1300.72 2172.88 1300.57L2172.88 1300.57C2172.87 1300.53 2172.84 1300.49 2172.79 1300.5H2172.79ZM2173.22 1300.15C2173.2 1300.2 2173.23 1300.23 2173.25 1300.26L2173.25 1300.26C2173.36 1300.4 2173.9 1300.95 2174.03 1301.05C2174.09 1301.1 2174.14 1301.1 2174.19 1301.06C2174.24 1301 2174.3 1300.91 2174.38 1300.75C2174.47 1300.59 2174.51 1300.49 2174.52 1300.42C2174.53 1300.36 2174.5 1300.31 2174.42 1300.29C2174.27 1300.25 2173.51 1300.12 2173.33 1300.11L2173.33 1300.11C2173.29 1300.11 2173.25 1300.11 2173.22 1300.15L2173.22 1300.15ZM2167.06 1294.68C2167.05 1294.63 2167.01 1294.62 2166.98 1294.62L2166.97 1294.62C2166.8 1294.57 2166.04 1294.46 2165.87 1294.46C2165.79 1294.46 2165.76 1294.49 2165.75 1294.55C2165.73 1294.63 2165.74 1294.74 2165.77 1294.91C2165.81 1295.09 2165.83 1295.2 2165.87 1295.26C2165.9 1295.31 2165.95 1295.34 2166.02 1295.31C2166.17 1295.24 2166.85 1294.88 2167 1294.78L2167 1294.78C2167.03 1294.76 2167.07 1294.73 2167.06 1294.69V1294.68ZM2170.31 1304.58C2170.34 1304.58 2170.38 1304.57 2170.41 1304.56C2170.45 1304.55 2170.48 1304.53 2170.51 1304.5C2170.53 1304.48 2170.55 1304.44 2170.57 1304.41C2170.58 1304.38 2170.59 1304.34 2170.59 1304.3C2170.59 1304.27 2170.58 1304.23 2170.57 1304.2C2170.55 1304.16 2170.53 1304.13 2170.51 1304.11C2170.48 1304.08 2170.45 1304.06 2170.41 1304.05C2170.38 1304.03 2170.34 1304.03 2170.31 1304.03C2170.24 1304.03 2170.17 1304.06 2170.12 1304.11C2170.07 1304.16 2170.04 1304.23 2170.04 1304.3C2170.04 1304.38 2170.07 1304.44 2170.12 1304.5C2170.17 1304.55 2170.24 1304.58 2170.31 1304.58ZM2170.31 1290.59C2170.38 1290.59 2170.45 1290.56 2170.5 1290.51C2170.55 1290.45 2170.58 1290.38 2170.58 1290.31C2170.58 1290.24 2170.55 1290.17 2170.5 1290.12C2170.45 1290.07 2170.38 1290.04 2170.31 1290.04C2170.23 1290.04 2170.16 1290.07 2170.11 1290.12C2170.06 1290.17 2170.03 1290.24 2170.03 1290.31C2170.03 1290.38 2170.06 1290.45 2170.11 1290.51C2170.16 1290.56 2170.23 1290.59 2170.31 1290.59ZM2172.12 1304.34C2172.15 1304.34 2172.19 1304.33 2172.22 1304.32C2172.26 1304.31 2172.29 1304.29 2172.31 1304.26C2172.34 1304.23 2172.36 1304.2 2172.37 1304.17C2172.39 1304.14 2172.39 1304.1 2172.39 1304.07C2172.39 1304.03 2172.39 1303.99 2172.37 1303.96C2172.36 1303.93 2172.34 1303.9 2172.31 1303.87C2172.29 1303.84 2172.26 1303.82 2172.22 1303.81C2172.19 1303.8 2172.15 1303.79 2172.12 1303.79C2172.04 1303.79 2171.97 1303.82 2171.92 1303.87C2171.87 1303.92 2171.84 1303.99 2171.84 1304.07C2171.84 1304.14 2171.87 1304.21 2171.92 1304.26C2171.97 1304.31 2172.04 1304.34 2172.12 1304.34ZM2168.5 1290.82C2168.57 1290.82 2168.64 1290.8 2168.69 1290.74C2168.74 1290.69 2168.77 1290.62 2168.77 1290.55C2168.77 1290.48 2168.74 1290.41 2168.69 1290.36C2168.64 1290.3 2168.57 1290.27 2168.5 1290.27C2168.42 1290.27 2168.35 1290.3 2168.3 1290.36C2168.25 1290.41 2168.22 1290.48 2168.22 1290.55C2168.22 1290.62 2168.25 1290.69 2168.3 1290.74C2168.35 1290.8 2168.42 1290.82 2168.5 1290.82ZM2173.81 1303.64C2173.84 1303.64 2173.88 1303.64 2173.91 1303.62C2173.95 1303.61 2173.98 1303.59 2174.01 1303.56C2174.03 1303.54 2174.05 1303.51 2174.07 1303.47C2174.08 1303.44 2174.09 1303.4 2174.09 1303.37C2174.09 1303.33 2174.08 1303.29 2174.07 1303.26C2174.05 1303.22 2174.03 1303.19 2174.01 1303.17C2173.98 1303.14 2173.95 1303.12 2173.91 1303.11C2173.88 1303.1 2173.84 1303.09 2173.81 1303.09C2173.73 1303.09 2173.67 1303.12 2173.62 1303.17C2173.57 1303.23 2173.54 1303.29 2173.54 1303.37C2173.54 1303.44 2173.57 1303.51 2173.62 1303.56C2173.67 1303.61 2173.73 1303.64 2173.81 1303.64ZM2166.81 1291.52C2166.85 1291.52 2166.88 1291.52 2166.92 1291.51C2166.95 1291.49 2166.98 1291.47 2167.01 1291.45C2167.04 1291.42 2167.06 1291.39 2167.07 1291.36C2167.09 1291.32 2167.09 1291.29 2167.09 1291.25C2167.09 1291.21 2167.09 1291.18 2167.07 1291.14C2167.06 1291.11 2167.04 1291.08 2167.01 1291.05C2166.98 1291.02 2166.95 1291 2166.92 1290.99C2166.88 1290.98 2166.85 1290.97 2166.81 1290.97C2166.74 1290.98 2166.67 1291.01 2166.62 1291.06C2166.57 1291.11 2166.54 1291.18 2166.54 1291.25C2166.54 1291.32 2166.57 1291.39 2166.62 1291.44C2166.67 1291.49 2166.74 1291.52 2166.81 1291.52ZM2175.25 1302.53C2175.29 1302.53 2175.33 1302.52 2175.36 1302.51C2175.4 1302.5 2175.43 1302.48 2175.45 1302.45C2175.48 1302.43 2175.5 1302.4 2175.52 1302.36C2175.53 1302.33 2175.54 1302.29 2175.54 1302.25C2175.54 1302.22 2175.53 1302.18 2175.52 1302.15C2175.5 1302.11 2175.48 1302.08 2175.45 1302.06C2175.43 1302.03 2175.4 1302.01 2175.36 1302C2175.33 1301.98 2175.29 1301.98 2175.25 1301.98C2175.18 1301.98 2175.11 1302.01 2175.07 1302.06C2175.02 1302.11 2174.99 1302.18 2174.99 1302.25C2174.99 1302.33 2175.02 1302.39 2175.07 1302.45C2175.11 1302.5 2175.18 1302.53 2175.25 1302.53ZM2165.36 1292.64C2165.4 1292.64 2165.43 1292.63 2165.47 1292.62C2165.5 1292.6 2165.53 1292.58 2165.56 1292.56C2165.59 1292.53 2165.61 1292.5 2165.62 1292.47C2165.64 1292.43 2165.64 1292.4 2165.64 1292.36C2165.64 1292.32 2165.64 1292.29 2165.62 1292.25C2165.61 1292.22 2165.59 1292.19 2165.56 1292.16C2165.53 1292.14 2165.5 1292.12 2165.47 1292.1C2165.43 1292.09 2165.4 1292.08 2165.36 1292.09C2165.29 1292.09 2165.22 1292.12 2165.17 1292.17C2165.12 1292.22 2165.09 1292.29 2165.09 1292.36C2165.09 1292.43 2165.12 1292.5 2165.17 1292.55C2165.22 1292.6 2165.29 1292.63 2165.36 1292.64ZM2177.06 1299.39C2177.14 1299.39 2177.21 1299.36 2177.26 1299.31C2177.31 1299.26 2177.34 1299.19 2177.34 1299.12C2177.34 1299.04 2177.31 1298.97 2177.26 1298.92C2177.21 1298.87 2177.14 1298.84 2177.06 1298.84C2176.99 1298.84 2176.92 1298.87 2176.87 1298.92C2176.82 1298.97 2176.79 1299.04 2176.79 1299.12C2176.79 1299.19 2176.82 1299.26 2176.87 1299.31C2176.92 1299.36 2176.99 1299.39 2177.06 1299.39ZM2176.37 1301.08C2176.4 1301.08 2176.44 1301.07 2176.47 1301.06C2176.5 1301.05 2176.53 1301.03 2176.56 1301C2176.59 1300.97 2176.61 1300.94 2176.62 1300.91C2176.63 1300.88 2176.64 1300.84 2176.64 1300.81C2176.64 1300.77 2176.63 1300.73 2176.62 1300.7C2176.61 1300.67 2176.59 1300.64 2176.56 1300.61C2176.53 1300.59 2176.5 1300.57 2176.47 1300.55C2176.44 1300.54 2176.4 1300.53 2176.37 1300.53C2176.29 1300.53 2176.22 1300.56 2176.17 1300.61C2176.12 1300.66 2176.09 1300.73 2176.09 1300.81C2176.09 1300.88 2176.12 1300.95 2176.17 1301C2176.22 1301.05 2176.29 1301.08 2176.37 1301.08ZM2164.25 1294.08C2164.32 1294.08 2164.39 1294.06 2164.44 1294C2164.49 1293.95 2164.52 1293.88 2164.52 1293.81C2164.52 1293.74 2164.49 1293.67 2164.44 1293.61C2164.39 1293.56 2164.32 1293.53 2164.25 1293.53C2164.17 1293.53 2164.1 1293.56 2164.05 1293.61C2164 1293.67 2163.97 1293.74 2163.97 1293.81C2163.97 1293.88 2164 1293.95 2164.05 1294C2164.1 1294.06 2164.17 1294.08 2164.25 1294.08ZM2163.55 1295.77C2163.59 1295.77 2163.62 1295.77 2163.66 1295.75C2163.69 1295.74 2163.72 1295.72 2163.75 1295.69C2163.78 1295.67 2163.8 1295.64 2163.81 1295.6C2163.83 1295.57 2163.83 1295.53 2163.83 1295.5C2163.83 1295.46 2163.83 1295.42 2163.81 1295.39C2163.8 1295.36 2163.78 1295.32 2163.75 1295.3C2163.72 1295.27 2163.69 1295.25 2163.66 1295.24C2163.62 1295.23 2163.59 1295.22 2163.55 1295.22C2163.48 1295.22 2163.41 1295.25 2163.35 1295.3C2163.3 1295.35 2163.27 1295.42 2163.27 1295.5C2163.27 1295.57 2163.3 1295.64 2163.35 1295.69C2163.41 1295.74 2163.48 1295.77 2163.55 1295.77ZM2177.3 1297.58C2177.38 1297.58 2177.45 1297.55 2177.5 1297.5C2177.55 1297.45 2177.58 1297.38 2177.58 1297.31C2177.58 1297.23 2177.55 1297.16 2177.5 1297.11C2177.45 1297.06 2177.38 1297.03 2177.3 1297.03C2177.23 1297.03 2177.16 1297.06 2177.11 1297.11C2177.06 1297.16 2177.03 1297.23 2177.03 1297.31C2177.03 1297.38 2177.06 1297.45 2177.11 1297.5C2177.16 1297.55 2177.23 1297.58 2177.3 1297.58ZM2163.31 1297.58C2163.38 1297.58 2163.45 1297.55 2163.51 1297.5C2163.56 1297.45 2163.59 1297.38 2163.59 1297.31C2163.59 1297.23 2163.56 1297.16 2163.51 1297.11C2163.45 1297.06 2163.38 1297.03 2163.31 1297.03C2163.24 1297.03 2163.17 1297.06 2163.12 1297.11C2163.06 1297.16 2163.04 1297.23 2163.04 1297.31C2163.04 1297.38 2163.06 1297.45 2163.12 1297.5C2163.17 1297.55 2163.24 1297.58 2163.31 1297.58ZM2177.06 1295.77C2177.1 1295.77 2177.14 1295.77 2177.17 1295.75C2177.21 1295.74 2177.24 1295.72 2177.27 1295.69C2177.29 1295.67 2177.31 1295.64 2177.33 1295.6C2177.34 1295.57 2177.35 1295.53 2177.35 1295.5C2177.35 1295.46 2177.34 1295.42 2177.33 1295.39C2177.31 1295.36 2177.29 1295.32 2177.27 1295.3C2177.24 1295.27 2177.21 1295.25 2177.17 1295.24C2177.14 1295.23 2177.1 1295.22 2177.06 1295.22C2176.99 1295.22 2176.92 1295.25 2176.87 1295.3C2176.82 1295.35 2176.79 1295.42 2176.79 1295.5C2176.79 1295.57 2176.82 1295.64 2176.87 1295.69C2176.92 1295.74 2176.99 1295.77 2177.06 1295.77ZM2163.55 1299.39C2163.62 1299.39 2163.69 1299.36 2163.74 1299.31C2163.8 1299.26 2163.82 1299.19 2163.82 1299.12C2163.82 1299.04 2163.8 1298.97 2163.74 1298.92C2163.69 1298.87 2163.62 1298.84 2163.55 1298.84C2163.48 1298.84 2163.41 1298.87 2163.35 1298.92C2163.3 1298.97 2163.27 1299.04 2163.27 1299.12C2163.27 1299.19 2163.3 1299.26 2163.35 1299.31C2163.41 1299.36 2163.48 1299.39 2163.55 1299.39ZM2176.37 1294.08C2176.44 1294.08 2176.51 1294.06 2176.56 1294C2176.61 1293.95 2176.64 1293.88 2176.64 1293.81C2176.64 1293.74 2176.61 1293.67 2176.56 1293.61C2176.51 1293.56 2176.44 1293.53 2176.37 1293.53C2176.29 1293.53 2176.22 1293.56 2176.17 1293.61C2176.12 1293.67 2176.09 1293.74 2176.09 1293.81C2176.09 1293.88 2176.12 1293.95 2176.17 1294C2176.22 1294.06 2176.29 1294.08 2176.37 1294.08ZM2164.25 1301.08C2164.28 1301.08 2164.32 1301.07 2164.35 1301.06C2164.39 1301.05 2164.42 1301.03 2164.44 1301C2164.47 1300.97 2164.49 1300.94 2164.5 1300.91C2164.52 1300.88 2164.52 1300.84 2164.52 1300.81C2164.52 1300.77 2164.52 1300.73 2164.5 1300.7C2164.49 1300.67 2164.47 1300.64 2164.44 1300.61C2164.42 1300.59 2164.39 1300.57 2164.35 1300.55C2164.32 1300.54 2164.28 1300.53 2164.25 1300.53C2164.17 1300.53 2164.1 1300.56 2164.05 1300.61C2164 1300.66 2163.97 1300.73 2163.97 1300.81C2163.97 1300.88 2164 1300.95 2164.05 1301C2164.1 1301.05 2164.17 1301.08 2164.25 1301.08ZM2175.25 1292.64C2175.29 1292.64 2175.33 1292.63 2175.36 1292.62C2175.4 1292.6 2175.43 1292.58 2175.45 1292.56C2175.48 1292.53 2175.5 1292.5 2175.52 1292.47C2175.53 1292.43 2175.54 1292.4 2175.54 1292.36C2175.54 1292.32 2175.53 1292.29 2175.52 1292.25C2175.5 1292.22 2175.48 1292.19 2175.45 1292.16C2175.43 1292.14 2175.4 1292.12 2175.36 1292.1C2175.33 1292.09 2175.29 1292.08 2175.25 1292.09C2175.18 1292.09 2175.11 1292.12 2175.07 1292.17C2175.02 1292.22 2174.99 1292.29 2174.99 1292.36C2174.99 1292.43 2175.02 1292.5 2175.07 1292.55C2175.11 1292.6 2175.18 1292.63 2175.25 1292.64ZM2165.36 1302.53C2165.4 1302.53 2165.43 1302.52 2165.47 1302.51C2165.5 1302.5 2165.53 1302.48 2165.56 1302.45C2165.59 1302.43 2165.61 1302.4 2165.62 1302.36C2165.64 1302.33 2165.64 1302.29 2165.64 1302.25C2165.64 1302.22 2165.64 1302.18 2165.62 1302.15C2165.61 1302.11 2165.59 1302.08 2165.56 1302.06C2165.53 1302.03 2165.5 1302.01 2165.47 1302C2165.43 1301.98 2165.4 1301.98 2165.36 1301.98C2165.29 1301.98 2165.22 1302.01 2165.17 1302.06C2165.12 1302.11 2165.09 1302.18 2165.09 1302.25C2165.09 1302.33 2165.12 1302.39 2165.17 1302.45C2165.22 1302.5 2165.29 1302.53 2165.36 1302.53ZM2173.81 1291.52C2173.84 1291.52 2173.88 1291.52 2173.91 1291.51C2173.95 1291.49 2173.98 1291.47 2174.01 1291.45C2174.03 1291.42 2174.05 1291.39 2174.07 1291.36C2174.08 1291.32 2174.09 1291.29 2174.09 1291.25C2174.09 1291.21 2174.08 1291.18 2174.07 1291.14C2174.05 1291.11 2174.03 1291.08 2174.01 1291.05C2173.98 1291.02 2173.95 1291 2173.91 1290.99C2173.88 1290.98 2173.84 1290.97 2173.81 1290.97C2173.73 1290.98 2173.67 1291.01 2173.62 1291.06C2173.57 1291.11 2173.54 1291.18 2173.54 1291.25C2173.54 1291.32 2173.57 1291.39 2173.62 1291.44C2173.67 1291.49 2173.73 1291.52 2173.81 1291.52ZM2166.81 1303.64C2166.85 1303.64 2166.88 1303.64 2166.92 1303.62C2166.95 1303.61 2166.98 1303.59 2167.01 1303.56C2167.04 1303.54 2167.06 1303.51 2167.07 1303.47C2167.09 1303.44 2167.09 1303.4 2167.09 1303.37C2167.09 1303.33 2167.09 1303.29 2167.07 1303.26C2167.06 1303.22 2167.04 1303.19 2167.01 1303.17C2166.98 1303.14 2166.95 1303.12 2166.92 1303.11C2166.88 1303.1 2166.85 1303.09 2166.81 1303.09C2166.74 1303.09 2166.67 1303.12 2166.62 1303.17C2166.57 1303.23 2166.54 1303.29 2166.54 1303.37C2166.54 1303.44 2166.57 1303.51 2166.62 1303.56C2166.67 1303.61 2166.74 1303.64 2166.81 1303.64ZM2172.12 1290.82C2172.19 1290.82 2172.26 1290.8 2172.31 1290.74C2172.36 1290.69 2172.39 1290.62 2172.39 1290.55C2172.39 1290.48 2172.36 1290.41 2172.31 1290.36C2172.26 1290.3 2172.19 1290.27 2172.12 1290.27C2172.04 1290.27 2171.97 1290.3 2171.92 1290.36C2171.87 1290.41 2171.84 1290.48 2171.84 1290.55C2171.84 1290.62 2171.87 1290.69 2171.92 1290.74C2171.97 1290.8 2172.04 1290.82 2172.12 1290.82ZM2168.5 1304.34C2168.53 1304.34 2168.57 1304.33 2168.6 1304.32C2168.63 1304.31 2168.67 1304.29 2168.69 1304.26C2168.72 1304.23 2168.74 1304.2 2168.75 1304.17C2168.76 1304.14 2168.77 1304.1 2168.77 1304.07C2168.77 1304.03 2168.76 1303.99 2168.75 1303.96C2168.74 1303.93 2168.72 1303.9 2168.69 1303.87C2168.67 1303.84 2168.63 1303.82 2168.6 1303.81C2168.57 1303.8 2168.53 1303.79 2168.5 1303.79C2168.42 1303.79 2168.35 1303.82 2168.3 1303.87C2168.25 1303.92 2168.22 1303.99 2168.22 1304.07C2168.22 1304.14 2168.25 1304.21 2168.3 1304.26C2168.35 1304.31 2168.42 1304.34 2168.5 1304.34ZM2169.73 1295.72C2169.68 1295.72 2169.63 1295.71 2169.59 1295.68C2169.55 1295.65 2169.52 1295.61 2169.5 1295.56C2169.48 1295.52 2169.48 1295.47 2169.49 1295.42C2169.51 1295.37 2169.53 1295.32 2169.57 1295.29C2170.27 1294.68 2170.57 1294.17 2170.63 1294.07C2170.83 1293.72 2171.16 1293.53 2171.51 1293.58C2171.57 1293.59 2171.63 1293.63 2171.67 1293.68C2171.71 1293.73 2171.72 1293.79 2171.71 1293.86C2171.71 1293.92 2171.67 1293.98 2171.62 1294.02C2171.57 1294.06 2171.51 1294.08 2171.44 1294.07C2171.24 1294.04 2171.11 1294.24 2171.06 1294.32C2171 1294.43 2170.65 1295 2169.9 1295.66C2169.85 1295.7 2169.79 1295.72 2169.73 1295.72V1295.72ZM2165.58 1299.9C2165.53 1299.9 2165.48 1299.89 2165.44 1299.86C2165.4 1299.83 2165.37 1299.79 2165.35 1299.74C2165.33 1299.69 2165.33 1299.64 2165.34 1299.59C2165.36 1299.54 2165.38 1299.5 2165.42 1299.47C2165.71 1299.24 2166.01 1299.04 2166.33 1298.86C2166.39 1298.83 2166.45 1298.83 2166.51 1298.85C2166.57 1298.88 2166.62 1298.92 2166.65 1298.98C2166.68 1299.03 2166.69 1299.1 2166.67 1299.16C2166.65 1299.22 2166.61 1299.27 2166.55 1299.3C2166.27 1299.46 2166 1299.65 2165.74 1299.85C2165.69 1299.88 2165.64 1299.9 2165.58 1299.9Z" fill="url(#paint85_linear_1_1587)"/>
<path fill-rule="evenodd" clip-rule="evenodd" d="M2170.31 1306.56C2175.42 1306.56 2179.56 1302.42 2179.56 1297.31C2179.56 1292.2 2175.42 1288.05 2170.31 1288.05C2165.2 1288.05 2161.05 1292.2 2161.05 1297.31C2161.05 1302.42 2165.2 1306.56 2170.31 1306.56ZM2170.31 1305.98C2165.52 1305.98 2161.63 1302.09 2161.63 1297.31C2161.63 1292.52 2165.52 1288.63 2170.31 1288.63C2175.09 1288.63 2178.98 1292.52 2178.98 1297.31C2178.98 1302.09 2175.09 1305.98 2170.31 1305.98Z" fill="url(#paint86_linear_1_1587)"/>
<defs>
<filter id="filter0_f_1_1587" x="7" y="7" width="3666" height="2744" filterUnits="userSpaceOnUse" color-interpolation-filters="sRGB">
<feFlood flood-opacity="0" result="BackgroundImageFix"/>
<feBlend mode="normal" in="SourceGraphic" in2="BackgroundImageFix" result="shape"/>
<feGaussianBlur stdDeviation="38" result="effect1_foregroundBlur_1_1587"/>
</filter>
<filter id="filter1_f_1_1587" x="744.687" y="839.601" width="1464.57" height="1661.11" filterUnits="userSpaceOnUse" color-interpolation-filters="sRGB">
<feFlood flood-opacity="0" result="BackgroundImageFix"/>
<feBlend mode="normal" in="SourceGraphic" in2="BackgroundImageFix" result="shape"/>
<feGaussianBlur stdDeviation="125" result="effect1_foregroundBlur_1_1587"/>
</filter>
<filter id="filter2_f_1_1587" x="0.327995" y="0.327995" width="3679.34" height="2757.34" filterUnits="userSpaceOnUse" color-interpolation-filters="sRGB">
<feFlood flood-opacity="0" result="BackgroundImageFix"/>
<feBlend mode="normal" in="SourceGraphic" in2="BackgroundImageFix" result="shape"/>
<feGaussianBlur stdDeviation="41.336" result="effect1_foregroundBlur_1_1587"/>
</filter>
<filter id="filter3_i_1_1587" x="1685" y="1199" width="309" height="309" filterUnits="userSpaceOnUse" color-interpolation-filters="sRGB">
<feFlood flood-opacity="0" result="BackgroundImageFix"/>
<feBlend mode="normal" in="SourceGraphic" in2="BackgroundImageFix" result="shape"/>
<feColorMatrix in="SourceAlpha" type="matrix" values="0 0 0 0 0 0 0 0 0 0 0 0 0 0 0 0 0 0 127 0" result="hardAlpha"/>
<feOffset/>
<feGaussianBlur stdDeviation="37"/>
<feComposite in2="hardAlpha" operator="arithmetic" k2="-1" k3="1"/>
<feColorMatrix type="matrix" values="0 0 0 0 1 0 0 0 0 1 0 0 0 0 1 0 0 0 0.25 0"/>
<feBlend mode="normal" in2="shape" result="effect1_innerShadow_1_1587"/>
</filter>
<filter id="filter4_i_1_1587" x="2199.42" y="1605.41" width="137.164" height="137.164" filterUnits="userSpaceOnUse" color-interpolation-filters="sRGB">
<feFlood flood-opacity="0" result="BackgroundImageFix"/>
<feBlend mode="normal" in="SourceGraphic" in2="BackgroundImageFix" result="shape"/>
<feColorMatrix in="SourceAlpha" type="matrix" values="0 0 0 0 0 0 0 0 0 0 0 0 0 0 0 0 0 0 127 0" result="hardAlpha"/>
<feOffset/>
<feGaussianBlur stdDeviation="12.6198"/>
<feComposite in2="hardAlpha" operator="arithmetic" k2="-1" k3="1"/>
<feColorMatrix type="matrix" values="0 0 0 0 0.917667 0 0 0 0 0.683333 0 0 0 0 1 0 0 0 0.65 0"/>
<feBlend mode="normal" in2="shape" result="effect1_innerShadow_1_1587"/>
</filter>
<filter id="filter5_i_1_1587" x="2376.14" y="1671.3" width="247.73" height="247.73" filterUnits="userSpaceOnUse" color-interpolation-filters="sRGB">
<feFlood flood-opacity="0" result="BackgroundImageFix"/>
<feBlend mode="normal" in="SourceGraphic" in2="BackgroundImageFix" result="shape"/>
<feColorMatrix in="SourceAlpha" type="matrix" values="0 0 0 0 0 0 0 0 0 0 0 0 0 0 0 0 0 0 127 0" result="hardAlpha"/>
<feOffset/>
<feGaussianBlur stdDeviation="12.6198"/>
<feComposite in2="hardAlpha" operator="arithmetic" k2="-1" k3="1"/>
<feColorMatrix type="matrix" values="0 0 0 0 0.917667 0 0 0 0 0.683333 0 0 0 0 1 0 0 0 0.65 0"/>
<feBlend mode="normal" in2="shape" result="effect1_innerShadow_1_1587"/>
</filter>
<filter id="filter6_i_1_1587" x="2337.29" y="1490.29" width="78.6643" height="78.6644" filterUnits="userSpaceOnUse" color-interpolation-filters="sRGB">
<feFlood flood-opacity="0" result="BackgroundImageFix"/>
<feBlend mode="normal" in="SourceGraphic" in2="BackgroundImageFix" result="shape"/>
<feColorMatrix in="SourceAlpha" type="matrix" values="0 0 0 0 0 0 0 0 0 0 0 0 0 0 0 0 0 0 127 0" result="hardAlpha"/>
<feOffset/>
<feGaussianBlur stdDeviation="12.6198"/>
<feComposite in2="hardAlpha" operator="arithmetic" k2="-1" k3="1"/>
<feColorMatrix type="matrix" values="0 0 0 0 0.917667 0 0 0 0 0.683333 0 0 0 0 1 0 0 0 0.65 0"/>
<feBlend mode="normal" in2="shape" result="effect1_innerShadow_1_1587"/>
</filter>
<filter id="filter7_i_1_1587" x="2750.89" y="1559.82" width="278.226" height="278.226" filterUnits="userSpaceOnUse" color-interpolation-filters="sRGB">
<feFlood flood-opacity="0" result="BackgroundImageFix"/>
<feBlend mode="normal" in="SourceGraphic" in2="BackgroundImageFix" result="shape"/>
<feColorMatrix in="SourceAlpha" type="matrix" values="0 0 0 0 0 0 0 0 0 0 0 0 0 0 0 0 0 0 127 0" result="hardAlpha"/>
<feOffset/>
<feGaussianBlur stdDeviation="12.6198"/>
<feComposite in2="hardAlpha" operator="arithmetic" k2="-1" k3="1"/>
<feColorMatrix type="matrix" values="0 0 0 0 0.917667 0 0 0 0 0.683333 0 0 0 0 1 0 0 0 0.65 0"/>
<feBlend mode="normal" in2="shape" result="effect1_innerShadow_1_1587"/>
</filter>
<filter id="filter8_i_1_1587" x="1834.59" y="1630.47" width="156.817" height="156.817" filterUnits="userSpaceOnUse" color-interpolation-filters="sRGB">
<feFlood flood-opacity="0" result="BackgroundImageFix"/>
<feBlend mode="normal" in="SourceGraphic" in2="BackgroundImageFix" result="shape"/>
<feColorMatrix in="SourceAlpha" type="matrix" values="0 0 0 0 0 0 0 0 0 0 0 0 0 0 0 0 0 0 127 0" result="hardAlpha"/>
<feOffset/>
<feGaussianBlur stdDeviation="16.5"/>
<feComposite in2="hardAlpha" operator="arithmetic" k2="-1" k3="1"/>
<feColorMatrix type="matrix" values="0 0 0 0 0.844 0 0 0 0 0.5125 0 0 0 0 1 0 0 0 0.56 0"/>
<feBlend mode="normal" in2="shape" result="effect1_innerShadow_1_1587"/>
</filter>
<filter id="filter9_i_1_1587" x="1526.26" y="1765.88" width="321.719" height="321.719" filterUnits="userSpaceOnUse" color-interpolation-filters="sRGB">
<feFlood flood-opacity="0" result="BackgroundImageFix"/>
<feBlend mode="normal" in="SourceGraphic" in2="BackgroundImageFix" result="shape"/>
<feColorMatrix in="SourceAlpha" type="matrix" values="0 0 0 0 0 0 0 0 0 0 0 0 0 0 0 0 0 0 127 0" result="hardAlpha"/>
<feOffset/>
<feGaussianBlur stdDeviation="13.5"/>
<feComposite in2="hardAlpha" operator="arithmetic" k2="-1" k3="1"/>
<feColorMatrix type="matrix" values="0 0 0 0 0.917667 0 0 0 0 0.683333 0 0 0 0 1 0 0 0 0.44 0"/>
<feBlend mode="normal" in2="shape" result="effect1_innerShadow_1_1587"/>
</filter>
<filter id="filter10_i_1_1587" x="1580.19" y="1582.49" width="79.6166" height="79.6166" filterUnits="userSpaceOnUse" color-interpolation-filters="sRGB">
<feFlood flood-opacity="0" result="BackgroundImageFix"/>
<feBlend mode="normal" in="SourceGraphic" in2="BackgroundImageFix" result="shape"/>
<feColorMatrix in="SourceAlpha" type="matrix" values="0 0 0 0 0 0 0 0 0 0 0 0 0 0 0 0 0 0 127 0" result="hardAlpha"/>
<feOffset/>
<feGaussianBlur stdDeviation="16.5"/>
<feComposite in2="hardAlpha" operator="arithmetic" k2="-1" k3="1"/>
<feColorMatrix type="matrix" values="0 0 0 0 0.844 0 0 0 0 0.5125 0 0 0 0 1 0 0 0 0.56 0"/>
<feBlend mode="normal" in2="shape" result="effect1_innerShadow_1_1587"/>
</filter>
<filter id="filter11_if_1_1587" x="2033.29" y="1187.29" width="25.8374" height="25.8374" filterUnits="userSpaceOnUse" color-interpolation-filters="sRGB">
<feFlood flood-opacity="0" result="BackgroundImageFix"/>
<feBlend mode="normal" in="SourceGraphic" in2="BackgroundImageFix" result="shape"/>
<feColorMatrix in="SourceAlpha" type="matrix" values="0 0 0 0 0 0 0 0 0 0 0 0 0 0 0 0 0 0 127 0" result="hardAlpha"/>
<feOffset/>
<feGaussianBlur stdDeviation="12.6198"/>
<feComposite in2="hardAlpha" operator="arithmetic" k2="-1" k3="1"/>
<feColorMatrix type="matrix" values="0 0 0 0 0.917667 0 0 0 0 0.683333 0 0 0 0 1 0 0 0 0.65 0"/>
<feBlend mode="normal" in2="shape" result="effect1_innerShadow_1_1587"/>
<feGaussianBlur stdDeviation="2" result="effect2_foregroundBlur_1_1587"/>
</filter>
<filter id="filter12_if_1_1587" x="2064" y="1306" width="24" height="24" filterUnits="userSpaceOnUse" color-interpolation-filters="sRGB">
<feFlood flood-opacity="0" result="BackgroundImageFix"/>
<feBlend mode="normal" in="SourceGraphic" in2="BackgroundImageFix" result="shape"/>
<feColorMatrix in="SourceAlpha" type="matrix" values="0 0 0 0 0 0 0 0 0 0 0 0 0 0 0 0 0 0 127 0" result="hardAlpha"/>
<feOffset/>
<feGaussianBlur stdDeviation="12.6198"/>
<feComposite in2="hardAlpha" operator="arithmetic" k2="-1" k3="1"/>
<feColorMatrix type="matrix" values="0 0 0 0 0.917667 0 0 0 0 0.683333 0 0 0 0 1 0 0 0 0.65 0"/>
<feBlend mode="normal" in2="shape" result="effect1_innerShadow_1_1587"/>
<feGaussianBlur stdDeviation="2" result="effect2_foregroundBlur_1_1587"/>
</filter>
<filter id="filter13_iif_1_1587" x="1605.15" y="1202.15" width="58.6962" height="57.6962" filterUnits="userSpaceOnUse" color-interpolation-filters="sRGB">
<feFlood flood-opacity="0" result="BackgroundImageFix"/>
<feBlend mode="normal" in="SourceGraphic" in2="BackgroundImageFix" result="shape"/>
<feColorMatrix in="SourceAlpha" type="matrix" values="0 0 0 0 0 0 0 0 0 0 0 0 0 0 0 0 0 0 127 0" result="hardAlpha"/>
<feOffset/>
<feGaussianBlur stdDeviation="13.5"/>
<feComposite in2="hardAlpha" operator="arithmetic" k2="-1" k3="1"/>
<feColorMatrix type="matrix" values="0 0 0 0 1 0 0 0 0 0.566083 0 0 0 0 0.470833 0 0 0 0.16 0"/>
<feBlend mode="normal" in2="shape" result="effect1_innerShadow_1_1587"/>
<feColorMatrix in="SourceAlpha" type="matrix" values="0 0 0 0 0 0 0 0 0 0 0 0 0 0 0 0 0 0 127 0" result="hardAlpha"/>
<feOffset dx="-15" dy="9"/>
<feGaussianBlur stdDeviation="12"/>
<feComposite in2="hardAlpha" operator="arithmetic" k2="-1" k3="1"/>
<feColorMatrix type="matrix" values="0 0 0 0 0.666667 0 0 0 0 0.317647 0 0 0 0 0.176471 0 0 0 0.24 0"/>
<feBlend mode="normal" in2="effect1_innerShadow_1_1587" result="effect2_innerShadow_1_1587"/>
<feGaussianBlur stdDeviation="7" result="effect3_foregroundBlur_1_1587"/>
</filter>
<filter id="filter14_i_1_1587" x="2070.83" y="1557.83" width="74.1673" height="77.1673" filterUnits="userSpaceOnUse" color-interpolation-filters="sRGB">
<feFlood flood-opacity="0" result="BackgroundImageFix"/>
<feBlend mode="normal" in="SourceGraphic" in2="BackgroundImageFix" result="shape"/>
<feColorMatrix in="SourceAlpha" type="matrix" values="0 0 0 0 0 0 0 0 0 0 0 0 0 0 0 0 0 0 127 0" result="hardAlpha"/>
<feOffset dx="8" dy="11"/>
<feGaussianBlur stdDeviation="8"/>
<feComposite in2="hardAlpha" operator="arithmetic" k2="-1" k3="1"/>
<feColorMatrix type="matrix" values="0 0 0 0 1 0 0 0 0 1 0 0 0 0 1 0 0 0 0.64 0"/>
<feBlend mode="normal" in2="shape" result="effect1_innerShadow_1_1587"/>
</filter>
<filter id="filter15_i_1_1587" x="1735" y="1552" width="67.1688" height="77.1688" filterUnits="userSpaceOnUse" color-interpolation-filters="sRGB">
<feFlood flood-opacity="0" result="BackgroundImageFix"/>
<feBlend mode="normal" in="SourceGraphic" in2="BackgroundImageFix" result="shape"/>
<feColorMatrix in="SourceAlpha" type="matrix" values="0 0 0 0 0 0 0 0 0 0 0 0 0 0 0 0 0 0 127 0" result="hardAlpha"/>
<feOffset dx="-1" dy="11"/>
<feGaussianBlur stdDeviation="8"/>
<feComposite in2="hardAlpha" operator="arithmetic" k2="-1" k3="1"/>
<feColorMatrix type="matrix" values="0 0 0 0 1 0 0 0 0 1 0 0 0 0 1 0 0 0 0.64 0"/>
<feBlend mode="normal" in2="shape" result="effect1_innerShadow_1_1587"/>
</filter>
<filter id="filter16_i_1_1587" x="2546.07" y="1510.05" width="125.867" height="125.867" filterUnits="userSpaceOnUse" color-interpolation-filters="sRGB">
<feFlood flood-opacity="0" result="BackgroundImageFix"/>
<feBlend mode="normal" in="SourceGraphic" in2="BackgroundImageFix" result="shape"/>
<feColorMatrix in="SourceAlpha" type="matrix" values="0 0 0 0 0 0 0 0 0 0 0 0 0 0 0 0 0 0 127 0" result="hardAlpha"/>
<feOffset/>
<feGaussianBlur stdDeviation="17.0176"/>
<feComposite in2="hardAlpha" operator="arithmetic" k2="-1" k3="1"/>
<feColorMatrix type="matrix" values="0 0 0 0 0.917667 0 0 0 0 0.683333 0 0 0 0 1 0 0 0 0.65 0"/>
<feBlend mode="normal" in2="shape" result="effect1_innerShadow_1_1587"/>
</filter>
<radialGradient id="paint0_radial_1_1587" cx="0" cy="0" r="1" gradientUnits="userSpaceOnUse" gradientTransform="translate(1480.1 1699.63) rotate(-135.511) scale(569.69 435.924)">
<stop offset="0.102238" stop-color="#75FFBD"/>
<stop offset="0.459781" stop-color="#49A232"/>
<stop offset="1" stop-color="#0063BE" stop-opacity="0"/>
</radialGradient>
<radialGradient id="paint1_radial_1_1587" cx="0" cy="0" r="1" gradientUnits="userSpaceOnUse" gradientTransform="translate(1840 1379) rotate(121.334) scale(927.827 1257.86)">
<stop offset="0.223958" stop-color="#6836D2"/>
<stop offset="0.729167" stop-color="#3659D2" stop-opacity="0.28"/>
<stop offset="1" stop-color="#32309B" stop-opacity="0"/>
</radialGradient>
<radialGradient id="paint2_radial_1_1587" cx="0" cy="0" r="1" gradientUnits="userSpaceOnUse" gradientTransform="translate(1839.5 1353.5) rotate(90) scale(663.081)">
<stop offset="0.210997" stop-color="#A5FBFF"/>
<stop offset="0.28815" stop-color="#86A1FF" stop-opacity="0.7"/>
<stop offset="0.729167" stop-color="#002ED2" stop-opacity="0.29"/>
<stop offset="1" stop-color="#120698" stop-opacity="0"/>
</radialGradient>
<radialGradient id="paint3_radial_1_1587" cx="0" cy="0" r="1" gradientUnits="userSpaceOnUse" gradientTransform="translate(1839.5 1353.5) rotate(90) scale(148.365)">
<stop offset="0.210997" stop-color="#A5D4FF"/>
<stop offset="0.90625" stop-color="#86A1FF" stop-opacity="0"/>
</radialGradient>
<radialGradient id="paint4_radial_1_1587" cx="0" cy="0" r="1" gradientUnits="userSpaceOnUse" gradientTransform="translate(2311 1728.5) rotate(-135.597) scale(146.777 133.389)">
<stop stop-color="#782617"/>
<stop offset="0.71875" stop-color="#EB6E53"/>
<stop offset="0.895833" stop-color="#DEFFFB"/>
</radialGradient>
<linearGradient id="paint5_linear_1_1587" x1="2251" y1="1641.5" x2="2278.5" y2="1689" gradientUnits="userSpaceOnUse">
<stop stop-color="#E6E6E6"/>
<stop offset="1" stop-color="#E6E6E6" stop-opacity="0"/>
</linearGradient>
<linearGradient id="paint6_linear_1_1587" x1="2251" y1="1641.5" x2="2278.5" y2="1689" gradientUnits="userSpaceOnUse">
<stop stop-color="#E6E6E6"/>
<stop offset="1" stop-color="#E6E6E6" stop-opacity="0"/>
</linearGradient>
<linearGradient id="paint7_linear_1_1587" x1="2251" y1="1641.5" x2="2278.5" y2="1689" gradientUnits="userSpaceOnUse">
<stop stop-color="#E6E6E6"/>
<stop offset="1" stop-color="#E6E6E6" stop-opacity="0"/>
</linearGradient>
<radialGradient id="paint8_radial_1_1587" cx="0" cy="0" r="1" gradientUnits="userSpaceOnUse" gradientTransform="translate(2580.88 1857.48) rotate(-142.211) scale(243.725 221.494)">
<stop offset="0.175179" stop-color="#070653"/>
<stop offset="0.71875" stop-color="#9D0488"/>
<stop offset="0.895833" stop-color="#DEFFFB"/>
</radialGradient>
<linearGradient id="paint9_linear_1_1587" x1="2459.5" y1="1748.5" x2="2533" y2="1831" gradientUnits="userSpaceOnUse">
<stop stop-color="white"/>
<stop offset="1" stop-color="white" stop-opacity="0"/>
</linearGradient>
<linearGradient id="paint10_linear_1_1587" x1="2459.5" y1="1748.5" x2="2533" y2="1831" gradientUnits="userSpaceOnUse">
<stop stop-color="white"/>
<stop offset="1" stop-color="white" stop-opacity="0"/>
</linearGradient>
<linearGradient id="paint11_linear_1_1587" x1="2459.5" y1="1748.5" x2="2533" y2="1831" gradientUnits="userSpaceOnUse">
<stop stop-color="white"/>
<stop offset="1" stop-color="white" stop-opacity="0"/>
</linearGradient>
<linearGradient id="paint12_linear_1_1587" x1="2459.5" y1="1748.5" x2="2533" y2="1831" gradientUnits="userSpaceOnUse">
<stop stop-color="white"/>
<stop offset="1" stop-color="white" stop-opacity="0"/>
</linearGradient>
<linearGradient id="paint13_linear_1_1587" x1="2459.5" y1="1748.5" x2="2533" y2="1831" gradientUnits="userSpaceOnUse">
<stop stop-color="white"/>
<stop offset="1" stop-color="white" stop-opacity="0"/>
</linearGradient>
<linearGradient id="paint14_linear_1_1587" x1="2459.5" y1="1748.5" x2="2533" y2="1831" gradientUnits="userSpaceOnUse">
<stop stop-color="white"/>
<stop offset="1" stop-color="white" stop-opacity="0"/>
</linearGradient>
<linearGradient id="paint15_linear_1_1587" x1="2459.5" y1="1748.5" x2="2533" y2="1831" gradientUnits="userSpaceOnUse">
<stop stop-color="white"/>
<stop offset="1" stop-color="white" stop-opacity="0"/>
</linearGradient>
<radialGradient id="paint16_radial_1_1587" cx="0" cy="0" r="1" gradientUnits="userSpaceOnUse" gradientTransform="translate(2829.24 2138.25) rotate(-130.386) scale(395.01)">
<stop offset="0.473925" stop-color="#07090F"/>
<stop offset="0.702566" stop-color="#07193E"/>
<stop offset="0.926338" stop-color="#015980"/>
</radialGradient>
<linearGradient id="paint17_linear_1_1587" x1="2488.5" y1="1813.5" x2="2748.28" y2="2011.78" gradientUnits="userSpaceOnUse">
<stop stop-color="white"/>
<stop offset="1" stop-color="white" stop-opacity="0"/>
</linearGradient>
<linearGradient id="paint18_linear_1_1587" x1="2488.5" y1="1813.5" x2="2748.28" y2="2011.78" gradientUnits="userSpaceOnUse">
<stop stop-color="white"/>
<stop offset="1" stop-color="white" stop-opacity="0"/>
</linearGradient>
<linearGradient id="paint19_linear_1_1587" x1="2488.5" y1="1813.5" x2="2748.28" y2="2011.78" gradientUnits="userSpaceOnUse">
<stop stop-color="white"/>
<stop offset="1" stop-color="white" stop-opacity="0"/>
</linearGradient>
<linearGradient id="paint20_linear_1_1587" x1="2488.5" y1="1813.5" x2="2748.28" y2="2011.78" gradientUnits="userSpaceOnUse">
<stop stop-color="white"/>
<stop offset="1" stop-color="white" stop-opacity="0"/>
</linearGradient>
<radialGradient id="paint21_radial_1_1587" cx="0" cy="0" r="1" gradientUnits="userSpaceOnUse" gradientTransform="translate(2402.31 1549.41) rotate(-142.211) scale(77.3928 70.3334)">
<stop stop-color="#1F1D22"/>
<stop offset="0.546875" stop-color="#A7241F"/>
<stop offset="0.71875" stop-color="#D32F26"/>
<stop offset="0.895833" stop-color="#DEFFFB"/>
</radialGradient>
<linearGradient id="paint22_linear_1_1587" x1="2363.62" y1="1520.5" x2="2380.12" y2="1542" gradientUnits="userSpaceOnUse">
<stop stop-color="#D85A61"/>
<stop offset="1" stop-color="white" stop-opacity="0"/>
</linearGradient>
<radialGradient id="paint23_radial_1_1587" cx="0" cy="0" r="1" gradientUnits="userSpaceOnUse" gradientTransform="translate(2429.52 1427.93) rotate(-147.296) scale(43.7412)">
<stop offset="0.59537" stop-color="#111111"/>
<stop offset="0.895026" stop-color="#433649"/>
</radialGradient>
<linearGradient id="paint24_linear_1_1587" x1="2354.17" y1="1412.51" x2="2428.91" y2="1432.01" gradientUnits="userSpaceOnUse">
<stop stop-color="white"/>
<stop offset="1" stop-color="white" stop-opacity="0"/>
</linearGradient>
<radialGradient id="paint25_radial_1_1587" cx="0" cy="0" r="1" gradientUnits="userSpaceOnUse" gradientTransform="translate(2596.24 1373.87) rotate(-157.211) scale(58.1139 52.813)">
<stop stop-color="#5C2F2D"/>
<stop offset="0.546875" stop-color="#A55C5A"/>
<stop offset="0.71875" stop-color="#EAA2A0"/>
<stop offset="0.895833" stop-color="#DEFFFB"/>
</radialGradient>
<linearGradient id="paint26_linear_1_1587" x1="2549.12" y1="1354.38" x2="2581.72" y2="1374.25" gradientUnits="userSpaceOnUse">
<stop stop-color="white"/>
<stop offset="1" stop-color="white" stop-opacity="0"/>
</linearGradient>
<radialGradient id="paint27_radial_1_1587" cx="0" cy="0" r="1" gradientUnits="userSpaceOnUse" gradientTransform="translate(2980.84 1768.92) rotate(-142.211) scale(273.729 248.76)">
<stop stop-color="#DC385E"/>
<stop offset="0.546875" stop-color="#784A97"/>
<stop offset="0.71875" stop-color="#138CCF"/>
<stop offset="0.895833" stop-color="#DEFFFB"/>
</radialGradient>
<linearGradient id="paint28_linear_1_1587" x1="2813.5" y1="1659.5" x2="2954.5" y2="1738.5" gradientUnits="userSpaceOnUse">
<stop stop-color="#E6E6E6"/>
<stop offset="1" stop-color="#E6E6E6" stop-opacity="0"/>
</linearGradient>
<linearGradient id="paint29_linear_1_1587" x1="2813.5" y1="1659.5" x2="2954.5" y2="1738.5" gradientUnits="userSpaceOnUse">
<stop stop-color="#E6E6E6"/>
<stop offset="1" stop-color="#E6E6E6" stop-opacity="0"/>
</linearGradient>
<linearGradient id="paint30_linear_1_1587" x1="2813.5" y1="1659.5" x2="2954.5" y2="1738.5" gradientUnits="userSpaceOnUse">
<stop stop-color="#E6E6E6"/>
<stop offset="1" stop-color="#E6E6E6" stop-opacity="0"/>
</linearGradient>
<linearGradient id="paint31_linear_1_1587" x1="2813.5" y1="1659.5" x2="2954.5" y2="1738.5" gradientUnits="userSpaceOnUse">
<stop stop-color="#E6E6E6"/>
<stop offset="1" stop-color="#E6E6E6" stop-opacity="0"/>
</linearGradient>
<linearGradient id="paint32_linear_1_1587" x1="2813.5" y1="1659.5" x2="2954.5" y2="1738.5" gradientUnits="userSpaceOnUse">
<stop stop-color="#E6E6E6"/>
<stop offset="1" stop-color="#E6E6E6" stop-opacity="0"/>
</linearGradient>
<linearGradient id="paint33_linear_1_1587" x1="2813.5" y1="1659.5" x2="2954.5" y2="1738.5" gradientUnits="userSpaceOnUse">
<stop stop-color="#E6E6E6"/>
<stop offset="1" stop-color="#E6E6E6" stop-opacity="0"/>
</linearGradient>
<linearGradient id="paint34_linear_1_1587" x1="2813.5" y1="1659.5" x2="2954.5" y2="1738.5" gradientUnits="userSpaceOnUse">
<stop stop-color="#E6E6E6"/>
<stop offset="1" stop-color="#E6E6E6" stop-opacity="0"/>
</linearGradient>
<radialGradient id="paint35_radial_1_1587" cx="0" cy="0" r="1" gradientUnits="userSpaceOnUse" gradientTransform="translate(1918.92 1775.46) rotate(-96.4398) scale(168.274 149.869)">
<stop stop-color="#182069"/>
<stop offset="0.723958" stop-color="#202DA2"/>
<stop offset="0.880208" stop-color="#FFE7D1"/>
</radialGradient>
<linearGradient id="paint36_linear_1_1587" x1="1899.35" y1="1669.64" x2="1916.67" y2="1736.3" gradientUnits="userSpaceOnUse">
<stop stop-color="white"/>
<stop offset="1" stop-color="#E6E6E6" stop-opacity="0"/>
</linearGradient>
<linearGradient id="paint37_linear_1_1587" x1="1899.35" y1="1669.64" x2="1916.67" y2="1736.3" gradientUnits="userSpaceOnUse">
<stop stop-color="white"/>
<stop offset="1" stop-color="#E6E6E6" stop-opacity="0"/>
</linearGradient>
<radialGradient id="paint38_radial_1_1587" cx="0" cy="0" r="1" gradientUnits="userSpaceOnUse" gradientTransform="translate(1759.4 2132.81) rotate(-115.046) scale(462.281)">
<stop offset="0.630208" stop-color="#00C2FF"/>
<stop offset="1" stop-color="white"/>
</radialGradient>
<radialGradient id="paint39_radial_1_1587" cx="0" cy="0" r="1" gradientUnits="userSpaceOnUse" gradientTransform="translate(1687.78 1765.3) rotate(88.5518) scale(369.484)">
<stop stop-color="#FFA3A3" stop-opacity="0"/>
<stop offset="0.737543" stop-color="#2F425E"/>
</radialGradient>
<linearGradient id="paint40_linear_1_1587" x1="1727.48" y1="1885.04" x2="1650.48" y2="1971.4" gradientUnits="userSpaceOnUse">
<stop stop-color="white"/>
<stop offset="1" stop-color="white" stop-opacity="0"/>
</linearGradient>
<linearGradient id="paint41_linear_1_1587" x1="1727.48" y1="1885.04" x2="1650.48" y2="1971.4" gradientUnits="userSpaceOnUse">
<stop stop-color="white"/>
<stop offset="1" stop-color="white" stop-opacity="0"/>
</linearGradient>
<linearGradient id="paint42_linear_1_1587" x1="1748" y1="1826.5" x2="1686.51" y2="1985.86" gradientUnits="userSpaceOnUse">
<stop stop-color="white"/>
<stop offset="1" stop-color="white" stop-opacity="0"/>
</linearGradient>
<linearGradient id="paint43_linear_1_1587" x1="1748" y1="1826.5" x2="1686.51" y2="1985.86" gradientUnits="userSpaceOnUse">
<stop stop-color="white"/>
<stop offset="1" stop-color="white" stop-opacity="0"/>
</linearGradient>
<linearGradient id="paint44_linear_1_1587" x1="1748" y1="1826.5" x2="1686.51" y2="1985.86" gradientUnits="userSpaceOnUse">
<stop stop-color="white"/>
<stop offset="1" stop-color="white" stop-opacity="0"/>
</linearGradient>
<linearGradient id="paint45_linear_1_1587" x1="1748" y1="1826.5" x2="1686.51" y2="1985.86" gradientUnits="userSpaceOnUse">
<stop stop-color="white"/>
<stop offset="1" stop-color="white" stop-opacity="0"/>
</linearGradient>
<radialGradient id="paint46_radial_1_1587" cx="0" cy="0" r="1" gradientUnits="userSpaceOnUse" gradientTransform="translate(1598.22 1648.32) rotate(-51.4398) scale(85.4362 76.0916)">
<stop offset="0.560698" stop-color="#102F33"/>
<stop offset="0.775173" stop-color="#5898A3"/>
<stop offset="0.880208" stop-color="#FFE7D1"/>
</radialGradient>
<linearGradient id="paint47_linear_1_1587" x1="1635.02" y1="1608.41" x2="1611.51" y2="1643.34" gradientUnits="userSpaceOnUse">
<stop stop-color="#6687A6"/>
<stop offset="1" stop-color="#313D55"/>
</linearGradient>
<linearGradient id="paint48_linear_1_1587" x1="1635.02" y1="1608.41" x2="1611.51" y2="1643.34" gradientUnits="userSpaceOnUse">
<stop stop-color="#6687A6"/>
<stop offset="1" stop-color="#313D55"/>
</linearGradient>
<radialGradient id="paint49_radial_1_1587" cx="0" cy="0" r="1" gradientUnits="userSpaceOnUse" gradientTransform="translate(2050.68 1206.05) rotate(-127.211) scale(17.5523 15.9513)">
<stop stop-color="#4F40AB"/>
<stop offset="0.546875" stop-color="#903BAE"/>
<stop offset="0.71875" stop-color="#EB6E53"/>
<stop offset="0.895833" stop-color="#DEFFFB"/>
</radialGradient>
<radialGradient id="paint50_radial_1_1587" cx="0" cy="0" r="1" gradientUnits="userSpaceOnUse" gradientTransform="translate(2351.5 1324.5) rotate(-174.523) scale(36.6674)">
<stop offset="0.59537" stop-color="#606528"/>
<stop offset="0.953125" stop-color="#D3BA35"/>
</radialGradient>
<linearGradient id="paint51_linear_1_1587" x1="2331" y1="1322.62" x2="2347.5" y2="1323" gradientUnits="userSpaceOnUse">
<stop stop-color="white"/>
<stop offset="1" stop-color="white" stop-opacity="0"/>
</linearGradient>
<radialGradient id="paint52_radial_1_1587" cx="0" cy="0" r="1" gradientUnits="userSpaceOnUse" gradientTransform="translate(2082.54 1318.85) rotate(-172.789) scale(15.7417 14.3058)">
<stop stop-color="#4F40AB"/>
<stop offset="0.546875" stop-color="#903BAE"/>
<stop offset="0.71875" stop-color="#EB6E53"/>
<stop offset="0.895833" stop-color="#DEFFFB"/>
</radialGradient>
<radialGradient id="paint53_radial_1_1587" cx="0" cy="0" r="1" gradientUnits="userSpaceOnUse" gradientTransform="translate(1629 1210) rotate(65.8209) scale(26.8561)">
<stop offset="0.59537" stop-color="#625959"/>
<stop offset="0.895026" stop-color="#842CAD"/>
</radialGradient>
<radialGradient id="paint54_radial_1_1587" cx="0" cy="0" r="1" gradientUnits="userSpaceOnUse" gradientTransform="translate(2192.23 1454.07) rotate(-162.296) scale(50.1808)">
<stop stop-color="#0B2831"/>
<stop offset="0.640625" stop-color="#711980"/>
<stop offset="1" stop-color="#57C3FF"/>
</radialGradient>
<linearGradient id="paint55_linear_1_1587" x1="2164" y1="1440" x2="2187" y2="1458.5" gradientUnits="userSpaceOnUse">
<stop stop-color="white"/>
<stop offset="1" stop-color="#575392" stop-opacity="0"/>
</linearGradient>
<radialGradient id="paint56_radial_1_1587" cx="0" cy="0" r="1" gradientUnits="userSpaceOnUse" gradientTransform="translate(2119.15 1604.94) rotate(-137.704) scale(61.1155)">
<stop offset="0.53125" stop-color="#3C8254"/>
<stop offset="0.59537" stop-color="#3C8254"/>
<stop offset="0.895026" stop-color="#52B775"/>
</radialGradient>
<linearGradient id="paint57_linear_1_1587" x1="2084.38" y1="1574.55" x2="2116.7" y2="1604.96" gradientUnits="userSpaceOnUse">
<stop stop-color="white"/>
<stop offset="1" stop-color="white" stop-opacity="0"/>
</linearGradient>
<linearGradient id="paint58_linear_1_1587" x1="2084.38" y1="1574.55" x2="2116.7" y2="1604.96" gradientUnits="userSpaceOnUse">
<stop stop-color="white"/>
<stop offset="1" stop-color="white" stop-opacity="0"/>
</linearGradient>
<linearGradient id="paint59_linear_1_1587" x1="2084.38" y1="1574.55" x2="2116.7" y2="1604.96" gradientUnits="userSpaceOnUse">
<stop stop-color="white"/>
<stop offset="1" stop-color="white" stop-opacity="0"/>
</linearGradient>
<linearGradient id="paint60_linear_1_1587" x1="2084.38" y1="1574.55" x2="2116.7" y2="1604.96" gradientUnits="userSpaceOnUse">
<stop stop-color="white"/>
<stop offset="1" stop-color="white" stop-opacity="0"/>
</linearGradient>
<linearGradient id="paint61_linear_1_1587" x1="2084.38" y1="1574.55" x2="2116.7" y2="1604.96" gradientUnits="userSpaceOnUse">
<stop stop-color="white"/>
<stop offset="1" stop-color="white" stop-opacity="0"/>
</linearGradient>
<linearGradient id="paint62_linear_1_1587" x1="2084.38" y1="1574.55" x2="2116.7" y2="1604.96" gradientUnits="userSpaceOnUse">
<stop stop-color="white"/>
<stop offset="1" stop-color="white" stop-opacity="0"/>
</linearGradient>
<linearGradient id="paint63_linear_1_1587" x1="2084.38" y1="1574.55" x2="2116.7" y2="1604.96" gradientUnits="userSpaceOnUse">
<stop stop-color="white"/>
<stop offset="1" stop-color="white" stop-opacity="0"/>
</linearGradient>
<linearGradient id="paint64_linear_1_1587" x1="2084.38" y1="1574.55" x2="2116.7" y2="1604.96" gradientUnits="userSpaceOnUse">
<stop stop-color="white"/>
<stop offset="1" stop-color="white" stop-opacity="0"/>
</linearGradient>
<linearGradient id="paint65_linear_1_1587" x1="2084.38" y1="1574.55" x2="2116.7" y2="1604.96" gradientUnits="userSpaceOnUse">
<stop stop-color="white"/>
<stop offset="1" stop-color="white" stop-opacity="0"/>
</linearGradient>
<linearGradient id="paint66_linear_1_1587" x1="2084.38" y1="1574.55" x2="2116.7" y2="1604.96" gradientUnits="userSpaceOnUse">
<stop stop-color="white"/>
<stop offset="1" stop-color="white" stop-opacity="0"/>
</linearGradient>
<linearGradient id="paint67_linear_1_1587" x1="2084.38" y1="1574.55" x2="2116.7" y2="1604.96" gradientUnits="userSpaceOnUse">
<stop stop-color="white"/>
<stop offset="1" stop-color="white" stop-opacity="0"/>
</linearGradient>
<linearGradient id="paint68_linear_1_1587" x1="2084.38" y1="1574.55" x2="2116.7" y2="1604.96" gradientUnits="userSpaceOnUse">
<stop stop-color="white"/>
<stop offset="1" stop-color="white" stop-opacity="0"/>
</linearGradient>
<linearGradient id="paint69_linear_1_1587" x1="2084.38" y1="1574.55" x2="2116.7" y2="1604.96" gradientUnits="userSpaceOnUse">
<stop stop-color="white"/>
<stop offset="1" stop-color="white" stop-opacity="0"/>
</linearGradient>
<linearGradient id="paint70_linear_1_1587" x1="2084.38" y1="1574.55" x2="2116.7" y2="1604.96" gradientUnits="userSpaceOnUse">
<stop stop-color="white"/>
<stop offset="1" stop-color="white" stop-opacity="0"/>
</linearGradient>
<radialGradient id="paint71_radial_1_1587" cx="0" cy="0" r="1" gradientUnits="userSpaceOnUse" gradientTransform="translate(1761.99 1604.54) rotate(-70.3104) scale(61.1155)">
<stop offset="0.59537" stop-color="#2C6941"/>
<stop offset="0.895026" stop-color="#52B775"/>
</radialGradient>
<linearGradient id="paint72_linear_1_1587" x1="1783" y1="1566" x2="1757" y2="1595" gradientUnits="userSpaceOnUse">
<stop stop-color="white"/>
<stop offset="1" stop-color="white" stop-opacity="0"/>
</linearGradient>
<linearGradient id="paint73_linear_1_1587" x1="1783" y1="1566" x2="1757" y2="1595" gradientUnits="userSpaceOnUse">
<stop stop-color="white"/>
<stop offset="1" stop-color="white" stop-opacity="0"/>
</linearGradient>
<linearGradient id="paint74_linear_1_1587" x1="1783" y1="1566" x2="1757" y2="1595" gradientUnits="userSpaceOnUse">
<stop stop-color="white"/>
<stop offset="1" stop-color="white" stop-opacity="0"/>
</linearGradient>
<linearGradient id="paint75_linear_1_1587" x1="1783" y1="1566" x2="1757" y2="1595" gradientUnits="userSpaceOnUse">
<stop stop-color="white"/>
<stop offset="1" stop-color="white" stop-opacity="0"/>
</linearGradient>
<radialGradient id="paint76_radial_1_1587" cx="0" cy="0" r="1" gradientUnits="userSpaceOnUse" gradientTransform="translate(1523.3 1505.85) rotate(-32.7044) scale(48.2217)">
<stop offset="0.59537" stop-color="#221FB7"/>
<stop offset="1" stop-color="#C5F4FF"/>
</radialGradient>
<linearGradient id="paint77_linear_1_1587" x1="1550" y1="1488" x2="1528" y2="1509" gradientUnits="userSpaceOnUse">
<stop stop-color="white"/>
<stop offset="1" stop-color="#00F2FE" stop-opacity="0"/>
</linearGradient>
<linearGradient id="paint78_linear_1_1587" x1="1550" y1="1488" x2="1528" y2="1509" gradientUnits="userSpaceOnUse">
<stop stop-color="white"/>
<stop offset="1" stop-color="#00F2FE" stop-opacity="0"/>
</linearGradient>
<radialGradient id="paint79_radial_1_1587" cx="0" cy="0" r="1" gradientUnits="userSpaceOnUse" gradientTransform="translate(2650.09 1604.65) rotate(-142.211) scale(123.833 112.537)">
<stop stop-color="#AC3631"/>
<stop offset="0.546875" stop-color="#FF564F"/>
<stop offset="0.71875" stop-color="#EB6E53"/>
<stop offset="0.895833" stop-color="#DEFFFB"/>
</radialGradient>
<linearGradient id="paint80_linear_1_1587" x1="2573.94" y1="1551.43" x2="2633.95" y2="1587.84" gradientUnits="userSpaceOnUse">
<stop stop-color="white"/>
<stop offset="1" stop-color="white" stop-opacity="0"/>
</linearGradient>
<linearGradient id="paint81_linear_1_1587" x1="2573.94" y1="1551.43" x2="2633.95" y2="1587.84" gradientUnits="userSpaceOnUse">
<stop stop-color="white"/>
<stop offset="1" stop-color="white" stop-opacity="0"/>
</linearGradient>
<radialGradient id="paint82_radial_1_1587" cx="0" cy="0" r="1" gradientUnits="userSpaceOnUse" gradientTransform="translate(2815.34 1448.89) rotate(-167.704) scale(79.6806)">
<stop stop-color="#010044"/>
<stop offset="0.640625" stop-color="#221FB7"/>
<stop offset="1" stop-color="#C5F4FF"/>
</radialGradient>
<linearGradient id="paint83_linear_1_1587" x1="2773.5" y1="1431" x2="2811.5" y2="1439" gradientUnits="userSpaceOnUse">
<stop stop-color="#EBEBEB"/>
<stop offset="1" stop-color="#EBEBEB" stop-opacity="0"/>
</linearGradient>
<radialGradient id="paint84_radial_1_1587" cx="0" cy="0" r="1" gradientUnits="userSpaceOnUse" gradientTransform="translate(2181.73 1299.92) rotate(-167.704) scale(34.3234)">
<stop offset="0.59537" stop-color="#243748"/>
<stop offset="0.895026" stop-color="#CDCDCD"/>
</radialGradient>
<linearGradient id="paint85_linear_1_1587" x1="2161.05" y1="1297.31" x2="2180.98" y2="1297.31" gradientUnits="userSpaceOnUse">
<stop stop-color="#D2F0F0"/>
<stop offset="1" stop-color="#F0E6B4" stop-opacity="0"/>
</linearGradient>
<linearGradient id="paint86_linear_1_1587" x1="2161.05" y1="1297.31" x2="2180.98" y2="1297.31" gradientUnits="userSpaceOnUse">
<stop stop-color="#D2F0F0"/>
<stop offset="1" stop-color="#F0E6B4" stop-opacity="0"/>
</linearGradient>
<clipPath id="clip0_1_1587">
<rect width="31.3392" height="31.3392" fill="white" transform="translate(1609 1603) rotate(15)"/>
</clipPath>
</defs>
</svg>
