<?xml version="1.0"?>
<svg xmlns="http://www.w3.org/2000/svg" id="Layer_1" data-name="Layer 1" viewBox="0 0 190.01 199.51">
  <defs>
    <style>.cls-1{fill:#f0f0f0;}.cls-2{fill:#fff;}.cls-3{fill:#e1e1e1;}.cls-4{fill:#d2d2d2;}</style>
  </defs>
  <title>light-tip</title>
  <path class="cls-1" d="M102,199.88a21.89,21.89,0,0,0,16-9.75H82C85.75,195.63,94.25,200.88,102,199.88Z" transform="translate(-4.99 -0.49)"/>
  <path class="cls-2" d="M100,190.13V200a15.24,15.24,0,0,0,2-.11,21.89,21.89,0,0,0,16-9.75Z" transform="translate(-4.99 -0.49)"/>
  <path class="cls-1" d="M100.42,48.11a44.62,44.62,0,0,0-5.75.5c-13.75,1.5-25,7-33.75,16.75-14.5,16-14.5,39.25-4.25,55.76,3.25,5.5,7,10.25,10.75,15.5,4.5,6.5,7.25,13.5,7.25,21.5,0,3.5,3.25,6.5,7.25,6.5h35.5c4.75,0,7.75-3,7.75-7.25a14.25,14.25,0,0,1,.25-3.25c.5-7.25,3.75-13.5,8.25-19.5,2.75-3.75,5.75-7.75,8.5-11.75,8.5-13.5,10.75-28,5.75-42.75C141.18,60.86,121.68,48.11,100.42,48.11Z" transform="translate(-4.99 -0.49)"/>
  <path class="cls-2" d="M147.93,80.11c-6.75-19.25-26.25-32-47.5-32l-.42,0V164.62h17.42c4.75,0,7.75-3,7.75-7.25a14.25,14.25,0,0,1,.25-3.25c.5-7.25,3.75-13.5,8.25-19.5,2.75-3.75,5.75-7.75,8.5-11.75C150.68,109.37,152.93,94.87,147.93,80.11Z" transform="translate(-4.99 -0.49)"/>
  <path class="cls-2" d="M162.41,55.65" transform="translate(-4.99 -0.49)"/>
  <path class="cls-2" d="M100,.49c-2.74,0-4.56,3.07-4.56,7.68V31.35h9.12V8.17C104.56,3.56,102.74.49,100,.49Z" transform="translate(-4.99 -0.49)"/>
  <path class="cls-2" d="M157.86,18.73c-2.24-1.57-5.5-.1-8.14,3.68l-13.3,19,7.47,5.23,13.3-19C159.83,23.86,160.1,20.3,157.86,18.73Z" transform="translate(-4.99 -0.49)"/>
  <path class="cls-2" d="M194.8,66.86c-.94-2.57-4.45-3.23-8.78-1.66l-21.78,7.93,3.12,8.57,21.78-7.93C193.47,72.2,195.73,69.43,194.8,66.86Z" transform="translate(-4.99 -0.49)"/>
  <path class="cls-2" d="M42.14,18.73c2.24-1.57,5.5-.1,8.14,3.68l13.3,19-7.47,5.23-13.3-19C40.17,23.86,39.9,20.3,42.14,18.73Z" transform="translate(-4.99 -0.49)"/>
  <path class="cls-2" d="M5.2,66.86c.94-2.57,4.45-3.23,8.78-1.66l21.78,7.93L32.65,81.7,10.87,73.78C6.53,72.2,4.27,69.43,5.2,66.86Z" transform="translate(-4.99 -0.49)"/>
  <path class="cls-3" d="M119.13,163.62H100v10h19.13c3,0,5.5-2.5,5.5-5A5.3,5.3,0,0,0,119.13,163.62Z" transform="translate(-4.99 -0.49)"/>
  <path class="cls-4" d="M80.87,163.62H100v10H80.87c-3,0-5.5-2.5-5.5-5A5.3,5.3,0,0,1,80.87,163.62Z" transform="translate(-4.99 -0.49)"/>
  <path class="cls-2" d="M119.13,173.62H100v10h19.13c3,0,5.5-2.5,5.5-5A5.3,5.3,0,0,0,119.13,173.62Z" transform="translate(-4.99 -0.49)"/>
  <path class="cls-1" d="M80.87,173.62H100v10H80.87c-3,0-5.5-2.5-5.5-5A5.3,5.3,0,0,1,80.87,173.62Z" transform="translate(-4.99 -0.49)"/>
  <path class="cls-3" d="M119.13,183.63H100v10h19.13c3,0,5.5-2.5,5.5-5A5.3,5.3,0,0,0,119.13,183.63Z" transform="translate(-4.99 -0.49)"/>
  <path class="cls-4" d="M80.87,183.63H100v10H80.87c-3,0-5.5-2.5-5.5-5A5.3,5.3,0,0,1,80.87,183.63Z" transform="translate(-4.99 -0.49)"/>
</svg>
