<svg width="923" height="930" viewBox="0 0 923 930" fill="none" xmlns="http://www.w3.org/2000/svg">
<g filter="url(#filter0_f_10047_86372)">
<path d="M230.685 692.685C358.088 820.088 564.65 820.088 692.054 692.685C819.457 565.281 819.457 358.719 692.054 231.315C564.65 103.912 358.088 103.912 230.685 231.315C103.281 358.719 103.281 565.281 230.685 692.685Z" fill="url(#paint0_radial_10047_86372)"/>
</g>
<g filter="url(#filter1_i_10047_86372)">
<circle cx="461.5" cy="462.5" r="54.5" fill="url(#paint1_radial_10047_86372)"/>
</g>
<path d="M529.152 603.379C607.154 558.345 671.265 506.349 711.867 458.702C732.169 434.878 746.575 412.162 753.91 391.967C761.247 371.77 761.489 354.163 753.586 340.475C745.683 326.786 730.314 318.193 709.154 314.448C687.997 310.703 661.122 311.821 630.338 317.491C568.775 328.83 491.689 358.353 413.687 403.388C335.686 448.422 271.575 500.418 230.973 548.064C210.671 571.889 196.265 594.605 188.93 614.799C181.593 634.997 181.351 652.603 189.254 666.292C197.157 679.98 212.526 688.574 233.686 692.319C254.843 696.064 281.718 694.946 312.502 689.276C374.065 677.937 451.151 648.413 529.152 603.379Z" stroke="white" stroke-opacity="0.1"/>
<path d="M613.002 309.997L597.002 309.997M612.502 309.997L612.502 325.997" stroke="white"/>
<path d="M309.002 613.997L325.002 613.997M309.502 613.997L309.502 597.997" stroke="white"/>
<path d="M622.85 314.593C622.85 316.776 624.632 318.055 627.729 318.055C630.804 318.055 632.59 316.758 632.59 314.593C632.59 312.423 630.808 311.13 627.729 311.126C624.636 311.126 622.854 312.405 622.85 314.593ZM624.082 314.593C624.082 314.136 624.244 313.743 624.562 313.429L630.171 316.227C629.567 316.495 628.745 316.638 627.729 316.638C625.366 316.638 624.082 315.867 624.082 314.593ZM630.919 315.728L625.31 312.945C625.91 312.681 626.723 312.543 627.729 312.543C630.084 312.548 631.381 313.319 631.381 314.593C631.381 315.036 631.224 315.419 630.919 315.728ZM624.295 321.061L624.295 319.731L623.778 319.685C622.526 319.579 621.266 319.283 620.694 319.159L620.694 320.137C621.298 320.359 622.683 320.848 623.791 320.991L624.295 321.061ZM622.85 325.836C622.85 328.02 624.632 329.299 627.729 329.299C630.804 329.299 632.59 328.002 632.59 325.836C632.59 323.667 630.808 322.374 627.729 322.37C624.636 322.37 622.854 323.648 622.85 325.836ZM624.082 325.836C624.082 325.379 624.244 324.987 624.562 324.673L630.171 327.471C629.567 327.738 628.745 327.882 627.729 327.882C625.366 327.882 624.082 327.111 624.082 325.836ZM630.919 326.972L625.31 324.188C625.91 323.925 626.723 323.787 627.729 323.787C630.084 323.791 631.381 324.562 631.381 325.836C631.381 326.28 631.224 326.663 630.919 326.972ZM624.295 332.304L624.295 330.975L623.778 330.929C622.526 330.822 621.266 330.527 620.694 330.402L620.694 331.381C621.298 331.603 622.683 332.092 623.791 332.235L624.295 332.304ZM622.85 337.08C622.85 339.264 624.632 340.543 627.729 340.543C630.804 340.543 632.59 339.245 632.59 337.08C632.59 334.911 630.808 333.618 627.729 333.613C624.636 333.613 622.854 334.892 622.85 337.08ZM624.082 337.08C624.082 336.623 624.244 336.231 624.562 335.917L630.171 338.715C629.567 338.982 628.745 339.125 627.729 339.125C625.366 339.125 624.082 338.354 624.082 337.08ZM630.919 338.216L625.31 335.432C625.91 335.169 626.723 335.031 627.729 335.031C630.084 335.035 631.381 335.806 631.381 337.08C631.381 337.523 631.224 337.907 630.919 338.216ZM624.295 343.548L624.295 342.219L623.778 342.172C622.526 342.066 621.266 341.771 620.694 341.646L620.694 342.625C621.298 342.846 622.683 343.336 623.791 343.479L624.295 343.548ZM622.85 348.324C622.85 350.508 624.632 351.786 627.729 351.786C630.804 351.786 632.59 350.489 632.59 348.324C632.59 346.154 630.808 344.862 627.729 344.857C624.636 344.857 622.854 346.136 622.85 348.324ZM624.082 348.324C624.082 347.867 624.244 347.475 624.562 347.161L630.171 349.958C629.567 350.226 628.745 350.369 627.729 350.369C625.366 350.369 624.082 349.598 624.082 348.324ZM630.919 349.46L625.31 346.676C625.91 346.413 626.723 346.274 627.729 346.274C630.084 346.279 631.381 347.05 631.381 348.324C631.381 348.767 631.224 349.15 630.919 349.46Z" fill="white"/>
<path d="M557.325 488.248C572.379 563.82 547.128 659.605 325.693 438.171" stroke="url(#paint2_linear_10047_86372)" stroke-width="2.5" stroke-linecap="round"/>
<path d="M158.111 377.536C75.5776 344.162 35.7329 250.25 69.1155 167.777C102.498 85.3047 196.467 45.5025 279 78.8766C361.534 112.251 401.379 206.163 367.996 288.635C334.613 371.108 240.645 410.91 158.111 377.536Z" fill="url(#paint3_radial_10047_86372)"/>
<path fill-rule="evenodd" clip-rule="evenodd" d="M393.337 246.523C394.429 246.676 395.2 247.676 395.065 248.774C394.941 249.775 394.106 250.514 393.128 250.548L378.845 306.669C379.925 307.188 380.604 308.352 380.449 309.606C380.256 311.178 378.823 312.296 377.249 312.102C376.859 312.054 376.496 311.93 376.175 311.746L345.921 346.282C346.115 346.611 346.206 347.005 346.156 347.414C346.034 348.401 345.134 349.102 344.147 348.981C343.874 348.947 343.623 348.854 343.405 348.716L309.416 376.555C309.682 377.056 309.802 377.641 309.728 378.247C309.534 379.82 308.101 380.937 306.527 380.743C305.638 380.634 304.894 380.129 304.45 379.427L248.795 400.51C248.805 400.642 248.802 400.777 248.785 400.914C248.649 402.023 247.639 402.811 246.529 402.674C245.707 402.573 245.061 401.992 244.837 401.247L216.912 401.426C216.626 402.891 215.249 403.906 213.743 403.72C212.311 403.544 211.255 402.341 211.224 400.94L141.878 388.565C141.343 389.604 140.201 390.252 138.972 390.1C137.399 389.906 136.28 388.474 136.474 386.902C136.528 386.46 136.68 386.054 136.906 385.703L65.3969 316.278C64.8401 316.659 64.1474 316.847 63.4251 316.757C61.8514 316.564 60.7328 315.131 60.9267 313.559C61.0612 312.468 61.7921 311.596 62.7528 311.229L51.1405 241.285L50.1722 239.253C49.9797 239.286 49.779 239.292 49.575 239.267C48.4655 239.131 47.6769 238.121 47.8135 237.012C47.9302 236.066 48.6829 235.353 49.5907 235.25L49.8552 233.544L46.0035 210.344C45.9209 210.341 45.8378 210.334 45.7544 210.324C44.1807 210.13 43.0621 208.698 43.2559 207.125C43.4451 205.591 44.8141 204.489 46.3425 204.617L62.9769 147.318C62.341 146.912 61.9593 146.164 62.0577 145.366C62.1944 144.257 63.2046 143.469 64.3141 143.606C64.5233 143.632 64.721 143.688 64.9034 143.771L93.6884 110.46C93.2412 109.883 93.0131 109.136 93.1094 108.354C93.3033 106.781 94.7362 105.663 96.3099 105.857C96.8162 105.92 97.2754 106.11 97.6589 106.392L129.372 77.6168C129.207 77.2779 129.135 76.8892 129.185 76.4875C129.321 75.3788 130.332 74.5908 131.441 74.7276C132.015 74.7983 132.504 75.1029 132.822 75.534L190.036 54.6766C189.998 54.4237 189.993 54.1614 190.026 53.8951C190.22 52.3225 191.653 51.2049 193.226 51.3989C194.493 51.555 195.465 52.5135 195.695 53.7016L227.226 53.9611C227.505 53.0356 228.418 52.4177 229.411 52.54C230.364 52.6575 231.08 53.419 231.177 54.3341L298.348 66.5511C298.819 65.368 300.043 64.6032 301.367 64.7664C302.941 64.9604 304.059 66.3925 303.866 67.9651C303.811 68.4102 303.657 68.8189 303.428 69.1718L375.829 139.757C376.385 139.378 377.076 139.192 377.797 139.28C379.371 139.474 380.489 140.906 380.295 142.479C380.159 143.59 379.404 144.473 378.418 144.828L388.686 214.729C388.751 214.733 388.817 214.739 388.882 214.747C390.456 214.941 391.575 216.373 391.381 217.946C391.244 219.057 390.488 219.941 389.502 220.295L393.337 246.523ZM391.035 248.651C391.028 248.529 391.031 248.404 391.047 248.278C391.106 247.798 391.329 247.379 391.652 247.068L386.719 237.602L385.147 250.785L391.035 248.651ZM391.424 249.722L384.996 252.051L383.184 267.242L391.685 250.014C391.588 249.925 391.501 249.827 391.424 249.722ZM387.435 220.247C387.5 220.273 387.565 220.297 387.632 220.319L386.024 233.804L382.659 227.348L387.435 220.247ZM385.687 217.205C385.685 217.218 385.684 217.23 385.682 217.243C385.57 218.149 385.894 219.008 386.489 219.611L382.059 226.198L379.661 221.595C379.697 222.473 379.727 223.351 379.749 224.23L381.336 227.274L336.153 294.454C335.856 294.321 335.534 294.229 335.194 294.187C335.07 294.172 334.946 294.164 334.823 294.162L319.054 196.097C319.834 195.829 320.494 195.28 320.897 194.556L385.687 217.205ZM386.834 215.28C386.525 215.507 386.26 215.795 386.062 216.13L321.272 193.481C321.28 193.434 321.287 193.387 321.293 193.339C321.45 192.066 320.87 190.872 319.886 190.185L347.141 132.176C347.248 132.202 347.358 132.222 347.47 132.236C347.818 132.279 348.159 132.258 348.482 132.182L386.834 215.28ZM349.516 131.704L387.393 213.772L377.29 144.993C377.226 144.989 377.16 144.983 377.095 144.975C376.93 144.955 376.769 144.921 376.615 144.875L366.363 163.938C366.171 163.496 365.976 163.056 365.78 162.616L375.612 144.335C374.886 143.731 374.473 142.783 374.597 141.777C374.606 141.696 374.62 141.617 374.636 141.54L350.18 131.024C349.998 131.287 349.772 131.517 349.516 131.704ZM350.631 129.978L370.58 138.556L342.194 121.021L346.575 126.803C347.055 126.572 347.604 126.471 348.172 126.541C349.745 126.735 350.864 128.167 350.67 129.74C350.66 129.821 350.647 129.9 350.631 129.978ZM345.667 127.491L339.507 119.361L334.547 116.297C333.414 115.123 332.262 113.964 331.09 112.823L337.6 116.844L302.26 70.2004C302.203 70.2277 302.145 70.2531 302.087 70.2767L306.19 92.9763C305.755 92.6956 305.319 92.4168 304.881 92.1399L300.966 70.4826C300.866 70.4808 300.766 70.4737 300.665 70.4613C300.124 70.3946 299.637 70.1818 299.239 69.8672L268.004 96.8247C268.377 97.4436 268.553 98.1872 268.458 98.9599C268.449 99.0306 268.439 99.1006 268.426 99.1696L345.382 127.872C345.467 127.737 345.562 127.609 345.667 127.491ZM344.985 128.94L268.028 100.237C267.823 100.589 267.555 100.898 267.243 101.151L316.853 189.772C317.327 189.605 317.846 189.542 318.378 189.607C318.541 189.627 318.7 189.659 318.855 189.701L346.109 131.693C345.307 131.097 344.84 130.099 344.971 129.038C344.975 129.005 344.98 128.972 344.985 128.94ZM315.859 190.329L266.249 101.707C265.775 101.875 265.257 101.938 264.724 101.872C264.402 101.832 264.095 101.748 263.811 101.626L215 176.606C215.778 177.297 216.263 178.294 216.286 179.381L314.766 191.946C314.965 191.296 315.353 190.739 315.859 190.329ZM314.622 193.076L216.142 180.511C215.908 181.339 215.407 182.042 214.747 182.534L257.084 261.591C257.628 261.397 258.224 261.324 258.836 261.399C259.384 261.467 259.891 261.647 260.336 261.914L315.429 195.111C314.95 194.554 314.655 193.842 314.622 193.076ZM316.308 195.837L261.215 262.639C261.929 263.433 262.308 264.521 262.168 265.664C262.147 265.829 262.117 265.989 262.077 266.145L331.966 295.7C332.373 295.067 332.986 294.587 333.698 294.342L317.929 196.277C317.807 196.275 317.683 196.267 317.559 196.251C317.104 196.195 316.682 196.051 316.308 195.837ZM331.522 296.749L261.634 267.195C260.897 268.395 259.526 269.135 258.043 269.007L239.464 346.753C239.985 346.976 240.433 347.326 240.774 347.758L331.611 298.58C331.454 298.119 331.397 297.616 331.46 297.1C331.475 296.98 331.496 296.863 331.522 296.749ZM332.154 299.581L241.318 348.759C241.474 349.221 241.532 349.724 241.468 350.24C241.456 350.342 241.439 350.442 241.418 350.54L296.514 372.812L310.754 364.995L333.164 300.44C332.771 300.222 332.428 299.929 332.154 299.581ZM334.241 300.812L312.244 364.177L330.548 354.13L337.101 347.77L326.652 347.782C327.071 347.404 327.488 347.024 327.904 346.642L338.275 346.63L343.05 341.995L341.661 332.298C341.99 331.909 342.318 331.518 342.644 331.126L344.061 341.014L349.286 335.943L364.003 306.116L337.818 298.932C337.219 300.208 335.85 301.013 334.375 300.832C334.33 300.826 334.285 300.82 334.241 300.812ZM338.118 297.834L364.516 305.076L381.67 270.31L383.796 252.486L377.597 254.732C377.669 254.303 377.74 253.873 377.808 253.444L383.947 251.22L385.785 235.81L381.935 228.424L337.099 295.09C337.817 295.777 338.222 296.775 338.118 297.834ZM237.253 353.057C237.408 353.1 237.569 353.132 237.734 353.152C239.073 353.317 240.323 352.67 240.991 351.596L295.226 373.519L273.619 385.38L252.222 390.738L254.9 385.173C254.427 385.282 253.954 385.39 253.48 385.495L250.784 391.098L237.71 394.373L229.194 388.988C228.546 389.031 227.898 389.07 227.249 389.105L236.183 394.755L225.34 397.471L216.818 396.429L237.253 353.057ZM234.887 350.613C235.078 351.409 235.558 352.106 236.222 352.572L215.627 396.283L204.528 394.926L137.252 357.675C137.35 357.45 137.424 357.211 137.471 356.961L234.887 350.613ZM235.355 347.974C235.075 348.395 234.886 348.885 234.82 349.421C234.817 349.439 234.815 349.458 234.813 349.477L137.49 355.818C137.334 354.826 136.736 353.958 135.882 353.454L161.743 281.301C161.798 281.311 161.854 281.319 161.911 281.326C162.803 281.436 163.657 281.184 164.325 280.686L235.355 347.974ZM238.356 346.49C237.535 346.437 236.758 346.687 236.14 347.148L165.109 279.86C165.389 279.439 165.579 278.949 165.645 278.414C165.656 278.319 165.664 278.224 165.668 278.13L254.691 266.26C255.015 267.376 255.839 268.302 256.934 268.743L238.356 346.49ZM256.08 262.129C255.272 262.731 254.702 263.649 254.569 264.728C254.552 264.863 254.543 264.998 254.541 265.131L165.516 277.001C165.305 276.331 164.887 275.743 164.327 275.324L211.395 183.142C211.587 183.197 211.786 183.238 211.991 183.264C212.603 183.339 213.199 183.266 213.742 183.072L256.08 262.129ZM208.831 180.69C209.105 181.499 209.645 182.197 210.359 182.666L163.312 274.806C163.125 274.749 162.931 274.707 162.73 274.682C162.179 274.614 161.643 274.684 161.156 274.865L110.906 188.368C111.535 187.843 111.973 187.087 112.081 186.211C112.082 186.201 112.083 186.191 112.084 186.181L208.831 180.69ZM209.948 176.579C209.259 177.177 208.78 178.022 208.66 178.999C208.636 179.188 208.627 179.375 208.632 179.56L112.02 185.044C111.884 184.457 111.591 183.923 111.183 183.494L165.369 110.763C165.706 110.934 166.078 111.05 166.475 111.099C167.073 111.173 167.655 111.084 168.174 110.867L209.948 176.579ZM214.045 175.984C213.699 175.827 213.324 175.719 212.927 175.67C212.213 175.582 211.522 175.697 210.909 175.968L169.135 110.256C169.709 109.736 170.107 109.015 170.209 108.187C170.215 108.136 170.22 108.085 170.224 108.034L261.9 99.4251C262.065 100.034 262.4 100.58 262.856 101.004L214.045 175.984ZM262.022 97.3097C261.918 97.5705 261.845 97.8487 261.81 98.1404C261.803 98.1908 261.798 98.241 261.794 98.2912L170.118 106.9C169.915 106.155 169.459 105.504 168.837 105.057L188.622 64.3117L202.919 61.0738L262.022 97.3097ZM267.259 95.9627C266.785 95.573 266.198 95.3088 265.543 95.2281C264.402 95.0874 263.325 95.5378 262.618 96.3393L204.51 60.7134L217.232 57.8323L226.162 58.9362L221.783 67.1028C222.209 67.1113 222.634 67.1215 223.06 67.1334L227.375 59.086L238.448 60.4548L259.562 72.4014C261.091 72.8055 262.618 73.2332 264.142 73.6846L241.407 60.8206L298.153 67.8348C298.185 68.2508 298.307 68.6462 298.502 68.9985L267.259 95.9627ZM167.812 104.56L187.198 64.634L167.691 69.052L145.504 81.5186L149.038 82.8504C148.566 83.076 148.094 83.304 147.623 83.5342L144.208 82.2471L126.909 91.9673L125.391 96.7026C124.872 97.0693 124.354 97.4393 123.839 97.8123L125.449 92.7873L105.319 104.098L101.455 108.063L163.577 107.25C163.858 105.477 165.497 104.233 167.294 104.455C167.472 104.477 167.645 104.512 167.812 104.56ZM163.59 108.388L100.33 109.217L97.1607 112.469L108.778 182.453C108.906 182.454 109.036 182.463 109.166 182.479C109.562 182.528 109.933 182.644 110.27 182.814L164.456 110.081C164.016 109.618 163.71 109.031 163.59 108.388ZM107.653 182.639L96.1737 113.482L92.0492 117.714L76.6691 148.187L78.3708 148.614C78.1769 148.956 77.9841 149.299 77.7925 149.643L76.1431 149.229L58.7329 183.723L55.6556 203.571L105.45 186.341C105.4 186.034 105.392 185.715 105.432 185.391C105.593 184.084 106.488 183.046 107.653 182.639ZM105.823 187.417L55.4581 204.844L53.1871 219.492L56.7811 226.201L57.3356 225.396C57.3253 225.997 57.3185 226.597 57.315 227.198L81.1738 271.736C81.6268 271.586 82.1192 271.53 82.6243 271.59L107.268 188.8C106.652 188.495 106.15 188.008 105.823 187.417ZM108.36 189.124L83.7169 271.913C84.7085 272.404 85.4041 273.365 85.551 274.472L159.044 277.306C159.204 276.552 159.612 275.903 160.171 275.437L109.921 188.94C109.438 189.119 108.907 189.19 108.36 189.124ZM158.999 278.444L85.5067 275.609C85.357 276.318 84.9877 276.934 84.4805 277.393L132.732 353.319C133.29 353.051 133.929 352.935 134.59 353.016C134.666 353.025 134.741 353.037 134.816 353.052L160.67 280.917C159.765 280.405 159.137 279.489 158.999 278.444ZM131.802 353.98L83.5187 278.004C82.9997 278.221 82.4189 278.309 81.8207 278.236C81.6536 278.215 81.4909 278.182 81.3334 278.139L65.4942 311.611C66.2917 312.208 66.756 313.203 66.6255 314.261C66.6191 314.313 66.6114 314.364 66.6024 314.415L88.1594 322.934C88.5794 323.513 89.0032 324.088 89.4311 324.661L69.817 316.91L131.497 354.333C131.591 354.208 131.693 354.09 131.802 353.98ZM130.979 355.351L67.785 317.009L133.345 380.658L102.119 339.652C104.017 341.634 105.969 343.572 107.976 345.463L137.901 384.76C138.026 384.689 138.157 384.627 138.292 384.575L134.089 359.684C133.983 359.681 133.877 359.673 133.771 359.66C131.935 359.434 130.63 357.763 130.856 355.928C130.88 355.729 130.922 355.536 130.979 355.351ZM135.217 359.522L139.416 384.385C139.501 384.388 139.588 384.395 139.674 384.406C140.25 384.477 140.765 384.714 141.178 385.063L152.312 375.061C152.691 375.231 153.071 375.4 153.452 375.568L141.885 385.958C142.092 386.365 142.203 386.825 142.194 387.306L201.51 394.557L136.623 358.629C136.239 359.037 135.755 359.347 135.217 359.522ZM64.4638 311.124L80.3032 277.652C79.3255 276.963 78.7494 275.773 78.9058 274.504C79.0189 273.586 79.4936 272.801 80.1696 272.274L56.6594 228.386L51.4178 235.998L51.4215 236.02C51.7087 236.39 51.8684 236.859 51.8444 237.355L57.7105 239.408C57.7397 239.821 57.7705 240.234 57.8029 240.647L51.8434 238.562L52.2384 240.941L59.9634 257.157C60.2431 258.677 60.5445 260.193 60.8675 261.704L52.9136 245.007L63.877 311.043C63.9599 311.046 64.0433 311.052 64.1271 311.063C64.2418 311.077 64.3542 311.097 64.4638 311.124ZM228.747 56.527C228.802 56.5386 228.859 56.548 228.916 56.5551C229.549 56.6331 230.149 56.4105 230.574 55.9993L235.853 58.9866L227.952 58.0099L228.747 56.527ZM227.395 55.5307C227.489 55.6989 227.606 55.853 227.743 55.9882L226.739 57.86L220.51 57.09L227.395 55.5307ZM195.572 55.2334C195.581 55.2085 195.59 55.1834 195.598 55.1582L213.896 57.42L203.119 59.8607L195.572 55.2334ZM192.16 57.025C192.278 57.0553 192.4 57.0784 192.524 57.0938C193.472 57.2106 194.369 56.8515 194.975 56.2035L201.528 60.221L189.259 62.9997L192.16 57.025ZM190.703 56.1216C190.832 56.271 190.976 56.4074 191.134 56.528L187.835 63.322L171.172 67.0958L190.703 56.1216ZM133.212 76.8868C133.213 76.8778 133.214 76.8689 133.214 76.86L163.795 69.9341L144.112 80.9941L133.212 76.8868ZM131.142 78.7573C131.811 78.7753 132.427 78.4611 132.811 77.9525L142.816 81.7226L127.419 90.3738L131.142 78.7573ZM98.7657 108.099C98.7454 108.005 98.7206 107.913 98.6913 107.822L101.802 106.074L99.8433 108.084L98.7657 108.099ZM95.1998 111.472C95.3319 111.508 95.4681 111.535 95.6079 111.552C95.6913 111.562 95.7742 111.569 95.8566 111.572L95.9422 112.087L93.7581 114.328L95.1998 111.472ZM66.0894 145.533C66.0767 145.204 65.9842 144.893 65.829 144.619L89.4017 120.431L75.5362 147.903L66.0894 145.533ZM64.3308 147.619C64.9536 147.538 65.5001 147.17 65.813 146.637L75.0102 148.945L59.2989 180.073L64.3308 147.619ZM48.5786 206.02C48.398 205.714 48.1618 205.443 47.8819 205.222L57.0684 187.021L54.4371 203.992L48.5786 206.02ZM47.9351 209.688C48.4806 209.237 48.8614 208.585 48.9548 207.828C48.9855 207.579 48.9833 207.333 48.9516 207.096L54.2396 205.266L52.2928 217.822L47.9351 209.688ZM214.778 398.086C214.67 398.06 214.559 398.039 214.445 398.025C213.451 397.903 212.513 398.304 211.908 399.013L207.187 396.399L215.116 397.368L214.778 398.086ZM216.686 399.638C216.485 399.218 216.184 398.851 215.809 398.571L216.307 397.514L222.262 398.242L216.686 399.638ZM247.138 398.677C247.1 398.67 247.062 398.664 247.024 398.659C246.392 398.581 245.792 398.804 245.367 399.215L239.04 395.214L250.142 392.433L247.138 398.677ZM248.265 399.297C248.23 399.259 248.194 399.222 248.157 399.187L251.58 392.073L269.685 387.539L248.265 399.297ZM304.116 377.113C304.076 377.252 304.047 377.396 304.029 377.545C304.02 377.62 304.013 377.694 304.01 377.768L277.972 384.289L296.589 374.07L304.116 377.113ZM307.263 375.053C307.252 375.051 307.24 375.05 307.229 375.049C306.207 374.922 305.243 375.35 304.641 376.097L297.878 373.363L310.197 366.601L307.263 375.053ZM308.501 375.529C308.448 375.493 308.395 375.458 308.339 375.426L311.687 365.783L327.466 357.121L308.501 375.529ZM343.564 345.58C343.142 345.79 342.809 346.162 342.656 346.625L339.913 346.628L343.25 343.389L343.564 345.58ZM374.736 309.061C374.692 309.696 374.861 310.303 375.185 310.805L351.724 333.576L365.122 306.423L374.736 309.061ZM377.367 306.394C376.363 306.475 375.481 307.08 375.036 307.962L365.635 305.383L381.265 273.706L377.367 306.394ZM367.897 319.466L346.807 343.541L350.221 336.623L367.897 319.466ZM391.164 253.645L382.779 270.639L379.198 300.664L391.164 253.645ZM392.003 245.276L386.958 235.596L388.588 221.926L392.003 245.276ZM228.49 397.856L237.513 395.596L244.106 399.765L228.49 397.856ZM204.169 396.03L159.783 390.603L210.818 399.711L204.169 396.03ZM237.894 400.153L225.412 398.627L218.833 400.275L237.894 400.153ZM274.039 386.448L254.754 397.034L299.594 380.048L274.039 386.448ZM316.976 368.891L331.231 355.055L339.227 350.665L316.976 368.891ZM342.145 347.764L334.313 352.064L338.738 347.768L342.145 347.764ZM344.674 345.291L344.261 342.408L347.782 338.99L344.674 345.291ZM56.0541 227.257L51.1491 234.379L51.0093 233.538L52.897 221.363L56.0541 227.257ZM52.0026 219.693L50.413 229.946L47.2325 210.789L52.0026 219.693ZM125.96 91.1938L108.134 101.21L129.911 78.8649L125.96 91.1938ZM281.237 64.5963L238.812 59.3523L232.374 55.7093L281.237 64.5963ZM217.174 56.6777L224.248 55.0755L202.783 54.8988L217.174 56.6777ZM139.813 74.1979L167.277 67.978L186.493 57.1805L139.813 74.1979ZM104.617 103.186L117.834 89.6242L100.076 105.738L104.617 103.186ZM76.9344 131.591L91.1106 117.045L93.3665 112.575L76.9344 131.591ZM57.6344 183.371L62.1477 154.262L48.366 201.734L57.6344 183.371ZM306.056 73.3246L373.344 138.925L340.287 118.504L306.056 73.3246Z" fill="url(#paint4_radial_10047_86372)"/>
<path d="M742.24 583.112C824.774 616.487 864.619 710.399 831.236 792.871C797.853 875.344 703.885 915.146 621.351 881.772C538.818 848.398 498.973 754.486 532.355 672.013C565.738 589.541 659.707 549.738 742.24 583.112Z" fill="url(#paint5_radial_10047_86372)"/>
<path fill-rule="evenodd" clip-rule="evenodd" d="M507.014 714.126C505.923 713.973 505.152 712.972 505.287 711.875C505.41 710.874 506.246 710.134 507.224 710.101L521.506 653.98C520.427 653.461 519.748 652.296 519.902 651.043C520.096 649.47 521.529 648.352 523.102 648.546C523.493 648.595 523.855 648.719 524.176 648.903L554.43 614.367C554.236 614.037 554.146 613.644 554.196 613.235C554.318 612.248 555.217 611.546 556.205 611.668C556.478 611.701 556.729 611.794 556.947 611.932L590.935 584.093C590.669 583.592 590.549 583.007 590.624 582.401C590.818 580.829 592.251 579.711 593.824 579.905C594.714 580.015 595.458 580.52 595.901 581.222L651.557 560.139C651.547 560.007 651.549 559.871 651.566 559.734C651.703 558.625 652.713 557.837 653.823 557.974C654.645 558.075 655.291 558.656 655.515 559.401L683.44 559.223C683.726 557.758 685.103 556.743 686.608 556.928C688.041 557.105 689.096 558.307 689.128 559.708L758.474 572.084C759.008 571.044 760.151 570.397 761.379 570.548C762.953 570.742 764.072 572.174 763.878 573.747C763.823 574.189 763.671 574.595 763.445 574.946L834.955 644.37C835.511 643.989 836.204 643.802 836.926 643.891C838.5 644.085 839.619 645.517 839.425 647.09C839.29 648.181 838.559 649.053 837.599 649.42L849.211 719.363L850.179 721.396C850.372 721.362 850.573 721.356 850.777 721.381C851.886 721.518 852.675 722.528 852.538 723.636C852.421 724.583 851.669 725.295 850.761 725.399L850.496 727.105L854.348 750.305C854.431 750.308 854.514 750.314 854.597 750.325C856.171 750.519 857.289 751.951 857.096 753.523C856.906 755.058 855.537 756.159 854.009 756.031L837.375 813.33C838.011 813.737 838.392 814.484 838.294 815.283C838.157 816.391 837.147 817.179 836.037 817.043C835.828 817.017 835.631 816.96 835.448 816.877L806.663 850.188C807.11 850.766 807.339 851.513 807.242 852.295C807.048 853.868 805.615 854.985 804.042 854.791C803.535 854.729 803.076 854.538 802.693 854.256L770.98 883.032C771.144 883.371 771.216 883.759 771.167 884.161C771.03 885.27 770.02 886.058 768.91 885.921C768.336 885.85 767.848 885.546 767.529 885.115L710.315 905.972C710.354 906.225 710.359 906.487 710.326 906.753C710.132 908.326 708.699 909.444 707.125 909.25C705.858 909.094 704.887 908.135 704.657 906.947L673.125 906.687C672.846 907.613 671.933 908.231 670.94 908.108C669.987 907.991 669.271 907.23 669.175 906.314L602.003 894.097C601.532 895.28 600.308 896.045 598.984 895.882C597.411 895.688 596.292 894.256 596.486 892.683C596.541 892.238 596.695 891.83 596.924 891.477L524.522 820.892C523.966 821.271 523.275 821.457 522.555 821.368C520.981 821.174 519.862 819.742 520.056 818.169C520.193 817.059 520.948 816.175 521.934 815.82L511.666 745.919C511.601 745.916 511.535 745.91 511.469 745.902C509.895 745.708 508.777 744.276 508.971 742.703C509.108 741.592 509.863 740.708 510.85 740.353L507.014 714.126ZM509.317 711.997C509.324 712.119 509.32 712.244 509.305 712.37C509.246 712.85 509.023 713.27 508.699 713.581L513.633 723.046L515.205 709.864L509.317 711.997ZM508.928 710.926L515.356 708.597L517.168 693.406L508.667 710.635C508.763 710.723 508.851 710.821 508.928 710.926ZM512.916 740.402C512.852 740.375 512.786 740.351 512.719 740.329L514.327 726.844L517.693 733.301L512.916 740.402ZM514.665 743.443C514.666 743.431 514.668 743.418 514.67 743.405C514.781 742.5 514.457 741.64 513.862 741.038L518.292 734.451L520.691 739.053C520.654 738.176 520.625 737.297 520.602 736.418L519.016 733.375L564.198 666.195C564.496 666.328 564.817 666.419 565.158 666.461C565.282 666.476 565.406 666.485 565.528 666.486L581.297 764.552C580.518 764.819 579.857 765.369 579.454 766.092L514.665 743.443ZM513.517 745.369C513.827 745.142 514.091 744.853 514.29 744.519L579.079 767.168C579.071 767.215 579.065 767.262 579.059 767.31C578.902 768.582 579.482 769.777 580.465 770.464L553.211 828.472C553.104 828.446 552.994 828.426 552.882 828.412C552.534 828.369 552.192 828.391 551.87 828.467L513.517 745.369ZM550.835 828.944L512.958 746.877L523.061 815.656C523.126 815.659 523.191 815.665 523.257 815.673C523.422 815.694 523.582 815.728 523.736 815.774L533.989 796.711C534.181 797.152 534.375 797.593 534.571 798.033L524.74 816.314C525.466 816.917 525.879 817.866 525.755 818.872C525.745 818.952 525.732 819.031 525.716 819.109L550.171 829.624C550.354 829.361 550.579 829.132 550.835 828.944ZM549.721 830.67L529.771 822.092L558.157 839.628L553.776 833.845C553.297 834.076 552.748 834.177 552.18 834.107C550.606 833.913 549.488 832.481 549.682 830.908C549.692 830.828 549.705 830.749 549.721 830.67ZM554.685 833.158L560.844 841.288L565.804 844.352C566.937 845.526 568.09 846.684 569.261 847.826L562.751 843.804L598.092 890.448C598.149 890.421 598.206 890.395 598.265 890.372L594.161 867.672C594.596 867.953 595.032 868.232 595.471 868.509L599.386 890.166C599.485 890.168 599.586 890.175 599.686 890.187C600.227 890.254 600.714 890.467 601.113 890.781L632.348 863.824C631.974 863.205 631.798 862.461 631.893 861.689C631.902 861.618 631.913 861.548 631.926 861.479L554.969 832.776C554.885 832.912 554.789 833.039 554.685 833.158ZM555.367 831.709L632.323 860.412C632.529 860.06 632.796 859.751 633.109 859.498L583.498 770.876C583.025 771.044 582.506 771.107 581.974 771.041C581.81 771.021 581.651 770.99 581.497 770.948L554.243 828.956C555.044 829.552 555.511 830.549 555.38 831.611C555.376 831.644 555.372 831.676 555.367 831.709ZM584.492 770.32L634.103 858.941C634.576 858.774 635.095 858.711 635.627 858.776C635.95 858.816 636.256 858.901 636.541 859.023L685.352 784.043C684.574 783.352 684.089 782.354 684.065 781.268L585.585 768.702C585.387 769.352 584.999 769.91 584.492 770.32ZM585.73 767.573L684.209 780.138C684.443 779.309 684.945 778.606 685.605 778.114L643.268 699.057C642.724 699.251 642.127 699.325 641.515 699.249C640.967 699.182 640.461 699.002 640.016 698.735L584.923 765.537C585.402 766.094 585.697 766.806 585.73 767.573ZM584.044 764.812L639.137 698.01C638.422 697.215 638.043 696.128 638.184 694.984C638.204 694.82 638.235 694.659 638.275 694.503L568.386 664.949C567.978 665.582 567.366 666.062 566.654 666.306L582.423 764.372C582.545 764.374 582.668 764.382 582.792 764.397C583.247 764.453 583.669 764.598 584.044 764.812ZM568.829 663.9L638.718 693.454C639.454 692.254 640.826 691.513 642.309 691.641L660.887 613.895C660.367 613.672 659.919 613.323 659.577 612.89L568.741 662.068C568.897 662.53 568.955 663.033 568.891 663.549C568.877 663.668 568.856 663.785 568.829 663.9ZM568.197 661.067L659.034 611.889C658.877 611.428 658.82 610.925 658.883 610.408C658.896 610.307 658.913 610.207 658.934 610.109L603.837 587.837L589.598 595.653L567.187 660.209C567.581 660.426 567.923 660.72 568.197 661.067ZM566.111 659.836L588.107 596.471L569.804 606.518L563.251 612.878L573.699 612.867C573.28 613.244 572.863 613.624 572.448 614.007L562.076 614.019L557.301 618.653L558.691 628.35C558.361 628.739 558.034 629.13 557.708 629.523L556.291 619.634L551.066 624.705L536.349 654.532L562.534 661.716C563.133 660.441 564.502 659.635 565.976 659.817C566.021 659.823 566.066 659.829 566.111 659.836ZM562.233 662.814L535.836 655.572L518.681 690.339L516.555 708.163L522.754 705.917C522.682 706.346 522.612 706.775 522.543 707.205L516.404 709.429L514.567 724.838L518.416 732.224L563.253 665.559C562.534 664.871 562.13 663.874 562.233 662.814ZM663.099 607.591C662.943 607.549 662.782 607.517 662.617 607.496C661.279 607.331 660.028 607.979 659.361 609.053L605.126 587.129L626.733 575.269L648.13 569.91L645.452 575.476C645.924 575.366 646.398 575.259 646.871 575.153L649.567 569.55L662.642 566.276L671.158 571.661C671.805 571.618 672.454 571.578 673.102 571.543L664.168 565.893L675.011 563.178L683.533 564.22L663.099 607.591ZM665.465 610.035C665.273 609.239 664.794 608.542 664.13 608.077L684.724 564.365L695.824 565.722L763.1 602.973C763.002 603.199 762.927 603.438 762.88 603.688L665.465 610.035ZM664.996 612.674C665.277 612.254 665.466 611.764 665.532 611.228C665.534 611.209 665.536 611.19 665.538 611.172L762.862 604.83C763.017 605.823 763.615 606.69 764.47 607.194L738.609 679.347C738.553 679.338 738.497 679.329 738.441 679.322C737.548 679.212 736.694 679.464 736.026 679.963L664.996 612.674ZM661.996 614.159C662.816 614.212 663.594 613.962 664.212 613.5L735.242 680.789C734.962 681.209 734.773 681.699 734.707 682.235C734.695 682.33 734.688 682.425 734.684 682.519L645.661 694.389C645.337 693.272 644.513 692.347 643.418 691.905L661.996 614.159ZM644.272 698.519C645.08 697.917 645.65 696.999 645.782 695.921C645.799 695.786 645.809 695.651 645.811 695.518L734.835 683.647C735.046 684.318 735.465 684.905 736.024 685.325L688.956 777.506C688.764 777.451 688.565 777.41 688.361 777.385C687.749 777.31 687.153 777.383 686.609 777.577L644.272 698.519ZM691.521 779.959C691.247 779.15 690.707 778.452 689.993 777.983L737.04 685.842C737.227 685.9 737.421 685.942 737.622 685.966C738.173 686.034 738.709 685.965 739.195 685.784L789.445 772.281C788.817 772.806 788.379 773.561 788.271 774.438C788.27 774.448 788.268 774.458 788.267 774.468L691.521 779.959ZM690.404 784.069C691.093 783.471 691.572 782.626 691.692 781.65C691.715 781.461 691.724 781.273 691.72 781.088L788.332 775.605C788.468 776.191 788.76 776.725 789.168 777.154L734.983 849.886C734.646 849.715 734.274 849.599 733.877 849.55C733.278 849.476 732.697 849.565 732.178 849.782L690.404 784.069ZM686.307 784.664C686.653 784.821 687.028 784.929 687.425 784.978C688.138 785.066 688.83 784.952 689.443 784.68L731.216 850.393C730.642 850.913 730.245 851.633 730.143 852.462C730.137 852.513 730.131 852.564 730.128 852.615L638.451 861.223C638.286 860.615 637.952 860.068 637.496 859.645L686.307 784.664ZM638.33 863.339C638.434 863.078 638.506 862.8 638.542 862.508C638.548 862.458 638.553 862.407 638.557 862.357L730.234 853.748C730.437 854.493 730.892 855.145 731.514 855.592L711.73 896.337L697.433 899.575L638.33 863.339ZM633.093 864.686C633.567 865.076 634.154 865.34 634.808 865.42C635.949 865.561 637.027 865.111 637.733 864.309L695.841 899.935L683.12 902.816L674.189 901.712L678.568 893.546C678.143 893.537 677.717 893.527 677.292 893.515L672.977 901.562L661.904 900.194L640.79 888.247C639.261 887.843 637.734 887.415 636.209 886.964L658.944 899.828L602.198 892.814C602.167 892.398 602.045 892.002 601.85 891.65L633.093 864.686ZM732.54 856.088L713.153 896.014L732.661 891.597L754.848 879.13L751.313 877.798C751.786 877.572 752.258 877.345 752.728 877.114L756.144 878.401L773.443 868.681L774.961 863.946C775.48 863.579 775.997 863.209 776.513 862.836L774.902 867.861L795.033 856.55L798.897 852.585L736.775 853.399C736.493 855.171 734.854 856.415 733.058 856.194C732.88 856.172 732.707 856.136 732.54 856.088ZM736.761 852.26L800.021 851.432L803.191 848.179L791.574 778.195C791.446 778.194 791.316 778.186 791.186 778.17C790.79 778.121 790.418 778.005 790.082 777.835L735.896 850.567C736.336 851.031 736.642 851.617 736.761 852.26ZM792.698 778.009L804.178 847.166L808.302 842.934L823.682 812.462L821.981 812.035C822.175 811.693 822.367 811.35 822.559 811.006L824.208 811.42L841.619 776.925L844.696 757.078L794.901 774.308C794.952 774.615 794.959 774.933 794.919 775.258C794.758 776.565 793.863 777.602 792.698 778.009ZM794.528 773.232L844.893 755.804L847.164 741.157L843.57 734.448L843.016 735.253C843.026 734.652 843.033 734.051 843.037 733.451L819.178 688.912C818.725 689.063 818.232 689.119 817.727 689.059L793.084 771.848C793.7 772.154 794.202 772.641 794.528 773.232ZM791.991 771.524L816.635 688.735C815.643 688.244 814.947 687.284 814.801 686.177L741.307 683.343C741.147 684.097 740.739 684.745 740.181 685.212L790.43 771.709C790.913 771.529 791.445 771.459 791.991 771.524ZM741.353 682.205L814.845 685.039C814.995 684.33 815.364 683.715 815.871 683.255L767.619 607.329C767.061 607.597 766.422 607.714 765.762 607.633C765.686 607.623 765.61 607.611 765.536 607.597L739.682 679.731C740.587 680.244 741.215 681.159 741.353 682.205ZM768.549 606.669L816.833 682.645C817.352 682.428 817.933 682.339 818.531 682.413C818.698 682.434 818.861 682.466 819.018 682.51L834.857 649.037C834.06 648.441 833.596 647.446 833.726 646.387C833.732 646.335 833.74 646.284 833.749 646.233L812.192 637.714C811.772 637.136 811.348 636.56 810.92 635.987L830.535 643.738L768.854 606.315C768.761 606.44 768.659 606.558 768.549 606.669ZM769.373 605.298L832.567 643.639L767.007 579.991L798.233 620.997C796.335 619.014 794.382 617.076 792.376 615.186L762.451 575.888C762.326 575.96 762.195 576.022 762.06 576.074L766.263 600.964C766.368 600.967 766.474 600.975 766.581 600.988C768.417 601.215 769.722 602.886 769.496 604.72C769.471 604.919 769.43 605.112 769.373 605.298ZM765.135 601.127L760.936 576.263C760.85 576.26 760.764 576.254 760.677 576.243C760.101 576.172 759.586 575.935 759.174 575.586L748.039 585.588C747.66 585.417 747.28 585.248 746.9 585.08L758.466 574.69C758.26 574.283 758.148 573.823 758.158 573.343L698.841 566.091L763.729 602.02C764.113 601.611 764.596 601.302 765.135 601.127ZM835.888 649.524L820.048 682.997C821.026 683.685 821.602 684.876 821.446 686.145C821.333 687.062 820.858 687.847 820.182 688.374L843.692 732.262L848.934 724.651L848.93 724.629C848.643 724.259 848.483 723.79 848.507 723.293L842.641 721.241C842.612 720.827 842.581 720.414 842.549 720.002L848.508 722.087L848.113 719.708L840.388 703.492C840.108 701.971 839.807 700.455 839.484 698.945L847.438 715.641L836.475 649.606C836.392 649.603 836.308 649.596 836.224 649.586C836.11 649.572 835.997 649.551 835.888 649.524ZM671.605 904.122C671.549 904.11 671.493 904.1 671.435 904.093C670.803 904.015 670.202 904.238 669.778 904.649L664.498 901.662L672.4 902.639L671.605 904.122ZM672.957 905.118C672.863 904.95 672.746 904.796 672.609 904.66L673.612 902.789L679.842 903.559L672.957 905.118ZM704.78 905.415C704.771 905.44 704.762 905.465 704.753 905.49L686.455 903.229L697.232 900.788L704.78 905.415ZM708.192 903.624C708.073 903.593 707.952 903.57 707.827 903.555C706.879 903.438 705.982 903.797 705.376 904.445L698.824 900.427L711.093 897.649L708.192 903.624ZM709.649 904.527C709.52 904.377 709.375 904.241 709.217 904.121L712.516 897.326L729.179 893.553L709.649 904.527ZM767.139 883.762C767.139 883.771 767.138 883.78 767.138 883.789L736.556 890.714L756.239 879.654L767.139 883.762ZM769.21 881.891C768.54 881.873 767.925 882.187 767.541 882.696L757.536 878.926L772.932 870.275L769.21 881.891ZM801.586 852.55C801.606 852.644 801.631 852.736 801.66 852.826L798.549 854.574L800.508 852.564L801.586 852.55ZM805.152 849.177C805.02 849.141 804.883 849.114 804.744 849.096C804.66 849.086 804.577 849.079 804.495 849.076L804.409 848.561L806.593 846.32L805.152 849.177ZM834.262 815.116C834.275 815.444 834.367 815.756 834.523 816.03L810.95 840.218L824.815 812.746L834.262 815.116ZM836.021 813.029C835.398 813.111 834.851 813.479 834.539 814.011L825.341 811.704L841.053 780.575L836.021 813.029ZM851.773 754.629C851.954 754.935 852.19 755.205 852.47 755.426L843.283 773.627L845.915 756.656L851.773 754.629ZM852.416 750.961C851.871 751.412 851.49 752.063 851.397 752.821C851.366 753.07 851.368 753.315 851.4 753.553L846.112 755.383L848.059 742.826L852.416 750.961ZM685.574 562.562C685.682 562.589 685.793 562.609 685.906 562.623C686.901 562.746 687.839 562.344 688.444 561.636L693.165 564.25L685.235 563.28L685.574 562.562ZM683.665 561.01C683.867 561.431 684.168 561.798 684.543 562.077L684.044 563.135L678.09 562.407L683.665 561.01ZM653.214 561.972C653.251 561.979 653.289 561.984 653.328 561.989C653.96 562.067 654.56 561.845 654.985 561.434L661.312 565.435L650.21 568.215L653.214 561.972ZM652.086 561.352C652.121 561.39 652.157 561.426 652.195 561.461L648.772 568.575L630.666 573.11L652.086 561.352ZM596.236 583.536C596.275 583.396 596.305 583.252 596.323 583.104C596.332 583.029 596.338 582.954 596.342 582.88L622.379 576.359L603.763 586.578L596.236 583.536ZM593.089 585.596C593.1 585.597 593.111 585.599 593.122 585.6C594.145 585.726 595.108 585.298 595.71 584.552L602.474 587.286L590.155 594.048L593.089 585.596ZM591.851 585.12C591.903 585.156 591.957 585.19 592.012 585.223L588.665 594.866L572.885 603.527L591.851 585.12ZM556.788 615.068C557.209 614.858 557.542 614.486 557.695 614.023L560.439 614.02L557.102 617.259L556.788 615.068ZM525.616 651.588C525.66 650.952 525.491 650.346 525.167 649.843L548.627 627.072L535.23 654.225L525.616 651.588ZM522.985 654.254C523.988 654.173 524.87 653.569 525.316 652.686L534.716 655.265L519.086 686.943L522.985 654.254ZM532.454 641.182L553.544 617.107L550.131 624.025L532.454 641.182ZM509.188 707.003L517.573 690.01L521.154 659.984L509.188 707.003ZM508.348 715.372L513.393 725.052L511.763 738.722L508.348 715.372ZM671.861 562.793L662.838 565.052L656.246 560.884L671.861 562.793ZM696.182 564.619L740.569 570.045L689.533 560.937L696.182 564.619ZM662.457 560.496L674.939 562.022L681.519 560.374L662.457 560.496ZM626.313 574.2L645.598 563.614L600.757 580.6L626.313 574.2ZM583.376 591.758L569.12 605.594L561.124 609.983L583.376 591.758ZM558.207 612.884L566.039 608.585L561.613 612.88L558.207 612.884ZM555.678 615.358L556.091 618.24L552.569 621.659L555.678 615.358ZM844.297 733.392L849.202 726.269L849.342 727.111L847.455 739.286L844.297 733.392ZM848.349 740.955L849.939 730.703L853.119 749.86L848.349 740.955ZM774.392 869.455L792.218 859.438L770.441 881.784L774.392 869.455ZM619.115 896.052L661.539 901.296L667.978 904.939L619.115 896.052ZM683.178 903.971L676.103 905.573L697.569 905.75L683.178 903.971ZM760.539 886.451L733.075 892.671L713.859 903.468L760.539 886.451ZM795.735 857.462L782.517 871.024L800.276 854.91L795.735 857.462ZM823.417 829.058L809.241 843.604L806.985 848.073L823.417 829.058ZM842.717 777.277L838.204 806.387L851.986 758.914L842.717 777.277ZM594.296 887.324L527.008 821.724L560.064 842.144L594.296 887.324Z" fill="url(#paint6_radial_10047_86372)"/>
<defs>
<filter id="filter0_f_10047_86372" x="26.4473" y="27.0781" width="869.844" height="869.844" filterUnits="userSpaceOnUse" color-interpolation-filters="sRGB">
<feFlood flood-opacity="0" result="BackgroundImageFix"/>
<feBlend mode="normal" in="SourceGraphic" in2="BackgroundImageFix" result="shape"/>
<feGaussianBlur stdDeviation="54.3423" result="effect1_foregroundBlur_10047_86372"/>
</filter>
<filter id="filter1_i_10047_86372" x="407" y="408" width="109" height="109" filterUnits="userSpaceOnUse" color-interpolation-filters="sRGB">
<feFlood flood-opacity="0" result="BackgroundImageFix"/>
<feBlend mode="normal" in="SourceGraphic" in2="BackgroundImageFix" result="shape"/>
<feColorMatrix in="SourceAlpha" type="matrix" values="0 0 0 0 0 0 0 0 0 0 0 0 0 0 0 0 0 0 127 0" result="hardAlpha"/>
<feOffset/>
<feGaussianBlur stdDeviation="37"/>
<feComposite in2="hardAlpha" operator="arithmetic" k2="-1" k3="1"/>
<feColorMatrix type="matrix" values="0 0 0 0 1 0 0 0 0 1 0 0 0 0 1 0 0 0 0.25 0"/>
<feBlend mode="normal" in2="shape" result="effect1_innerShadow_10047_86372"/>
</filter>
<radialGradient id="paint0_radial_10047_86372" cx="0" cy="0" r="1" gradientUnits="userSpaceOnUse" gradientTransform="translate(461.369 462) rotate(45) scale(313.283)">
<stop offset="0.302083" stop-color="#A5FBFF"/>
<stop offset="0.385417" stop-color="#7694FF" stop-opacity="0.7"/>
<stop offset="0.729167" stop-color="#2E5ACE" stop-opacity="0.28"/>
<stop offset="1" stop-color="#9000D5" stop-opacity="0"/>
</radialGradient>
<radialGradient id="paint1_radial_10047_86372" cx="0" cy="0" r="1" gradientUnits="userSpaceOnUse" gradientTransform="translate(461.5 462.5) rotate(90) scale(52.3359)">
<stop offset="0.210997" stop-color="#A5D4FF"/>
<stop offset="0.90625" stop-color="#86A1FF" stop-opacity="0"/>
</radialGradient>
<linearGradient id="paint2_linear_10047_86372" x1="325.752" y1="438.268" x2="540.269" y2="367.455" gradientUnits="userSpaceOnUse">
<stop offset="0.190577" stop-color="#BAFBFF"/>
<stop offset="0.878843" stop-color="#AFD4F9" stop-opacity="0"/>
</linearGradient>
<radialGradient id="paint3_radial_10047_86372" cx="0" cy="0" r="1" gradientUnits="userSpaceOnUse" gradientTransform="translate(75.8226 110.691) rotate(39.6824) scale(418.631 418.596)">
<stop offset="0.333333" stop-color="#891B6A" stop-opacity="0"/>
<stop offset="0.718711" stop-color="#4C51C5" stop-opacity="0.536826"/>
<stop offset="1" stop-color="white"/>
</radialGradient>
<radialGradient id="paint4_radial_10047_86372" cx="0" cy="0" r="1" gradientUnits="userSpaceOnUse" gradientTransform="translate(432.322 377.824) rotate(-138.334) scale(310.376 308.802)">
<stop offset="0.208803" stop-color="#CFA9FF"/>
<stop offset="1" stop-color="#87028E" stop-opacity="0"/>
</radialGradient>
<radialGradient id="paint5_radial_10047_86372" cx="0" cy="0" r="1" gradientUnits="userSpaceOnUse" gradientTransform="translate(824.529 849.958) rotate(-142.675) scale(407.299 407.265)">
<stop offset="0.656222" stop-color="#1B6F89" stop-opacity="0"/>
<stop offset="0.766845" stop-color="#3748E0" stop-opacity="0.397477"/>
<stop offset="0.849825" stop-color="#2496FF" stop-opacity="0.536826"/>
</radialGradient>
<radialGradient id="paint6_radial_10047_86372" cx="0" cy="0" r="1" gradientUnits="userSpaceOnUse" gradientTransform="translate(468.03 582.825) rotate(41.6658) scale(310.376 308.802)">
<stop offset="0.208803" stop-color="#A9D6FF"/>
<stop offset="1" stop-color="#87028E" stop-opacity="0"/>
</radialGradient>
</defs>
</svg>
