<svg width="377" height="299" viewBox="0 0 377 299" fill="none" xmlns="http://www.w3.org/2000/svg">
<path d="M166.555 118.001L201.552 125.838L201.559 148.75L166.561 156.587L131.563 148.75L131.557 125.838L166.555 118.001Z" fill="url(#paint0_linear_15_9546)" fill-opacity="0.4"/>
<path d="M132.185 126.152L166.555 118.456L200.925 126.152V140.82L166.555 148.517L132.185 140.82V126.152Z" stroke="#0080FF" stroke-width="3.876"/>
<path d="M166.555 117.812L201.552 125.649V141.324L166.555 149.161L131.557 141.324V125.649L166.555 117.812Z" fill="#111111"/>
<path d="M241.955 118.001L276.952 125.838L276.959 148.75L241.961 156.587L206.963 148.75L206.957 125.838L241.955 118.001Z" fill="url(#paint1_linear_15_9546)" fill-opacity="0.4"/>
<path d="M207.584 126.152L241.954 118.456L276.324 126.152V140.82L241.954 148.517L207.584 140.82V126.152Z" stroke="#0080FF" stroke-width="3.876"/>
<path d="M241.954 117.812L276.952 125.649V141.324L241.954 149.161L206.956 141.324V125.649L241.954 117.812Z" fill="#111111"/>
<path d="M128.855 147.527L163.853 155.364L163.859 178.276L128.861 186.113L93.8633 178.276L93.8569 155.364L128.855 147.527Z" fill="url(#paint2_linear_15_9546)" fill-opacity="0.4"/>
<path d="M94.4844 155.678L128.854 147.982L163.224 155.678V170.346L128.854 178.043L94.4844 170.346V155.678Z" stroke="#0080FF" stroke-width="3.876"/>
<path d="M128.854 147.338L163.852 155.175V170.85L128.854 178.687L93.8564 170.85V155.175L128.854 147.338Z" fill="#111111"/>
<path d="M204.254 147.527L239.252 155.364L239.259 178.276L204.261 186.113L169.263 178.276L169.256 155.364L204.254 147.527Z" fill="url(#paint3_linear_15_9546)" fill-opacity="0.4"/>
<path d="M169.884 155.678L204.254 147.982L238.624 155.678V170.346L204.254 178.043L169.884 170.346V155.678Z" stroke="#0080FF" stroke-width="3.876"/>
<path d="M204.254 147.338L239.252 155.175V170.85L204.254 178.687L169.256 170.85V155.175L204.254 147.338Z" fill="#111111"/>
<path d="M279.654 147.527L314.652 155.364L314.659 178.276L279.661 186.113L244.663 178.276L244.657 155.364L279.654 147.527Z" fill="url(#paint4_linear_15_9546)" fill-opacity="0.4"/>
<path d="M245.285 155.678L279.655 147.982L314.025 155.678V170.346L279.655 178.043L245.285 170.346V155.678Z" stroke="#0080FF" stroke-width="3.876"/>
<path d="M279.654 147.338L314.652 155.175V170.85L279.654 178.687L244.657 170.85V155.175L279.654 147.338Z" fill="#111111"/>
<path d="M166.555 176.652L201.552 184.489L201.559 207.401L166.561 215.238L131.563 207.401L131.557 184.489L166.555 176.652Z" fill="url(#paint5_linear_15_9546)" fill-opacity="0.4"/>
<path d="M132.185 184.803L166.555 177.107L200.925 184.803V199.471L166.555 207.168L132.185 199.471V184.803Z" stroke="#0080FF" stroke-width="3.876"/>
<path d="M166.555 176.463L201.552 184.3V199.974L166.555 207.811L131.557 199.974V184.3L166.555 176.463Z" fill="#111111"/>
<path d="M241.955 176.652L276.952 184.489L276.959 207.401L241.961 215.238L206.963 207.401L206.957 184.489L241.955 176.652Z" fill="url(#paint6_linear_15_9546)" fill-opacity="0.4"/>
<path d="M207.584 184.803L241.954 177.107L276.324 184.803V199.471L241.954 207.168L207.584 199.471V184.803Z" stroke="#0080FF" stroke-width="3.876"/>
<path d="M241.954 176.463L276.952 184.3V199.974L241.954 207.811L206.956 199.974V184.3L241.954 176.463Z" fill="#111111"/>
<path fill-rule="evenodd" clip-rule="evenodd" d="M166.554 119.1L132.812 126.656V140.317L166.554 147.873L200.296 140.317V126.656L166.554 119.1ZM201.552 125.649L166.554 117.812L131.556 125.649V141.324L166.554 149.161L201.552 141.324V125.649ZM241.954 119.1L208.212 126.656V140.317L241.954 147.873L275.696 140.317V126.656L241.954 119.1ZM276.952 125.649L241.954 117.812L206.956 125.649V141.324L241.954 149.161L276.952 141.324V125.649ZM95.1122 156.182L128.854 148.626L162.597 156.182V169.843L128.854 177.399L95.1122 169.843V156.182ZM128.854 147.338L163.852 155.175V170.85L128.854 178.687L93.8564 170.85V155.175L128.854 147.338ZM204.254 148.626L170.512 156.182V169.843L204.254 177.399L237.996 169.843V156.182L204.254 148.626ZM239.252 155.175L204.254 147.338L169.256 155.175V170.85L204.254 178.687L239.252 170.85V155.175ZM245.912 156.182L279.654 148.626L313.397 156.182V169.843L279.654 177.399L245.912 169.843V156.182ZM279.654 147.338L314.652 155.175V170.85L279.654 178.687L244.657 170.85V155.175L279.654 147.338ZM166.554 177.75L132.812 185.307V198.968L166.554 206.524L200.296 198.968V185.307L166.554 177.75ZM201.552 184.3L166.554 176.463L131.556 184.3V199.974L166.554 207.811L201.552 199.974V184.3ZM208.212 185.307L241.954 177.75L275.696 185.307V198.968L241.954 206.524L208.212 198.968V185.307ZM241.954 176.463L276.952 184.3V199.974L241.954 207.811L206.956 199.974V184.3L241.954 176.463Z" fill="url(#paint7_radial_15_9546)"/>
<path d="M248.331 116.632C241.733 141.257 216.422 155.871 191.798 149.273C167.174 142.674 152.561 117.363 159.159 92.7376C165.757 68.1123 191.068 53.4986 215.692 60.0969C240.316 66.6952 254.929 92.0069 248.331 116.632Z" fill="url(#paint8_radial_15_9546)"/>
<defs>
<linearGradient id="paint0_linear_15_9546" x1="131.49" y1="148.97" x2="201.634" y2="148.97" gradientUnits="userSpaceOnUse">
<stop offset="0.497385"/>
<stop offset="0.508869" stop-color="#242424"/>
</linearGradient>
<linearGradient id="paint1_linear_15_9546" x1="206.89" y1="148.97" x2="277.035" y2="148.97" gradientUnits="userSpaceOnUse">
<stop offset="0.497385"/>
<stop offset="0.508869" stop-color="#242424"/>
</linearGradient>
<linearGradient id="paint2_linear_15_9546" x1="93.79" y1="178.497" x2="163.935" y2="178.497" gradientUnits="userSpaceOnUse">
<stop offset="0.497385"/>
<stop offset="0.508869" stop-color="#242424"/>
</linearGradient>
<linearGradient id="paint3_linear_15_9546" x1="169.19" y1="178.497" x2="239.334" y2="178.497" gradientUnits="userSpaceOnUse">
<stop offset="0.497385"/>
<stop offset="0.508869" stop-color="#242424"/>
</linearGradient>
<linearGradient id="paint4_linear_15_9546" x1="244.59" y1="178.497" x2="314.734" y2="178.497" gradientUnits="userSpaceOnUse">
<stop offset="0.497385"/>
<stop offset="0.508869" stop-color="#242424"/>
</linearGradient>
<linearGradient id="paint5_linear_15_9546" x1="131.49" y1="207.621" x2="201.634" y2="207.621" gradientUnits="userSpaceOnUse">
<stop offset="0.497385"/>
<stop offset="0.508869" stop-color="#242424"/>
</linearGradient>
<linearGradient id="paint6_linear_15_9546" x1="206.89" y1="207.621" x2="277.035" y2="207.621" gradientUnits="userSpaceOnUse">
<stop offset="0.497385"/>
<stop offset="0.508869" stop-color="#242424"/>
</linearGradient>
<radialGradient id="paint7_radial_15_9546" cx="0" cy="0" r="1" gradientUnits="userSpaceOnUse" gradientTransform="translate(206.486 162.74) rotate(-176.392) scale(162.751 90.9081)">
<stop stop-color="white"/>
<stop offset="0.417501" stop-color="#626ED8"/>
<stop offset="0.804278" stop-color="#1B115F" stop-opacity="0.42"/>
<stop offset="1" stop-color="#4A1648" stop-opacity="0"/>
</radialGradient>
<radialGradient id="paint8_radial_15_9546" cx="0" cy="0" r="1" gradientUnits="userSpaceOnUse" gradientTransform="translate(203.745 64.5322) rotate(90) scale(85.2094 85.1612)">
<stop offset="0.505208"/>
<stop offset="0.800551" stop-color="#351A86"/>
<stop offset="0.885417" stop-color="#2E38A6"/>
<stop offset="1" stop-color="#7985F1"/>
</radialGradient>
</defs>
</svg>
