<svg width="4215" height="2287" viewBox="0 0 4215 2287" fill="none" xmlns="http://www.w3.org/2000/svg">
<g filter="url(#filter0_f_15_9601)">
<path d="M1697.89 1302.78C1493.54 1119.07 1438.03 848.55 1573.91 698.565C1709.78 548.58 1985.58 575.923 2189.93 759.637C2394.27 943.351 2449.78 1213.87 2313.91 1363.85C2178.03 1513.84 1902.23 1486.49 1697.89 1302.78Z" fill="url(#paint0_radial_15_9601)"/>
</g>
<g filter="url(#filter1_f_15_9601)">
<path d="M2346.62 1728.99C1952.72 1728.99 1633.41 1490.81 1633.41 1196.99C1633.41 903.18 1952.72 664.995 2346.62 664.995C2740.52 664.995 3059.83 903.18 3059.83 1196.99C3059.83 1490.81 2740.52 1728.99 2346.62 1728.99Z" fill="url(#paint1_radial_15_9601)"/>
</g>
<path d="M2212.61 1140.99C2212.61 995.192 2331.26 876.995 2477.62 876.995C2623.97 876.995 2742.63 995.192 2742.63 1140.99C2742.63 1286.8 2623.97 1405 2477.62 1405C2331.26 1405 2212.61 1286.8 2212.61 1140.99Z" fill="url(#paint2_radial_15_9601)"/>
<path d="M2616.33 1202.09C2636.15 1230.3 2644.67 1256.22 2640.79 1276.18C2636.91 1296.11 2620.84 1309.2 2594.73 1313.53C2568.62 1317.86 2533.83 1313.21 2495.27 1300.2C2456.71 1287.19 2416.37 1266.49 2379.92 1241.03C2343.48 1215.56 2312.8 1186.63 2292.21 1158.32C2271.62 1130 2262.2 1103.78 2265.2 1083.35C2266.7 1073.15 2271.25 1064.64 2278.6 1058.06C2285.96 1051.48 2296.12 1046.81 2308.83 1044.33C2334.26 1039.36 2368.57 1043.35 2406.93 1055.78M2611.83 1155.69C2664.66 1198.85 2700.66 1242.74 2713.41 1279.46C2719.78 1297.81 2720.12 1313.74 2714.73 1326.67C2709.34 1339.58 2698.21 1349.54 2681.53 1355.89C2648.19 1368.62 2594.94 1366.09 2531.36 1348.7C2467.8 1331.32 2398.13 1300.24 2334.9 1261.05C2271.65 1221.87 2219.03 1177.17 2186.49 1135C2170.22 1113.92 2159.51 1094.17 2154.58 1076.59C2149.65 1059.02 2150.5 1043.62 2157.33 1031.22C2164.16 1018.81 2176.75 1009.76 2194.34 1004.34C2211.92 998.921 2234.48 997.139 2261.18 999.263C2314.6 1003.51 2381.04 1023.1 2448.55 1054.52M2839.57 1435.59C2794.01 1514.21 2577.07 1474.4 2355.01 1346.69C2132.96 1218.97 1989.88 1051.71 2035.44 973.096C2081 894.483 2297.94 934.289 2520 1062.01C2742.05 1189.72 2885.13 1356.98 2839.57 1435.59Z" stroke="white" stroke-opacity="0.1" stroke-width="1.34474"/>
<g filter="url(#filter2_d_15_9601)">
<path d="M3030.03 1241.94C2898.33 1209.98 2765.56 1290.43 2733.48 1421.63C2701.4 1552.83 2782.16 1685.09 2913.86 1717.05C3045.56 1749 3178.32 1668.56 3210.4 1537.36C3242.48 1406.16 3161.73 1273.9 3030.03 1241.94Z" fill="url(#paint3_radial_15_9601)"/>
</g>
<g filter="url(#filter3_f_15_9601)">
<path d="M2353.14 1080.5C2353.14 1400 2747.52 1659 3234 1659C3720.48 1659 4114.85 1400 4114.85 1080.5C4114.85 761.003 3720.48 502 3234 502C2747.52 502 2353.14 761.003 2353.14 1080.5Z" fill="url(#paint4_radial_15_9601)"/>
</g>
<path d="M2929.34 993C2929.34 800.253 3086.18 644 3279.67 644C3473.15 644 3630 800.253 3630 993C3630 1185.75 3473.15 1342 3279.67 1342C3086.18 1342 2929.34 1185.75 2929.34 993Z" fill="url(#paint5_radial_15_9601)"/>
<g filter="url(#filter4_i_15_9601)">
<path d="M3040.42 1103.98C3020.56 1138.24 2976.49 1150.14 2941.99 1130.55C2907.48 1110.96 2895.61 1067.3 2915.47 1033.04C2935.32 998.776 2979.39 986.881 3013.9 1006.47C3048.4 1026.06 3060.27 1069.72 3040.42 1103.98Z" fill="url(#paint6_radial_15_9601)"/>
</g>
<g filter="url(#filter5_i_15_9601)">
<path d="M3121.27 865.615C3098.43 870.7 3075.78 856.374 3070.67 833.618C3065.57 810.862 3079.95 788.292 3102.79 783.207C3125.63 778.122 3148.29 792.448 3153.39 815.204C3158.5 837.96 3144.12 860.53 3121.27 865.615Z" fill="url(#paint7_radial_15_9601)"/>
</g>
<path d="M2476.32 967.124C2443.22 1000.1 2389.55 1000.1 2356.45 967.124C2323.35 934.148 2323.35 880.684 2356.45 847.708C2389.55 814.732 2443.22 814.732 2476.32 847.708C2509.42 880.684 2509.42 934.148 2476.32 967.124Z" fill="url(#paint8_radial_15_9601)"/>
<path d="M2476.32 967.124C2443.22 1000.1 2389.55 1000.1 2356.45 967.124C2323.35 934.148 2323.35 880.684 2356.45 847.708C2389.55 814.732 2443.22 814.732 2476.32 847.708C2509.42 880.684 2509.42 934.148 2476.32 967.124Z" fill="url(#paint9_radial_15_9601)"/>
<path d="M2654.92 751.443C2654.92 819.272 2599.72 874.566 2531.63 874.945C2463.55 875.324 2408.35 820.645 2408.35 752.815C2408.35 684.986 2463.55 629.692 2531.63 629.313C2599.72 628.934 2654.92 683.613 2654.92 751.443Z" fill="url(#paint10_radial_15_9601)"/>
<path d="M2654.92 751.443C2654.92 819.272 2599.72 874.566 2531.63 874.945C2463.55 875.324 2408.35 820.645 2408.35 752.815C2408.35 684.986 2463.55 629.692 2531.63 629.313C2599.72 628.934 2654.92 683.613 2654.92 751.443Z" fill="url(#paint11_radial_15_9601)"/>
<path d="M2248.68 1060.59C2253.08 1119.63 2208.57 1170.47 2149.26 1174.15C2089.94 1177.82 2038.28 1132.94 2033.88 1073.9C2029.47 1014.86 2073.99 964.019 2133.3 960.342C2192.61 956.665 2244.27 1001.55 2248.68 1060.59Z" fill="url(#paint12_radial_15_9601)"/>
<path d="M2248.68 1060.59C2253.08 1119.63 2208.57 1170.47 2149.26 1174.15C2089.94 1177.82 2038.28 1132.94 2033.88 1073.9C2029.47 1014.86 2073.99 964.019 2133.3 960.342C2192.61 956.665 2244.27 1001.55 2248.68 1060.59Z" fill="url(#paint13_radial_15_9601)"/>
<defs>
<filter id="filter0_f_15_9601" x="1265.53" y="367.774" width="1356.75" height="1326.87" filterUnits="userSpaceOnUse" color-interpolation-filters="sRGB">
<feFlood flood-opacity="0" result="BackgroundImageFix"/>
<feBlend mode="normal" in="SourceGraphic" in2="BackgroundImageFix" result="shape"/>
<feGaussianBlur stdDeviation="117" result="effect1_foregroundBlur_15_9601"/>
</filter>
<filter id="filter1_f_15_9601" x="1545.41" y="576.995" width="1602.43" height="1240" filterUnits="userSpaceOnUse" color-interpolation-filters="sRGB">
<feFlood flood-opacity="0" result="BackgroundImageFix"/>
<feBlend mode="normal" in="SourceGraphic" in2="BackgroundImageFix" result="shape"/>
<feGaussianBlur stdDeviation="44" result="effect1_foregroundBlur_15_9601"/>
</filter>
<filter id="filter2_d_15_9601" x="2724.45" y="1207.94" width="536.981" height="535.114" filterUnits="userSpaceOnUse" color-interpolation-filters="sRGB">
<feFlood flood-opacity="0" result="BackgroundImageFix"/>
<feColorMatrix in="SourceAlpha" type="matrix" values="0 0 0 0 0 0 0 0 0 0 0 0 0 0 0 0 0 0 127 0" result="hardAlpha"/>
<feOffset dx="21" dy="-4"/>
<feGaussianBlur stdDeviation="11.5"/>
<feColorMatrix type="matrix" values="0 0 0 0 0.7375 0 0 0 0 0.284396 0 0 0 0 0 0 0 0 0.23 0"/>
<feBlend mode="normal" in2="BackgroundImageFix" result="effect1_dropShadow_15_9601"/>
<feBlend mode="normal" in="SourceGraphic" in2="effect1_dropShadow_15_9601" result="shape"/>
</filter>
<filter id="filter3_f_15_9601" x="2313.14" y="462" width="1841.7" height="1237" filterUnits="userSpaceOnUse" color-interpolation-filters="sRGB">
<feFlood flood-opacity="0" result="BackgroundImageFix"/>
<feBlend mode="normal" in="SourceGraphic" in2="BackgroundImageFix" result="shape"/>
<feGaussianBlur stdDeviation="20" result="effect1_foregroundBlur_15_9601"/>
</filter>
<filter id="filter4_i_15_9601" x="2905.85" y="997.034" width="144.188" height="142.949" filterUnits="userSpaceOnUse" color-interpolation-filters="sRGB">
<feFlood flood-opacity="0" result="BackgroundImageFix"/>
<feBlend mode="normal" in="SourceGraphic" in2="BackgroundImageFix" result="shape"/>
<feColorMatrix in="SourceAlpha" type="matrix" values="0 0 0 0 0 0 0 0 0 0 0 0 0 0 0 0 0 0 127 0" result="hardAlpha"/>
<feOffset/>
<feGaussianBlur stdDeviation="15"/>
<feComposite in2="hardAlpha" operator="arithmetic" k2="-1" k3="1"/>
<feColorMatrix type="matrix" values="0 0 0 0 1 0 0 0 0 0.656 0 0 0 0 0.4625 0 0 0 0.11 0"/>
<feBlend mode="normal" in2="shape" result="effect1_innerShadow_15_9601"/>
</filter>
<filter id="filter5_i_15_9601" x="3069.64" y="782.182" width="84.7803" height="84.4579" filterUnits="userSpaceOnUse" color-interpolation-filters="sRGB">
<feFlood flood-opacity="0" result="BackgroundImageFix"/>
<feBlend mode="normal" in="SourceGraphic" in2="BackgroundImageFix" result="shape"/>
<feColorMatrix in="SourceAlpha" type="matrix" values="0 0 0 0 0 0 0 0 0 0 0 0 0 0 0 0 0 0 127 0" result="hardAlpha"/>
<feOffset/>
<feGaussianBlur stdDeviation="15"/>
<feComposite in2="hardAlpha" operator="arithmetic" k2="-1" k3="1"/>
<feColorMatrix type="matrix" values="0 0 0 0 1 0 0 0 0 0.656 0 0 0 0 0.4625 0 0 0 0.11 0"/>
<feBlend mode="normal" in2="shape" result="effect1_innerShadow_15_9601"/>
</filter>
<radialGradient id="paint0_radial_15_9601" cx="0" cy="0" r="1" gradientUnits="userSpaceOnUse" gradientTransform="translate(1943.86 1031.56) rotate(-47.8261) scale(379.198 497.741)">
<stop stop-color="#2F69FF" stop-opacity="0.92"/>
<stop offset="0.234375" stop-color="#2F82FF" stop-opacity="0.65"/>
<stop offset="1" stop-opacity="0"/>
</radialGradient>
<radialGradient id="paint1_radial_15_9601" cx="0" cy="0" r="1" gradientUnits="userSpaceOnUse" gradientTransform="translate(2345.22 1198.04) rotate(-90) scale(533.041 714.609)">
<stop stop-color="#00B167" stop-opacity="0.897763"/>
<stop offset="0.239583" stop-color="#00A08C" stop-opacity="0.630982"/>
<stop offset="0.473958" stop-color="#0084AD" stop-opacity="0.37"/>
<stop offset="1" stop-opacity="0"/>
</radialGradient>
<radialGradient id="paint2_radial_15_9601" cx="0" cy="0" r="1" gradientUnits="userSpaceOnUse" gradientTransform="translate(2477.62 1141) rotate(90) scale(264 265.008)">
<stop offset="0.130208" stop-color="#B0F1FF"/>
<stop offset="0.213542" stop-color="#5BD2B5" stop-opacity="0.791515"/>
<stop offset="0.375" stop-color="#00B167" stop-opacity="0.57"/>
<stop offset="0.848958" stop-color="#27573A" stop-opacity="0"/>
</radialGradient>
<radialGradient id="paint3_radial_15_9601" cx="0" cy="0" r="1" gradientUnits="userSpaceOnUse" gradientTransform="translate(3130.66 1576.16) rotate(-148.382) scale(443.954 406.073)">
<stop offset="0.536458"/>
<stop offset="0.827187" stop-color="#3A1C0B"/>
<stop offset="1" stop-color="#9ED574"/>
</radialGradient>
<radialGradient id="paint4_radial_15_9601" cx="0" cy="0" r="1" gradientUnits="userSpaceOnUse" gradientTransform="translate(3230.15 1083.03) rotate(-90) scale(581.026 884.698)">
<stop stop-color="#FB6464"/>
<stop offset="1" stop-opacity="0"/>
</radialGradient>
<radialGradient id="paint5_radial_15_9601" cx="0" cy="0" r="1" gradientUnits="userSpaceOnUse" gradientTransform="translate(3279.67 993) rotate(90) scale(349 350.333)">
<stop offset="0.311069" stop-color="#DD7600"/>
<stop offset="0.623587" stop-color="#B85800" stop-opacity="0.32"/>
<stop offset="1" stop-color="#722D2D" stop-opacity="0"/>
</radialGradient>
<radialGradient id="paint6_radial_15_9601" cx="0" cy="0" r="1" gradientUnits="userSpaceOnUse" gradientTransform="translate(2916.54 1174.45) rotate(-6.51299) scale(155.709 154.306)">
<stop/>
<stop offset="0.567337" stop-color="#160815"/>
<stop offset="0.840936" stop-color="#460D13"/>
<stop offset="1" stop-color="#9C4F2E"/>
</radialGradient>
<radialGradient id="paint7_radial_15_9601" cx="0" cy="0" r="1" gradientUnits="userSpaceOnUse" gradientTransform="translate(3073.52 789.721) rotate(40.9657) scale(91.3812 91.3329)">
<stop/>
<stop offset="0.25" stop-color="#160815"/>
<stop offset="0.375" stop-color="#460D13"/>
<stop offset="1" stop-color="#9C4F2E"/>
</radialGradient>
<radialGradient id="paint8_radial_15_9601" cx="0" cy="0" r="1" gradientUnits="userSpaceOnUse" gradientTransform="translate(2378.02 847.899) rotate(58.5691) scale(236.35 237.667)">
<stop offset="0.417488" stop-color="#151515"/>
<stop offset="0.716991" stop-color="#166E50"/>
<stop offset="1" stop-color="white"/>
</radialGradient>
<radialGradient id="paint9_radial_15_9601" cx="0" cy="0" r="1" gradientUnits="userSpaceOnUse" gradientTransform="translate(2506.29 897.57) rotate(-171.673) scale(338.34 339.736)">
<stop offset="0.330413" stop-opacity="0"/>
<stop offset="0.713101" stop-color="#12488F"/>
</radialGradient>
<radialGradient id="paint10_radial_15_9601" cx="0" cy="0" r="1" gradientUnits="userSpaceOnUse" gradientTransform="translate(2554.01 852.917) rotate(5.52266) scale(397.051 397.526)">
<stop offset="0.488901" stop-color="#0C0B0B"/>
<stop offset="0.690177" stop-color="#D67007"/>
<stop offset="0.76278" stop-color="white"/>
</radialGradient>
<radialGradient id="paint11_radial_15_9601" cx="0" cy="0" r="1" gradientUnits="userSpaceOnUse" gradientTransform="translate(2673.67 751.129) rotate(97.0706) scale(350.667 351.96)">
<stop offset="0.418746" stop-opacity="0"/>
<stop offset="1" stop-color="#0B8760"/>
</radialGradient>
<radialGradient id="paint12_radial_15_9601" cx="0" cy="0" r="1" gradientUnits="userSpaceOnUse" gradientTransform="translate(2167.33 1153.87) rotate(10.0285) scale(301.678 300.067)">
<stop offset="0.417488" stop-color="#151515"/>
<stop offset="0.716991" stop-color="#166E50"/>
<stop offset="1" stop-color="white"/>
</radialGradient>
<radialGradient id="paint13_radial_15_9601" cx="0" cy="0" r="1" gradientUnits="userSpaceOnUse" gradientTransform="translate(2352.58 1200.24) rotate(-163.555) scale(367.369 366.169)">
<stop offset="0.330413" stop-opacity="0"/>
<stop offset="0.713101" stop-color="#12488F"/>
</radialGradient>
</defs>
</svg>
