<svg width="3217" height="2604" viewBox="0 0 3217 2604" fill="none" xmlns="http://www.w3.org/2000/svg">
<g clip-path="url(#clip0_16_9644)">
<g filter="url(#filter0_f_16_9644)">
<g filter="url(#filter1_f_16_9644)">
<path d="M768.191 1473.84C768.191 1473.84 777.19 1977.93 1267.57 2087.07C1682.26 2179.38 1902.82 1581.45 1571.92 1445.36C1345.2 1352.13 1305.75 1232.78 1248.99 1079.19C1158.96 835.55 751.406 861.83 768.191 1473.84Z" fill="url(#paint0_radial_16_9644)"/>
</g>
<g filter="url(#filter2_f_16_9644)">
<path d="M1118.05 2186.54C2048.85 2666.43 3025.01 2624.97 3298.37 2093.93C3571.72 1562.88 3038.75 743.355 2107.95 263.461C1177.15 -216.433 200.987 -174.969 -72.3671 356.074C-345.721 887.12 187.246 1706.64 1118.05 2186.54Z" fill="url(#paint1_radial_16_9644)"/>
</g>
<path d="M1612.5 1890C1993.85 1890 2303 1580.85 2303 1199.5C2303 818.147 1993.85 509 1612.5 509C1231.15 509 922 818.147 922 1199.5C922 1580.85 1231.15 1890 1612.5 1890Z" fill="url(#paint2_radial_16_9644)"/>
</g>
<g filter="url(#filter3_i_16_9644)">
<path d="M1612.5 1354C1697.83 1354 1767 1284.83 1767 1199.5C1767 1114.17 1697.83 1045 1612.5 1045C1527.17 1045 1458 1114.17 1458 1199.5C1458 1284.83 1527.17 1354 1612.5 1354Z" fill="url(#paint3_radial_16_9644)"/>
</g>
<path d="M1349.74 1099.48C1287.9 1110.4 1243.48 1132.88 1222.68 1163.67C1201.91 1194.44 1205.71 1232.03 1233.68 1271.18C1261.66 1310.34 1312.37 1349.04 1378.67 1381.8C1444.97 1414.56 1523.49 1439.7 1603.12 1453.68C1682.76 1467.66 1759.47 1469.77 1822.42 1459.7C1885.39 1449.64 1931.35 1427.93 1953.88 1397.68C1965.14 1382.56 1970.27 1365.69 1969.31 1347.72C1968.35 1329.75 1961.29 1310.66 1948.15 1291.1C1921.88 1251.99 1872.63 1213.06 1807.34 1179.82M1415.37 1045.46C1291.89 1033.24 1189.03 1043.58 1125.29 1074.57C1093.43 1090.06 1072.4 1110.19 1062.65 1133.83C1052.89 1157.47 1054.37 1184.65 1067.59 1214.29C1094.05 1273.59 1165.73 1338.73 1269.79 1397.97C1373.85 1457.2 1503.4 1506.62 1635.12 1537.32C1766.84 1568.02 1892.06 1577.98 1988.24 1565.41C2036.32 1559.13 2075.56 1547.43 2104.58 1531.08C2133.59 1514.74 2152.38 1493.76 2159.63 1468.94C2166.87 1444.12 2162.34 1416.21 2146.73 1386.61C2131.12 1357.01 2104.43 1325.72 2067.39 1294.16C1993.3 1231.02 1882.71 1170.94 1755.51 1124.73M1349.65 1098.99C1287.77 1109.92 1243.18 1132.43 1222.27 1163.39C1201.34 1194.39 1205.23 1232.21 1233.28 1271.47C1261.32 1310.73 1312.11 1349.47 1378.45 1382.25C1444.8 1415.03 1523.36 1440.19 1603.04 1454.17C1682.71 1468.16 1759.48 1470.27 1822.5 1460.2C1885.51 1450.13 1931.63 1428.38 1954.28 1397.98C1965.61 1382.77 1970.78 1365.79 1969.81 1347.7C1968.84 1329.61 1961.74 1310.43 1948.57 1290.82C1922.22 1251.61 1872.89 1212.63 1807.57 1179.38L1807.12 1180.27C1872.36 1213.48 1921.53 1252.37 1947.74 1291.38C1960.84 1310.88 1967.85 1329.89 1968.81 1347.75C1969.76 1365.6 1964.67 1382.36 1953.48 1397.38C1931.06 1427.47 1885.26 1449.16 1822.34 1459.21C1759.46 1469.26 1682.8 1467.16 1603.21 1453.19C1523.62 1439.22 1445.15 1414.08 1378.9 1381.35C1312.63 1348.61 1262 1309.96 1234.09 1270.89C1206.2 1231.85 1202.48 1194.49 1223.1 1163.95C1243.78 1133.33 1288.03 1110.89 1349.82 1099.98L1349.65 1098.99ZM1415.42 1044.96C1291.91 1032.74 1188.94 1043.07 1125.07 1074.12C1093.14 1089.64 1072 1109.85 1062.18 1133.64C1052.36 1157.43 1053.87 1184.76 1067.14 1214.5C1093.66 1273.94 1165.46 1339.15 1269.55 1398.41C1373.64 1457.67 1503.24 1507.1 1635 1537.81C1766.76 1568.51 1892.05 1578.48 1988.3 1565.91C2036.43 1559.62 2075.73 1547.91 2104.82 1531.52C2133.92 1515.13 2152.82 1494.06 2160.11 1469.08C2167.4 1444.1 2162.83 1416.06 2147.17 1386.38C2131.52 1356.7 2104.78 1325.37 2067.71 1293.78C1993.57 1230.59 1882.91 1170.48 1755.68 1124.26L1755.34 1125.2C1882.5 1171.39 1993.04 1231.45 2067.06 1294.54C2104.08 1326.08 2130.72 1357.32 2146.29 1386.85C2161.86 1416.37 2166.34 1444.14 2159.15 1468.8C2151.95 1493.46 2133.27 1514.35 2104.33 1530.65C2075.38 1546.95 2036.22 1558.64 1988.17 1564.92C1892.07 1577.47 1766.92 1567.52 1635.23 1536.83C1503.55 1506.14 1374.05 1456.74 1270.04 1397.54C1166 1338.31 1094.44 1273.23 1068.05 1214.09C1054.87 1184.54 1053.41 1157.5 1063.11 1134.02C1072.81 1110.53 1093.72 1090.47 1125.51 1075.02C1189.13 1044.09 1291.87 1033.75 1415.32 1045.96L1415.42 1044.96ZM1499.08 1621.19C1274.24 1560.93 1079.38 1474 946.09 1382.17C879.45 1336.25 828.23 1289.13 796.34 1243.52C764.452 1197.92 751.945 1153.89 762.598 1114.13C773.25 1074.37 806.09 1042.5 856.51 1018.95C906.92 995.4 974.84 980.2 1055.51 973.77C1216.84 960.89 1429.06 983.04 1653.9 1043.3C1878.75 1103.56 2073.61 1190.49 2206.89 1282.32C2273.53 1328.24 2324.76 1375.36 2356.64 1420.97C2388.53 1466.57 2401.04 1510.6 2390.39 1550.36C2379.73 1590.12 2346.89 1621.99 2296.48 1645.54C2246.06 1669.09 2178.14 1684.29 2097.47 1690.72C1936.14 1703.6 1723.92 1681.45 1499.08 1621.19Z" stroke="white" stroke-opacity="0.333"/>
<g filter="url(#filter4_i_16_9644)">
<path d="M1977.05 1544.72C1990.71 1580.04 2030.41 1597.59 2065.73 1583.94C2101.05 1570.28 2118.61 1530.57 2104.95 1495.26C2091.29 1459.94 2051.59 1442.38 2016.27 1456.04C1980.95 1469.7 1963.39 1509.4 1977.05 1544.72Z" fill="url(#paint4_radial_16_9644)"/>
</g>
<path d="M2034.76 1506L2051.53 1534.97L2057.11 1525.32L2045.94 1506H2034.76Z" fill="url(#paint5_linear_16_9644)"/>
<path d="M2034.76 1525.87L2040.56 1534.98H2052.15L2046.36 1525.87H2034.76Z" fill="url(#paint6_linear_16_9644)"/>
<path d="M2029.79 1515.11L2024 1525.04L2029.8 1534.97L2041.39 1515.11H2029.79Z" fill="url(#paint7_linear_16_9644)"/>
<g filter="url(#filter5_i_16_9644)">
<path d="M2157.51 1685.84C2182.17 1749.62 2253.88 1781.33 2317.67 1756.66C2381.45 1731.99 2413.16 1660.29 2388.49 1596.5C2363.83 1532.71 2292.12 1501 2228.33 1525.67C2164.55 1550.34 2132.84 1622.05 2157.51 1685.84Z" fill="url(#paint8_radial_16_9644)"/>
</g>
<path fill-rule="evenodd" clip-rule="evenodd" d="M2298.48 1608.94C2302.72 1612.08 2305.07 1614.91 2305.81 1617.73C2306.28 1619.33 2305.86 1621.24 2304.81 1622.68C2303.77 1624.12 2302.09 1624.92 2300.15 1624.92C2299.42 1624.92 2298.69 1624.81 2297.95 1624.6C2297.22 1626.67 2296.7 1628.7 2296.54 1630.46L2296.49 1631.09C2292.72 1624.44 2286.7 1619.33 2279.47 1616.88C2279.68 1616.82 2281.25 1616.34 2284.03 1614.64C2283.71 1614.16 2283.45 1613.63 2283.24 1613.2C2282.67 1611.82 2282.88 1609.53 2283.77 1607.82C2284.5 1606.38 2285.65 1605.43 2286.96 1605.16C2287.48 1605.05 2288.01 1605 2288.58 1605C2291.46 1605 2295.08 1606.44 2298.48 1608.94ZM2304.34 1618.15C2304.97 1620.66 2303.03 1624.38 2298.27 1623.05C2297.85 1622.89 2297.43 1622.79 2297.06 1622.73C2296.59 1623.85 2296.07 1625.13 2295.7 1626.57C2292.56 1622.31 2288.37 1618.9 2283.56 1616.72C2283.75 1616.6 2283.94 1616.48 2284.15 1616.36C2284.8 1615.97 2285.52 1615.54 2286.28 1615.01C2285.49 1614.05 2284.92 1613.2 2284.66 1612.62C2284.03 1611.12 2284.76 1607.24 2287.27 1606.7C2289.79 1606.17 2293.71 1607.34 2297.59 1610.22C2301.46 1613.09 2303.66 1615.65 2304.34 1618.15Z" fill="url(#paint9_linear_16_9644)"/>
<path d="M2290.52 1611.98C2291.57 1612.4 2292.93 1613.15 2294.6 1614.27C2296.59 1615.6 2298.32 1617.09 2299.42 1618.26C2297.59 1620.71 2296.38 1624.07 2295.65 1626.41C2296.02 1626.94 2296.44 1627.47 2296.8 1628.01C2297.17 1626.67 2297.8 1624.7 2298.64 1622.73C2298.84 1622.79 2299.11 1622.79 2299.37 1622.79C2300 1622.79 2300.73 1622.68 2301.31 1622.2C2301.72 1621.88 2302.2 1621.3 2302.14 1620.23C2302.14 1619.22 2301.36 1617.94 2299.73 1616.4C2298.58 1615.28 2297.01 1614.05 2295.44 1612.93C2290.94 1609.9 2287.8 1609.05 2286.38 1610.49C2285.44 1611.44 2285.55 1612.62 2285.86 1613.47C2284.19 1614.59 2282.77 1615.38 2281.83 1615.92C2282.46 1616.13 2283.03 1616.4 2283.66 1616.66C2285.34 1615.76 2287.75 1614.21 2290.52 1611.98ZM2300.42 1619.59C2300.57 1619.86 2300.62 1620.12 2300.62 1620.28C2300.62 1620.76 2300.47 1620.92 2300.36 1621.03C2300.15 1621.19 2299.73 1621.3 2299.37 1621.3C2299.68 1620.66 2300.05 1620.12 2300.42 1619.59ZM2287.48 1611.66C2287.64 1611.5 2288.06 1611.39 2288.74 1611.5C2288.22 1611.92 2287.69 1612.3 2287.17 1612.67C2287.12 1612.3 2287.17 1611.92 2287.48 1611.66Z" fill="url(#paint10_linear_16_9644)"/>
<path d="M2270.99 1613.95C2253.87 1613.95 2240 1628.06 2240 1645.47C2240 1662.89 2253.87 1677 2270.99 1677C2288.11 1677 2301.99 1662.89 2301.99 1645.47C2301.99 1628.06 2288.06 1613.95 2270.99 1613.95ZM2270.99 1675.24C2254.82 1675.24 2241.73 1661.93 2241.73 1645.47C2241.73 1629.02 2254.82 1615.7 2270.99 1615.7C2287.17 1615.7 2300.26 1629.02 2300.26 1645.47C2300.26 1661.93 2287.12 1675.24 2270.99 1675.24Z" fill="url(#paint11_linear_16_9644)"/>
<path d="M2280.1 1632.05C2282.7 1632.05 2284.81 1629.91 2284.81 1627.26C2284.81 1624.61 2282.7 1622.47 2280.1 1622.47C2277.5 1622.47 2275.39 1624.61 2275.39 1627.26C2275.39 1629.91 2277.5 1632.05 2280.1 1632.05Z" fill="url(#paint12_linear_16_9644)"/>
<path d="M2287.8 1635.62C2288.9 1635.62 2289.79 1634.72 2289.79 1633.6C2289.79 1632.48 2288.9 1631.57 2287.8 1631.57C2286.7 1631.57 2285.81 1632.48 2285.81 1633.6C2285.81 1634.72 2286.7 1635.62 2287.8 1635.62Z" fill="url(#paint13_linear_16_9644)"/>
<path d="M2294.92 1623.43C2294.87 1623.43 2294.81 1623.43 2294.81 1623.43C2294.5 1623.37 2294.29 1623.05 2294.34 1622.68C2294.81 1620.23 2296.8 1617.89 2296.91 1617.78C2297.12 1617.51 2297.54 1617.51 2297.75 1617.73C2298.01 1617.94 2298.01 1618.37 2297.8 1618.58C2297.75 1618.63 2295.91 1620.82 2295.49 1622.95C2295.44 1623.27 2295.18 1623.43 2294.92 1623.43Z" fill="url(#paint14_linear_16_9644)"/>
<path fill-rule="evenodd" clip-rule="evenodd" d="M2243.14 1645.4C2243.14 1645.42 2243.14 1645.45 2243.14 1645.47C2243.14 1645.53 2243.14 1645.58 2243.14 1645.64C2243.37 1660.77 2255.31 1673.05 2270.15 1673.47C2270.06 1673.48 2269.98 1673.48 2269.89 1673.49H2271C2271.66 1673.49 2272.27 1673.48 2272.88 1673.43H2272.8C2287.3 1672.48 2298.79 1660.19 2298.79 1645.21H2298.73C2298.43 1642.12 2292.99 1640.34 2285.81 1639.72C2280.47 1639.3 2275.08 1639.83 2268.9 1641.75C2263.56 1643.34 2258.74 1643.08 2255.23 1642.65C2247.62 1641.77 2243.35 1641.64 2243.15 1645.21H2243.14C2243.14 1645.27 2243.14 1645.33 2243.14 1645.4ZM2269.06 1667.68C2269.87 1667.68 2270.53 1667.01 2270.53 1666.19C2270.53 1665.37 2269.87 1664.7 2269.06 1664.7C2268.25 1664.7 2267.59 1665.37 2267.59 1666.19C2267.59 1667.01 2268.25 1667.68 2269.06 1667.68ZM2278.17 1665.44C2278.17 1666.27 2277.51 1666.93 2276.7 1666.93C2275.89 1666.93 2275.24 1666.27 2275.24 1665.44C2275.24 1664.62 2275.89 1663.95 2276.7 1663.95C2277.51 1663.95 2278.17 1664.62 2278.17 1665.44ZM2272.93 1670.4C2273.54 1670.4 2274.03 1669.9 2274.03 1669.28C2274.03 1668.66 2273.54 1668.16 2272.93 1668.16C2272.32 1668.16 2271.83 1668.66 2271.83 1669.28C2271.83 1669.9 2272.32 1670.4 2272.93 1670.4ZM2280.78 1668.48C2280.78 1669.1 2280.29 1669.6 2279.68 1669.6C2279.08 1669.6 2278.58 1669.1 2278.58 1668.48C2278.58 1667.86 2279.08 1667.36 2279.68 1667.36C2280.29 1667.36 2280.78 1667.86 2280.78 1668.48ZM2262.83 1667.15C2264.16 1667.15 2265.23 1666.05 2265.23 1664.7C2265.23 1663.35 2264.16 1662.25 2262.83 1662.25C2261.5 1662.25 2260.42 1663.35 2260.42 1664.7C2260.42 1666.05 2261.5 1667.15 2262.83 1667.15ZM2286.75 1658.68C2286.75 1660.03 2285.67 1661.13 2284.34 1661.13C2283.01 1661.13 2281.94 1660.03 2281.94 1658.68C2281.94 1657.33 2283.01 1656.23 2284.34 1656.23C2285.67 1656.23 2286.75 1657.33 2286.75 1658.68Z" fill="url(#paint15_linear_16_9644)"/>
<path d="M2375.02 1952.52C2444.93 2008.84 2547.26 1997.82 2603.58 1927.91C2659.9 1858.01 2648.89 1755.68 2578.98 1699.36C2509.07 1643.04 2406.74 1654.05 2350.42 1723.96C2294.1 1793.87 2305.11 1896.2 2375.02 1952.52Z" fill="url(#paint16_radial_16_9644)"/>
<path d="M2477.5 1779L2437 1802.3V1848.7L2477.5 1872L2518 1848.7V1802.3L2477.5 1779ZM2506.04 1841.83L2477.5 1858.06L2448.96 1841.83V1809.17L2477.5 1792.73L2506.04 1809.17V1841.83Z" fill="url(#paint17_linear_16_9644)"/>
<path d="M2477.5 1792.73V1779L2437 1802.3V1848.7L2477.5 1872V1858.06L2448.96 1841.83V1809.17L2477.5 1792.73Z" fill="url(#paint18_linear_16_9644)"/>
<path d="M2477.5 1858.06V1871.79L2518 1848.49V1802.3L2477.5 1779V1792.73L2506.04 1808.96V1841.62L2477.5 1858.06Z" fill="url(#paint19_linear_16_9644)"/>
<path d="M2496.6 1836.21L2477.5 1847.03L2458.61 1836.21V1814.57L2477.5 1803.76L2496.6 1814.57V1836.21Z" fill="url(#paint20_linear_16_9644)"/>
<g filter="url(#filter6_i_16_9644)">
<path d="M2112.95 1389.81C2120.78 1410.06 2143.55 1420.13 2163.81 1412.3C2184.06 1404.46 2194.13 1381.69 2186.3 1361.44C2178.46 1341.18 2155.69 1331.12 2135.44 1338.95C2115.18 1346.78 2105.12 1369.55 2112.95 1389.81Z" fill="url(#paint21_radial_16_9644)"/>
</g>
<path fill-rule="evenodd" clip-rule="evenodd" d="M2161.22 1370.17L2145.32 1363.4C2144.73 1363.15 2144.05 1363.42 2143.79 1364.01L2137.02 1379.91C2136.77 1380.5 2137.04 1381.18 2137.63 1381.43L2140.82 1382.79L2146.14 1370.31L2151.07 1372.41C2152.07 1372.84 2152.84 1373.37 2153.38 1374C2153.92 1374.64 2154.23 1375.34 2154.32 1376.09C2154.4 1376.84 2154.28 1377.6 2153.95 1378.39C2153.64 1379.11 2153.19 1379.7 2152.6 1380.17C2152.02 1380.62 2151.3 1380.88 2150.46 1380.96C2149.61 1381.03 2148.68 1380.85 2147.66 1380.42L2145.77 1379.61L2143.87 1384.09L2153.53 1388.21C2154.12 1388.46 2154.81 1388.19 2155.06 1387.6L2161.83 1371.7C2162.08 1371.11 2161.81 1370.42 2161.22 1370.17ZM2148.46 1377.9C2149.04 1378.15 2149.53 1378.19 2149.93 1378.04C2150.33 1377.89 2150.64 1377.57 2150.85 1377.07C2151.06 1376.57 2151.09 1376.12 2150.92 1375.73C2150.75 1375.34 2150.37 1375.02 2149.79 1374.77L2148.14 1374.06L2146.81 1377.19L2148.46 1377.9ZM2147.49 1367.15L2157.07 1371.23L2156.21 1373.24L2146.64 1369.16L2147.49 1367.15Z" fill="url(#paint22_linear_16_9644)"/>
<path d="M2193.64 1242.61C2180.73 1240.6 2168.62 1249.44 2166.61 1262.36C2164.6 1275.27 2173.44 1287.38 2186.36 1289.39C2199.27 1291.4 2211.38 1282.56 2213.39 1269.64C2215.4 1256.73 2206.56 1244.62 2193.64 1242.61Z" fill="url(#paint23_radial_16_9644)"/>
<path fill-rule="evenodd" clip-rule="evenodd" d="M2195.27 1257.77C2195.66 1257.99 2196.14 1257.82 2196.28 1257.42C2196.44 1257.1 2196.29 1256.7 2195.97 1256.54C2192.82 1254.87 2190.25 1254.28 2186.57 1255.46C2182.7 1256.7 2179.77 1259.65 2181.14 1263.84C2182.34 1267.55 2186.44 1267.93 2190.05 1268.28C2192.81 1268.54 2195.24 1268.77 2195.82 1270.49C2196.46 1272.4 2194.75 1274.1 2193.03 1274.68C2189.76 1275.76 2187.51 1275.12 2184.79 1273.65C2184.45 1273.46 2184.03 1273.57 2183.82 1273.87C2183.59 1274.21 2183.71 1274.66 2184.06 1274.89C2187.13 1276.62 2189.97 1277.14 2193.58 1275.97C2197.16 1274.73 2201.12 1271.51 2199.75 1267.32C2198.57 1263.68 2194.62 1263.26 2191.06 1262.94C2188.13 1262.64 2185.4 1262.37 2184.72 1260.28C2184.23 1258.77 2185.8 1257.15 2187.11 1256.72C2190.31 1255.7 2192.63 1256.28 2195.27 1257.77ZM2198.4 1267.77C2198.84 1269.41 2198.31 1271.07 2197.15 1272.26L2197.07 1272.24C2197.38 1271.44 2197.23 1270.56 2197.01 1269.74C2196.36 1267.31 2193.41 1267.1 2190.28 1266.86C2186.82 1266.59 2183.19 1266.32 2182.31 1263.04C2181.91 1261.55 2182.17 1259.76 2183.3 1258.66L2183.36 1258.72C2183.21 1259.52 2183.26 1260.35 2183.47 1261.13C2184.19 1263.82 2187.49 1264.09 2190.84 1264.39C2194.27 1264.68 2197.65 1264.97 2198.4 1267.77Z" fill="url(#paint24_linear_16_9644)"/>
<path d="M2322.92 1227.92C2332.54 1241.09 2351.01 1243.97 2364.18 1234.35C2377.35 1224.73 2380.23 1206.26 2370.61 1193.09C2360.99 1179.92 2342.52 1177.05 2329.35 1186.66C2316.18 1196.28 2313.31 1214.75 2322.92 1227.92Z" fill="url(#paint25_radial_16_9644)"/>
<path d="M2350.3 1201.69C2350.42 1201.26 2350.2 1200.83 2349.82 1200.73C2349.43 1200.63 2349.03 1200.89 2348.92 1201.32L2347.96 1204.87L2346.18 1201.33C2345.99 1200.96 2345.55 1200.84 2345.2 1201.07C2344.85 1201.3 2344.72 1201.79 2344.9 1202.17L2346.67 1205.68L2342.84 1204.65C2342.46 1204.55 2342.06 1204.81 2341.94 1205.24C2341.83 1205.67 2342.04 1206.1 2342.42 1206.21L2346.29 1207.25L2342.97 1209.44C2342.62 1209.67 2342.49 1210.16 2342.67 1210.54H2342.68C2342.86 1210.91 2343.3 1211.03 2343.65 1210.8L2346.96 1208.62L2344.95 1216.12L2343.54 1215.74C2343.16 1215.64 2342.75 1215.9 2342.64 1216.33C2342.52 1216.76 2342.74 1217.19 2343.12 1217.3L2344.53 1217.68L2344.1 1219.28C2343.99 1219.71 2344.21 1220.14 2344.59 1220.24C2344.97 1220.34 2345.37 1220.08 2345.49 1219.65L2345.92 1218.05L2347.27 1218.41C2347.65 1218.52 2348.06 1218.25 2348.17 1217.82C2348.29 1217.39 2348.07 1216.96 2347.69 1216.86L2346.33 1216.49L2348.34 1209L2350.12 1212.52C2350.31 1212.9 2350.75 1213.01 2351.1 1212.78C2351.45 1212.55 2351.58 1212.06 2351.39 1211.68L2349.61 1208.14L2353.44 1209.17C2353.82 1209.27 2354.22 1209.01 2354.34 1208.58C2354.46 1208.15 2354.24 1207.72 2353.86 1207.61L2350.04 1206.59L2353.33 1204.41C2353.68 1204.18 2353.81 1203.69 2353.62 1203.31C2353.43 1202.94 2352.99 1202.82 2352.64 1203.05L2349.36 1205.22L2350.3 1201.69Z" fill="url(#paint26_linear_16_9644)"/>
<g filter="url(#filter7_i_16_9644)">
<path d="M2533.29 1595.1C2560.99 1666.74 2641.53 1702.36 2713.17 1674.65C2784.8 1646.94 2820.42 1566.41 2792.71 1494.77C2765.01 1423.13 2684.47 1387.52 2612.83 1415.22C2541.2 1442.93 2505.58 1523.46 2533.29 1595.1Z" fill="url(#paint27_radial_16_9644)"/>
</g>
<path d="M2643.06 1568.18L2619.58 1570.81L2633.36 1539L2619.24 1519.74L2653.57 1515.82L2662.9 1494.39L2683.33 1522.17L2706.82 1519.54L2693.09 1551.2L2707.11 1570.32L2672.96 1574.2L2663.5 1595.95L2643.06 1568.18ZM2652.82 1566.07C2651.91 1566.52 2650.95 1566.88 2649.96 1567.15L2649.07 1567.41L2662.32 1585.41L2667.02 1574.59L2666.17 1574.49C2661.55 1573.91 2657.34 1571.41 2654.62 1567.66L2653.3 1565.85L2652.82 1566.07ZM2648.22 1549.76L2658.89 1564.53C2661.07 1567.53 2664.58 1569.32 2668.27 1569.32C2668.7 1569.32 2669.13 1569.31 2669.56 1569.25L2697.42 1566.09L2686.33 1550.92C2685.78 1550.17 2685.15 1549.5 2684.43 1548.91L2683.78 1548.36L2675.84 1566.29L2662.03 1548.02L2648.22 1549.76ZM2648.69 1531.76C2644.55 1532.18 2640.96 1534.84 2639.3 1538.67L2628.11 1564.5L2646.69 1562.41C2647.62 1562.31 2648.52 1562.08 2649.38 1561.78L2650.17 1561.48L2638.66 1545.6L2661.34 1542.73L2666.73 1529.84L2648.69 1531.76ZM2666.24 1544.8L2674.64 1555.94L2682.03 1539.25C2683.73 1535.44 2683.23 1530.99 2680.77 1527.61L2664.1 1504.95L2656.6 1522.17C2656.22 1523.03 2655.97 1523.92 2655.8 1524.82L2655.66 1525.66L2675.1 1523.61L2666.24 1544.8ZM2686.66 1527.15L2686.98 1527.94C2688.78 1532.25 2688.74 1537.16 2686.86 1541.41L2685.95 1543.46L2686.4 1543.77C2687.24 1544.34 2688.02 1544.99 2688.76 1545.7L2689.43 1546.36L2698.31 1525.85L2686.66 1527.15ZM2628.94 1524L2636.03 1533.66L2636.54 1532.99C2639.37 1529.33 2643.58 1526.96 2648.13 1526.47L2650.35 1526.23L2650.39 1525.68C2650.46 1524.57 2650.65 1523.46 2650.95 1522.36L2651.21 1521.44L2628.94 1524Z" fill="url(#paint28_linear_16_9644)"/>
<path d="M2658.23 1596.36C2643.47 1594.94 2630.24 1587.28 2621.57 1575.12L2627.51 1574.46C2628.48 1575.66 2629.53 1576.82 2630.6 1577.9C2637.04 1584.37 2645.1 1588.73 2653.93 1590.53L2658.23 1596.36Z" fill="url(#paint29_linear_16_9644)"/>
<path d="M2670.6 1590.87C2680.17 1589.33 2688.85 1584.85 2695.76 1577.92C2696.38 1577.3 2697.01 1576.63 2697.63 1575.93L2704.83 1575.11C2696.19 1587.24 2682.96 1594.93 2668.22 1596.37L2670.6 1590.87Z" fill="url(#paint30_linear_16_9644)"/>
<path d="M2706.29 1561.59C2708.25 1556.37 2709.25 1550.84 2709.25 1545.17C2709.25 1540.18 2708.46 1535.26 2706.92 1530.58L2709.81 1523.92C2712.84 1530.61 2714.38 1537.75 2714.38 1545.17C2714.38 1552.59 2712.86 1559.72 2709.83 1566.4L2706.29 1561.59Z" fill="url(#paint31_linear_16_9644)"/>
<path d="M2616.59 1566.48C2613.54 1559.79 2612 1552.62 2612 1545.19C2612 1537.71 2613.56 1530.51 2616.64 1523.78L2620.16 1528.59C2618.14 1533.88 2617.12 1539.46 2617.12 1545.19C2617.12 1550.21 2617.9 1555.14 2619.46 1559.84L2616.59 1566.48Z" fill="url(#paint32_linear_16_9644)"/>
<path d="M2621.79 1514.93C2630.45 1502.99 2643.59 1495.4 2658.21 1494L2655.81 1499.49C2646.25 1501.03 2637.54 1505.52 2630.62 1512.47C2630.11 1513 2629.58 1513.55 2629.05 1514.13L2621.79 1514.93Z" fill="url(#paint33_linear_16_9644)"/>
<path d="M2698.88 1515.91C2697.88 1514.69 2696.84 1513.55 2695.76 1512.45C2689.34 1506 2681.28 1501.63 2672.47 1499.84L2668.19 1494C2682.91 1495.42 2696.14 1503.09 2704.8 1515.24L2698.88 1515.91Z" fill="url(#paint34_linear_16_9644)"/>
<g filter="url(#filter8_i_16_9644)">
<path d="M1679.74 1476.73C1722.9 1473.27 1760.69 1505.46 1764.15 1548.62C1767.61 1591.78 1735.43 1629.58 1692.26 1633.04C1649.1 1636.5 1611.31 1604.31 1607.85 1561.15C1604.39 1517.98 1636.57 1480.19 1679.74 1476.73Z" fill="url(#paint35_radial_16_9644)"/>
</g>
<path fill-rule="evenodd" clip-rule="evenodd" d="M1674.46 1532.97L1706.91 1541.65L1703.28 1555.24C1703.22 1555.46 1703.16 1555.7 1703.09 1555.96C1702.36 1558.78 1701.13 1563.52 1697.91 1566.61C1693.52 1570.89 1686.91 1573.3 1681.37 1572.32L1681.32 1572.31L1681.28 1572.3C1675.95 1570.37 1671.43 1564.98 1669.76 1559.07C1668.56 1554.77 1669.85 1550.09 1670.63 1547.28C1670.7 1547.03 1670.76 1546.78 1670.82 1546.56L1674.46 1532.97ZM1675.2 1534.25L1671.84 1546.83C1671.78 1547.06 1671.71 1547.3 1671.64 1547.55C1670.86 1550.39 1669.65 1554.79 1670.77 1558.79C1672.36 1564.41 1676.65 1569.49 1681.59 1571.3C1686.74 1572.19 1692.99 1569.93 1697.18 1565.86V1565.85C1700.17 1562.99 1701.33 1558.53 1702.08 1555.68C1702.14 1555.43 1702.2 1555.19 1702.26 1554.97L1705.63 1542.39L1675.2 1534.25Z" fill="url(#paint36_linear_16_9644)"/>
<path d="M1701.23 1544.86L1677.78 1538.59L1675.89 1545.65L1690.35 1564.23L1688.66 1565.08L1675.25 1548.02L1674.43 1551.11C1671.82 1560.87 1680.05 1566.97 1682.57 1567.65C1691.32 1568.75 1696.42 1562.43 1697.39 1558.79L1684.6 1542.48L1687.51 1543.26L1698.06 1556.72L1701.23 1544.86Z" fill="url(#paint37_linear_16_9644)"/>
<g filter="url(#filter9_i_16_9644)">
<path d="M1564.41 1650.27C1632.05 1707.87 1640.19 1809.39 1582.59 1877.03C1524.99 1944.67 1423.46 1952.8 1355.83 1895.2C1288.19 1837.6 1280.06 1736.08 1337.66 1668.45C1395.25 1600.81 1496.78 1592.67 1564.41 1650.27Z" fill="url(#paint38_radial_16_9644)"/>
<path d="M1564.41 1650.27C1632.05 1707.87 1640.19 1809.39 1582.59 1877.03C1524.99 1944.67 1423.46 1952.8 1355.83 1895.2C1288.19 1837.6 1280.06 1736.08 1337.66 1668.45C1395.25 1600.81 1496.78 1592.67 1564.41 1650.27Z" fill="url(#paint39_radial_16_9644)"/>
</g>
<g opacity="0.3">
<path d="M1461.17 1729C1472.21 1729 1482.39 1732.9 1489.97 1739.63C1489.35 1739.07 1488.7 1738.54 1488.04 1738.02C1485.27 1736.81 1481.82 1736.81 1480.44 1736.81C1468.9 1737.18 1444.95 1744.84 1439.03 1756.51C1436.02 1754.49 1433.74 1752.27 1432.53 1749.88C1437.89 1747.41 1443.19 1744.01 1445.79 1740.06C1445.79 1740.04 1445.84 1739.94 1445.91 1739.79C1446.55 1738.56 1449.15 1733.51 1443.06 1732.95C1442.04 1733.37 1441.21 1733.79 1440.37 1734.2C1441.24 1733.77 1442.11 1733.34 1443.19 1732.9C1448.6 1730.3 1454.67 1729 1461.17 1729Z" fill="url(#paint40_linear_16_9644)"/>
<path d="M1468.96 1817.26C1464.2 1817.48 1455.1 1810.32 1452.5 1800.78C1447.74 1782.56 1487.37 1773.46 1491.06 1773.24C1488.78 1773.37 1472.75 1776.91 1461.97 1783.9C1468.86 1786.49 1489.24 1793.74 1498.6 1793.26C1497.99 1794.77 1497.23 1796.31 1496.31 1797.86C1489.27 1800.07 1475.32 1806.57 1473.51 1812.92C1473.17 1814.14 1473.36 1815.12 1473.91 1815.84C1470.98 1816.9 1469.04 1817.26 1468.96 1817.26Z" fill="url(#paint41_linear_16_9644)"/>
</g>
<path d="M1445.79 1740.06C1439.94 1748.95 1420.45 1755.02 1417.2 1754.15C1417.42 1753.94 1417.42 1753.72 1417.63 1753.29C1418.71 1751.12 1420.01 1749.17 1421.53 1747.22C1423.05 1745.26 1424.56 1743.53 1426.3 1741.79C1428.03 1740.06 1429.76 1738.54 1431.71 1737.02C1433.01 1736.16 1434.09 1735.29 1435.39 1734.64C1438.21 1733.12 1441.02 1732.9 1441.89 1732.9C1450.34 1732.9 1445.79 1739.84 1445.79 1740.06Z" fill="url(#paint42_linear_16_9644)"/>
<path d="M1441.02 1802.51C1441.46 1805.33 1441.02 1816.17 1440.37 1817.26C1439.94 1817.26 1438.86 1817.26 1435.82 1815.74C1434.31 1814.87 1432.79 1813.79 1431.28 1812.92C1429.33 1811.4 1427.59 1809.88 1425.86 1808.15C1424.13 1806.41 1422.61 1804.68 1421.1 1802.73C1419.58 1800.78 1418.5 1798.82 1417.2 1796.66C1416.12 1794.49 1415.03 1792.32 1414.38 1789.93C1413.73 1787.55 1413.08 1785.16 1412.65 1782.78C1412.22 1780.39 1412 1777.79 1412 1775.19C1412 1772.59 1412.22 1769.98 1412.65 1767.6C1413.08 1765.21 1413.73 1762.61 1414.38 1760.44C1414.6 1760.01 1414.6 1759.57 1414.82 1759.14C1418.28 1763.69 1422.18 1767.81 1425.43 1772.15C1428.68 1776.49 1433.01 1783.43 1433.88 1784.95C1439.72 1793.84 1440.59 1799.69 1441.02 1802.51Z" fill="url(#paint43_linear_16_9644)"/>
<path d="M1506 1774.76C1506 1780.83 1504.92 1786.68 1502.75 1791.89C1497.34 1797.74 1460.08 1783.21 1459.65 1783C1454.45 1780.83 1439.07 1773.89 1437.77 1763.26C1435.82 1747.87 1466.8 1737.24 1480.44 1736.81C1482.17 1736.81 1487.16 1736.81 1489.97 1739.19C1499.72 1748.08 1506 1760.66 1506 1774.76Z" fill="url(#paint44_linear_16_9644)"/>
<path d="M1480.88 1816.39C1476.76 1818.34 1472.43 1816.82 1473.51 1812.92C1475.68 1805.33 1495.17 1797.52 1499.5 1797.09C1499.94 1797.09 1500.15 1797.31 1499.94 1797.74C1495.39 1805.76 1488.89 1812.27 1480.88 1816.39Z" fill="url(#paint45_linear_16_9644)"/>
<g filter="url(#filter10_i_16_9644)">
<path d="M1418.81 1437.99C1435.55 1452.24 1437.56 1477.37 1423.31 1494.11C1409.05 1510.85 1383.93 1512.86 1367.19 1498.6C1350.45 1484.35 1348.44 1459.23 1362.69 1442.49C1376.95 1425.75 1402.07 1423.74 1418.81 1437.99Z" fill="url(#paint46_radial_16_9644)"/>
</g>
<path d="M1394.71 1462.66C1392.1 1461.96 1389.57 1463.12 1388.36 1465.45L1386.09 1464.84L1385.61 1466.63L1387.74 1467.2C1387.26 1470.1 1388.98 1472.77 1391.8 1473.53C1393.93 1474.1 1395.94 1473.75 1397.09 1472.51L1395.49 1470.75C1394.79 1471.45 1393.56 1471.64 1392.39 1471.32C1390.74 1470.88 1389.84 1469.54 1390.01 1467.81L1399.64 1470.39L1400.74 1468.77L1398.54 1468.18C1398.84 1465.68 1397.26 1463.34 1394.71 1462.66ZM1390.63 1466.06C1391.41 1464.79 1392.59 1464.23 1394.04 1464.61C1395.48 1465 1396.28 1466.17 1396.06 1467.52L1390.63 1466.06Z" fill="url(#paint47_linear_16_9644)"/>
<path d="M1389.87 1480.16L1389.21 1482.64C1381.23 1480.5 1376.49 1472.3 1378.63 1464.32L1381.11 1464.98C1379.34 1471.59 1383.27 1478.39 1389.87 1480.16ZM1396.95 1453.74L1396.29 1456.22C1402.89 1457.99 1406.82 1464.79 1405.05 1471.4L1407.53 1472.06C1409.67 1464.08 1404.93 1455.88 1396.95 1453.74Z" fill="url(#paint48_linear_16_9644)"/>
<g filter="url(#filter11_if_16_9644)">
<path d="M1810.34 1047.17C1810.87 1052.06 1815.27 1055.61 1820.17 1055.08C1825.06 1054.55 1828.61 1050.15 1828.08 1045.26C1827.55 1040.36 1823.15 1036.82 1818.26 1037.34C1813.36 1037.87 1809.82 1042.27 1810.34 1047.17Z" fill="url(#paint49_radial_16_9644)"/>
</g>
<path d="M2088.94 1169.5C2090.21 1181.25 2100.75 1189.75 2112.5 1188.48C2124.25 1187.22 2132.75 1176.67 2131.48 1164.92C2130.22 1153.17 2119.67 1144.68 2107.92 1145.94C2096.17 1147.21 2087.68 1157.75 2088.94 1169.5Z" fill="url(#paint50_radial_16_9644)"/>
<path d="M2116.41 1160.41C2116.79 1159.86 2117 1159.21 2117 1158.53C2116.99 1158.14 2116.85 1157.76 2116.61 1157.45C2116.5 1157.3 2116.34 1157.18 2116.17 1157.11C2116 1157.03 2115.81 1156.99 2115.62 1157C2114.08 1157 2113.3 1158.44 2113.3 1161.28C2113.3 1161.68 2113.32 1162.09 2113.37 1162.5L2111.09 1164.41C2110.54 1163.94 2109.82 1163.7 2108.95 1163.7C2108.3 1163.69 2107.67 1163.84 2107.09 1164.13C2106.52 1164.41 2106.02 1164.8 2105.61 1165.28C2105.15 1165.85 2104.78 1166.48 2104.51 1167.16C2104.16 1168 2103.99 1168.9 2104 1169.81C2103.98 1170.76 2104.19 1171.69 2104.6 1172.54C2104.28 1173.54 2104.12 1174.58 2104.13 1175.63C2104.13 1176.76 2104.47 1177.87 2105.11 1178.79C2105.77 1179.76 2106.62 1180.24 2107.65 1180.24C2107.68 1180.24 2107.71 1180.24 2107.74 1180.23C2107.77 1180.21 2107.8 1180.2 2107.82 1180.17C2107.85 1180.13 2107.87 1180.09 2107.89 1180.05C2107.9 1180 2107.9 1179.95 2107.9 1179.9C2107.88 1179.61 2107.72 1179.58 2107.65 1179.58C2106.86 1179.58 2106.24 1179.21 2105.73 1178.44C2105.22 1177.67 2104.96 1176.76 2104.97 1175.83C2104.96 1175.04 2105.05 1174.25 2105.22 1173.48C2106.06 1174.45 2107.26 1174.94 2108.78 1174.94C2109.81 1174.96 2110.84 1174.76 2111.78 1174.34C2112.61 1173.96 2113.31 1173.37 2113.83 1172.63C2114.33 1171.9 2114.7 1171.09 2114.93 1170.23C2115.17 1169.35 2115.29 1168.43 2115.29 1167.52C2115.29 1166.6 2115.1 1164.85 2114.72 1162.34C2115.36 1161.76 2115.92 1161.11 2116.41 1160.41ZM2116.18 1158.62C2116.18 1159.35 2115.65 1160.27 2114.61 1161.34C2114.57 1160.94 2114.55 1160.6 2114.55 1160.33C2114.55 1158.65 2114.91 1157.8 2115.63 1157.8C2115.87 1157.8 2116.18 1157.88 2116.18 1158.62ZM2110.44 1164.97C2107.74 1167.28 2105.91 1169.47 2105 1171.5C2104.85 1170.97 2104.78 1170.43 2104.78 1169.89C2104.78 1169.25 2104.88 1168.62 2105.07 1168.01C2105.51 1166.59 2106.23 1165.57 2107.22 1164.97C2107.77 1164.65 2108.39 1164.49 2109.02 1164.49C2109.62 1164.49 2110.08 1164.65 2110.44 1164.97ZM2107.54 1168.96C2108.56 1167.76 2109.68 1166.64 2110.87 1165.62C2110.95 1165.88 2111 1166.14 2111 1166.41C2110.99 1167.25 2110.66 1168.06 2110.07 1168.65C2109.65 1169.12 2109.19 1169.35 2108.71 1169.35H2108.53L2108.56 1169.52C2108.58 1169.67 2108.65 1169.8 2108.75 1169.9C2108.86 1170 2108.99 1170.04 2109.14 1170.04C2109.74 1170.04 2110.32 1169.85 2110.8 1169.47C2111.24 1169.14 2111.59 1168.7 2111.79 1168.18C2111.99 1167.66 2112.08 1167.11 2112.07 1166.55C2112.08 1165.99 2111.91 1165.45 2111.6 1164.99L2113.46 1163.45C2113.66 1165.6 2113.77 1166.91 2113.77 1167.34C2113.77 1169.18 2113.38 1170.76 2112.62 1172.04C2112.23 1172.69 2111.68 1173.22 2111.03 1173.58C2110.3 1173.97 2109.48 1174.17 2108.65 1174.15C2107.21 1174.15 2106.17 1173.63 2105.49 1172.56C2105.94 1171.25 2106.64 1170.02 2107.54 1168.96Z" fill="url(#paint51_linear_16_9644)"/>
<g filter="url(#filter12_if_16_9644)">
<path d="M1856.86 1165.48C1857.68 1161.14 1854.82 1156.96 1850.48 1156.14C1846.14 1155.32 1841.96 1158.18 1841.14 1162.52C1840.32 1166.86 1843.18 1171.04 1847.52 1171.86C1851.86 1172.68 1856.04 1169.82 1856.86 1165.48Z" fill="url(#paint52_radial_16_9644)"/>
</g>
<g filter="url(#filter13_iif_16_9644)">
<path d="M1399.63 1064.74C1392.86 1069.36 1391.11 1078.6 1395.74 1085.37C1400.36 1092.14 1409.6 1093.89 1416.37 1089.26C1423.14 1084.64 1424.89 1075.4 1420.26 1068.63C1415.64 1061.86 1406.4 1060.12 1399.63 1064.74Z" fill="url(#paint53_radial_16_9644)"/>
</g>
<path d="M1957.98 1320.63C1972.14 1315.67 1979.59 1300.17 1974.63 1286.02C1969.67 1271.86 1954.17 1264.41 1940.02 1269.37C1925.86 1274.33 1918.41 1289.83 1923.37 1303.98C1928.33 1318.14 1943.83 1325.59 1957.98 1320.63Z" fill="url(#paint54_radial_16_9644)"/>
<path d="M1953.55 1284.23L1952.04 1283.63L1948.92 1291.55L1945.61 1283.63L1944.12 1284.26L1948.07 1293.69H1948.06L1938.22 1289.83L1937.65 1291.29L1945.98 1294.56L1937.99 1297.89L1938.61 1299.38L1948.06 1295.45L1944.32 1304.94L1945.78 1305.52L1948.93 1297.53L1952.28 1305.54L1953.78 1304.91L1949.82 1295.45L1959.34 1299.38L1959.95 1297.9L1951.92 1294.58L1960.01 1291.23L1959.4 1289.74L1949.83 1293.7H1949.82V1295.45H1948.06V1293.7H1949.82L1953.55 1284.23Z" fill="url(#paint55_linear_16_9644)"/>
<g filter="url(#filter14_i_16_9644)">
<path d="M1883.05 1404.41C1865.1 1401.02 1847.8 1412.83 1844.41 1430.78C1841.02 1448.73 1852.83 1466.03 1870.78 1469.42C1888.73 1472.81 1906.03 1461 1909.42 1443.05C1912.81 1425.1 1901 1407.8 1883.05 1404.41Z" fill="url(#paint56_radial_16_9644)"/>
</g>
<path d="M1876.3 1432.09V1432.1L1874.68 1423.51L1873.31 1423.08L1872.47 1424.22L1876.3 1432.09Z" fill="url(#paint57_linear_16_9644)"/>
<path d="M1877.19 1428.5L1877.88 1431.83L1878.62 1428.45L1877.88 1427.97L1877.19 1428.51V1428.5Z" fill="url(#paint58_linear_16_9644)"/>
<path d="M1882.33 1429.09L1881.45 1429.19L1880.41 1432.47L1882.7 1429.88L1882.33 1429.09Z" fill="url(#paint59_linear_16_9644)"/>
<path d="M1889.89 1429.78V1428.37L1888.52 1427.93L1882.11 1433.94L1889.89 1429.78Z" fill="url(#paint60_linear_16_9644)"/>
<path d="M1874.22 1433.33L1872.31 1430.47L1871.44 1430.6L1871.31 1431.47L1874.22 1433.33Z" fill="url(#paint61_linear_16_9644)"/>
<path d="M1886.49 1436.26L1883.08 1436.93L1886.49 1437.67L1887.01 1436.96L1886.49 1436.26Z" fill="url(#paint62_linear_16_9644)"/>
<path d="M1872.7 1436.94L1863.92 1435.84L1863.08 1436.98L1863.92 1438.12L1872.7 1436.94Z" fill="url(#paint63_linear_16_9644)"/>
<path d="M1869.46 1438.84L1869.19 1439.67L1869.91 1440.18L1872.94 1438.49L1869.46 1438.84Z" fill="url(#paint64_linear_16_9644)"/>
<path d="M1870.46 1441.26L1870.43 1442.13L1871.26 1442.42L1873.69 1439.87L1870.46 1441.26Z" fill="url(#paint65_linear_16_9644)"/>
<path d="M1874.83 1441.04L1872.24 1443.31L1872.48 1444.15L1873.36 1444.19L1874.83 1441.04Z" fill="url(#paint66_linear_16_9644)"/>
<path d="M1877.9 1442.05L1877.21 1445.4L1877.92 1445.91L1878.64 1445.39L1877.9 1442.05Z" fill="url(#paint67_linear_16_9644)"/>
<path d="M1889.91 1444.1L1882.11 1439.95L1888.55 1445.95L1889.91 1445.51V1444.1Z" fill="url(#paint68_linear_16_9644)"/>
<path d="M1881.31 1444.74L1879.56 1441.81L1879.96 1445.18L1880.8 1445.44L1881.32 1444.74H1881.31Z" fill="url(#paint69_linear_16_9644)"/>
<path d="M1876.32 1441.82L1872.53 1449.71L1873.37 1450.85L1874.73 1450.41L1876.32 1441.82Z" fill="url(#paint70_linear_16_9644)"/>
<g filter="url(#filter15_i_16_9644)">
<path d="M1574.45 1424.25C1570.68 1406.38 1553.13 1394.95 1535.25 1398.72C1517.38 1402.49 1505.95 1420.04 1509.72 1437.91C1513.49 1455.79 1531.04 1467.22 1548.91 1463.45C1566.79 1459.68 1578.22 1442.13 1574.45 1424.25Z" fill="url(#paint71_radial_16_9644)"/>
</g>
<path d="M1551.55 1418.6H1555.6V1432.79H1551.55V1431.47C1550.92 1430.22 1549.06 1430.57 1548.78 1431.82V1437.64H1544.86V1431.4C1544.54 1430.71 1542.81 1430.21 1542.11 1431.55V1437.64H1538.45V1427.69H1542.11V1428.83C1544.04 1427.03 1547.24 1426.89 1548.41 1429.11C1548.41 1429.11 1549.68 1427.21 1551.55 1427.7V1418.6Z" fill="url(#paint72_linear_16_9644)"/>
<path d="M1528.01 1433.44H1531.97V1437.64H1528.01V1433.44Z" fill="url(#paint73_linear_16_9644)"/>
<path d="M1537.25 1430.45H1533.05V1437.64H1537.25V1430.45Z" fill="url(#paint74_linear_16_9644)"/>
<path d="M1555.57 1435.66C1555.57 1436.76 1554.67 1437.64 1553.55 1437.64C1552.43 1437.64 1551.52 1436.76 1551.52 1435.66C1551.52 1434.57 1552.43 1433.68 1553.55 1433.68C1554.67 1433.68 1555.57 1434.57 1555.57 1435.66Z" fill="url(#paint75_linear_16_9644)"/>
<path d="M1333.62 1354.42C1339.87 1341.43 1334.41 1325.83 1321.42 1319.58C1308.43 1313.34 1292.83 1318.8 1286.58 1331.79C1280.34 1344.78 1285.8 1360.37 1298.79 1366.62C1311.78 1372.87 1327.38 1367.41 1333.62 1354.42Z" fill="url(#paint76_radial_16_9644)"/>
<path d="M1302.98 1337.11C1303.09 1336.97 1303.21 1336.84 1303.32 1336.7C1303.33 1336.69 1303.34 1336.69 1303.35 1336.69C1303.36 1336.67 1303.37 1336.66 1303.38 1336.65L1303.39 1336.64C1303.48 1336.56 1303.56 1336.48 1303.66 1336.41C1303.99 1336.14 1304.36 1335.93 1304.76 1335.79C1305.99 1335.35 1307.36 1335.62 1308.43 1336.66C1309.93 1338.09 1309.8 1340.41 1308.6 1341.95C1307.09 1344.24 1304.49 1347.44 1308.09 1350.31C1308.73 1350.83 1309.21 1351.25 1311.25 1351.85C1309.92 1352.1 1308.68 1352.03 1307.31 1351.67C1306.33 1351.11 1304.8 1349.9 1304.28 1348.28C1303.5 1345.81 1305.67 1342.13 1306.72 1340.71C1308.16 1338.75 1305.83 1336.63 1304.11 1339C1303.21 1340.23 1301.64 1343.73 1302.19 1346.33C1302.51 1347.8 1302.93 1348.87 1304.62 1350.35C1304.3 1350.15 1304 1349.94 1303.71 1349.7C1299.79 1345.97 1300.25 1340.2 1302.98 1337.11Z" fill="url(#paint77_linear_16_9644)"/>
<path d="M1316.32 1348.89C1316.21 1349.03 1316.09 1349.16 1315.98 1349.3C1315.97 1349.31 1315.96 1349.31 1315.96 1349.31C1315.95 1349.33 1315.93 1349.34 1315.92 1349.35L1315.91 1349.36C1315.83 1349.44 1315.74 1349.52 1315.64 1349.59C1315.31 1349.86 1314.94 1350.06 1314.54 1350.21C1313.31 1350.65 1311.94 1350.38 1310.87 1349.34C1309.37 1347.9 1309.51 1345.59 1310.7 1344.05C1312.21 1341.76 1314.81 1338.56 1311.22 1335.69C1310.57 1335.17 1310.09 1334.75 1308.05 1334.15C1309.38 1333.89 1310.62 1333.97 1311.99 1334.33C1312.97 1334.89 1314.5 1336.1 1315.02 1337.72C1315.81 1340.18 1313.63 1343.87 1312.58 1345.28C1311.14 1347.25 1313.47 1349.37 1315.19 1347C1316.09 1345.76 1317.66 1342.27 1317.11 1339.67C1316.79 1338.2 1316.37 1337.13 1314.68 1335.65C1315 1335.84 1315.3 1336.06 1315.59 1336.3C1319.51 1340.03 1319.06 1345.8 1316.32 1348.89Z" fill="url(#paint78_linear_16_9644)"/>
<g filter="url(#filter16_i_16_9644)">
<path d="M2323.32 1441.68C2335.85 1474.09 2372.29 1490.2 2404.69 1477.67C2437.1 1465.13 2453.21 1428.7 2440.68 1396.29C2428.15 1363.88 2391.71 1347.77 2359.31 1360.3C2326.9 1372.84 2310.79 1409.27 2323.32 1441.68Z" fill="url(#paint79_radial_16_9644)"/>
</g>
<path d="M2368.97 1404.02L2362.89 1405.65L2372.22 1440.48L2378.3 1438.85L2368.97 1404.02Z" fill="url(#paint80_linear_16_9644)"/>
<path d="M2394.92 1434.4L2376.94 1420.55L2385.58 1399.57L2393.21 1397.53L2384.74 1418.46L2402.55 1432.35L2394.92 1434.4Z" fill="url(#paint81_linear_16_9644)"/>
<path d="M2566.61 1331.86C2590.29 1329.31 2607.42 1308.05 2604.87 1284.37C2602.33 1260.69 2581.06 1243.56 2557.38 1246.11C2533.71 1248.66 2516.58 1269.92 2519.12 1293.6C2521.67 1317.28 2542.94 1334.41 2566.61 1331.86Z" fill="url(#paint82_radial_16_9644)"/>
<path fill-rule="evenodd" clip-rule="evenodd" d="M2563.76 1284.08L2560.64 1278.2L2556.14 1276.81L2554.75 1281.31L2557.87 1287.2L2551.99 1290.32L2550.6 1294.82L2555.1 1296.2L2560.99 1293.08L2564.11 1298.97L2568.61 1300.35L2569.99 1295.85L2566.87 1289.97L2572.76 1286.85L2574.14 1282.35L2569.64 1280.96L2563.76 1284.08Z" fill="url(#paint83_linear_16_9644)"/>
<path fill-rule="evenodd" clip-rule="evenodd" d="M1613.13 1139.43C1612.56 1138.9 1612.26 1138.89 1612.21 1138.89C1612.16 1138.89 1611.87 1138.9 1611.3 1139.43C1610.71 1139.97 1610.01 1140.9 1609.26 1142.34C1607.75 1145.2 1606.31 1149.53 1605.07 1155.12C1602.59 1166.25 1601.04 1181.77 1601.04 1199C1601.04 1216.23 1602.59 1231.75 1605.07 1242.88C1606.31 1248.47 1607.75 1252.8 1609.26 1255.66C1610.01 1257.1 1610.71 1258.03 1611.3 1258.57C1611.87 1259.1 1612.16 1259.11 1612.21 1259.11C1612.26 1259.11 1612.56 1259.1 1613.13 1258.57C1613.71 1258.03 1614.42 1257.1 1615.17 1255.66C1616.68 1252.8 1618.12 1248.47 1619.36 1242.88C1621.84 1231.75 1623.39 1216.23 1623.39 1199C1623.39 1181.77 1621.84 1166.25 1619.36 1155.12C1618.12 1149.53 1616.68 1145.2 1615.17 1142.34C1614.42 1140.9 1613.71 1139.97 1613.13 1139.43ZM1626.2 1199C1626.2 1164.25 1619.94 1136.08 1612.21 1136.08C1604.49 1136.08 1598.22 1164.25 1598.22 1199C1598.22 1233.75 1604.49 1261.92 1612.21 1261.92C1619.94 1261.92 1626.2 1233.75 1626.2 1199Z" fill="white"/>
<path fill-rule="evenodd" clip-rule="evenodd" d="M1664.29 1170C1664.46 1169.25 1664.32 1168.99 1664.3 1168.95C1664.28 1168.91 1664.12 1168.66 1663.38 1168.42C1662.62 1168.19 1661.46 1168.05 1659.84 1168.11C1656.6 1168.24 1652.13 1169.16 1646.66 1170.88C1635.78 1174.3 1621.56 1180.71 1606.62 1189.33C1591.69 1197.94 1579.02 1207.05 1570.61 1214.76C1566.39 1218.63 1563.36 1222.04 1561.63 1224.78C1560.76 1226.15 1560.31 1227.22 1560.13 1228C1559.96 1228.75 1560.1 1229.01 1560.13 1229.05C1560.15 1229.09 1560.31 1229.34 1561.05 1229.58C1561.81 1229.81 1562.96 1229.95 1564.59 1229.89C1567.82 1229.76 1572.3 1228.84 1577.76 1227.12C1588.65 1223.7 1602.87 1217.29 1617.8 1208.67C1632.74 1200.06 1645.4 1190.95 1653.81 1183.24C1658.03 1179.37 1661.07 1175.96 1662.8 1173.22C1663.66 1171.85 1664.12 1170.78 1664.29 1170ZM1619.21 1211.11C1649.32 1193.73 1670.6 1174.23 1666.74 1167.54C1662.87 1160.85 1635.33 1169.52 1605.22 1186.89C1575.11 1204.27 1553.83 1223.77 1557.69 1230.46C1561.55 1237.15 1589.1 1228.48 1619.21 1211.11Z" fill="white"/>
<path fill-rule="evenodd" clip-rule="evenodd" d="M1663.36 1229.61C1664.1 1229.37 1664.26 1229.12 1664.28 1229.08C1664.31 1229.04 1664.45 1228.78 1664.27 1228.02C1664.1 1227.25 1663.64 1226.17 1662.78 1224.8C1661.05 1222.06 1658.01 1218.65 1653.79 1214.77C1645.39 1207.06 1632.72 1197.95 1617.79 1189.32C1602.87 1180.7 1588.65 1174.28 1577.77 1170.85C1572.31 1169.13 1567.83 1168.21 1564.6 1168.08C1562.98 1168.02 1561.82 1168.16 1561.06 1168.39C1560.32 1168.63 1560.17 1168.88 1560.14 1168.92C1560.12 1168.96 1559.98 1169.22 1560.15 1169.98C1560.33 1170.75 1560.78 1171.83 1561.65 1173.2C1563.38 1175.94 1566.41 1179.35 1570.63 1183.23C1579.04 1190.94 1591.7 1200.05 1606.63 1208.68C1621.56 1217.3 1635.78 1223.72 1646.66 1227.15C1652.12 1228.87 1656.59 1229.79 1659.83 1229.92C1661.45 1229.98 1662.6 1229.84 1663.36 1229.61ZM1605.22 1211.11C1635.33 1228.5 1662.86 1237.18 1666.72 1230.49C1670.58 1223.8 1649.3 1204.28 1619.2 1186.89C1589.1 1169.5 1561.57 1160.82 1557.71 1167.51C1553.85 1174.2 1575.12 1193.72 1605.22 1211.11Z" fill="white"/>
<path fill-rule="evenodd" clip-rule="evenodd" d="M1572 1181.38C1574.44 1181.38 1576.42 1183.36 1576.42 1185.81C1576.42 1188.25 1574.44 1190.23 1572 1190.23C1569.56 1190.23 1567.57 1188.25 1567.57 1185.81C1567.57 1183.36 1569.56 1181.38 1572 1181.38Z" fill="white"/>
<path fill-rule="evenodd" clip-rule="evenodd" d="M1642.32 1166.22C1644.76 1166.22 1646.74 1168.2 1646.74 1170.65C1646.74 1173.09 1644.76 1175.07 1642.32 1175.07C1639.87 1175.07 1637.89 1173.09 1637.89 1170.65C1637.89 1168.2 1639.87 1166.22 1642.32 1166.22Z" fill="white"/>
<path fill-rule="evenodd" clip-rule="evenodd" d="M1603.3 1235.7C1605.74 1235.7 1607.72 1237.68 1607.72 1240.12C1607.72 1242.57 1605.74 1244.55 1603.3 1244.55C1600.85 1244.55 1598.87 1242.57 1598.87 1240.12C1598.87 1237.68 1600.85 1235.7 1603.3 1235.7Z" fill="white"/>
<path fill-rule="evenodd" clip-rule="evenodd" d="M1611.97 1191.47C1616.11 1191.47 1619.46 1194.83 1619.46 1198.97C1619.46 1203.11 1616.11 1206.46 1611.97 1206.46C1607.83 1206.46 1604.47 1203.11 1604.47 1198.97C1604.47 1194.83 1607.83 1191.47 1611.97 1191.47Z" fill="white"/>
<path d="M1937.24 1125.85C1927.56 1129.24 1922.46 1139.84 1925.85 1149.52C1929.24 1159.21 1939.84 1164.31 1949.52 1160.91C1959.21 1157.52 1964.31 1146.92 1960.91 1137.24C1957.52 1127.56 1946.92 1122.46 1937.24 1125.85Z" fill="url(#paint84_radial_16_9644)"/>
<path fill-rule="evenodd" clip-rule="evenodd" d="M1943.31 1135.37C1938.93 1135.37 1935.37 1138.93 1935.37 1143.31C1935.37 1147.69 1938.93 1151.25 1943.31 1151.25C1947.68 1151.25 1951.25 1147.69 1951.25 1143.31C1951.25 1138.93 1947.68 1135.37 1943.31 1135.37ZM1944.78 1143.56C1944.88 1143.66 1944.99 1143.62 1945.1 1143.52C1945.81 1142.84 1946.57 1141.77 1946.82 1141.21C1946.88 1141.09 1946.99 1141.03 1947.1 1141.07C1947.24 1141.13 1947.24 1141.36 1947.11 1141.62C1946.78 1142.3 1946.33 1143.05 1945.42 1143.99C1945.4 1144 1945.39 1144.03 1945.38 1144.05C1945.37 1144.08 1945.36 1144.1 1945.36 1144.13C1945.36 1144.15 1945.37 1144.18 1945.38 1144.2C1945.39 1144.23 1945.41 1144.25 1945.43 1144.27C1945.51 1144.34 1945.64 1144.33 1945.76 1144.21C1946.23 1143.73 1946.54 1143.36 1946.81 1142.97C1946.88 1142.87 1946.97 1142.83 1947.05 1142.85C1947.17 1142.88 1947.19 1142.99 1947.15 1143.13C1947.09 1143.35 1946.47 1144.17 1946.22 1144.44C1945.55 1145.19 1944.88 1145.6 1943.59 1146.27C1943.14 1146.51 1942.8 1146.73 1942.6 1147.07C1942.41 1147.39 1942.36 1147.49 1942.34 1147.53C1942.3 1147.6 1942.3 1147.69 1942.32 1147.77C1942.35 1147.84 1942.4 1147.91 1942.48 1147.95C1942.51 1147.96 1942.55 1147.97 1942.6 1147.98C1942.64 1147.98 1942.68 1147.97 1942.72 1147.96C1942.75 1147.94 1942.79 1147.92 1942.82 1147.89C1942.85 1147.86 1942.87 1147.83 1942.89 1147.79C1942.89 1147.78 1942.89 1147.78 1943.12 1147.38C1943.3 1147.09 1943.57 1146.86 1943.88 1146.71C1945.17 1146.12 1945.7 1145.66 1946.45 1144.91C1946.79 1144.57 1947.26 1143.84 1947.39 1143.62C1947.75 1143.01 1947.57 1142.49 1947.24 1142.4C1947.23 1142.4 1947.22 1142.4 1947.22 1142.39C1947.21 1142.38 1947.21 1142.37 1947.21 1142.36C1947.21 1142.35 1947.21 1142.35 1947.21 1142.34C1947.47 1141.91 1947.58 1141.61 1947.63 1141.38C1947.69 1141.07 1947.6 1140.68 1947.17 1140.59C1947.16 1140.59 1947.16 1140.59 1947.15 1140.58C1947.14 1140.57 1947.14 1140.57 1947.14 1140.56C1947.14 1140.55 1947.14 1140.55 1947.14 1140.54C1947.16 1140.46 1947.19 1140.36 1947.2 1140.28L1947.21 1140.23C1947.3 1139.82 1947.05 1139.45 1946.74 1139.39C1946.64 1139.37 1946.53 1139.36 1946.43 1139.39C1946.33 1139.41 1946.24 1139.45 1946.15 1139.51C1946.14 1139.52 1946.13 1139.52 1946.11 1139.52C1946.1 1139.52 1946.09 1139.51 1946.08 1139.5C1946.04 1139.45 1945.99 1139.42 1945.93 1139.39C1945.88 1139.37 1945.82 1139.35 1945.76 1139.35C1945.49 1139.35 1945.22 1139.43 1945.03 1139.84C1944.89 1140.14 1944.68 1140.54 1944.07 1141.21C1943.51 1141.84 1942.73 1142.45 1942.24 1142.76C1942.16 1142.82 1942.04 1142.81 1942.05 1142.69C1942.06 1142.63 1942.08 1142.47 1942.12 1142.26C1942.18 1141.82 1942.28 1141.18 1942.3 1140.94C1942.36 1140.36 1942.04 1140.09 1941.69 1140.04C1941.4 1140 1940.96 1140.08 1940.72 1140.74C1940.69 1140.82 1940.66 1140.92 1940.62 1141.02C1940.46 1141.41 1940.24 1141.98 1940.04 1142.78C1939.87 1143.5 1939.84 1144.34 1940 1145.3C1940.01 1145.36 1940 1145.42 1939.97 1145.47C1939.92 1145.54 1939.87 1145.62 1939.82 1145.7C1939.65 1145.97 1939.46 1146.28 1939.34 1146.56C1939.31 1146.63 1939.3 1146.71 1939.32 1146.78C1939.35 1146.86 1939.4 1146.92 1939.47 1146.96C1939.5 1146.98 1939.54 1146.99 1939.58 1146.99C1939.62 1147 1939.67 1146.99 1939.71 1146.98C1939.74 1146.96 1939.78 1146.94 1939.81 1146.92C1939.84 1146.89 1939.87 1146.86 1939.89 1146.82C1939.96 1146.67 1940.09 1146.42 1940.17 1146.24C1940.2 1146.18 1940.23 1146.14 1940.25 1146.1L1940.26 1146.07C1940.38 1145.82 1940.46 1145.65 1940.5 1145.55C1940.53 1145.45 1940.55 1145.33 1940.49 1145.06C1940.39 1144.61 1940.36 1143.77 1940.54 1143.03C1940.74 1142.26 1940.98 1141.5 1941.27 1140.76C1941.34 1140.58 1941.45 1140.53 1941.55 1140.53C1941.66 1140.54 1941.85 1140.59 1941.8 1140.96C1941.71 1141.55 1941.59 1142.26 1941.53 1142.63L1941.5 1142.76C1941.48 1142.9 1941.45 1143.22 1941.71 1143.37C1941.91 1143.49 1942.13 1143.42 1942.38 1143.26C1942.93 1142.89 1943.87 1142.15 1944.47 1141.48C1945.09 1140.78 1945.29 1140.36 1945.45 1139.98C1945.52 1139.81 1945.71 1139.81 1945.78 1139.83C1945.84 1139.85 1945.92 1139.94 1945.87 1140.13C1945.73 1140.59 1945.16 1141.65 1944.06 1142.64C1943.94 1142.75 1943.95 1142.88 1944.02 1142.95C1944.08 1143.02 1944.19 1143.06 1944.32 1142.95C1945.31 1142.11 1945.87 1141.11 1946.12 1140.57C1946.21 1140.39 1946.28 1140.2 1946.34 1140.02C1946.39 1139.86 1946.51 1139.8 1946.6 1139.82C1946.72 1139.85 1946.8 1139.97 1946.76 1140.17C1946.7 1140.43 1946.61 1140.68 1946.49 1140.92C1946.17 1141.59 1945.51 1142.49 1944.79 1143.26C1944.77 1143.28 1944.75 1143.3 1944.74 1143.33C1944.72 1143.36 1944.72 1143.38 1944.72 1143.41C1944.72 1143.44 1944.72 1143.47 1944.73 1143.49C1944.75 1143.52 1944.76 1143.54 1944.78 1143.56ZM1940.32 1140.22C1940.36 1140.19 1940.35 1140.15 1940.34 1140.11H1940.33C1940.28 1139.94 1939.98 1139.23 1939.9 1139.09C1939.86 1139.02 1939.81 1139.01 1939.75 1139.03C1939.68 1139.05 1939.6 1139.12 1939.46 1139.24C1939.33 1139.36 1939.25 1139.44 1939.21 1139.5C1939.18 1139.55 1939.19 1139.61 1939.25 1139.65C1939.38 1139.75 1940.05 1140.14 1940.21 1140.22C1940.24 1140.24 1940.28 1140.26 1940.32 1140.22ZM1945.79 1146.5C1945.74 1146.5 1945.73 1146.54 1945.72 1146.57V1146.58C1945.66 1146.74 1945.46 1147.49 1945.44 1147.65C1945.43 1147.73 1945.46 1147.77 1945.52 1147.79C1945.59 1147.81 1945.7 1147.81 1945.88 1147.8C1946.06 1147.79 1946.17 1147.77 1946.24 1147.74C1946.29 1147.72 1946.32 1147.67 1946.3 1147.6C1946.25 1147.44 1945.96 1146.72 1945.88 1146.57C1945.87 1146.53 1945.84 1146.49 1945.79 1146.5ZM1946.22 1146.15C1946.2 1146.2 1946.23 1146.23 1946.25 1146.26C1946.36 1146.4 1946.9 1146.95 1947.03 1147.05C1947.09 1147.1 1947.14 1147.1 1947.19 1147.06C1947.24 1147 1947.3 1146.91 1947.38 1146.75C1947.47 1146.59 1947.51 1146.49 1947.52 1146.42C1947.53 1146.36 1947.5 1146.31 1947.42 1146.29C1947.27 1146.25 1946.51 1146.12 1946.33 1146.11C1946.29 1146.11 1946.25 1146.11 1946.22 1146.15ZM1940.06 1140.68C1940.05 1140.63 1940.01 1140.62 1939.98 1140.62H1939.97C1939.8 1140.57 1939.04 1140.46 1938.87 1140.46C1938.79 1140.46 1938.76 1140.49 1938.75 1140.55C1938.73 1140.63 1938.74 1140.74 1938.77 1140.91C1938.81 1141.09 1938.83 1141.2 1938.87 1141.26C1938.9 1141.31 1938.95 1141.34 1939.02 1141.31C1939.17 1141.24 1939.85 1140.88 1940 1140.78C1940.03 1140.76 1940.07 1140.73 1940.06 1140.69V1140.68ZM1943.31 1150.58C1943.34 1150.58 1943.38 1150.57 1943.41 1150.56C1943.45 1150.55 1943.48 1150.53 1943.51 1150.5C1943.53 1150.48 1943.55 1150.44 1943.57 1150.41C1943.58 1150.38 1943.59 1150.34 1943.59 1150.3C1943.59 1150.27 1943.58 1150.23 1943.57 1150.2C1943.55 1150.16 1943.53 1150.13 1943.51 1150.11C1943.48 1150.08 1943.45 1150.06 1943.41 1150.05C1943.38 1150.03 1943.34 1150.03 1943.31 1150.03C1943.24 1150.03 1943.17 1150.06 1943.12 1150.11C1943.07 1150.16 1943.04 1150.23 1943.04 1150.3C1943.04 1150.38 1943.07 1150.44 1943.12 1150.5C1943.17 1150.55 1943.24 1150.58 1943.31 1150.58ZM1943.31 1136.59C1943.38 1136.59 1943.45 1136.56 1943.5 1136.51C1943.55 1136.45 1943.58 1136.38 1943.58 1136.31C1943.58 1136.24 1943.55 1136.17 1943.5 1136.12C1943.45 1136.07 1943.38 1136.04 1943.31 1136.04C1943.23 1136.04 1943.16 1136.07 1943.11 1136.12C1943.06 1136.17 1943.03 1136.24 1943.03 1136.31C1943.03 1136.38 1943.06 1136.45 1943.11 1136.51C1943.16 1136.56 1943.23 1136.59 1943.31 1136.59ZM1945.12 1150.34C1945.15 1150.34 1945.19 1150.33 1945.22 1150.32C1945.26 1150.31 1945.29 1150.29 1945.31 1150.26C1945.34 1150.23 1945.36 1150.2 1945.37 1150.17C1945.39 1150.14 1945.39 1150.1 1945.39 1150.07C1945.39 1150.03 1945.39 1149.99 1945.37 1149.96C1945.36 1149.93 1945.34 1149.9 1945.31 1149.87C1945.29 1149.84 1945.26 1149.82 1945.22 1149.81C1945.19 1149.8 1945.15 1149.79 1945.12 1149.79C1945.04 1149.79 1944.97 1149.82 1944.92 1149.87C1944.87 1149.92 1944.84 1149.99 1944.84 1150.07C1944.84 1150.14 1944.87 1150.21 1944.92 1150.26C1944.97 1150.31 1945.04 1150.34 1945.12 1150.34ZM1941.5 1136.82C1941.57 1136.82 1941.64 1136.8 1941.69 1136.74C1941.74 1136.69 1941.77 1136.62 1941.77 1136.55C1941.77 1136.48 1941.74 1136.41 1941.69 1136.36C1941.64 1136.3 1941.57 1136.27 1941.5 1136.27C1941.42 1136.27 1941.35 1136.3 1941.3 1136.36C1941.25 1136.41 1941.22 1136.48 1941.22 1136.55C1941.22 1136.62 1941.25 1136.69 1941.3 1136.74C1941.35 1136.8 1941.42 1136.82 1941.5 1136.82ZM1946.81 1149.64C1946.84 1149.64 1946.88 1149.64 1946.91 1149.62C1946.95 1149.61 1946.98 1149.59 1947.01 1149.56C1947.03 1149.54 1947.05 1149.51 1947.07 1149.47C1947.08 1149.44 1947.09 1149.4 1947.09 1149.37C1947.09 1149.33 1947.08 1149.29 1947.07 1149.26C1947.05 1149.22 1947.03 1149.19 1947.01 1149.17C1946.98 1149.14 1946.95 1149.12 1946.91 1149.11C1946.88 1149.1 1946.84 1149.09 1946.81 1149.09C1946.73 1149.09 1946.67 1149.12 1946.62 1149.17C1946.57 1149.23 1946.54 1149.29 1946.54 1149.37C1946.54 1149.44 1946.57 1149.51 1946.62 1149.56C1946.67 1149.61 1946.73 1149.64 1946.81 1149.64ZM1939.81 1137.52C1939.85 1137.52 1939.88 1137.52 1939.92 1137.51C1939.95 1137.49 1939.98 1137.47 1940.01 1137.45C1940.04 1137.42 1940.06 1137.39 1940.07 1137.36C1940.09 1137.32 1940.09 1137.29 1940.09 1137.25C1940.09 1137.21 1940.09 1137.18 1940.07 1137.14C1940.06 1137.11 1940.04 1137.08 1940.01 1137.05C1939.98 1137.02 1939.95 1137 1939.92 1136.99C1939.88 1136.98 1939.85 1136.97 1939.81 1136.97C1939.74 1136.98 1939.67 1137.01 1939.62 1137.06C1939.57 1137.11 1939.54 1137.18 1939.54 1137.25C1939.54 1137.32 1939.57 1137.39 1939.62 1137.44C1939.67 1137.49 1939.74 1137.52 1939.81 1137.52ZM1948.25 1148.53C1948.29 1148.53 1948.33 1148.52 1948.36 1148.51C1948.4 1148.5 1948.43 1148.48 1948.45 1148.45C1948.48 1148.43 1948.5 1148.4 1948.52 1148.36C1948.53 1148.33 1948.54 1148.29 1948.54 1148.25C1948.54 1148.22 1948.53 1148.18 1948.52 1148.15C1948.5 1148.11 1948.48 1148.08 1948.45 1148.06C1948.43 1148.03 1948.4 1148.01 1948.36 1148C1948.33 1147.98 1948.29 1147.98 1948.25 1147.98C1948.18 1147.98 1948.11 1148.01 1948.07 1148.06C1948.02 1148.11 1947.99 1148.18 1947.99 1148.25C1947.99 1148.33 1948.02 1148.39 1948.07 1148.45C1948.11 1148.5 1948.18 1148.53 1948.25 1148.53ZM1938.36 1138.64C1938.4 1138.64 1938.43 1138.63 1938.47 1138.62C1938.5 1138.6 1938.53 1138.58 1938.56 1138.56C1938.59 1138.53 1938.61 1138.5 1938.62 1138.47C1938.64 1138.43 1938.64 1138.4 1938.64 1138.36C1938.64 1138.32 1938.64 1138.29 1938.62 1138.25C1938.61 1138.22 1938.59 1138.19 1938.56 1138.16C1938.53 1138.14 1938.5 1138.12 1938.47 1138.1C1938.43 1138.09 1938.4 1138.08 1938.36 1138.09C1938.29 1138.09 1938.22 1138.12 1938.17 1138.17C1938.12 1138.22 1938.09 1138.29 1938.09 1138.36C1938.09 1138.43 1938.12 1138.5 1938.17 1138.55C1938.22 1138.6 1938.29 1138.63 1938.36 1138.64ZM1950.06 1145.39C1950.14 1145.39 1950.21 1145.36 1950.26 1145.31C1950.31 1145.26 1950.34 1145.19 1950.34 1145.12C1950.34 1145.04 1950.31 1144.97 1950.26 1144.92C1950.21 1144.87 1950.14 1144.84 1950.06 1144.84C1949.99 1144.84 1949.92 1144.87 1949.87 1144.92C1949.82 1144.97 1949.79 1145.04 1949.79 1145.12C1949.79 1145.19 1949.82 1145.26 1949.87 1145.31C1949.92 1145.36 1949.99 1145.39 1950.06 1145.39ZM1949.37 1147.08C1949.4 1147.08 1949.44 1147.07 1949.47 1147.06C1949.5 1147.05 1949.53 1147.03 1949.56 1147C1949.59 1146.97 1949.61 1146.94 1949.62 1146.91C1949.63 1146.88 1949.64 1146.84 1949.64 1146.81C1949.64 1146.77 1949.63 1146.73 1949.62 1146.7C1949.61 1146.67 1949.59 1146.64 1949.56 1146.61C1949.53 1146.59 1949.5 1146.57 1949.47 1146.55C1949.44 1146.54 1949.4 1146.53 1949.37 1146.53C1949.29 1146.53 1949.22 1146.56 1949.17 1146.61C1949.12 1146.66 1949.09 1146.73 1949.09 1146.81C1949.09 1146.88 1949.12 1146.95 1949.17 1147C1949.22 1147.05 1949.29 1147.08 1949.37 1147.08ZM1937.25 1140.08C1937.32 1140.08 1937.39 1140.06 1937.44 1140C1937.49 1139.95 1937.52 1139.88 1937.52 1139.81C1937.52 1139.74 1937.49 1139.67 1937.44 1139.61C1937.39 1139.56 1937.32 1139.53 1937.25 1139.53C1937.17 1139.53 1937.1 1139.56 1937.05 1139.61C1937 1139.67 1936.97 1139.74 1936.97 1139.81C1936.97 1139.88 1937 1139.95 1937.05 1140C1937.1 1140.06 1937.17 1140.08 1937.25 1140.08ZM1936.55 1141.77C1936.59 1141.77 1936.62 1141.77 1936.66 1141.75C1936.69 1141.74 1936.72 1141.72 1936.75 1141.69C1936.78 1141.67 1936.8 1141.64 1936.81 1141.6C1936.83 1141.57 1936.83 1141.53 1936.83 1141.5C1936.83 1141.46 1936.83 1141.42 1936.81 1141.39C1936.8 1141.36 1936.78 1141.32 1936.75 1141.3C1936.72 1141.27 1936.69 1141.25 1936.66 1141.24C1936.62 1141.23 1936.59 1141.22 1936.55 1141.22C1936.48 1141.22 1936.41 1141.25 1936.35 1141.3C1936.3 1141.35 1936.27 1141.42 1936.27 1141.5C1936.27 1141.57 1936.3 1141.64 1936.35 1141.69C1936.41 1141.74 1936.48 1141.77 1936.55 1141.77ZM1950.3 1143.58C1950.38 1143.58 1950.45 1143.55 1950.5 1143.5C1950.55 1143.45 1950.58 1143.38 1950.58 1143.31C1950.58 1143.23 1950.55 1143.16 1950.5 1143.11C1950.45 1143.06 1950.38 1143.03 1950.3 1143.03C1950.23 1143.03 1950.16 1143.06 1950.11 1143.11C1950.06 1143.16 1950.03 1143.23 1950.03 1143.31C1950.03 1143.38 1950.06 1143.45 1950.11 1143.5C1950.16 1143.55 1950.23 1143.58 1950.3 1143.58ZM1936.31 1143.58C1936.38 1143.58 1936.45 1143.55 1936.51 1143.5C1936.56 1143.45 1936.59 1143.38 1936.59 1143.31C1936.59 1143.23 1936.56 1143.16 1936.51 1143.11C1936.45 1143.06 1936.38 1143.03 1936.31 1143.03C1936.24 1143.03 1936.17 1143.06 1936.12 1143.11C1936.06 1143.16 1936.04 1143.23 1936.04 1143.31C1936.04 1143.38 1936.06 1143.45 1936.12 1143.5C1936.17 1143.55 1936.24 1143.58 1936.31 1143.58ZM1950.06 1141.77C1950.1 1141.77 1950.14 1141.77 1950.17 1141.75C1950.21 1141.74 1950.24 1141.72 1950.27 1141.69C1950.29 1141.67 1950.31 1141.64 1950.33 1141.6C1950.34 1141.57 1950.35 1141.53 1950.35 1141.5C1950.35 1141.46 1950.34 1141.42 1950.33 1141.39C1950.31 1141.36 1950.29 1141.32 1950.27 1141.3C1950.24 1141.27 1950.21 1141.25 1950.17 1141.24C1950.14 1141.23 1950.1 1141.22 1950.06 1141.22C1949.99 1141.22 1949.92 1141.25 1949.87 1141.3C1949.82 1141.35 1949.79 1141.42 1949.79 1141.5C1949.79 1141.57 1949.82 1141.64 1949.87 1141.69C1949.92 1141.74 1949.99 1141.77 1950.06 1141.77ZM1936.55 1145.39C1936.62 1145.39 1936.69 1145.36 1936.74 1145.31C1936.8 1145.26 1936.82 1145.19 1936.82 1145.12C1936.82 1145.04 1936.8 1144.97 1936.74 1144.92C1936.69 1144.87 1936.62 1144.84 1936.55 1144.84C1936.48 1144.84 1936.41 1144.87 1936.35 1144.92C1936.3 1144.97 1936.27 1145.04 1936.27 1145.12C1936.27 1145.19 1936.3 1145.26 1936.35 1145.31C1936.41 1145.36 1936.48 1145.39 1936.55 1145.39ZM1949.37 1140.08C1949.44 1140.08 1949.51 1140.06 1949.56 1140C1949.61 1139.95 1949.64 1139.88 1949.64 1139.81C1949.64 1139.74 1949.61 1139.67 1949.56 1139.61C1949.51 1139.56 1949.44 1139.53 1949.37 1139.53C1949.29 1139.53 1949.22 1139.56 1949.17 1139.61C1949.12 1139.67 1949.09 1139.74 1949.09 1139.81C1949.09 1139.88 1949.12 1139.95 1949.17 1140C1949.22 1140.06 1949.29 1140.08 1949.37 1140.08ZM1937.25 1147.08C1937.28 1147.08 1937.32 1147.07 1937.35 1147.06C1937.39 1147.05 1937.42 1147.03 1937.44 1147C1937.47 1146.97 1937.49 1146.94 1937.5 1146.91C1937.52 1146.88 1937.52 1146.84 1937.52 1146.81C1937.52 1146.77 1937.52 1146.73 1937.5 1146.7C1937.49 1146.67 1937.47 1146.64 1937.44 1146.61C1937.42 1146.59 1937.39 1146.57 1937.35 1146.55C1937.32 1146.54 1937.28 1146.53 1937.25 1146.53C1937.17 1146.53 1937.1 1146.56 1937.05 1146.61C1937 1146.66 1936.97 1146.73 1936.97 1146.81C1936.97 1146.88 1937 1146.95 1937.05 1147C1937.1 1147.05 1937.17 1147.08 1937.25 1147.08ZM1948.25 1138.64C1948.29 1138.64 1948.33 1138.63 1948.36 1138.62C1948.4 1138.6 1948.43 1138.58 1948.45 1138.56C1948.48 1138.53 1948.5 1138.5 1948.52 1138.47C1948.53 1138.43 1948.54 1138.4 1948.54 1138.36C1948.54 1138.32 1948.53 1138.29 1948.52 1138.25C1948.5 1138.22 1948.48 1138.19 1948.45 1138.16C1948.43 1138.14 1948.4 1138.12 1948.36 1138.1C1948.33 1138.09 1948.29 1138.08 1948.25 1138.09C1948.18 1138.09 1948.11 1138.12 1948.07 1138.17C1948.02 1138.22 1947.99 1138.29 1947.99 1138.36C1947.99 1138.43 1948.02 1138.5 1948.07 1138.55C1948.11 1138.6 1948.18 1138.63 1948.25 1138.64ZM1938.36 1148.53C1938.4 1148.53 1938.43 1148.52 1938.47 1148.51C1938.5 1148.5 1938.53 1148.48 1938.56 1148.45C1938.59 1148.43 1938.61 1148.4 1938.62 1148.36C1938.64 1148.33 1938.64 1148.29 1938.64 1148.25C1938.64 1148.22 1938.64 1148.18 1938.62 1148.15C1938.61 1148.11 1938.59 1148.08 1938.56 1148.06C1938.53 1148.03 1938.5 1148.01 1938.47 1148C1938.43 1147.98 1938.4 1147.98 1938.36 1147.98C1938.29 1147.98 1938.22 1148.01 1938.17 1148.06C1938.12 1148.11 1938.09 1148.18 1938.09 1148.25C1938.09 1148.33 1938.12 1148.39 1938.17 1148.45C1938.22 1148.5 1938.29 1148.53 1938.36 1148.53ZM1946.81 1137.52C1946.84 1137.52 1946.88 1137.52 1946.91 1137.51C1946.95 1137.49 1946.98 1137.47 1947.01 1137.45C1947.03 1137.42 1947.05 1137.39 1947.07 1137.36C1947.08 1137.32 1947.09 1137.29 1947.09 1137.25C1947.09 1137.21 1947.08 1137.18 1947.07 1137.14C1947.05 1137.11 1947.03 1137.08 1947.01 1137.05C1946.98 1137.02 1946.95 1137 1946.91 1136.99C1946.88 1136.98 1946.84 1136.97 1946.81 1136.97C1946.73 1136.98 1946.67 1137.01 1946.62 1137.06C1946.57 1137.11 1946.54 1137.18 1946.54 1137.25C1946.54 1137.32 1946.57 1137.39 1946.62 1137.44C1946.67 1137.49 1946.73 1137.52 1946.81 1137.52ZM1939.81 1149.64C1939.85 1149.64 1939.88 1149.64 1939.92 1149.62C1939.95 1149.61 1939.98 1149.59 1940.01 1149.56C1940.04 1149.54 1940.06 1149.51 1940.07 1149.47C1940.09 1149.44 1940.09 1149.4 1940.09 1149.37C1940.09 1149.33 1940.09 1149.29 1940.07 1149.26C1940.06 1149.22 1940.04 1149.19 1940.01 1149.17C1939.98 1149.14 1939.95 1149.12 1939.92 1149.11C1939.88 1149.1 1939.85 1149.09 1939.81 1149.09C1939.74 1149.09 1939.67 1149.12 1939.62 1149.17C1939.57 1149.23 1939.54 1149.29 1939.54 1149.37C1939.54 1149.44 1939.57 1149.51 1939.62 1149.56C1939.67 1149.61 1939.74 1149.64 1939.81 1149.64ZM1945.12 1136.82C1945.19 1136.82 1945.26 1136.8 1945.31 1136.74C1945.36 1136.69 1945.39 1136.62 1945.39 1136.55C1945.39 1136.48 1945.36 1136.41 1945.31 1136.36C1945.26 1136.3 1945.19 1136.27 1945.12 1136.27C1945.04 1136.27 1944.97 1136.3 1944.92 1136.36C1944.87 1136.41 1944.84 1136.48 1944.84 1136.55C1944.84 1136.62 1944.87 1136.69 1944.92 1136.74C1944.97 1136.8 1945.04 1136.82 1945.12 1136.82ZM1941.5 1150.34C1941.53 1150.34 1941.57 1150.33 1941.6 1150.32C1941.63 1150.31 1941.67 1150.29 1941.69 1150.26C1941.72 1150.23 1941.74 1150.2 1941.75 1150.17C1941.76 1150.14 1941.77 1150.1 1941.77 1150.07C1941.77 1150.03 1941.76 1149.99 1941.75 1149.96C1941.74 1149.93 1941.72 1149.9 1941.69 1149.87C1941.67 1149.84 1941.63 1149.82 1941.6 1149.81C1941.57 1149.8 1941.53 1149.79 1941.5 1149.79C1941.42 1149.79 1941.35 1149.82 1941.3 1149.87C1941.25 1149.92 1941.22 1149.99 1941.22 1150.07C1941.22 1150.14 1941.25 1150.21 1941.3 1150.26C1941.35 1150.31 1941.42 1150.34 1941.5 1150.34ZM1942.73 1141.72C1942.68 1141.72 1942.63 1141.71 1942.59 1141.68C1942.55 1141.65 1942.52 1141.61 1942.5 1141.56C1942.48 1141.52 1942.48 1141.47 1942.49 1141.42C1942.51 1141.37 1942.53 1141.32 1942.57 1141.29C1943.27 1140.68 1943.57 1140.17 1943.63 1140.07C1943.83 1139.72 1944.16 1139.53 1944.51 1139.58C1944.57 1139.59 1944.63 1139.63 1944.67 1139.68C1944.71 1139.73 1944.72 1139.79 1944.71 1139.86C1944.71 1139.92 1944.67 1139.98 1944.62 1140.02C1944.57 1140.06 1944.51 1140.08 1944.44 1140.07C1944.24 1140.04 1944.11 1140.24 1944.06 1140.32C1944 1140.43 1943.65 1141 1942.9 1141.66C1942.85 1141.7 1942.79 1141.72 1942.73 1141.72ZM1938.58 1145.9C1938.53 1145.9 1938.48 1145.89 1938.44 1145.86C1938.4 1145.83 1938.37 1145.79 1938.35 1145.74C1938.33 1145.69 1938.33 1145.64 1938.34 1145.59C1938.36 1145.54 1938.38 1145.5 1938.42 1145.47C1938.71 1145.24 1939.01 1145.04 1939.33 1144.86C1939.39 1144.83 1939.45 1144.83 1939.51 1144.85C1939.57 1144.88 1939.62 1144.92 1939.65 1144.98C1939.68 1145.03 1939.69 1145.1 1939.67 1145.16C1939.65 1145.22 1939.61 1145.27 1939.55 1145.3C1939.27 1145.46 1939 1145.65 1938.74 1145.85C1938.69 1145.88 1938.64 1145.9 1938.58 1145.9Z" fill="url(#paint85_linear_16_9644)"/>
<path fill-rule="evenodd" clip-rule="evenodd" d="M1943.31 1152.56C1948.42 1152.56 1952.56 1148.42 1952.56 1143.31C1952.56 1138.2 1948.42 1134.05 1943.31 1134.05C1938.2 1134.05 1934.05 1138.2 1934.05 1143.31C1934.05 1148.42 1938.2 1152.56 1943.31 1152.56ZM1943.31 1151.98C1938.52 1151.98 1934.63 1148.09 1934.63 1143.31C1934.63 1138.52 1938.52 1134.63 1943.31 1134.63C1948.09 1134.63 1951.98 1138.52 1951.98 1143.31C1951.98 1148.09 1948.09 1151.98 1943.31 1151.98Z" fill="url(#paint86_linear_16_9644)"/>
</g>
<defs>
<filter id="filter0_f_16_9644" x="-220" y="-147" width="3666" height="2744" filterUnits="userSpaceOnUse" color-interpolation-filters="sRGB">
<feFlood flood-opacity="0" result="BackgroundImageFix"/>
<feBlend mode="normal" in="SourceGraphic" in2="BackgroundImageFix" result="shape"/>
<feGaussianBlur stdDeviation="38" result="effect1_foregroundBlur_16_9644"/>
</filter>
<filter id="filter1_f_16_9644" x="517.688" y="685.602" width="1464.56" height="1661.1" filterUnits="userSpaceOnUse" color-interpolation-filters="sRGB">
<feFlood flood-opacity="0" result="BackgroundImageFix"/>
<feBlend mode="normal" in="SourceGraphic" in2="BackgroundImageFix" result="shape"/>
<feGaussianBlur stdDeviation="125" result="effect1_foregroundBlur_16_9644"/>
</filter>
<filter id="filter2_f_16_9644" x="-226.672" y="-153.672" width="3679.34" height="2757.34" filterUnits="userSpaceOnUse" color-interpolation-filters="sRGB">
<feFlood flood-opacity="0" result="BackgroundImageFix"/>
<feBlend mode="normal" in="SourceGraphic" in2="BackgroundImageFix" result="shape"/>
<feGaussianBlur stdDeviation="41.336" result="effect1_foregroundBlur_16_9644"/>
</filter>
<filter id="filter3_i_16_9644" x="1458" y="1045" width="309" height="309" filterUnits="userSpaceOnUse" color-interpolation-filters="sRGB">
<feFlood flood-opacity="0" result="BackgroundImageFix"/>
<feBlend mode="normal" in="SourceGraphic" in2="BackgroundImageFix" result="shape"/>
<feColorMatrix in="SourceAlpha" type="matrix" values="0 0 0 0 0 0 0 0 0 0 0 0 0 0 0 0 0 0 127 0" result="hardAlpha"/>
<feOffset/>
<feGaussianBlur stdDeviation="37"/>
<feComposite in2="hardAlpha" operator="arithmetic" k2="-1" k3="1"/>
<feColorMatrix type="matrix" values="0 0 0 0 1 0 0 0 0 1 0 0 0 0 1 0 0 0 0.25 0"/>
<feBlend mode="normal" in2="shape" result="effect1_innerShadow_16_9644"/>
</filter>
<filter id="filter4_i_16_9644" x="1972.42" y="1451.41" width="137.169" height="137.165" filterUnits="userSpaceOnUse" color-interpolation-filters="sRGB">
<feFlood flood-opacity="0" result="BackgroundImageFix"/>
<feBlend mode="normal" in="SourceGraphic" in2="BackgroundImageFix" result="shape"/>
<feColorMatrix in="SourceAlpha" type="matrix" values="0 0 0 0 0 0 0 0 0 0 0 0 0 0 0 0 0 0 127 0" result="hardAlpha"/>
<feOffset/>
<feGaussianBlur stdDeviation="12.6198"/>
<feComposite in2="hardAlpha" operator="arithmetic" k2="-1" k3="1"/>
<feColorMatrix type="matrix" values="0 0 0 0 0.917667 0 0 0 0 0.683333 0 0 0 0 1 0 0 0 0.65 0"/>
<feBlend mode="normal" in2="shape" result="effect1_innerShadow_16_9644"/>
</filter>
<filter id="filter5_i_16_9644" x="2149.14" y="1517.3" width="247.721" height="247.731" filterUnits="userSpaceOnUse" color-interpolation-filters="sRGB">
<feFlood flood-opacity="0" result="BackgroundImageFix"/>
<feBlend mode="normal" in="SourceGraphic" in2="BackgroundImageFix" result="shape"/>
<feColorMatrix in="SourceAlpha" type="matrix" values="0 0 0 0 0 0 0 0 0 0 0 0 0 0 0 0 0 0 127 0" result="hardAlpha"/>
<feOffset/>
<feGaussianBlur stdDeviation="12.6198"/>
<feComposite in2="hardAlpha" operator="arithmetic" k2="-1" k3="1"/>
<feColorMatrix type="matrix" values="0 0 0 0 0.917667 0 0 0 0 0.683333 0 0 0 0 1 0 0 0 0.65 0"/>
<feBlend mode="normal" in2="shape" result="effect1_innerShadow_16_9644"/>
</filter>
<filter id="filter6_i_16_9644" x="2110.29" y="1336.29" width="78.6631" height="78.6631" filterUnits="userSpaceOnUse" color-interpolation-filters="sRGB">
<feFlood flood-opacity="0" result="BackgroundImageFix"/>
<feBlend mode="normal" in="SourceGraphic" in2="BackgroundImageFix" result="shape"/>
<feColorMatrix in="SourceAlpha" type="matrix" values="0 0 0 0 0 0 0 0 0 0 0 0 0 0 0 0 0 0 127 0" result="hardAlpha"/>
<feOffset/>
<feGaussianBlur stdDeviation="12.6198"/>
<feComposite in2="hardAlpha" operator="arithmetic" k2="-1" k3="1"/>
<feColorMatrix type="matrix" values="0 0 0 0 0.917667 0 0 0 0 0.683333 0 0 0 0 1 0 0 0 0.65 0"/>
<feBlend mode="normal" in2="shape" result="effect1_innerShadow_16_9644"/>
</filter>
<filter id="filter7_i_16_9644" x="2523.89" y="1405.82" width="278.224" height="278.229" filterUnits="userSpaceOnUse" color-interpolation-filters="sRGB">
<feFlood flood-opacity="0" result="BackgroundImageFix"/>
<feBlend mode="normal" in="SourceGraphic" in2="BackgroundImageFix" result="shape"/>
<feColorMatrix in="SourceAlpha" type="matrix" values="0 0 0 0 0 0 0 0 0 0 0 0 0 0 0 0 0 0 127 0" result="hardAlpha"/>
<feOffset/>
<feGaussianBlur stdDeviation="12.6198"/>
<feComposite in2="hardAlpha" operator="arithmetic" k2="-1" k3="1"/>
<feColorMatrix type="matrix" values="0 0 0 0 0.917667 0 0 0 0 0.683333 0 0 0 0 1 0 0 0 0.65 0"/>
<feBlend mode="normal" in2="shape" result="effect1_innerShadow_16_9644"/>
</filter>
<filter id="filter8_i_16_9644" x="1607.6" y="1476.48" width="156.81" height="156.819" filterUnits="userSpaceOnUse" color-interpolation-filters="sRGB">
<feFlood flood-opacity="0" result="BackgroundImageFix"/>
<feBlend mode="normal" in="SourceGraphic" in2="BackgroundImageFix" result="shape"/>
<feColorMatrix in="SourceAlpha" type="matrix" values="0 0 0 0 0 0 0 0 0 0 0 0 0 0 0 0 0 0 127 0" result="hardAlpha"/>
<feOffset/>
<feGaussianBlur stdDeviation="16.5"/>
<feComposite in2="hardAlpha" operator="arithmetic" k2="-1" k3="1"/>
<feColorMatrix type="matrix" values="0 0 0 0 0.844 0 0 0 0 0.5125 0 0 0 0 1 0 0 0 0.56 0"/>
<feBlend mode="normal" in2="shape" result="effect1_innerShadow_16_9644"/>
</filter>
<filter id="filter9_i_16_9644" x="1299.26" y="1611.88" width="321.72" height="321.72" filterUnits="userSpaceOnUse" color-interpolation-filters="sRGB">
<feFlood flood-opacity="0" result="BackgroundImageFix"/>
<feBlend mode="normal" in="SourceGraphic" in2="BackgroundImageFix" result="shape"/>
<feColorMatrix in="SourceAlpha" type="matrix" values="0 0 0 0 0 0 0 0 0 0 0 0 0 0 0 0 0 0 127 0" result="hardAlpha"/>
<feOffset/>
<feGaussianBlur stdDeviation="13.5"/>
<feComposite in2="hardAlpha" operator="arithmetic" k2="-1" k3="1"/>
<feColorMatrix type="matrix" values="0 0 0 0 0.917667 0 0 0 0 0.683333 0 0 0 0 1 0 0 0 0.44 0"/>
<feBlend mode="normal" in2="shape" result="effect1_innerShadow_16_9644"/>
</filter>
<filter id="filter10_i_16_9644" x="1353.19" y="1428.49" width="79.6182" height="79.6167" filterUnits="userSpaceOnUse" color-interpolation-filters="sRGB">
<feFlood flood-opacity="0" result="BackgroundImageFix"/>
<feBlend mode="normal" in="SourceGraphic" in2="BackgroundImageFix" result="shape"/>
<feColorMatrix in="SourceAlpha" type="matrix" values="0 0 0 0 0 0 0 0 0 0 0 0 0 0 0 0 0 0 127 0" result="hardAlpha"/>
<feOffset/>
<feGaussianBlur stdDeviation="16.5"/>
<feComposite in2="hardAlpha" operator="arithmetic" k2="-1" k3="1"/>
<feColorMatrix type="matrix" values="0 0 0 0 0.844 0 0 0 0 0.5125 0 0 0 0 1 0 0 0 0.56 0"/>
<feBlend mode="normal" in2="shape" result="effect1_innerShadow_16_9644"/>
</filter>
<filter id="filter11_if_16_9644" x="1806.29" y="1033.29" width="25.8428" height="25.843" filterUnits="userSpaceOnUse" color-interpolation-filters="sRGB">
<feFlood flood-opacity="0" result="BackgroundImageFix"/>
<feBlend mode="normal" in="SourceGraphic" in2="BackgroundImageFix" result="shape"/>
<feColorMatrix in="SourceAlpha" type="matrix" values="0 0 0 0 0 0 0 0 0 0 0 0 0 0 0 0 0 0 127 0" result="hardAlpha"/>
<feOffset/>
<feGaussianBlur stdDeviation="12.6198"/>
<feComposite in2="hardAlpha" operator="arithmetic" k2="-1" k3="1"/>
<feColorMatrix type="matrix" values="0 0 0 0 0.917667 0 0 0 0 0.683333 0 0 0 0 1 0 0 0 0.65 0"/>
<feBlend mode="normal" in2="shape" result="effect1_innerShadow_16_9644"/>
<feGaussianBlur stdDeviation="2" result="effect2_foregroundBlur_16_9644"/>
</filter>
<filter id="filter12_if_16_9644" x="1837" y="1152" width="24.001" height="24.0005" filterUnits="userSpaceOnUse" color-interpolation-filters="sRGB">
<feFlood flood-opacity="0" result="BackgroundImageFix"/>
<feBlend mode="normal" in="SourceGraphic" in2="BackgroundImageFix" result="shape"/>
<feColorMatrix in="SourceAlpha" type="matrix" values="0 0 0 0 0 0 0 0 0 0 0 0 0 0 0 0 0 0 127 0" result="hardAlpha"/>
<feOffset/>
<feGaussianBlur stdDeviation="12.6198"/>
<feComposite in2="hardAlpha" operator="arithmetic" k2="-1" k3="1"/>
<feColorMatrix type="matrix" values="0 0 0 0 0.917667 0 0 0 0 0.683333 0 0 0 0 1 0 0 0 0.65 0"/>
<feBlend mode="normal" in2="shape" result="effect1_innerShadow_16_9644"/>
<feGaussianBlur stdDeviation="2" result="effect2_foregroundBlur_16_9644"/>
</filter>
<filter id="filter13_iif_16_9644" x="1378.15" y="1048.16" width="58.6982" height="57.6938" filterUnits="userSpaceOnUse" color-interpolation-filters="sRGB">
<feFlood flood-opacity="0" result="BackgroundImageFix"/>
<feBlend mode="normal" in="SourceGraphic" in2="BackgroundImageFix" result="shape"/>
<feColorMatrix in="SourceAlpha" type="matrix" values="0 0 0 0 0 0 0 0 0 0 0 0 0 0 0 0 0 0 127 0" result="hardAlpha"/>
<feOffset/>
<feGaussianBlur stdDeviation="13.5"/>
<feComposite in2="hardAlpha" operator="arithmetic" k2="-1" k3="1"/>
<feColorMatrix type="matrix" values="0 0 0 0 1 0 0 0 0 0.566083 0 0 0 0 0.470833 0 0 0 0.16 0"/>
<feBlend mode="normal" in2="shape" result="effect1_innerShadow_16_9644"/>
<feColorMatrix in="SourceAlpha" type="matrix" values="0 0 0 0 0 0 0 0 0 0 0 0 0 0 0 0 0 0 127 0" result="hardAlpha"/>
<feOffset dx="-15" dy="9"/>
<feGaussianBlur stdDeviation="12"/>
<feComposite in2="hardAlpha" operator="arithmetic" k2="-1" k3="1"/>
<feColorMatrix type="matrix" values="0 0 0 0 0.666667 0 0 0 0 0.317647 0 0 0 0 0.176471 0 0 0 0.24 0"/>
<feBlend mode="normal" in2="effect1_innerShadow_16_9644" result="effect2_innerShadow_16_9644"/>
<feGaussianBlur stdDeviation="7" result="effect3_foregroundBlur_16_9644"/>
</filter>
<filter id="filter14_i_16_9644" x="1843.83" y="1403.83" width="74.1709" height="77.1704" filterUnits="userSpaceOnUse" color-interpolation-filters="sRGB">
<feFlood flood-opacity="0" result="BackgroundImageFix"/>
<feBlend mode="normal" in="SourceGraphic" in2="BackgroundImageFix" result="shape"/>
<feColorMatrix in="SourceAlpha" type="matrix" values="0 0 0 0 0 0 0 0 0 0 0 0 0 0 0 0 0 0 127 0" result="hardAlpha"/>
<feOffset dx="8" dy="11"/>
<feGaussianBlur stdDeviation="8"/>
<feComposite in2="hardAlpha" operator="arithmetic" k2="-1" k3="1"/>
<feColorMatrix type="matrix" values="0 0 0 0 1 0 0 0 0 1 0 0 0 0 1 0 0 0 0.64 0"/>
<feBlend mode="normal" in2="shape" result="effect1_innerShadow_16_9644"/>
</filter>
<filter id="filter15_i_16_9644" x="1508" y="1398" width="67.168" height="77.168" filterUnits="userSpaceOnUse" color-interpolation-filters="sRGB">
<feFlood flood-opacity="0" result="BackgroundImageFix"/>
<feBlend mode="normal" in="SourceGraphic" in2="BackgroundImageFix" result="shape"/>
<feColorMatrix in="SourceAlpha" type="matrix" values="0 0 0 0 0 0 0 0 0 0 0 0 0 0 0 0 0 0 127 0" result="hardAlpha"/>
<feOffset dx="-1" dy="11"/>
<feGaussianBlur stdDeviation="8"/>
<feComposite in2="hardAlpha" operator="arithmetic" k2="-1" k3="1"/>
<feColorMatrix type="matrix" values="0 0 0 0 1 0 0 0 0 1 0 0 0 0 1 0 0 0 0.64 0"/>
<feBlend mode="normal" in2="shape" result="effect1_innerShadow_16_9644"/>
</filter>
<filter id="filter16_i_16_9644" x="2319.07" y="1356.05" width="125.861" height="125.872" filterUnits="userSpaceOnUse" color-interpolation-filters="sRGB">
<feFlood flood-opacity="0" result="BackgroundImageFix"/>
<feBlend mode="normal" in="SourceGraphic" in2="BackgroundImageFix" result="shape"/>
<feColorMatrix in="SourceAlpha" type="matrix" values="0 0 0 0 0 0 0 0 0 0 0 0 0 0 0 0 0 0 127 0" result="hardAlpha"/>
<feOffset/>
<feGaussianBlur stdDeviation="17.0176"/>
<feComposite in2="hardAlpha" operator="arithmetic" k2="-1" k3="1"/>
<feColorMatrix type="matrix" values="0 0 0 0 0.917667 0 0 0 0 0.683333 0 0 0 0 1 0 0 0 0.65 0"/>
<feBlend mode="normal" in2="shape" result="effect1_innerShadow_16_9644"/>
</filter>
<radialGradient id="paint0_radial_16_9644" cx="0" cy="0" r="1" gradientUnits="userSpaceOnUse" gradientTransform="translate(1253.1 1545.63) rotate(-135.511) scale(569.69 435.924)">
<stop offset="0.102238" stop-color="#75FFBD"/>
<stop offset="0.459781" stop-color="#49A232"/>
<stop offset="1" stop-color="#0063BE" stop-opacity="0"/>
</radialGradient>
<radialGradient id="paint1_radial_16_9644" cx="0" cy="0" r="1" gradientUnits="userSpaceOnUse" gradientTransform="translate(1613 1225) rotate(121.334) scale(927.827 1257.86)">
<stop offset="0.223958" stop-color="#6836D2"/>
<stop offset="0.729167" stop-color="#3659D2" stop-opacity="0.28"/>
<stop offset="1" stop-color="#32309B" stop-opacity="0"/>
</radialGradient>
<radialGradient id="paint2_radial_16_9644" cx="0" cy="0" r="1" gradientUnits="userSpaceOnUse" gradientTransform="translate(1612.5 1199.5) rotate(90) scale(663.081)">
<stop offset="0.210997" stop-color="#A5FBFF"/>
<stop offset="0.28815" stop-color="#86A1FF" stop-opacity="0.7"/>
<stop offset="0.729167" stop-color="#002ED2" stop-opacity="0.29"/>
<stop offset="1" stop-color="#120698" stop-opacity="0"/>
</radialGradient>
<radialGradient id="paint3_radial_16_9644" cx="0" cy="0" r="1" gradientUnits="userSpaceOnUse" gradientTransform="translate(1612.5 1199.5) rotate(90) scale(148.365)">
<stop offset="0.210997" stop-color="#A5D4FF"/>
<stop offset="0.90625" stop-color="#86A1FF" stop-opacity="0"/>
</radialGradient>
<radialGradient id="paint4_radial_16_9644" cx="0" cy="0" r="1" gradientUnits="userSpaceOnUse" gradientTransform="translate(2084 1574.5) rotate(-135.597) scale(146.777 133.389)">
<stop stop-color="#782617"/>
<stop offset="0.71875" stop-color="#EB6E53"/>
<stop offset="0.895833" stop-color="#DEFFFB"/>
</radialGradient>
<linearGradient id="paint5_linear_16_9644" x1="2024" y1="1487.5" x2="2051.5" y2="1535" gradientUnits="userSpaceOnUse">
<stop stop-color="#E6E6E6"/>
<stop offset="1" stop-color="#E6E6E6" stop-opacity="0"/>
</linearGradient>
<linearGradient id="paint6_linear_16_9644" x1="2024" y1="1487.5" x2="2051.5" y2="1535" gradientUnits="userSpaceOnUse">
<stop stop-color="#E6E6E6"/>
<stop offset="1" stop-color="#E6E6E6" stop-opacity="0"/>
</linearGradient>
<linearGradient id="paint7_linear_16_9644" x1="2024" y1="1487.5" x2="2051.5" y2="1535" gradientUnits="userSpaceOnUse">
<stop stop-color="#E6E6E6"/>
<stop offset="1" stop-color="#E6E6E6" stop-opacity="0"/>
</linearGradient>
<radialGradient id="paint8_radial_16_9644" cx="0" cy="0" r="1" gradientUnits="userSpaceOnUse" gradientTransform="translate(2353.88 1703.48) rotate(-142.211) scale(243.725 221.494)">
<stop offset="0.175179" stop-color="#070653"/>
<stop offset="0.71875" stop-color="#9D0488"/>
<stop offset="0.895833" stop-color="#DEFFFB"/>
</radialGradient>
<linearGradient id="paint9_linear_16_9644" x1="2232.5" y1="1594.5" x2="2306" y2="1677" gradientUnits="userSpaceOnUse">
<stop stop-color="white"/>
<stop offset="1" stop-color="white" stop-opacity="0"/>
</linearGradient>
<linearGradient id="paint10_linear_16_9644" x1="2232.5" y1="1594.5" x2="2306" y2="1677" gradientUnits="userSpaceOnUse">
<stop stop-color="white"/>
<stop offset="1" stop-color="white" stop-opacity="0"/>
</linearGradient>
<linearGradient id="paint11_linear_16_9644" x1="2232.5" y1="1594.5" x2="2306" y2="1677" gradientUnits="userSpaceOnUse">
<stop stop-color="white"/>
<stop offset="1" stop-color="white" stop-opacity="0"/>
</linearGradient>
<linearGradient id="paint12_linear_16_9644" x1="2232.5" y1="1594.5" x2="2306" y2="1677" gradientUnits="userSpaceOnUse">
<stop stop-color="white"/>
<stop offset="1" stop-color="white" stop-opacity="0"/>
</linearGradient>
<linearGradient id="paint13_linear_16_9644" x1="2232.5" y1="1594.5" x2="2306" y2="1677" gradientUnits="userSpaceOnUse">
<stop stop-color="white"/>
<stop offset="1" stop-color="white" stop-opacity="0"/>
</linearGradient>
<linearGradient id="paint14_linear_16_9644" x1="2232.5" y1="1594.5" x2="2306" y2="1677" gradientUnits="userSpaceOnUse">
<stop stop-color="white"/>
<stop offset="1" stop-color="white" stop-opacity="0"/>
</linearGradient>
<linearGradient id="paint15_linear_16_9644" x1="2232.5" y1="1594.5" x2="2306" y2="1677" gradientUnits="userSpaceOnUse">
<stop stop-color="white"/>
<stop offset="1" stop-color="white" stop-opacity="0"/>
</linearGradient>
<radialGradient id="paint16_radial_16_9644" cx="0" cy="0" r="1" gradientUnits="userSpaceOnUse" gradientTransform="translate(2602.24 1984.25) rotate(-130.386) scale(395.01 395.01)">
<stop offset="0.473925" stop-color="#07090F"/>
<stop offset="0.702566" stop-color="#07193E"/>
<stop offset="0.926338" stop-color="#015980"/>
</radialGradient>
<linearGradient id="paint17_linear_16_9644" x1="2261.5" y1="1659.5" x2="2521.28" y2="1857.78" gradientUnits="userSpaceOnUse">
<stop stop-color="white"/>
<stop offset="1" stop-color="white" stop-opacity="0"/>
</linearGradient>
<linearGradient id="paint18_linear_16_9644" x1="2261.5" y1="1659.5" x2="2521.28" y2="1857.78" gradientUnits="userSpaceOnUse">
<stop stop-color="white"/>
<stop offset="1" stop-color="white" stop-opacity="0"/>
</linearGradient>
<linearGradient id="paint19_linear_16_9644" x1="2261.5" y1="1659.5" x2="2521.28" y2="1857.78" gradientUnits="userSpaceOnUse">
<stop stop-color="white"/>
<stop offset="1" stop-color="white" stop-opacity="0"/>
</linearGradient>
<linearGradient id="paint20_linear_16_9644" x1="2261.5" y1="1659.5" x2="2521.28" y2="1857.78" gradientUnits="userSpaceOnUse">
<stop stop-color="white"/>
<stop offset="1" stop-color="white" stop-opacity="0"/>
</linearGradient>
<radialGradient id="paint21_radial_16_9644" cx="0" cy="0" r="1" gradientUnits="userSpaceOnUse" gradientTransform="translate(2175.31 1395.41) rotate(-142.211) scale(77.3929 70.3335)">
<stop stop-color="#1F1D22"/>
<stop offset="0.546875" stop-color="#A7241F"/>
<stop offset="0.71875" stop-color="#D32F26"/>
<stop offset="0.895833" stop-color="#DEFFFB"/>
</radialGradient>
<linearGradient id="paint22_linear_16_9644" x1="2136.62" y1="1366.5" x2="2153.12" y2="1388" gradientUnits="userSpaceOnUse">
<stop stop-color="#D85A61"/>
<stop offset="1" stop-color="white" stop-opacity="0"/>
</linearGradient>
<radialGradient id="paint23_radial_16_9644" cx="0" cy="0" r="1" gradientUnits="userSpaceOnUse" gradientTransform="translate(2202.52 1273.93) rotate(-147.296) scale(43.7411 43.7412)">
<stop offset="0.59537" stop-color="#111111"/>
<stop offset="0.895026" stop-color="#433649"/>
</radialGradient>
<linearGradient id="paint24_linear_16_9644" x1="2127.17" y1="1258.51" x2="2201.91" y2="1278.01" gradientUnits="userSpaceOnUse">
<stop stop-color="white"/>
<stop offset="1" stop-color="white" stop-opacity="0"/>
</linearGradient>
<radialGradient id="paint25_radial_16_9644" cx="0" cy="0" r="1" gradientUnits="userSpaceOnUse" gradientTransform="translate(2369.24 1219.87) rotate(-157.211) scale(58.114 52.813)">
<stop stop-color="#5C2F2D"/>
<stop offset="0.546875" stop-color="#A55C5A"/>
<stop offset="0.71875" stop-color="#EAA2A0"/>
<stop offset="0.895833" stop-color="#DEFFFB"/>
</radialGradient>
<linearGradient id="paint26_linear_16_9644" x1="2322.12" y1="1200.38" x2="2354.72" y2="1220.25" gradientUnits="userSpaceOnUse">
<stop stop-color="white"/>
<stop offset="1" stop-color="white" stop-opacity="0"/>
</linearGradient>
<radialGradient id="paint27_radial_16_9644" cx="0" cy="0" r="1" gradientUnits="userSpaceOnUse" gradientTransform="translate(2753.84 1614.92) rotate(-142.211) scale(273.729 248.76)">
<stop stop-color="#DC385E"/>
<stop offset="0.546875" stop-color="#784A97"/>
<stop offset="0.71875" stop-color="#138CCF"/>
<stop offset="0.895833" stop-color="#DEFFFB"/>
</radialGradient>
<linearGradient id="paint28_linear_16_9644" x1="2586.5" y1="1505.5" x2="2727.5" y2="1584.5" gradientUnits="userSpaceOnUse">
<stop stop-color="#E6E6E6"/>
<stop offset="1" stop-color="#E6E6E6" stop-opacity="0"/>
</linearGradient>
<linearGradient id="paint29_linear_16_9644" x1="2586.5" y1="1505.5" x2="2727.5" y2="1584.5" gradientUnits="userSpaceOnUse">
<stop stop-color="#E6E6E6"/>
<stop offset="1" stop-color="#E6E6E6" stop-opacity="0"/>
</linearGradient>
<linearGradient id="paint30_linear_16_9644" x1="2586.5" y1="1505.5" x2="2727.5" y2="1584.5" gradientUnits="userSpaceOnUse">
<stop stop-color="#E6E6E6"/>
<stop offset="1" stop-color="#E6E6E6" stop-opacity="0"/>
</linearGradient>
<linearGradient id="paint31_linear_16_9644" x1="2586.5" y1="1505.5" x2="2727.5" y2="1584.5" gradientUnits="userSpaceOnUse">
<stop stop-color="#E6E6E6"/>
<stop offset="1" stop-color="#E6E6E6" stop-opacity="0"/>
</linearGradient>
<linearGradient id="paint32_linear_16_9644" x1="2586.5" y1="1505.5" x2="2727.5" y2="1584.5" gradientUnits="userSpaceOnUse">
<stop stop-color="#E6E6E6"/>
<stop offset="1" stop-color="#E6E6E6" stop-opacity="0"/>
</linearGradient>
<linearGradient id="paint33_linear_16_9644" x1="2586.5" y1="1505.5" x2="2727.5" y2="1584.5" gradientUnits="userSpaceOnUse">
<stop stop-color="#E6E6E6"/>
<stop offset="1" stop-color="#E6E6E6" stop-opacity="0"/>
</linearGradient>
<linearGradient id="paint34_linear_16_9644" x1="2586.5" y1="1505.5" x2="2727.5" y2="1584.5" gradientUnits="userSpaceOnUse">
<stop stop-color="#E6E6E6"/>
<stop offset="1" stop-color="#E6E6E6" stop-opacity="0"/>
</linearGradient>
<radialGradient id="paint35_radial_16_9644" cx="0" cy="0" r="1" gradientUnits="userSpaceOnUse" gradientTransform="translate(1691.92 1621.46) rotate(-96.4398) scale(168.274 149.869)">
<stop stop-color="#182069"/>
<stop offset="0.723958" stop-color="#202DA2"/>
<stop offset="0.880208" stop-color="#FFE7D1"/>
</radialGradient>
<linearGradient id="paint36_linear_16_9644" x1="1672.35" y1="1515.64" x2="1689.67" y2="1582.3" gradientUnits="userSpaceOnUse">
<stop stop-color="white"/>
<stop offset="1" stop-color="#E6E6E6" stop-opacity="0"/>
</linearGradient>
<linearGradient id="paint37_linear_16_9644" x1="1672.35" y1="1515.64" x2="1689.67" y2="1582.3" gradientUnits="userSpaceOnUse">
<stop stop-color="white"/>
<stop offset="1" stop-color="#E6E6E6" stop-opacity="0"/>
</linearGradient>
<radialGradient id="paint38_radial_16_9644" cx="0" cy="0" r="1" gradientUnits="userSpaceOnUse" gradientTransform="translate(1532.4 1978.81) rotate(-115.046) scale(462.281)">
<stop offset="0.630208" stop-color="#00C2FF"/>
<stop offset="1" stop-color="white"/>
</radialGradient>
<radialGradient id="paint39_radial_16_9644" cx="0" cy="0" r="1" gradientUnits="userSpaceOnUse" gradientTransform="translate(1460.78 1611.3) rotate(88.5518) scale(369.484)">
<stop stop-color="#FFA3A3" stop-opacity="0"/>
<stop offset="0.737543" stop-color="#2F425E"/>
</radialGradient>
<linearGradient id="paint40_linear_16_9644" x1="1500.48" y1="1731.04" x2="1423.48" y2="1817.4" gradientUnits="userSpaceOnUse">
<stop stop-color="white"/>
<stop offset="1" stop-color="white" stop-opacity="0"/>
</linearGradient>
<linearGradient id="paint41_linear_16_9644" x1="1500.48" y1="1731.04" x2="1423.48" y2="1817.4" gradientUnits="userSpaceOnUse">
<stop stop-color="white"/>
<stop offset="1" stop-color="white" stop-opacity="0"/>
</linearGradient>
<linearGradient id="paint42_linear_16_9644" x1="1521" y1="1672.5" x2="1459.51" y2="1831.86" gradientUnits="userSpaceOnUse">
<stop stop-color="white"/>
<stop offset="1" stop-color="white" stop-opacity="0"/>
</linearGradient>
<linearGradient id="paint43_linear_16_9644" x1="1521" y1="1672.5" x2="1459.51" y2="1831.86" gradientUnits="userSpaceOnUse">
<stop stop-color="white"/>
<stop offset="1" stop-color="white" stop-opacity="0"/>
</linearGradient>
<linearGradient id="paint44_linear_16_9644" x1="1521" y1="1672.5" x2="1459.51" y2="1831.86" gradientUnits="userSpaceOnUse">
<stop stop-color="white"/>
<stop offset="1" stop-color="white" stop-opacity="0"/>
</linearGradient>
<linearGradient id="paint45_linear_16_9644" x1="1521" y1="1672.5" x2="1459.51" y2="1831.86" gradientUnits="userSpaceOnUse">
<stop stop-color="white"/>
<stop offset="1" stop-color="white" stop-opacity="0"/>
</linearGradient>
<radialGradient id="paint46_radial_16_9644" cx="0" cy="0" r="1" gradientUnits="userSpaceOnUse" gradientTransform="translate(1371.22 1494.32) rotate(-51.4398) scale(85.4362 76.0917)">
<stop offset="0.560698" stop-color="#102F33"/>
<stop offset="0.775173" stop-color="#5898A3"/>
<stop offset="0.880208" stop-color="#FFE7D1"/>
</radialGradient>
<linearGradient id="paint47_linear_16_9644" x1="1408.02" y1="1454.41" x2="1384.51" y2="1489.34" gradientUnits="userSpaceOnUse">
<stop stop-color="#6687A6"/>
<stop offset="1" stop-color="#313D55"/>
</linearGradient>
<linearGradient id="paint48_linear_16_9644" x1="1408.02" y1="1454.41" x2="1384.51" y2="1489.34" gradientUnits="userSpaceOnUse">
<stop stop-color="#6687A6"/>
<stop offset="1" stop-color="#313D55"/>
</linearGradient>
<radialGradient id="paint49_radial_16_9644" cx="0" cy="0" r="1" gradientUnits="userSpaceOnUse" gradientTransform="translate(1823.68 1052.05) rotate(-127.211) scale(17.5523 15.9514)">
<stop stop-color="#4F40AB"/>
<stop offset="0.546875" stop-color="#903BAE"/>
<stop offset="0.71875" stop-color="#EB6E53"/>
<stop offset="0.895833" stop-color="#DEFFFB"/>
</radialGradient>
<radialGradient id="paint50_radial_16_9644" cx="0" cy="0" r="1" gradientUnits="userSpaceOnUse" gradientTransform="translate(2124.5 1170.5) rotate(-174.523) scale(36.6674)">
<stop offset="0.59537" stop-color="#606528"/>
<stop offset="0.953125" stop-color="#D3BA35"/>
</radialGradient>
<linearGradient id="paint51_linear_16_9644" x1="2104" y1="1168.62" x2="2120.5" y2="1169" gradientUnits="userSpaceOnUse">
<stop stop-color="white"/>
<stop offset="1" stop-color="white" stop-opacity="0"/>
</linearGradient>
<radialGradient id="paint52_radial_16_9644" cx="0" cy="0" r="1" gradientUnits="userSpaceOnUse" gradientTransform="translate(1855.54 1164.85) rotate(-172.789) scale(15.7419 14.3058)">
<stop stop-color="#4F40AB"/>
<stop offset="0.546875" stop-color="#903BAE"/>
<stop offset="0.71875" stop-color="#EB6E53"/>
<stop offset="0.895833" stop-color="#DEFFFB"/>
</radialGradient>
<radialGradient id="paint53_radial_16_9644" cx="0" cy="0" r="1" gradientUnits="userSpaceOnUse" gradientTransform="translate(1402 1056) rotate(65.8209) scale(26.8561)">
<stop offset="0.59537" stop-color="#625959"/>
<stop offset="0.895026" stop-color="#842CAD"/>
</radialGradient>
<radialGradient id="paint54_radial_16_9644" cx="0" cy="0" r="1" gradientUnits="userSpaceOnUse" gradientTransform="translate(1965.23 1300.07) rotate(-162.296) scale(50.1806 50.1808)">
<stop stop-color="#0B2831"/>
<stop offset="0.640625" stop-color="#711980"/>
<stop offset="1" stop-color="#57C3FF"/>
</radialGradient>
<linearGradient id="paint55_linear_16_9644" x1="1937" y1="1286" x2="1960" y2="1304.5" gradientUnits="userSpaceOnUse">
<stop stop-color="white"/>
<stop offset="1" stop-color="#575392" stop-opacity="0"/>
</linearGradient>
<radialGradient id="paint56_radial_16_9644" cx="0" cy="0" r="1" gradientUnits="userSpaceOnUse" gradientTransform="translate(1892.15 1450.94) rotate(-137.704) scale(61.1155)">
<stop offset="0.53125" stop-color="#3C8254"/>
<stop offset="0.59537" stop-color="#3C8254"/>
<stop offset="0.895026" stop-color="#52B775"/>
</radialGradient>
<linearGradient id="paint57_linear_16_9644" x1="1857.38" y1="1420.55" x2="1889.7" y2="1450.96" gradientUnits="userSpaceOnUse">
<stop stop-color="white"/>
<stop offset="1" stop-color="white" stop-opacity="0"/>
</linearGradient>
<linearGradient id="paint58_linear_16_9644" x1="1857.38" y1="1420.55" x2="1889.7" y2="1450.96" gradientUnits="userSpaceOnUse">
<stop stop-color="white"/>
<stop offset="1" stop-color="white" stop-opacity="0"/>
</linearGradient>
<linearGradient id="paint59_linear_16_9644" x1="1857.38" y1="1420.55" x2="1889.7" y2="1450.96" gradientUnits="userSpaceOnUse">
<stop stop-color="white"/>
<stop offset="1" stop-color="white" stop-opacity="0"/>
</linearGradient>
<linearGradient id="paint60_linear_16_9644" x1="1857.38" y1="1420.55" x2="1889.7" y2="1450.96" gradientUnits="userSpaceOnUse">
<stop stop-color="white"/>
<stop offset="1" stop-color="white" stop-opacity="0"/>
</linearGradient>
<linearGradient id="paint61_linear_16_9644" x1="1857.38" y1="1420.55" x2="1889.7" y2="1450.96" gradientUnits="userSpaceOnUse">
<stop stop-color="white"/>
<stop offset="1" stop-color="white" stop-opacity="0"/>
</linearGradient>
<linearGradient id="paint62_linear_16_9644" x1="1857.38" y1="1420.55" x2="1889.7" y2="1450.96" gradientUnits="userSpaceOnUse">
<stop stop-color="white"/>
<stop offset="1" stop-color="white" stop-opacity="0"/>
</linearGradient>
<linearGradient id="paint63_linear_16_9644" x1="1857.38" y1="1420.55" x2="1889.7" y2="1450.96" gradientUnits="userSpaceOnUse">
<stop stop-color="white"/>
<stop offset="1" stop-color="white" stop-opacity="0"/>
</linearGradient>
<linearGradient id="paint64_linear_16_9644" x1="1857.38" y1="1420.55" x2="1889.7" y2="1450.96" gradientUnits="userSpaceOnUse">
<stop stop-color="white"/>
<stop offset="1" stop-color="white" stop-opacity="0"/>
</linearGradient>
<linearGradient id="paint65_linear_16_9644" x1="1857.38" y1="1420.55" x2="1889.7" y2="1450.96" gradientUnits="userSpaceOnUse">
<stop stop-color="white"/>
<stop offset="1" stop-color="white" stop-opacity="0"/>
</linearGradient>
<linearGradient id="paint66_linear_16_9644" x1="1857.38" y1="1420.55" x2="1889.7" y2="1450.96" gradientUnits="userSpaceOnUse">
<stop stop-color="white"/>
<stop offset="1" stop-color="white" stop-opacity="0"/>
</linearGradient>
<linearGradient id="paint67_linear_16_9644" x1="1857.38" y1="1420.55" x2="1889.7" y2="1450.96" gradientUnits="userSpaceOnUse">
<stop stop-color="white"/>
<stop offset="1" stop-color="white" stop-opacity="0"/>
</linearGradient>
<linearGradient id="paint68_linear_16_9644" x1="1857.38" y1="1420.55" x2="1889.7" y2="1450.96" gradientUnits="userSpaceOnUse">
<stop stop-color="white"/>
<stop offset="1" stop-color="white" stop-opacity="0"/>
</linearGradient>
<linearGradient id="paint69_linear_16_9644" x1="1857.38" y1="1420.55" x2="1889.7" y2="1450.96" gradientUnits="userSpaceOnUse">
<stop stop-color="white"/>
<stop offset="1" stop-color="white" stop-opacity="0"/>
</linearGradient>
<linearGradient id="paint70_linear_16_9644" x1="1857.38" y1="1420.55" x2="1889.7" y2="1450.96" gradientUnits="userSpaceOnUse">
<stop stop-color="white"/>
<stop offset="1" stop-color="white" stop-opacity="0"/>
</linearGradient>
<radialGradient id="paint71_radial_16_9644" cx="0" cy="0" r="1" gradientUnits="userSpaceOnUse" gradientTransform="translate(1534.99 1450.54) rotate(-70.3104) scale(61.1155)">
<stop offset="0.59537" stop-color="#2C6941"/>
<stop offset="0.895026" stop-color="#52B775"/>
</radialGradient>
<linearGradient id="paint72_linear_16_9644" x1="1556" y1="1412" x2="1530" y2="1441" gradientUnits="userSpaceOnUse">
<stop stop-color="white"/>
<stop offset="1" stop-color="white" stop-opacity="0"/>
</linearGradient>
<linearGradient id="paint73_linear_16_9644" x1="1556" y1="1412" x2="1530" y2="1441" gradientUnits="userSpaceOnUse">
<stop stop-color="white"/>
<stop offset="1" stop-color="white" stop-opacity="0"/>
</linearGradient>
<linearGradient id="paint74_linear_16_9644" x1="1556" y1="1412" x2="1530" y2="1441" gradientUnits="userSpaceOnUse">
<stop stop-color="white"/>
<stop offset="1" stop-color="white" stop-opacity="0"/>
</linearGradient>
<linearGradient id="paint75_linear_16_9644" x1="1556" y1="1412" x2="1530" y2="1441" gradientUnits="userSpaceOnUse">
<stop stop-color="white"/>
<stop offset="1" stop-color="white" stop-opacity="0"/>
</linearGradient>
<radialGradient id="paint76_radial_16_9644" cx="0" cy="0" r="1" gradientUnits="userSpaceOnUse" gradientTransform="translate(1296.3 1351.85) rotate(-32.7044) scale(48.2217)">
<stop offset="0.59537" stop-color="#221FB7"/>
<stop offset="1" stop-color="#C5F4FF"/>
</radialGradient>
<linearGradient id="paint77_linear_16_9644" x1="1323" y1="1334" x2="1301" y2="1355" gradientUnits="userSpaceOnUse">
<stop stop-color="white"/>
<stop offset="1" stop-color="#00F2FE" stop-opacity="0"/>
</linearGradient>
<linearGradient id="paint78_linear_16_9644" x1="1323" y1="1334" x2="1301" y2="1355" gradientUnits="userSpaceOnUse">
<stop stop-color="white"/>
<stop offset="1" stop-color="#00F2FE" stop-opacity="0"/>
</linearGradient>
<radialGradient id="paint79_radial_16_9644" cx="0" cy="0" r="1" gradientUnits="userSpaceOnUse" gradientTransform="translate(2423.09 1450.65) rotate(-142.211) scale(123.833 112.537)">
<stop stop-color="#AC3631"/>
<stop offset="0.546875" stop-color="#FF564F"/>
<stop offset="0.71875" stop-color="#EB6E53"/>
<stop offset="0.895833" stop-color="#DEFFFB"/>
</radialGradient>
<linearGradient id="paint80_linear_16_9644" x1="2346.94" y1="1397.43" x2="2406.95" y2="1433.84" gradientUnits="userSpaceOnUse">
<stop stop-color="white"/>
<stop offset="1" stop-color="white" stop-opacity="0"/>
</linearGradient>
<linearGradient id="paint81_linear_16_9644" x1="2346.94" y1="1397.43" x2="2406.95" y2="1433.84" gradientUnits="userSpaceOnUse">
<stop stop-color="white"/>
<stop offset="1" stop-color="white" stop-opacity="0"/>
</linearGradient>
<radialGradient id="paint82_radial_16_9644" cx="0" cy="0" r="1" gradientUnits="userSpaceOnUse" gradientTransform="translate(2588.34 1294.89) rotate(-167.704) scale(79.6806)">
<stop stop-color="#010044"/>
<stop offset="0.640625" stop-color="#221FB7"/>
<stop offset="1" stop-color="#C5F4FF"/>
</radialGradient>
<linearGradient id="paint83_linear_16_9644" x1="2546.5" y1="1277" x2="2584.5" y2="1285" gradientUnits="userSpaceOnUse">
<stop stop-color="#EBEBEB"/>
<stop offset="1" stop-color="#EBEBEB" stop-opacity="0"/>
</linearGradient>
<radialGradient id="paint84_radial_16_9644" cx="0" cy="0" r="1" gradientUnits="userSpaceOnUse" gradientTransform="translate(1954.73 1145.92) rotate(-167.704) scale(34.3233 34.3234)">
<stop offset="0.59537" stop-color="#243748"/>
<stop offset="0.895026" stop-color="#CDCDCD"/>
</radialGradient>
<linearGradient id="paint85_linear_16_9644" x1="1934.05" y1="1143.31" x2="1953.98" y2="1143.31" gradientUnits="userSpaceOnUse">
<stop stop-color="#D2F0F0"/>
<stop offset="1" stop-color="#F0E6B4" stop-opacity="0"/>
</linearGradient>
<linearGradient id="paint86_linear_16_9644" x1="1934.05" y1="1143.31" x2="1953.98" y2="1143.31" gradientUnits="userSpaceOnUse">
<stop stop-color="#D2F0F0"/>
<stop offset="1" stop-color="#F0E6B4" stop-opacity="0"/>
</linearGradient>
<clipPath id="clip0_16_9644">
<rect width="3217" height="2604" fill="white"/>
</clipPath>
</defs>
</svg>
