<svg width="715" height="499" viewBox="0 0 715 499" fill="none" xmlns="http://www.w3.org/2000/svg">
<g filter="url(#filter0_b_1_276)">
<path d="M241.108 198.582L349.135 222.758L349.155 293.441L241.127 317.618L133.1 293.441L133.08 222.758L241.108 198.582Z" fill="url(#paint0_linear_1_276)" fill-opacity="0.4"/>
</g>
<path d="M135.018 223.729L241.108 199.986L347.197 223.729V268.979L241.108 292.722L135.018 268.979V223.729Z" stroke="#0080FF" stroke-width="3.876"/>
<path d="M241.108 198L349.135 222.177V270.531L241.108 294.708L133.08 270.531V222.177L241.108 198Z" fill="#111111"/>
<g filter="url(#filter1_b_1_276)">
<path d="M473.844 198.582L581.871 222.758L581.891 293.441L473.863 317.618L365.836 293.441L365.816 222.758L473.844 198.582Z" fill="url(#paint1_linear_1_276)" fill-opacity="0.4"/>
</g>
<path d="M367.753 223.729L473.843 199.986L579.932 223.729V268.979L473.843 292.722L367.753 268.979V223.729Z" stroke="#0080FF" stroke-width="3.876"/>
<path d="M473.843 198L581.87 222.177V270.531L473.843 294.708L365.815 270.531V222.177L473.843 198Z" fill="#111111"/>
<g filter="url(#filter2_b_1_276)">
<path d="M124.74 289.668L232.768 313.845L232.788 384.528L124.76 408.704L16.7324 384.528L16.7129 313.845L124.74 289.668Z" fill="url(#paint2_linear_1_276)" fill-opacity="0.4"/>
</g>
<path d="M18.6499 314.815L124.739 291.072L230.829 314.815V360.065L124.739 383.808L18.6499 360.065V314.815Z" stroke="#0080FF" stroke-width="3.876"/>
<path d="M124.739 289.086L232.767 313.263V361.617L124.739 385.794L16.7119 361.617V313.263L124.739 289.086Z" fill="#111111"/>
<g filter="url(#filter3_b_1_276)">
<path d="M357.476 289.668L465.503 313.845L465.523 384.527L357.495 408.704L249.468 384.527L249.448 313.845L357.476 289.668Z" fill="url(#paint3_linear_1_276)" fill-opacity="0.4"/>
</g>
<path d="M251.386 314.815L357.476 291.072L463.565 314.815V360.065L357.476 383.808L251.386 360.065V314.815Z" stroke="#0080FF" stroke-width="3.876"/>
<path d="M357.476 289.086L465.503 313.263V361.617L357.476 385.794L249.448 361.617V313.263L357.476 289.086Z" fill="#111111"/>
<g filter="url(#filter4_b_1_276)">
<path d="M590.212 289.668L698.24 313.845L698.259 384.527L590.232 408.704L482.204 384.527L482.185 313.845L590.212 289.668Z" fill="url(#paint4_linear_1_276)" fill-opacity="0.4"/>
</g>
<path d="M484.123 314.815L590.212 291.072L696.302 314.815V360.065L590.212 383.808L484.123 360.065V314.815Z" stroke="#0080FF" stroke-width="3.876"/>
<path d="M590.212 289.086L698.24 313.263V361.617L590.212 385.794L482.185 361.617V313.263L590.212 289.086Z" fill="#111111"/>
<g filter="url(#filter5_b_1_276)">
<path d="M241.108 379.516L349.135 403.693L349.155 474.376L241.127 498.553L133.1 474.376L133.08 403.693L241.108 379.516Z" fill="url(#paint5_linear_1_276)" fill-opacity="0.4"/>
</g>
<path d="M135.018 404.664L241.108 380.921L347.197 404.664V449.913L241.108 473.656L135.018 449.913V404.664Z" stroke="#0080FF" stroke-width="3.876"/>
<path d="M241.108 378.935L349.135 403.112V451.465L241.108 475.642L133.08 451.465V403.112L241.108 378.935Z" fill="#111111"/>
<g filter="url(#filter6_b_1_276)">
<path d="M473.844 379.516L581.871 403.693L581.891 474.376L473.863 498.553L365.836 474.376L365.816 403.693L473.844 379.516Z" fill="url(#paint6_linear_1_276)" fill-opacity="0.4"/>
</g>
<path d="M367.753 404.664L473.843 380.921L579.932 404.664V449.913L473.843 473.656L367.753 449.913V404.664Z" stroke="#0080FF" stroke-width="3.876"/>
<path d="M473.843 378.935L581.87 403.112V451.465L473.843 475.642L365.815 451.465V403.112L473.843 378.935Z" fill="#111111"/>
<path fill-rule="evenodd" clip-rule="evenodd" d="M241.108 201.972L136.956 225.281V267.426L241.108 290.736L345.259 267.426V225.281L241.108 201.972ZM349.135 222.177L241.108 198L133.08 222.177V270.531L241.108 294.708L349.135 270.531V222.177ZM473.843 201.972L369.691 225.281V267.426L473.843 290.736L577.994 267.426V225.281L473.843 201.972ZM581.87 222.177L473.843 198L365.815 222.177V270.531L473.843 294.708L581.87 270.531V222.177ZM20.5879 316.367L124.739 293.058L228.891 316.367V358.512L124.739 381.822L20.5879 358.512V316.367ZM124.739 289.086L232.767 313.263V361.617L124.739 385.794L16.7119 361.617V313.263L124.739 289.086ZM357.476 293.058L253.324 316.367V358.512L357.476 381.822L461.627 358.512V316.367L357.476 293.058ZM465.503 313.263L357.476 289.086L249.448 313.263V361.617L357.476 385.794L465.503 361.617V313.263ZM486.061 316.367L590.212 293.058L694.364 316.367V358.512L590.212 381.822L486.061 358.512V316.367ZM590.212 289.086L698.24 313.263V361.617L590.212 385.794L482.185 361.617V313.263L590.212 289.086ZM241.108 382.906L136.956 406.216V448.361L241.108 471.671L345.259 448.361V406.216L241.108 382.906ZM349.135 403.112L241.108 378.935L133.08 403.112V451.465L241.108 475.642L349.135 451.465V403.112ZM369.691 406.216L473.843 382.906L577.994 406.216V448.361L473.843 471.671L369.691 448.361V406.216ZM473.843 378.935L581.87 403.112V451.465L473.843 475.642L365.815 451.465V403.112L473.843 378.935Z" fill="url(#paint7_radial_1_276)"/>
<path d="M493.525 194.359C473.159 270.327 395.034 315.409 319.027 295.054C243.02 274.698 197.914 196.613 218.28 120.646C238.646 44.6785 316.772 -0.403872 392.779 19.9515C468.785 40.3069 513.891 118.392 493.525 194.359Z" fill="url(#paint8_radial_1_276)"/>
<defs>
<filter id="filter0_b_1_276" x="99.0801" y="164.582" width="284.075" height="187.036" filterUnits="userSpaceOnUse" color-interpolation-filters="sRGB">
<feFlood flood-opacity="0" result="BackgroundImageFix"/>
<feGaussianBlur in="BackgroundImage" stdDeviation="17"/>
<feComposite in2="SourceAlpha" operator="in" result="effect1_backgroundBlur_1_276"/>
<feBlend mode="normal" in="SourceGraphic" in2="effect1_backgroundBlur_1_276" result="shape"/>
</filter>
<filter id="filter1_b_1_276" x="331.816" y="164.582" width="284.075" height="187.036" filterUnits="userSpaceOnUse" color-interpolation-filters="sRGB">
<feFlood flood-opacity="0" result="BackgroundImageFix"/>
<feGaussianBlur in="BackgroundImage" stdDeviation="17"/>
<feComposite in2="SourceAlpha" operator="in" result="effect1_backgroundBlur_1_276"/>
<feBlend mode="normal" in="SourceGraphic" in2="effect1_backgroundBlur_1_276" result="shape"/>
</filter>
<filter id="filter2_b_1_276" x="-17.2871" y="255.668" width="284.075" height="187.036" filterUnits="userSpaceOnUse" color-interpolation-filters="sRGB">
<feFlood flood-opacity="0" result="BackgroundImageFix"/>
<feGaussianBlur in="BackgroundImage" stdDeviation="17"/>
<feComposite in2="SourceAlpha" operator="in" result="effect1_backgroundBlur_1_276"/>
<feBlend mode="normal" in="SourceGraphic" in2="effect1_backgroundBlur_1_276" result="shape"/>
</filter>
<filter id="filter3_b_1_276" x="215.448" y="255.668" width="284.075" height="187.036" filterUnits="userSpaceOnUse" color-interpolation-filters="sRGB">
<feFlood flood-opacity="0" result="BackgroundImageFix"/>
<feGaussianBlur in="BackgroundImage" stdDeviation="17"/>
<feComposite in2="SourceAlpha" operator="in" result="effect1_backgroundBlur_1_276"/>
<feBlend mode="normal" in="SourceGraphic" in2="effect1_backgroundBlur_1_276" result="shape"/>
</filter>
<filter id="filter4_b_1_276" x="448.185" y="255.668" width="284.075" height="187.036" filterUnits="userSpaceOnUse" color-interpolation-filters="sRGB">
<feFlood flood-opacity="0" result="BackgroundImageFix"/>
<feGaussianBlur in="BackgroundImage" stdDeviation="17"/>
<feComposite in2="SourceAlpha" operator="in" result="effect1_backgroundBlur_1_276"/>
<feBlend mode="normal" in="SourceGraphic" in2="effect1_backgroundBlur_1_276" result="shape"/>
</filter>
<filter id="filter5_b_1_276" x="99.0801" y="345.516" width="284.075" height="187.036" filterUnits="userSpaceOnUse" color-interpolation-filters="sRGB">
<feFlood flood-opacity="0" result="BackgroundImageFix"/>
<feGaussianBlur in="BackgroundImage" stdDeviation="17"/>
<feComposite in2="SourceAlpha" operator="in" result="effect1_backgroundBlur_1_276"/>
<feBlend mode="normal" in="SourceGraphic" in2="effect1_backgroundBlur_1_276" result="shape"/>
</filter>
<filter id="filter6_b_1_276" x="331.816" y="345.516" width="284.075" height="187.036" filterUnits="userSpaceOnUse" color-interpolation-filters="sRGB">
<feFlood flood-opacity="0" result="BackgroundImageFix"/>
<feGaussianBlur in="BackgroundImage" stdDeviation="17"/>
<feComposite in2="SourceAlpha" operator="in" result="effect1_backgroundBlur_1_276"/>
<feBlend mode="normal" in="SourceGraphic" in2="effect1_backgroundBlur_1_276" result="shape"/>
</filter>
<linearGradient id="paint0_linear_1_276" x1="132.873" y1="294.121" x2="349.388" y2="294.121" gradientUnits="userSpaceOnUse">
<stop offset="0.497385"/>
<stop offset="0.508869" stop-color="#242424"/>
</linearGradient>
<linearGradient id="paint1_linear_1_276" x1="365.61" y1="294.121" x2="582.125" y2="294.121" gradientUnits="userSpaceOnUse">
<stop offset="0.497385"/>
<stop offset="0.508869" stop-color="#242424"/>
</linearGradient>
<linearGradient id="paint2_linear_1_276" x1="16.5062" y1="385.208" x2="233.021" y2="385.208" gradientUnits="userSpaceOnUse">
<stop offset="0.497385"/>
<stop offset="0.508869" stop-color="#242424"/>
</linearGradient>
<linearGradient id="paint3_linear_1_276" x1="249.242" y1="385.208" x2="465.756" y2="385.208" gradientUnits="userSpaceOnUse">
<stop offset="0.497385"/>
<stop offset="0.508869" stop-color="#242424"/>
</linearGradient>
<linearGradient id="paint4_linear_1_276" x1="481.978" y1="385.208" x2="698.493" y2="385.208" gradientUnits="userSpaceOnUse">
<stop offset="0.497385"/>
<stop offset="0.508869" stop-color="#242424"/>
</linearGradient>
<linearGradient id="paint5_linear_1_276" x1="132.873" y1="475.056" x2="349.388" y2="475.056" gradientUnits="userSpaceOnUse">
<stop offset="0.497385"/>
<stop offset="0.508869" stop-color="#242424"/>
</linearGradient>
<linearGradient id="paint6_linear_1_276" x1="365.61" y1="475.056" x2="582.125" y2="475.056" gradientUnits="userSpaceOnUse">
<stop offset="0.497385"/>
<stop offset="0.508869" stop-color="#242424"/>
</linearGradient>
<radialGradient id="paint7_radial_1_276" cx="0" cy="0" r="1" gradientUnits="userSpaceOnUse" gradientTransform="translate(364.365 336.598) rotate(-176.394) scale(502.359 280.447)">
<stop stop-color="white"/>
<stop offset="0.417501" stop-color="#626ED8"/>
<stop offset="0.804278" stop-color="#1B115F" stop-opacity="0.42"/>
<stop offset="1" stop-color="#4A1648" stop-opacity="0"/>
</radialGradient>
<radialGradient id="paint8_radial_1_276" cx="0" cy="0" r="1" gradientUnits="userSpaceOnUse" gradientTransform="translate(355.903 33.6342) rotate(90) scale(262.866 262.866)">
<stop offset="0.505208"/>
<stop offset="0.800551" stop-color="#351A86"/>
<stop offset="0.885417" stop-color="#2E38A6"/>
<stop offset="1" stop-color="#7985F1"/>
</radialGradient>
</defs>
</svg>
