<svg width="716" height="533" viewBox="0 0 716 533" fill="none" xmlns="http://www.w3.org/2000/svg">
<path d="M445.976 84.8943C548.929 84.8943 632.389 168.354 632.389 271.307C632.389 374.26 548.929 457.72 445.976 457.72C343.023 457.72 259.563 374.26 259.563 271.307C259.563 168.354 343.023 84.8943 445.976 84.8943Z" fill="url(#paint0_radial_16_9638)"/>
<path fill-rule="evenodd" clip-rule="evenodd" d="M250.67 327.476C249.434 327.785 248.173 327.047 247.842 325.811C247.54 324.684 248.115 323.528 249.149 323.068L240.108 256.668C238.726 256.58 237.492 255.625 237.114 254.214C236.639 252.443 237.69 250.622 239.462 250.148C239.901 250.03 240.343 250.006 240.767 250.064L258.213 199.892C257.862 199.622 257.594 199.239 257.471 198.779C257.173 197.667 257.832 196.525 258.944 196.227C259.251 196.144 259.561 196.135 259.854 196.188L284.209 151.581C283.706 151.158 283.324 150.583 283.141 149.901C282.667 148.13 283.718 146.309 285.489 145.835C286.49 145.567 287.506 145.785 288.287 146.346L338.799 99.5871C338.73 99.4494 338.674 99.3029 338.633 99.1486C338.299 97.8999 339.04 96.6165 340.288 96.2819C341.213 96.0339 342.158 96.3766 342.721 97.0789L372.578 84.7739C372.249 83.0779 373.285 81.3919 374.979 80.9379C376.591 80.5059 378.244 81.3382 378.886 82.8271L458.592 66.0218C458.714 64.6748 459.657 63.4844 461.04 63.1139C462.811 62.6394 464.631 63.6905 465.106 65.4615C465.239 65.9591 465.252 66.4606 465.163 66.9351L571.94 110.39C572.372 109.74 573.033 109.239 573.846 109.021C575.617 108.546 577.438 109.598 577.912 111.369C578.241 112.597 577.836 113.85 576.966 114.66L619.762 184.655L621.682 186.415C621.873 186.296 622.086 186.202 622.315 186.14C623.564 185.806 624.848 186.547 625.182 187.796C625.468 188.861 624.97 189.952 624.042 190.457L624.499 192.402L638.694 215.619C638.784 215.586 638.875 215.557 638.969 215.532C640.741 215.057 642.561 216.109 643.036 217.88C643.499 219.608 642.509 221.383 640.815 221.909L647.846 290.592C648.704 290.752 649.437 291.388 649.678 292.288C650.013 293.536 649.272 294.82 648.023 295.155C647.788 295.218 647.551 295.242 647.32 295.233L630.917 343.453C631.647 343.879 632.216 344.582 632.452 345.462C632.926 347.233 631.875 349.054 630.104 349.528C629.534 349.681 628.959 349.676 628.426 349.54L606.917 394.165C607.24 394.457 607.486 394.843 607.607 395.295C607.942 396.544 607.201 397.828 605.952 398.162C605.306 398.335 604.65 398.22 604.122 397.896L551.841 445.09C551.992 445.344 552.111 445.623 552.191 445.923C552.666 447.694 551.615 449.515 549.844 449.989C548.418 450.371 546.96 449.765 546.198 448.59L512.286 461.989C512.388 463.103 511.677 464.162 510.56 464.462C509.487 464.749 508.389 464.243 507.889 463.303L430.583 479.336C430.592 480.809 429.611 482.16 428.122 482.559C426.351 483.034 424.53 481.983 424.056 480.212C423.921 479.711 423.909 479.205 424.001 478.728L315.764 434.414C315.332 435.062 314.672 435.562 313.861 435.779C312.09 436.254 310.269 435.203 309.795 433.431C309.46 432.181 309.885 430.906 310.788 430.097L269.452 359.565C269.38 359.589 269.307 359.612 269.233 359.631C267.462 360.106 265.642 359.055 265.167 357.284C264.832 356.032 265.258 354.756 266.162 353.948L250.67 327.476ZM252.215 324.194C252.276 324.322 252.326 324.458 252.364 324.599C252.509 325.14 252.452 325.687 252.24 326.161L261.636 334.175L257.601 319.351L252.215 324.194ZM251.334 323.214L257.214 317.927L252.564 300.845L250.927 323.014C251.069 323.068 251.205 323.135 251.334 323.214ZM268.398 353.104C268.318 353.103 268.237 353.106 268.155 353.111L264.028 337.948L270.437 343.414L268.398 353.104ZM271.592 355.608C271.588 355.594 271.585 355.579 271.581 355.565C271.307 354.545 270.588 353.764 269.688 353.375L271.579 344.388L276.147 348.284C275.727 347.359 275.314 346.43 274.909 345.496L271.888 342.919L291.172 251.253C291.548 251.267 291.933 251.225 292.316 251.122C292.456 251.085 292.592 251.04 292.724 250.989L352.178 349.348C351.458 349.973 350.989 350.849 350.871 351.8L271.592 355.608ZM271.197 358.171C271.431 357.793 271.589 357.369 271.657 356.924L350.935 353.116C350.947 353.17 350.96 353.224 350.975 353.277C351.359 354.711 352.499 355.74 353.851 356.051L349.806 430.102C349.679 430.12 349.553 430.146 349.427 430.18C349.035 430.285 348.678 430.456 348.366 430.678L271.197 358.171ZM347.464 431.638L271.252 360.031L311.925 429.431C311.996 429.407 312.069 429.385 312.143 429.365C312.329 429.315 312.515 429.282 312.701 429.265L315.419 404.368C315.817 404.758 316.216 405.147 316.617 405.533L314.01 429.409C315.05 429.741 315.905 430.58 316.209 431.713C316.233 431.803 316.253 431.894 316.269 431.984L347.047 432.656C347.129 432.295 347.271 431.951 347.464 431.638ZM347.018 433.974L321.911 433.425L359.948 439.923L352.743 435.621C352.329 436.076 351.784 436.423 351.146 436.594C349.374 437.068 347.554 436.017 347.079 434.246C347.055 434.155 347.035 434.064 347.018 433.974ZM353.418 434.489L363.549 440.538L370.195 441.673C371.919 442.441 373.657 443.184 375.408 443.901L366.685 442.411L424.807 477.117C424.856 477.063 424.907 477.011 424.959 476.96L410.711 454.39C411.299 454.502 411.888 454.612 412.478 454.719L426.071 476.253C426.179 476.212 426.29 476.176 426.403 476.146C427.012 475.983 427.626 476 428.19 476.164L449.975 433.697C449.307 433.195 448.795 432.473 448.562 431.603C448.541 431.523 448.522 431.444 448.506 431.364L353.558 433.956C353.526 434.138 353.479 434.316 353.418 434.489ZM353.521 432.639L448.469 430.047C448.537 429.58 448.689 429.132 448.914 428.725L357.282 355.178C356.847 355.563 356.318 355.855 355.719 356.016C355.535 356.065 355.351 356.1 355.167 356.122L351.121 430.173C352.239 430.465 353.173 431.332 353.493 432.528C353.503 432.565 353.512 432.602 353.521 432.639ZM358.106 354.149L449.738 427.697C450.173 427.312 450.702 427.02 451.301 426.859C451.664 426.762 452.029 426.72 452.387 426.727L472.176 325.119C471.043 324.715 470.09 323.856 469.593 322.7L358.576 351.94C358.644 352.723 358.471 353.49 358.106 354.149ZM358.24 350.666L469.258 321.426C469.149 320.435 469.381 319.464 469.875 318.65L390.189 252.207C389.69 252.651 389.083 252.988 388.394 253.173C387.778 253.338 387.156 253.365 386.564 253.272L356.492 348.832C357.247 349.222 357.872 349.858 358.24 350.666ZM355.235 348.435L385.307 252.875C384.196 252.333 383.318 251.331 382.973 250.043C382.923 249.858 382.886 249.672 382.861 249.487L295.12 248.1C294.958 248.956 294.51 249.736 293.852 250.307L353.306 348.667C353.438 348.615 353.574 348.571 353.714 348.533C354.225 348.396 354.741 348.368 355.235 348.435ZM295.14 246.782L382.881 248.17C383.15 246.563 384.299 245.173 385.944 244.667L372.125 153.206C371.47 153.193 370.839 153.013 370.285 152.697L294.251 244.855C294.619 245.283 294.899 245.798 295.054 246.379C295.091 246.513 295.119 246.648 295.14 246.782ZM293.234 244.018L369.268 151.859C368.9 151.431 368.62 150.917 368.464 150.335C368.433 150.221 368.408 150.106 368.388 149.992L299.664 150L287.791 164.562L291.779 243.535C292.295 243.598 292.789 243.764 293.234 244.018ZM290.463 243.602L286.548 166.086L271.287 184.803L267.023 194.469L278.217 189.924C277.932 190.511 277.65 191.1 277.371 191.69L266.258 196.202L263.15 203.245L268.847 213.044C268.663 213.605 268.481 214.166 268.302 214.729L262.493 204.735L259.092 212.442L256.258 250.823L287.444 247.17C287.533 245.543 288.651 244.085 290.311 243.64C290.361 243.626 290.412 243.614 290.463 243.602ZM287.599 248.479L256.159 252.161L252.856 296.898L258.311 316.941L263.981 311.842C264.09 312.334 264.201 312.825 264.314 313.315L258.698 318.364L263.414 335.692L270.746 341.945L289.882 250.981C288.814 250.555 287.947 249.66 287.599 248.479ZM371.761 145.485C371.575 145.506 371.389 145.542 371.203 145.591C369.697 145.995 368.637 147.232 368.388 148.674L300.738 148.682L318.753 126.586L339.365 111.556L338.909 118.688C339.368 118.365 339.829 118.045 340.291 117.726L340.75 110.546L353.344 101.362L364.809 103.445C365.485 103.117 366.163 102.794 366.843 102.475L354.814 100.29L365.259 92.6728L374.846 90.0937L371.761 145.485ZM375.357 147.08C374.806 146.309 373.99 145.77 373.077 145.558L376.186 89.7333L388.674 86.374L476.953 97.1517C476.946 97.4359 476.97 97.7246 477.028 98.0134L375.357 147.08ZM376 150.114C376.118 149.542 376.108 148.934 375.947 148.33C375.941 148.309 375.935 148.288 375.929 148.267L477.504 99.247C478.101 100.244 479.119 100.915 480.253 101.085L483.839 189.706C483.775 189.719 483.711 189.735 483.648 189.752C482.643 190.021 481.837 190.661 481.337 191.486L376 150.114ZM373.428 153.008C374.33 152.709 375.055 152.104 375.518 151.341L480.855 192.712C480.737 193.285 480.747 193.892 480.909 194.495C480.938 194.603 480.97 194.707 481.007 194.81L390.729 246.16C389.897 245.103 388.612 244.468 387.247 244.469L373.428 153.008ZM391.033 251.194C391.637 250.198 391.85 248.966 391.524 247.751C391.483 247.599 391.435 247.451 391.38 247.306L481.659 195.955C482.176 196.583 482.88 197.032 483.662 197.239L473.204 316.544C472.975 316.568 472.744 316.61 472.513 316.672C471.824 316.856 471.217 317.194 470.719 317.637L391.033 251.194ZM477.017 318.062C476.372 317.313 475.491 316.798 474.522 316.605L484.975 197.353C485.2 197.334 485.427 197.295 485.653 197.234C486.273 197.068 486.817 196.761 487.26 196.356L578.656 267.347C578.211 268.183 578.069 269.184 578.333 270.171C578.336 270.182 578.339 270.193 578.342 270.204L477.017 318.062ZM477.604 322.956C478.083 322.016 478.229 320.902 477.935 319.802C477.878 319.589 477.806 319.384 477.721 319.187L578.905 271.396C579.306 271.966 579.851 272.412 580.474 272.696L553.948 374.223C553.512 374.186 553.063 374.222 552.616 374.342C551.943 374.523 551.358 374.87 550.896 375.328L477.604 322.956ZM473.47 325.371C473.909 325.39 474.358 325.343 474.805 325.224C475.608 325.008 476.3 324.586 476.838 324.029L550.13 376.401C549.74 377.207 549.627 378.153 549.877 379.086C549.893 379.143 549.909 379.2 549.927 379.256L455.39 428.259C454.949 427.678 454.353 427.237 453.68 426.98L473.47 325.371ZM456.177 430.581C456.176 430.257 456.133 429.927 456.045 429.598C456.029 429.541 456.013 429.485 455.995 429.43L550.533 380.426C551.073 381.137 551.845 381.639 552.705 381.848L549.177 434.14L535.256 443.815L456.177 430.581ZM451.148 434.298C451.825 434.51 452.569 434.539 453.306 434.342C454.59 433.998 455.55 433.047 455.959 431.881L533.706 444.892L521.319 453.501L511.267 456.191L512.418 445.531C511.958 445.706 511.497 445.88 511.036 446.052L509.903 456.556L497.439 459.891L469.622 456.235C467.808 456.464 465.985 456.668 464.155 456.845L494.108 460.783L430.235 477.874C430.021 477.441 429.719 477.07 429.357 476.776L451.148 434.298ZM554.02 381.936L550.563 433.177L569.557 419.975L587.931 396.977L583.564 397.082C583.973 396.635 584.38 396.186 584.785 395.734L589.004 395.634L603.331 377.702L602.903 371.964C603.3 371.345 603.695 370.724 604.085 370.1L604.539 376.189L621.21 355.323L623.632 349.394L557.393 377.214C557.861 379.238 556.643 381.283 554.621 381.825C554.421 381.878 554.22 381.915 554.02 381.936ZM556.884 375.999L624.336 347.668L626.323 342.804L583.504 272.769C583.366 272.823 583.224 272.871 583.077 272.91C582.632 273.029 582.183 273.066 581.749 273.029L555.222 374.558C555.895 374.864 556.477 375.361 556.884 375.999ZM584.629 272.082L626.942 341.29L629.527 334.961L632.791 295.6L630.782 295.88C630.842 295.429 630.899 294.977 630.955 294.525L632.903 294.254L636.599 249.697L631.286 227.071L585.385 267.155C585.571 267.462 585.718 267.801 585.816 268.166C586.21 269.638 585.701 271.14 584.629 272.082ZM584.518 266.162L630.945 225.62L627.024 208.921L620.26 203.283L620.015 204.388C619.766 203.739 619.512 203.091 619.256 202.446L574.355 165.017C573.935 165.375 573.431 165.648 572.864 165.803L582.369 265.305C583.162 265.366 583.911 265.67 584.518 266.162ZM581.057 265.431L571.552 165.93C570.276 165.833 569.114 165.105 568.476 163.981L488.465 192.821C488.621 193.699 488.464 194.572 488.068 195.315L579.464 266.306C579.904 265.904 580.443 265.598 581.057 265.431ZM488.02 191.581L568.03 162.741C567.883 161.916 568.011 161.095 568.356 160.382L483.688 99.8642C483.206 100.394 482.572 100.796 481.828 100.995C481.743 101.018 481.657 101.038 481.571 101.055L485.155 189.652C486.348 189.809 487.418 190.519 488.02 191.581ZM484.398 98.7518L569.122 159.31C569.584 158.852 570.168 158.505 570.841 158.325C571.029 158.275 571.218 158.239 571.406 158.217L573.861 115.439C572.747 115.145 571.818 114.28 571.498 113.087C571.483 113.029 571.469 112.971 571.456 112.912L544.652 113.124C543.951 112.686 543.247 112.252 542.539 111.823L566.928 111.63L484.572 98.2406C484.526 98.4153 484.468 98.5861 484.398 98.7518ZM484.686 96.9241L569.063 110.642L471.169 70.8024L522.434 101.246C519.54 99.9426 516.606 98.7109 513.635 97.5532L464.505 68.3777C464.402 68.5086 464.289 68.6321 464.167 68.7467L479.472 93.6243C479.586 93.5819 479.704 93.5445 479.824 93.5124C481.89 92.9587 484.014 94.185 484.567 96.2512C484.627 96.4755 484.667 96.7005 484.686 96.9241ZM478.333 94.2878L463.044 69.4373C462.951 69.4713 462.856 69.5015 462.758 69.5276C462.11 69.7014 461.455 69.6706 460.862 69.4749L453.266 85.0344C452.785 85.0159 452.305 84.9992 451.824 84.9844L459.714 68.8211C459.316 68.4739 458.997 68.0287 458.799 67.5095L392.068 85.4609L477.213 95.856C477.448 95.2512 477.832 94.7096 478.333 94.2878ZM575.177 115.515L572.721 158.293C574.068 158.607 575.202 159.635 575.585 161.064C575.862 162.097 575.694 163.145 575.198 164.004L619.442 200.886L621.759 190.447L621.745 190.425C621.277 190.153 620.902 189.719 620.712 189.176L613.534 189.519C613.323 189.088 613.111 188.658 612.897 188.23L620.19 187.882L618.734 185.501L603.417 171.456C602.458 169.946 601.477 168.451 600.475 166.97L616.246 181.431L575.841 115.348C575.751 115.38 575.659 115.409 575.565 115.435C575.435 115.469 575.306 115.496 575.177 115.515ZM509.542 459.897C509.477 459.908 509.413 459.923 509.348 459.94C508.636 460.131 508.09 460.63 507.813 461.255L500.857 460.341L509.751 457.961L509.542 459.897ZM511.424 460.379C511.25 460.239 511.058 460.125 510.852 460.039L511.116 457.596L518.128 455.719L511.424 460.379ZM545.665 446.893C545.667 446.924 545.668 446.955 545.67 446.986L525.074 452.497L535.567 445.204L545.665 446.893ZM548.546 443.491C548.406 443.51 548.265 443.538 548.125 443.576C547.058 443.862 546.252 444.636 545.884 445.594L537.117 444.127L549.063 435.824L548.546 443.491ZM550.499 443.829C550.296 443.724 550.082 443.641 549.861 443.58L550.449 434.86L566.674 423.584L550.499 443.829ZM603.117 396.614C603.12 396.624 603.123 396.634 603.126 396.644L573.35 417.339L589.65 396.936L603.117 396.614ZM604.524 393.71C603.799 393.981 603.276 394.585 603.085 395.297L590.724 395.592L603.475 379.633L604.524 393.71ZM626.499 348.189C626.561 348.281 626.628 348.369 626.699 348.453L624.122 351.678L625.35 348.672L626.499 348.189ZM628.858 343.024C628.701 343.042 628.543 343.073 628.386 343.115C628.292 343.14 628.2 343.169 628.11 343.201L627.795 342.686L629.164 339.334L628.858 343.024ZM645.284 293.858C645.44 294.204 645.674 294.499 645.96 294.725L631.186 330.898L634.129 295.413L645.284 293.858ZM646.264 290.856C645.631 291.214 645.205 291.846 645.101 292.553L634.241 294.067L637.576 253.859L646.264 290.856ZM637.81 221.375C638.136 221.624 638.507 221.812 638.902 221.928L636.952 245.438L632.409 226.09L637.81 221.375ZM636.908 217.161C636.519 217.881 636.393 218.745 636.622 219.598C636.697 219.878 636.806 220.141 636.943 220.382L632.068 224.639L628.707 210.324L636.908 217.161ZM376.315 87.4307C376.442 87.4121 376.57 87.3858 376.697 87.3516C377.817 87.0517 378.648 86.2144 378.989 85.1917L385.184 85.948L376.264 88.3478L376.315 87.4307ZM373.596 86.5936C373.994 86.9573 374.476 87.2204 374.999 87.3575L374.924 88.7083L368.225 90.5104L373.596 86.5936ZM341.37 100.835C341.413 100.826 341.457 100.815 341.5 100.804C342.211 100.613 342.758 100.114 343.035 99.4891L351.553 101.036L340.859 108.835L341.37 100.835ZM339.893 100.659C339.946 100.684 340.001 100.707 340.056 100.729L339.474 109.845L322.033 122.563L339.893 100.659ZM289.649 148.683C289.631 148.517 289.6 148.349 289.555 148.182C289.532 148.098 289.507 148.015 289.478 147.934L314.56 129.644L299.037 148.682L289.649 148.683ZM287.169 152.258C287.182 152.255 287.195 152.252 287.207 152.248C288.358 151.94 289.205 151.063 289.527 150.001L297.963 150L287.692 162.598L287.169 152.258ZM285.636 152.285C285.708 152.301 285.78 152.314 285.853 152.325L286.449 164.122L273.293 180.258L285.636 152.285ZM261.044 199.622C261.405 199.213 261.601 198.67 261.564 198.107L264.503 196.914L262.332 201.836L261.044 199.622ZM243.476 252.32C243.246 251.619 242.802 251.042 242.237 250.643L257.505 216.039L254.925 250.979L243.476 252.32ZM241.812 256.321C242.853 255.8 243.536 254.768 243.63 253.628L254.826 252.317L251.816 293.079L241.812 256.321ZM246.291 238.191L258.452 203.216L257.795 212.118L246.291 238.191ZM249.91 318.893L251.525 297.026L242.335 263.263L249.91 318.893ZM252.641 328.235L262.25 336.43L266.433 351.802L252.641 328.235ZM361.715 93.6261L353.024 99.9643L344.148 98.352L361.715 93.6261ZM388.579 85.0349L438.514 71.6018L379.854 83.9697L388.579 85.0349ZM350.638 95.2413L364.681 91.4638L371.019 86.842L350.638 95.2413ZM317.84 125.622L333.919 105.9L293.222 143.573L317.84 125.622ZM279.431 163.082L270.153 184.109L263.486 192.286L279.431 163.082ZM261.618 196.663L268.148 188.654L265.268 195.181L261.618 196.663ZM259.98 200.414L261.674 203.327L259.382 208.521L259.98 200.414ZM620.582 201.835L622.749 192.067L623.264 192.909L626.523 206.788L620.582 201.835ZM628.206 208.191L625.462 196.503L637.183 215.675L628.206 208.191ZM604.683 378.12L619.446 359.642L605.797 393.06L604.683 378.12ZM449.774 474.01L497.526 461.232L506.009 462.347L449.774 474.01ZM521.882 454.715L514.994 459.502L538.081 450.38L521.882 454.715ZM597.208 402.362L570.467 420.948L554.553 440.866L597.208 402.362ZM622.358 355.997L614.074 376.279L626.119 351.29L622.358 355.997ZM639.708 313.518L630.823 335.272L630.344 341.045L639.708 313.518ZM637.929 249.599L645.722 282.784L639.897 225.879L637.929 249.599ZM419.382 475.413L318.789 434.229L363.084 441.796L419.382 475.413Z" fill="url(#paint1_radial_16_9638)"/>
<defs>
<radialGradient id="paint0_radial_16_9638" cx="0" cy="0" r="1" gradientUnits="userSpaceOnUse" gradientTransform="translate(204.977 145.486) rotate(25.3877) scale(284.643 476.582)">
<stop stop-color="#86E9FF"/>
<stop offset="0.520536" stop-color="#027A5D" stop-opacity="0.53"/>
<stop offset="1" stop-color="#027A5D" stop-opacity="0"/>
</radialGradient>
<radialGradient id="paint1_radial_16_9638" cx="0" cy="0" r="1" gradientUnits="userSpaceOnUse" gradientTransform="translate(204.977 145.486) rotate(25.3877) scale(284.643 476.582)">
<stop stop-color="#86E9FF"/>
<stop offset="0.520536" stop-color="#027A5D" stop-opacity="0.53"/>
<stop offset="1" stop-color="#027A5D" stop-opacity="0"/>
</radialGradient>
</defs>
</svg>
