<svg width="39" height="40" viewBox="0 0 39 40" fill="none" xmlns="http://www.w3.org/2000/svg">
<path d="M19.751 39.62C19.501 39.62 19.261 39.56 19.041 39.43L1.50102 29.31C1.06102 29.06 0.791016 28.58 0.791016 28.07V7.83004C0.791016 7.32004 1.06102 6.85004 1.50102 6.59004L11.031 1.09004C11.711 0.700039 12.581 0.930039 12.981 1.61004C13.371 2.29004 13.141 3.16004 12.461 3.56004L3.64102 8.65004V27.24L19.741 36.54L35.841 27.24V8.65004L26.931 3.50004C26.251 3.11004 26.011 2.23004 26.411 1.55004C26.801 0.870038 27.681 0.630037 28.361 1.03004L37.991 6.59004C38.431 6.84004 38.701 7.32004 38.701 7.83004V28.07C38.701 28.58 38.431 29.05 37.991 29.31L20.461 39.43C20.241 39.56 19.991 39.62 19.751 39.62Z" fill="#B2B2B2"/>
<path d="M30.9717 25.3899C30.2617 25.3899 29.6817 24.8099 29.6817 24.0999V11.8899L19.7617 6.15993L9.84172 11.8899V24.0999C9.84172 24.8099 9.26173 25.3899 8.55173 25.3899C7.84173 25.3899 7.26172 24.8099 7.26172 24.0999V11.1399C7.26172 10.6799 7.51173 10.2499 7.91173 10.0199L19.1317 3.53993C19.5317 3.30993 20.0217 3.30993 20.4217 3.53993L31.6417 10.0199C32.0417 10.2499 32.2917 10.6799 32.2917 11.1399V24.0999C32.2617 24.8099 31.6817 25.3899 30.9717 25.3899Z" fill="#B2B2B2"/>
<path d="M19.7501 24.2001C22.3292 24.2001 24.4201 22.1093 24.4201 19.5301C24.4201 16.9509 22.3292 14.8601 19.7501 14.8601C17.1709 14.8601 15.0801 16.9509 15.0801 19.5301C15.0801 22.1093 17.1709 24.2001 19.7501 24.2001Z" fill="#B2B2B2"/>
</svg>