<svg xmlns="http://www.w3.org/2000/svg" viewBox="0 0 400 225">
  <defs>
    <style>
      .cls-1 {
        isolation: isolate;
      }

      .cls-2 {
        fill: none;
      }

      .cls-3 {
        fill: #6bc9a7;
      }

      .cls-4 {
        opacity: 0.15;
        mix-blend-mode: multiply;
      }

      .cls-5 {
        fill: #fff;
      }

      .cls-6 {
        fill: #cde6fc;
      }

      .cls-7 {
        fill: #8db7e2;
      }

      .cls-8 {
        opacity: 0.2;
      }

      .cls-9 {
        fill: #231f20;
      }

      .cls-10 {
        fill: #ddd;
      }

      .cls-11 {
        fill: #239630;
      }
    </style>
  </defs>
  <title>multiple choice</title>
  <g class="cls-1">
    <g id="Layer_2" data-name="Layer 2">
      <g id="multiple_choice" data-name="multiple choice">
        <g>
          <rect class="cls-2" x="153.72" y="96.91" width="69.11" height="38.87"/>
          <circle class="cls-3" cx="204" cy="113.5" r="85"/>
          <g>
            <g>
              <g class="cls-4">
                <rect x="153" y="74.5" width="110" height="86"/>
              </g>
              <rect class="cls-5" x="148" y="71.5" width="112" height="85"/>
            </g>
            <g>
              <g>
                <path class="cls-6" d="M252,142.36a6.54,6.54,0,0,1-6.09,6.14H161.36c-3.16,0-5.36-3.14-5.36-6.14v-8.11c0-3,2.19-4.74,5.36-4.74h84.55c3.16,0,6.09,1.74,6.09,4.74Z"/>
                <rect class="cls-7" x="173" y="134.5" width="48" height="8"/>
                <rect class="cls-7" x="161" y="134.5" width="8" height="8"/>
              </g>
              <g>
                <g class="cls-8">
                  <rect class="cls-9" x="155.97" y="106.24" width="96.06" height="18.66" rx="5.44" ry="5.44"/>
                  <rect class="cls-9" x="172.73" y="112.12" width="24.02" height="7.43"/>
                  <path class="cls-9" d="M167.37,113.5v4.66h-4.66V113.5h4.66m1.38-1.38h-7.43v7.43h7.43v-7.43Z"/>
                </g>
                <g>
                  <rect class="cls-10" x="155.97" y="104.52" width="96.06" height="18.66" rx="5.44" ry="5.44"/>
                  <rect class="cls-7" x="172.73" y="110.39" width="24.02" height="7.43"/>
                  <path class="cls-7" d="M167.37,111.77v4.66h-4.66v-4.66h4.66m1.38-1.38h-7.43v7.43h7.43v-7.43Z"/>
                </g>
              </g>
              <g>
                <path class="cls-6" d="M252,93.36a6.54,6.54,0,0,1-6.09,6.14H161.36c-3.16,0-5.36-3.14-5.36-6.14V85.24c0-3,2.19-4.74,5.36-4.74h84.55c3.16,0,6.09,1.74,6.09,4.74Z"/>
                <rect class="cls-7" x="173" y="86.5" width="59" height="7"/>
                <rect class="cls-7" x="161" y="86.5" width="8" height="7"/>
              </g>
              <path class="cls-11" d="M247.53,87.09,241.65,93l-1.11,1.11a.79.79,0,0,1-1.11,0L238.33,93,235.39,90a.79.79,0,0,1,0-1.11l1.11-1.11a.79.79,0,0,1,1.11,0l2.39,2.4,5.33-5.34a.79.79,0,0,1,1.11,0L247.53,86a.79.79,0,0,1,0,1.11Z"/>
              <path class="cls-11" d="M247.53,135.22l-5.89,5.89-1.11,1.11a.79.79,0,0,1-1.11,0l-1.11-1.11-2.94-2.94a.79.79,0,0,1,0-1.11l1.11-1.11a.79.79,0,0,1,1.11,0l2.39,2.4,5.33-5.34a.79.79,0,0,1,1.11,0l1.11,1.11a.79.79,0,0,1,0,1.11Z"/>
            </g>
          </g>
        </g>
        <rect class="cls-2" width="400" height="225"/>
      </g>
    </g>
  </g>
</svg>
