<svg width="70" height="78" viewBox="0 0 70 78" fill="none" xmlns="http://www.w3.org/2000/svg">
<path d="M69.9273 24.0166V53.9256C69.9274 55.516 69.5087 57.0784 68.7134 58.4556C67.9181 59.8329 66.7742 60.9764 65.3967 61.7713L62.238 63.5908L55.273 67.5937L39.4942 76.6913C38.1169 77.4869 36.5543 77.9058 34.9636 77.9058C33.373 77.9058 31.8104 77.4869 30.4331 76.6913L14.6543 67.5937L7.64193 63.5726L4.51602 61.7713C3.14123 60.9746 2.00022 59.8302 1.20754 58.4531C0.414866 57.076 -0.00158289 55.5146 4.5212e-06 53.9256V24.0166C0.000360521 22.4258 0.419172 20.8631 1.2144 19.4853C2.00963 18.1076 3.15328 16.9633 4.53057 16.1672L7.64193 14.3805L8.07133 14.133L19.5488 25.6214C21.3007 27.3725 22.6904 29.4517 23.6386 31.7401C24.5868 34.0285 25.0748 36.4813 25.0748 38.9584C25.0748 41.4354 24.5868 43.8882 23.6386 46.1766C22.6904 48.465 21.3007 50.5442 19.5488 52.2953C19.4077 52.4335 19.2963 52.599 19.2212 52.7816C19.1461 52.9642 19.1089 53.1602 19.112 53.3577C19.1151 53.5551 19.1583 53.7499 19.239 53.9301C19.3197 54.1103 19.4363 54.2722 19.5815 54.406C19.8734 54.6648 20.254 54.801 20.6438 54.7861C21.0337 54.7711 21.4027 54.6063 21.674 54.3259C25.2078 50.8173 29.9856 48.8482 34.9655 48.8482C39.9453 48.8482 44.7231 50.8173 48.2569 54.3259C48.5285 54.6044 48.8966 54.768 49.2854 54.7829C49.6741 54.7978 50.0537 54.6629 50.3457 54.406C50.491 54.2722 50.6075 54.1103 50.6883 53.9301C50.769 53.7499 50.8122 53.5551 50.8152 53.3577C50.8183 53.1602 50.7812 52.9642 50.7061 52.7816C50.631 52.599 50.5195 52.4335 50.3785 52.2953C48.627 50.5439 47.2377 48.4647 46.2898 46.1763C45.3419 43.8879 44.854 41.4353 44.854 38.9584C44.854 36.4814 45.3419 34.0288 46.2898 31.7404C47.2377 29.452 48.627 27.3728 50.3785 25.6214C50.5372 25.4662 50.6584 25.2768 50.7327 25.0677C50.807 24.8585 50.8325 24.6351 50.8072 24.4146C50.782 24.194 50.7066 23.9822 50.5868 23.7953C50.4671 23.6083 50.3062 23.4513 50.1165 23.3361C49.8272 23.1612 49.4871 23.0897 49.152 23.1334C48.8168 23.177 48.5063 23.3331 48.2715 23.5763C44.7318 27.1001 39.9388 29.0757 34.9441 29.0695C29.9495 29.0634 25.1613 27.076 21.6303 23.5435L10.7133 12.6265L14.7162 10.3084L30.4331 1.21453C31.8104 0.418888 33.373 0 34.9636 0C36.5543 0 38.1169 0.418888 39.4942 1.21453L55.2329 10.3121L62.2599 14.3696L65.3967 16.1891C66.7708 16.9832 67.9124 18.1241 68.7074 19.4977C69.5024 20.8713 69.9231 22.4295 69.9273 24.0166Z" fill="#F2F2F2"/>
</svg>
