<svg width="750" height="386" viewBox="0 0 750 386" fill="none" xmlns="http://www.w3.org/2000/svg">
<circle r="225.068" transform="matrix(-1 0 0 1 476.71 189.443)" fill="url(#paint0_radial_7536:74604)"/>
<g filter="url(#filter0_f_7536:74604)">
<path d="M351.634 88.8187C351.634 88.8187 314.775 75.0766 292.564 125.379C273.781 167.918 310.767 209.441 330.287 177.321C343.661 155.313 353.475 154.496 366.28 152.791C386.592 150.086 396.557 104.863 351.634 88.8187Z" fill="url(#paint1_radial_7536:74604)"/>
</g>
<g filter="url(#filter1_f_7536:74604)">
<path fill-rule="evenodd" clip-rule="evenodd" d="M561.717 -41.2075L563.779 -39.7496L626.424 4.53161L628.486 5.9895L626.331 8.90528L560.87 97.4678L558.715 100.384L554.497 101.841L426.392 146.123L422.174 147.581L420.112 146.123L357.467 101.841L355.405 100.384L357.56 97.4678L423.021 8.90528L425.176 5.9895L429.394 4.53161L557.499 -39.7496L561.717 -41.2075ZM433.426 11.8211L372.276 94.552L430.795 135.917L550.465 94.552L611.615 11.8211L553.096 -29.5444L433.426 11.8211ZM346.462 250.89L348.525 252.348L411.169 296.629L413.231 298.087L411.076 301.003L345.615 389.565L343.46 392.481L339.242 393.939L211.137 438.22L206.919 439.678L204.857 438.22L142.213 393.939L140.15 392.481L142.305 389.565L207.766 301.003L209.922 298.087L214.139 296.629L342.245 252.348L346.462 250.89ZM218.171 303.919L157.021 386.649L215.54 428.015L335.21 386.649L396.361 303.919L337.841 262.553L218.171 303.919ZM351.367 106.303L349.304 104.845L345.086 106.303L216.981 150.584L212.764 152.042L210.608 154.958L145.147 243.52L142.992 246.436L145.055 247.894L207.699 292.175L209.761 293.633L213.979 292.175L342.084 247.894L346.302 246.436L348.457 243.52L413.918 154.958L416.073 152.042L414.011 150.584L351.367 106.303ZM159.863 240.604L221.013 157.873L340.683 116.508L399.203 157.873L338.052 240.604L218.382 281.97L159.863 240.604ZM559.533 104.845L561.595 106.303L624.239 150.584L626.302 152.042L624.147 154.958L558.686 243.52L556.531 246.436L552.313 247.894L424.208 292.175L419.99 293.633L417.928 292.175L355.283 247.894L353.221 246.436L355.376 243.52L420.837 154.958L422.992 152.042L427.21 150.584L555.315 106.303L559.533 104.845ZM431.242 157.873L370.091 240.604L428.611 281.97L548.281 240.604L609.431 157.873L550.912 116.508L431.242 157.873ZM772.453 106.303L770.39 104.845L766.173 106.303L638.067 150.584L633.85 152.042L631.695 154.958L566.233 243.52L564.078 246.436L566.141 247.894L628.785 292.175L630.847 293.633L635.065 292.175L763.17 247.894L767.388 246.436L769.543 243.52L835.004 154.958L837.16 152.042L835.097 150.584L772.453 106.303ZM580.949 240.604L642.1 157.873L761.77 116.508L820.289 157.873L759.138 240.604L639.468 281.97L580.949 240.604ZM774.141 -41.2075L776.203 -39.7496L838.848 4.53161L840.91 5.9895L838.755 8.90528L773.294 97.4678L771.138 100.384L766.921 101.841L638.815 146.123L634.598 147.581L632.535 146.123L569.891 101.841L567.829 100.384L569.984 97.4678L635.445 8.90528L637.6 5.9895L641.818 4.53161L729.338 -25.7209L769.923 -39.7496L774.141 -41.2075ZM765.52 -29.5444L729.153 -16.9736L645.85 11.8211L584.699 94.552L643.219 135.917L762.889 94.552L824.039 11.8211L765.52 -29.5444ZM558.772 252.307L556.709 250.849L552.492 252.307L424.386 296.588L420.169 298.046L418.014 300.962L352.552 389.524L350.397 392.44L352.46 393.898L415.104 438.179L417.166 439.637L421.384 438.179L549.489 393.898L553.707 392.44L555.862 389.524L621.323 300.962L623.479 298.046L621.416 296.588L558.772 252.307ZM367.268 386.609L428.419 303.878L548.089 262.512L606.608 303.878L545.457 386.609L425.787 427.974L367.268 386.609Z" fill="url(#paint2_radial_7536:74604)"/>
</g>
<path fill-rule="evenodd" clip-rule="evenodd" d="M555.956 -33.4128L430.691 9.88677L366.681 96.486L427.937 139.786L553.202 96.486L617.212 9.88677L555.956 -33.4128ZM620.052 8.90514L557.408 -35.3761L429.302 8.90514L363.841 97.4676L426.486 141.749L554.591 97.4676L620.052 8.90514ZM340.701 258.685L215.436 301.984L151.426 388.584L212.682 431.883L337.947 388.584L401.957 301.984L340.701 258.685ZM404.797 301.003L342.153 256.722L214.047 301.003L148.586 389.565L211.23 433.847L339.336 389.565L404.797 301.003ZM218.278 155.94L343.543 112.64L404.799 155.94L340.789 242.539L215.523 285.838L154.268 242.539L218.278 155.94ZM344.994 110.677L407.639 154.958L342.178 243.52L214.072 287.802L151.428 243.52L216.889 154.958L344.994 110.677ZM553.772 112.64L428.507 155.94L364.497 242.539L425.752 285.838L551.018 242.539L615.027 155.94L553.772 112.64ZM617.867 154.958L555.223 110.677L427.118 154.958L361.657 243.52L424.301 287.802L552.406 243.52L617.867 154.958ZM639.364 155.94L764.63 112.64L825.885 155.94L761.875 242.539L636.61 285.838L575.354 242.539L639.364 155.94ZM766.081 110.677L828.725 154.958L763.264 243.52L635.158 287.802L572.514 243.52L637.975 154.958L766.081 110.677ZM768.38 -33.4128L729.215 -19.875L643.115 9.88677L579.105 96.486L640.36 139.786L765.626 96.486L829.636 9.88677L768.38 -33.4128ZM832.475 8.90514L769.831 -35.3761L729.246 -21.3474L641.726 8.90514L576.265 97.4676L638.909 141.749L767.014 97.4676L832.475 8.90514ZM425.685 301.944L550.95 258.644L612.206 301.944L548.196 388.543L422.93 431.842L361.675 388.543L425.685 301.944ZM552.401 256.681L615.046 300.962L549.585 389.524L421.479 433.806L358.835 389.524L424.296 300.962L552.401 256.681Z" fill="url(#paint3_radial_7536:74604)"/>
<path d="M393.015 233.215C411.211 288.106 470.427 317.847 525.278 299.644C580.13 281.44 609.846 222.186 591.651 167.295C573.455 112.404 514.239 82.6631 459.388 100.866C404.536 119.07 374.82 178.324 393.015 233.215Z" fill="url(#paint4_radial_7536:74604)"/>
<path fill-rule="evenodd" clip-rule="evenodd" d="M487.742 86.1939C487.688 85.48 487.072 84.9385 486.355 84.9804C485.701 85.0187 485.187 85.5296 485.124 86.162L448.15 93.0819C447.858 92.3608 447.132 91.8718 446.313 91.9198C445.285 91.9799 444.501 92.8622 444.562 93.8904C444.576 94.1454 444.642 94.3854 444.748 94.6013L421.1 112.774C420.895 112.634 420.643 112.559 420.376 112.575C419.731 112.612 419.239 113.166 419.277 113.812C419.287 113.99 419.337 114.157 419.417 114.304L399.955 135.176C399.641 134.983 399.267 134.88 398.871 134.904C397.844 134.964 397.06 135.846 397.12 136.874C397.154 137.455 397.45 137.958 397.887 138.275L381.902 173.474C381.816 173.462 381.728 173.458 381.639 173.463C380.914 173.506 380.362 174.128 380.404 174.853C380.435 175.39 380.785 175.833 381.259 176.009L379.979 194.103C379.018 194.228 378.302 195.078 378.36 196.062C378.415 196.998 379.15 197.732 380.057 197.811L385.19 243.278C384.494 243.581 384.027 244.295 384.074 245.098C384.134 246.126 385.015 246.911 386.043 246.85C386.332 246.834 386.601 246.752 386.838 246.62L428.861 295.867C428.591 296.212 428.441 296.653 428.469 297.125C428.529 298.153 429.411 298.938 430.438 298.878C431.151 298.836 431.747 298.398 432.025 297.791L476.88 308.232L478.157 308.945C478.127 309.068 478.115 309.198 478.123 309.331C478.165 310.056 478.787 310.609 479.511 310.567C480.129 310.531 480.623 310.073 480.728 309.489L481.845 309.388L496.723 312.852C496.721 312.905 496.722 312.959 496.725 313.014C496.786 314.042 497.667 314.827 498.695 314.767C499.697 314.708 500.468 313.866 500.449 312.87L538.285 304.475C538.522 304.904 538.99 305.183 539.512 305.152C540.236 305.11 540.789 304.488 540.747 303.763C540.739 303.626 540.71 303.495 540.664 303.374L563.457 286.102C563.812 286.416 564.287 286.595 564.798 286.566C565.826 286.505 566.61 285.623 566.549 284.595C566.53 284.264 566.426 283.959 566.259 283.698L586.233 264.34C586.446 264.461 586.695 264.524 586.957 264.508C587.682 264.466 588.235 263.844 588.192 263.119C588.17 262.744 587.993 262.415 587.727 262.19L603.631 225.972C603.793 226.007 603.963 226.021 604.137 226.011C605.165 225.951 605.949 225.068 605.889 224.04C605.84 223.213 605.259 222.543 604.499 222.344L605.644 201.894C606.256 201.752 606.694 201.185 606.657 200.537C606.62 199.914 606.156 199.418 605.567 199.317L600.446 155.266C601.233 155.01 601.78 154.249 601.729 153.384C601.669 152.356 600.787 151.571 599.76 151.631C599.469 151.648 599.197 151.731 598.959 151.864L556.221 101.991C556.49 101.647 556.639 101.206 556.612 100.736C556.551 99.7074 555.67 98.9226 554.642 98.9828C553.917 99.0252 553.312 99.4776 553.041 100.102L508.157 90.5337C508.158 90.4913 508.157 90.4485 508.154 90.4055C508.094 89.3773 507.212 88.5926 506.185 88.6527C505.459 88.6952 504.854 89.1481 504.583 89.773L487.742 86.1939ZM486.266 87.5975C486.345 87.6075 486.426 87.6104 486.508 87.6055C486.822 87.5872 487.103 87.4603 487.318 87.2634L493.249 90.8558L484.638 91.3257L486.266 87.5975ZM485.588 87.3011L483.811 91.3708L473.888 91.9124L485.41 87.1197C485.464 87.1859 485.523 87.2466 485.588 87.3011ZM504.529 91.1145C504.514 91.0716 504.501 91.0279 504.49 90.9836L495.682 91.4643L499.727 93.9147L504.529 91.1145ZM506.428 92.3745C506.419 92.3751 506.411 92.3756 506.403 92.3761C505.811 92.4107 505.268 92.1651 504.902 91.754L500.447 94.3512L503.331 96.0979C502.763 96.0375 502.195 95.9818 501.626 95.9307L499.719 94.7756L454.289 121.265C454.363 121.463 454.409 121.676 454.422 121.898C454.427 121.979 454.427 122.06 454.423 122.139L517.334 136.447C517.54 135.953 517.924 135.547 518.41 135.316L506.428 92.3745ZM507.723 91.7108C507.563 91.9022 507.365 92.0614 507.14 92.1764L519.123 135.118C519.153 135.115 519.184 135.112 519.215 135.111C520.047 135.062 520.797 135.488 521.202 136.154L559.939 120.904C559.927 120.833 559.919 120.761 559.914 120.688C559.901 120.461 559.929 120.24 559.992 120.034L507.723 91.7108ZM560.344 119.384L508.724 91.4113L552.888 100.826C552.887 100.868 552.888 100.911 552.891 100.953C552.897 101.061 552.912 101.167 552.936 101.269L540.152 107.12C540.43 107.263 540.707 107.407 540.984 107.553L553.244 101.942C553.605 102.437 554.203 102.745 554.86 102.706C554.913 102.703 554.964 102.698 555.015 102.691L560.813 118.981C560.635 119.089 560.477 119.225 560.344 119.384ZM561.51 118.733L556.78 105.444L566.965 124.575L563.399 121.494C563.569 121.193 563.657 120.841 563.635 120.47C563.575 119.442 562.693 118.657 561.666 118.717C561.613 118.721 561.561 118.726 561.51 118.733ZM562.915 122.054L567.929 126.386L569.708 129.729C570.422 130.512 571.125 131.307 571.816 132.114L569.481 127.727L598.244 152.579C598.224 152.615 598.205 152.651 598.187 152.688L583.644 149.082C583.807 149.376 583.97 149.67 584.131 149.966L598.007 153.406C598.004 153.47 598.004 153.536 598.008 153.602C598.029 153.955 598.147 154.28 598.334 154.551L579.558 173.675C579.172 173.407 578.698 173.262 578.193 173.292C578.147 173.294 578.101 173.298 578.056 173.304L562.656 122.223C562.747 122.174 562.834 122.117 562.915 122.054ZM561.948 122.436L577.347 173.517C577.11 173.636 576.899 173.796 576.722 173.988L521.342 138.137C521.471 137.837 521.533 137.503 521.513 137.156C521.507 137.049 521.493 136.944 521.472 136.843L560.21 121.593C560.563 122.137 561.19 122.481 561.884 122.441C561.905 122.44 561.926 122.438 561.948 122.436ZM520.94 138.758L576.32 174.609C576.192 174.909 576.129 175.243 576.15 175.591C576.162 175.801 576.204 176.004 576.271 176.193L525.634 204.71C525.218 204.177 524.592 203.82 523.888 203.76L519.846 139.399C520.276 139.298 520.653 139.069 520.94 138.758ZM519.108 139.446L523.15 203.806C522.603 203.923 522.127 204.219 521.78 204.627L472.297 173.889C472.446 173.544 472.518 173.161 472.495 172.761C472.474 172.403 472.378 172.067 472.224 171.768L517.822 138.838C518.163 139.172 518.613 139.393 519.108 139.446ZM517.389 138.238L471.791 171.168C471.305 170.671 470.616 170.38 469.869 170.424C469.762 170.43 469.656 170.443 469.553 170.462L453.307 123.928C453.735 123.69 454.071 123.313 454.259 122.861L517.171 137.169C517.167 137.248 517.167 137.329 517.172 137.41C517.189 137.707 517.266 137.986 517.389 138.238ZM452.609 124.171L468.855 170.706C468.046 171.133 467.509 171.992 467.53 172.958L416.359 181.762C416.236 181.415 416.029 181.11 415.762 180.871L451.425 124.038C451.718 124.158 452.041 124.217 452.379 124.197C452.457 124.192 452.533 124.184 452.609 124.171ZM450.799 123.644L415.136 180.477C414.843 180.356 414.52 180.298 414.182 180.318C414.116 180.322 414.05 180.329 413.986 180.338L401.844 143.695L407.504 134.79L450.285 122.953C450.409 123.217 450.585 123.452 450.799 123.644ZM450.088 122.24L408.097 133.858L415.372 122.412L419.768 118.43L419.325 125.202C419.587 124.946 419.851 124.691 420.116 124.438L420.556 117.716L423.759 114.813L429.987 116.118C430.253 115.921 430.52 115.725 430.788 115.53L424.437 114.199L427.942 111.024L447.89 102.726L451.456 120C450.604 120.334 450.025 121.188 450.081 122.152C450.083 122.181 450.085 122.211 450.088 122.24ZM452.18 119.85L448.585 102.437L471.836 92.7656L483.479 92.1303L481.765 96.0548C482.046 96.026 482.327 95.9984 482.608 95.9719L484.306 92.0851L494.371 91.5358L498.999 94.339L453.917 120.626C453.501 120.131 452.871 119.827 452.18 119.85ZM412.181 182.933C412.159 182.83 412.145 182.725 412.139 182.617C412.088 181.743 412.56 180.959 413.284 180.571L401.332 144.501L392.744 158.013L388.378 171.66L392.098 170.156C392.007 170.458 391.918 170.76 391.83 171.063L388.085 172.577L385.418 180.915L388.554 186.66C388.499 187.078 388.446 187.497 388.397 187.916L385.106 181.889L382.894 188.805L383.215 194.372L412.181 182.933ZM413.666 184.569C413.158 184.411 412.726 184.071 412.452 183.622L383.259 195.15L383.677 202.402L405.021 247.564C405.171 247.509 405.329 247.471 405.493 247.451L413.666 184.569ZM415.396 184.375C415.112 184.539 414.787 184.641 414.437 184.662C414.424 184.663 414.412 184.663 414.4 184.664L406.234 247.487C406.871 247.629 407.409 248.053 407.7 248.628L455.549 234.87C455.545 234.834 455.542 234.797 455.539 234.76C455.505 234.177 455.704 233.634 456.055 233.222L415.396 184.375ZM416.484 182.492C416.484 183.026 416.289 183.519 415.965 183.901L456.623 232.748C456.907 232.584 457.233 232.482 457.583 232.461C457.645 232.458 457.707 232.457 457.768 232.458L469.171 175.246C468.461 174.989 467.895 174.416 467.655 173.688L416.484 182.492ZM471.907 174.517C471.483 175.016 470.864 175.347 470.159 175.388C470.071 175.394 469.983 175.394 469.897 175.39L458.493 232.603C458.919 232.768 459.283 233.064 459.531 233.444L521.246 206.774C521.219 206.647 521.2 206.516 521.193 206.383C521.169 205.983 521.241 205.6 521.39 205.255L471.907 174.517ZM522.729 208.538C522.216 208.327 521.786 207.948 521.512 207.466L459.824 234.124C459.854 234.247 459.873 234.375 459.88 234.506C459.901 234.866 459.834 235.211 459.697 235.519L513.672 271.695C514.039 271.31 514.547 271.058 515.12 271.024C515.126 271.024 515.132 271.023 515.139 271.023L522.729 208.538ZM525.44 207.986C525.024 208.407 524.456 208.682 523.818 208.72C523.695 208.727 523.573 208.725 523.453 208.715L515.873 271.112C516.248 271.225 516.582 271.437 516.843 271.719L566.247 239.625C566.15 239.399 566.09 239.153 566.075 238.894C566.052 238.503 566.134 238.13 566.296 237.802L525.44 207.986ZM525.997 205.355C526.084 205.585 526.138 205.833 526.154 206.092C526.181 206.558 526.078 207.002 525.876 207.388L566.732 237.204C567.093 236.854 567.577 236.627 568.118 236.595C568.152 236.593 568.185 236.592 568.218 236.591L577.618 177.523C577.23 177.391 576.89 177.151 576.634 176.838L525.997 205.355ZM578.994 177.533C578.821 177.589 578.638 177.624 578.447 177.636C578.414 177.637 578.381 177.639 578.349 177.639L568.949 236.708C569.423 236.87 569.826 237.193 570.09 237.614L597.326 226.487L600.021 217.354L578.994 177.533ZM580.086 174.194C580.319 174.517 580.465 174.909 580.49 175.337C580.534 176.082 580.197 176.762 579.648 177.186L600.321 216.338L602.719 208.211L602.375 202.376L596.899 204.875C596.911 204.598 596.922 204.322 596.932 204.046L602.328 201.584L601.903 194.349L595.038 180.165C594.84 179.157 594.626 178.149 594.397 177.142L601.789 192.416L599.606 155.339C599.338 155.301 599.087 155.206 598.866 155.065L580.086 174.194ZM570.369 238.3L597.058 227.396L593.382 239.858L584.376 253.72L583.66 251.374C583.494 251.671 583.327 251.967 583.158 252.263L583.85 254.53L576.828 265.339L573.695 266.125C573.436 266.447 573.175 266.767 572.911 267.085L576.236 266.251L568.065 278.828L565.334 281.168L568.45 240.933C569.61 240.824 570.485 239.814 570.416 238.64C570.409 238.524 570.393 238.41 570.369 238.3ZM567.712 240.877L564.539 281.849L562.299 283.768L517.418 273.322C517.422 273.239 517.422 273.154 517.417 273.069C517.402 272.81 517.342 272.565 517.246 272.34L566.65 240.245C566.933 240.55 567.3 240.772 567.712 240.877ZM517.25 274.043L561.601 284.366L558.686 286.863L538.292 295.563L538.086 294.442C537.857 294.554 537.626 294.664 537.395 294.774L537.595 295.861L514.509 305.709L501.515 306.877L514.759 275.317C514.956 275.362 515.162 275.38 515.374 275.368C516.228 275.318 516.938 274.781 517.25 274.043ZM514.077 275.03L500.682 306.952L491.092 307.814L486.893 305.205L487.438 304.879C487.048 304.86 486.658 304.84 486.269 304.817L458.392 287.495C458.509 287.208 458.565 286.891 458.547 286.561L513.241 274.036C513.413 274.448 513.708 274.794 514.077 275.03ZM513.076 273.314L458.383 285.84C458.106 285.176 457.513 284.685 456.801 284.544L458.026 236.786C458.522 236.714 458.959 236.476 459.285 236.133L513.26 272.31C513.124 272.616 513.056 272.957 513.076 273.314ZM457.287 236.768L456.062 284.525C455.596 284.593 455.182 284.807 454.863 285.116L407.656 250.675C407.853 250.324 407.955 249.915 407.93 249.484C407.927 249.434 407.923 249.384 407.916 249.336L455.753 235.582C456.047 236.19 456.614 236.635 457.287 236.768ZM407.189 251.25L454.427 285.714C454.265 286.042 454.183 286.414 454.206 286.805C454.212 286.914 454.227 287.021 454.248 287.125L431.891 295.998C431.538 295.456 430.912 295.114 430.22 295.154C430.186 295.156 430.153 295.159 430.119 295.163L425.495 280.834C425.138 280.538 424.782 280.239 424.429 279.938L428.636 292.975L406.947 251.433C407.032 251.378 407.113 251.317 407.189 251.25ZM406.266 251.727L428.487 294.288L389.96 249.139L415.24 271.089C414.034 269.776 412.859 268.429 411.717 267.05L387.49 246.015C387.542 245.936 387.588 245.854 387.627 245.769L403.587 249.531C403.584 249.599 403.585 249.668 403.589 249.738C403.659 250.937 404.688 251.853 405.887 251.783C406.017 251.775 406.144 251.756 406.266 251.727ZM403.739 248.806L387.797 245.048C387.798 244.993 387.798 244.936 387.794 244.88C387.772 244.503 387.64 244.16 387.431 243.878L394.378 237.077C394.284 236.824 394.19 236.571 394.097 236.317L386.88 243.382C386.625 243.231 386.331 243.14 386.019 243.126L383.79 204.373L404.376 247.932C404.096 248.164 403.875 248.464 403.739 248.806ZM432.164 296.686L454.521 287.813C454.927 288.476 455.674 288.899 456.504 288.85C457.103 288.815 457.632 288.54 458.001 288.124L485.471 305.192L480.319 308.273L480.305 308.27C480.077 308.068 479.78 307.945 479.457 307.94L478.37 304.052C478.104 304.016 477.837 303.979 477.571 303.94L478.675 307.89L477.149 307.535L466.959 301.852C465.985 301.607 465.015 301.349 464.049 301.076L474.541 306.928L432.192 297.07C432.194 297.016 432.193 296.962 432.19 296.907C432.185 296.832 432.176 296.758 432.164 296.686ZM604.044 200.801C604.039 200.765 604.035 200.728 604.033 200.69C604.009 200.277 604.178 199.897 604.463 199.639L602.746 196.092L603.05 201.255L604.044 200.801ZM604.634 201.719C604.529 201.652 604.434 201.569 604.352 201.475L603.097 202.047L603.336 206.118L604.634 201.719ZM603.501 222.36C603.517 222.355 603.534 222.351 603.551 222.346L602.847 210.391L600.816 217.275L603.501 222.36ZM602.197 224.497C602.183 224.419 602.173 224.339 602.168 224.258C602.132 223.639 602.402 223.072 602.847 222.706L600.516 218.291L598.203 226.129L602.197 224.497ZM602.722 225.479C602.631 225.389 602.548 225.29 602.477 225.183L597.935 227.038L594.795 237.682L602.722 225.479ZM586.866 261.881C586.872 261.881 586.878 261.881 586.884 261.881L592.647 242.346L584.658 254.644L586.866 261.881ZM585.568 263.145C585.584 262.71 585.813 262.325 586.159 262.097L584.132 255.454L577.882 265.074L585.568 263.145ZM565.199 282.91C565.259 282.927 565.318 282.947 565.375 282.969L566.638 281.026L565.253 282.212L565.199 282.91ZM562.864 285.081C562.846 284.994 562.834 284.904 562.829 284.813C562.825 284.758 562.825 284.704 562.826 284.651L562.496 284.574L560.952 285.896L562.864 285.081ZM539.572 302.532C539.784 302.554 539.982 302.626 540.154 302.738L556.815 288.466L538.429 296.309L539.572 302.532ZM538.146 303.585C538.225 303.184 538.486 302.845 538.844 302.665L537.732 296.607L516.899 305.494L538.146 303.585ZM499.633 311.362C499.824 311.492 499.989 311.657 500.121 311.847L512.302 306.651L501.191 307.649L499.633 311.362ZM497.229 311.627C497.544 311.292 497.982 311.072 498.477 311.043C498.639 311.034 498.798 311.045 498.951 311.076L500.358 307.724L492.137 308.463L497.229 311.627ZM382.055 195.626C382.068 195.697 382.077 195.77 382.081 195.844C382.119 196.494 381.82 197.085 381.335 197.448L382.833 200.617L382.535 195.436L382.055 195.626ZM381.129 194.324C381.393 194.472 381.618 194.683 381.784 194.937L382.49 194.658L382.266 190.768L381.129 194.324ZM383.021 174.625C383.024 174.649 383.026 174.674 383.027 174.699C383.051 175.112 382.882 175.492 382.598 175.75L384.928 180.018L387.193 172.937L383.021 174.625ZM382.666 173.868C382.689 173.892 382.711 173.917 382.732 173.943L387.486 172.02L391.18 160.473L382.666 173.868ZM399.373 138.589C399.281 138.608 399.186 138.621 399.089 138.627C399.04 138.63 398.992 138.631 398.944 138.63L393.632 155.236L401.032 143.594L399.373 138.589ZM400.839 136.635C400.84 136.642 400.84 136.649 400.841 136.656C400.88 137.325 400.563 137.931 400.053 138.29L401.544 142.788L406.441 135.085L400.839 136.635ZM400.582 135.812C400.604 135.848 400.624 135.884 400.642 135.921L407.033 134.153L413.305 124.285L400.582 135.812ZM421.457 114.331C421.303 114.596 421.048 114.796 420.742 114.876L420.625 116.654L422.864 114.626L421.457 114.331ZM446.428 95.6464C446.014 95.6481 445.628 95.5133 445.316 95.2825L429.578 109.541L447.737 101.988L446.428 95.6464ZM448.266 94.052C448.172 94.6991 447.744 95.2456 447.153 95.4976L448.433 101.699L469.618 92.8867L448.266 94.052ZM439.398 99.6455L422.913 112.314L427.54 110.389L439.398 99.6455ZM483.034 87.3062L471.67 92.0334L452.057 93.1038L483.034 87.3062ZM488.494 87.1105L494.559 90.7843L503.488 90.2969L488.494 87.1105ZM382.776 186.747L384.617 180.992L382.189 176.545L382.776 186.747ZM382.946 202.588L384.615 231.587L380.837 198.125L382.946 202.588ZM381.679 180.555L382.148 188.71L380.806 192.906L381.679 180.555ZM392.068 157.696L384.403 169.756L397.282 141.397L392.068 157.696ZM405.238 130.595L414.801 121.931L417.98 116.93L405.238 130.595ZM419.982 115.16L416.869 120.058L419.837 117.368L419.982 115.16ZM421.691 113.624L423.542 114.012L425.904 111.871L421.691 113.624ZM486.178 305.632L481.357 308.515L481.897 308.64L489.867 307.924L486.178 305.632ZM490.912 308.573L484.2 309.176L496.486 312.036L490.912 308.573ZM577.29 265.986L570.054 277.124L585.447 263.939L577.29 265.986ZM601.001 166.44L602.632 194.159L604.726 198.484L601.001 166.44ZM603.465 208.297L604.798 203.778L604.018 217.7L603.465 208.297ZM588.884 257.715L594.061 240.171L601.86 228.164L588.884 257.715ZM568.627 279.321L577.969 271.319L566.784 282.159L568.627 279.321ZM549.061 296.082L559.081 287.499L562.072 286.223L549.061 296.082ZM514.692 306.436L533.749 304.723L502.402 311.679L514.692 306.436ZM596.377 149.988L556.657 103.637L568.517 125.916L596.377 149.988Z" fill="url(#paint5_radial_7536:74604)"/>
<path d="M650.725 57.6273L629.984 57.6273M650.077 57.6276L650.077 78.369" stroke="white" stroke-width="1.29636"/>
<path d="M329.229 57.6273L349.97 57.6273M329.877 57.6276L329.877 78.369" stroke="white" stroke-width="1.29636"/>
<path d="M329.229 327.27L349.97 327.27M329.877 327.269L329.877 306.528" stroke="white" stroke-width="1.29636"/>
<defs>
<filter id="filter0_f_7536:74604" x="95.8469" y="-104.444" width="479.152" height="484.73" filterUnits="userSpaceOnUse" color-interpolation-filters="sRGB">
<feFlood flood-opacity="0" result="BackgroundImageFix"/>
<feBlend mode="normal" in="SourceGraphic" in2="BackgroundImageFix" result="shape"/>
<feGaussianBlur stdDeviation="95.7737" result="effect1_foregroundBlur_7536:74604"/>
</filter>
<filter id="filter1_f_7536:74604" x="96.6287" y="-84.7289" width="787.803" height="567.928" filterUnits="userSpaceOnUse" color-interpolation-filters="sRGB">
<feFlood flood-opacity="0" result="BackgroundImageFix"/>
<feBlend mode="normal" in="SourceGraphic" in2="BackgroundImageFix" result="shape"/>
<feGaussianBlur stdDeviation="21.7607" result="effect1_foregroundBlur_7536:74604"/>
</filter>
<radialGradient id="paint0_radial_7536:74604" cx="0" cy="0" r="1" gradientUnits="userSpaceOnUse" gradientTransform="translate(224.978 225.252) rotate(-29.0939) scale(199.653 183.066)">
<stop offset="0.0001" stop-color="#F5F5F5" stop-opacity="0.4"/>
<stop offset="0.539562" stop-color="#959595" stop-opacity="0.3"/>
<stop offset="1" stop-opacity="0"/>
</radialGradient>
<radialGradient id="paint1_radial_7536:74604" cx="0" cy="0" r="1" gradientUnits="userSpaceOnUse" gradientTransform="translate(389.588 110.86) rotate(133.419) scale(127.102 100.741)">
<stop offset="0.25" stop-color="#1A3EFF"/>
<stop offset="0.53125" stop-color="#6E40F1"/>
<stop offset="0.703125" stop-color="#8E3CF7"/>
<stop offset="1" stop-color="#48DEFF"/>
</radialGradient>
<radialGradient id="paint2_radial_7536:74604" cx="0" cy="0" r="1" gradientUnits="userSpaceOnUse" gradientTransform="translate(507.5 230.5) rotate(-140.526) scale(442.562 294.245)">
<stop offset="0.0693272" stop-color="#3646D2"/>
<stop offset="1" stop-color="#CF36D2" stop-opacity="0"/>
</radialGradient>
<radialGradient id="paint3_radial_7536:74604" cx="0" cy="0" r="1" gradientUnits="userSpaceOnUse" gradientTransform="translate(482 186.5) rotate(-139.021) scale(548.316 505.989)">
<stop offset="0.265303" stop-color="#3646D2"/>
<stop offset="0.686977" stop-color="#CF36D2" stop-opacity="0"/>
</radialGradient>
<radialGradient id="paint4_radial_7536:74604" cx="0" cy="0" r="1" gradientUnits="userSpaceOnUse" gradientTransform="translate(546.132 252.69) rotate(-135.232) scale(186.181)">
<stop offset="0.630208" stop-color="#425A88" stop-opacity="0"/>
<stop offset="0.81938" stop-color="#6777A2" stop-opacity="0.96"/>
<stop offset="1" stop-color="#A3ADE1"/>
</radialGradient>
<radialGradient id="paint5_radial_7536:74604" cx="0" cy="0" r="1" gradientUnits="userSpaceOnUse" gradientTransform="translate(441.696 101.576) rotate(61.8378) scale(130.231 129.571)">
<stop offset="0.046875" stop-color="white"/>
<stop offset="1" stop-color="white" stop-opacity="0"/>
</radialGradient>
</defs>
</svg>
