<svg width="64" height="64" viewBox="0 0 64 64" fill="none" xmlns="http://www.w3.org/2000/svg">
<path d="M32 64C49.6731 64 64 49.6731 64 32C64 14.3269 49.6731 0 32 0C14.3269 0 0 14.3269 0 32C0 49.6731 14.3269 64 32 64Z" fill="white"/>
<path d="M25.7435 53.1645C30.3256 50.519 32.3424 45.4409 32.5951 40.4902C32.8361 35.7718 28.1805 33.0285 24.0255 30.7794C18.7742 27.9369 15.1995 22.3793 15.1995 16.0002C15.1995 13.5711 15.7198 11.2616 16.6529 9.17532C16.9259 8.56495 16.2396 7.89087 15.6888 8.27001C8.14677 13.4623 3.19995 22.1511 3.19995 32.0003C3.19995 40.4746 6.01195 28.124 12.4838 48.5184C13.6878 52.3123 16.6904 55.6336 20.6157 54.9731C22.3844 54.6752 24.1592 54.079 25.7435 53.1645Z" fill="black"/>
<path d="M16.8204 15.9955C16.8206 21.2865 20.2098 25.5719 24.3708 28.2663C28.3367 30.8342 33.0403 28.1741 37.0656 25.7003C42.1529 22.5737 48.7532 22.2567 54.2777 25.4463C56.3814 26.6608 58.1212 28.2662 59.4614 30.1174C59.8537 30.659 60.7804 30.4017 60.7276 29.7352C60.0019 20.6074 54.9507 11.9789 46.4211 7.05438C39.0819 2.8172 48.3718 11.4277 27.4739 6.83534C23.5863 5.98101 19.2087 6.92078 17.8182 10.6505C17.1916 12.331 16.8206 14.1663 16.8204 15.9955Z" fill="black"/>
<path d="M53.4675 26.8562C48.8854 24.2108 43.4794 25.0032 39.0656 27.2596C34.8586 29.4101 34.8106 34.8137 34.9405 39.5366C35.1043 45.5056 32.0787 51.3801 26.5542 54.5696C24.4506 55.7843 22.1904 56.4883 19.917 56.7235C19.2519 56.7923 19.0113 57.7235 19.615 58.0109C27.8827 61.9465 37.881 61.8861 46.4102 56.9616C53.7494 52.7245 41.6477 56.4643 56.0736 40.6624C58.7574 37.7229 60.1322 33.4617 57.5974 30.3927C56.4554 29.0099 55.0515 27.771 53.4675 26.8562Z" fill="black"/>
</svg>