<svg width="413" height="420" viewBox="0 0 413 420" fill="none" xmlns="http://www.w3.org/2000/svg">
<path d="M208.976 21.8943C311.929 21.8943 395.389 105.354 395.389 208.307C395.389 311.26 311.929 394.72 208.976 394.72C106.023 394.72 22.5628 311.26 22.5629 208.307C22.5629 105.354 106.023 21.8943 208.976 21.8943Z" fill="url(#paint0_radial_114_1277)"/>
<path fill-rule="evenodd" clip-rule="evenodd" d="M13.6704 264.476C12.434 264.785 11.1734 264.047 10.8422 262.811C10.5401 261.684 11.115 260.528 12.1486 260.068L3.10769 193.668C1.72572 193.58 0.492237 192.625 0.113949 191.214C-0.360613 189.443 0.69043 187.622 2.46152 187.148C2.90079 187.03 3.3431 187.006 3.76716 187.064L21.2128 136.892C20.8621 136.622 20.5939 136.239 20.4706 135.779C20.1727 134.667 20.8325 133.525 21.9443 133.227C22.2514 133.144 22.5609 133.135 22.8543 133.188L47.209 88.5808C46.7065 88.1584 46.324 87.583 46.1412 86.9008C45.6666 85.1297 46.7177 83.3092 48.4888 82.8346C49.4896 82.5665 50.5061 82.7854 51.2867 83.3462L101.799 36.5871C101.73 36.4494 101.674 36.3029 101.633 36.1486C101.299 34.8999 102.04 33.6165 103.288 33.2819C104.213 33.0339 105.158 33.3766 105.721 34.0789L135.578 21.7739C135.249 20.0779 136.285 18.3919 137.979 17.9379C139.591 17.5059 141.244 18.3382 141.886 19.8271L221.592 3.02177C221.714 1.67485 222.657 0.484371 224.04 0.113948C225.811 -0.360615 227.631 0.690451 228.106 2.46154C228.239 2.95915 228.252 3.46064 228.163 3.93511L334.94 47.3903C335.372 46.7403 336.033 46.2389 336.846 46.0211C338.617 45.5465 340.438 46.5976 340.912 48.3687C341.241 49.5975 340.836 50.8501 339.966 51.6605L382.762 121.655L384.682 123.415C384.873 123.296 385.086 123.202 385.315 123.14C386.564 122.806 387.848 123.547 388.182 124.796C388.468 125.861 387.97 126.952 387.042 127.457L387.499 129.402L401.694 152.619C401.784 152.586 401.875 152.557 401.969 152.532C403.741 152.057 405.561 153.109 406.036 154.88C406.499 156.608 405.509 158.383 403.815 158.909L410.846 227.592C411.704 227.752 412.437 228.388 412.678 229.288C413.013 230.536 412.272 231.82 411.023 232.155C410.788 232.218 410.551 232.242 410.32 232.233L393.917 280.453C394.647 280.879 395.216 281.582 395.452 282.462C395.926 284.233 394.875 286.054 393.104 286.528C392.534 286.681 391.959 286.676 391.426 286.54L369.917 331.165C370.24 331.457 370.486 331.843 370.607 332.295C370.942 333.544 370.201 334.828 368.952 335.162C368.306 335.335 367.65 335.22 367.122 334.896L314.841 382.09C314.992 382.344 315.111 382.623 315.191 382.923C315.666 384.694 314.615 386.515 312.844 386.989C311.418 387.371 309.96 386.765 309.198 385.59L275.286 398.989C275.388 400.103 274.677 401.162 273.56 401.462C272.487 401.749 271.389 401.243 270.889 400.303L193.583 416.336C193.592 417.809 192.611 419.16 191.122 419.559C189.351 420.034 187.53 418.983 187.056 417.212C186.921 416.711 186.909 416.205 187.001 415.728L78.7638 371.414C78.3321 372.062 77.6721 372.562 76.861 372.779C75.0899 373.254 73.2695 372.203 72.7949 370.431C72.4598 369.181 72.8854 367.906 73.7881 367.097L32.4516 296.565C32.3802 296.589 32.3074 296.612 32.2333 296.631C30.4622 297.106 28.6417 296.055 28.1672 294.284C27.8319 293.032 28.2582 291.756 29.1621 290.948L13.6704 264.476ZM15.2147 261.194C15.2758 261.322 15.3261 261.458 15.3641 261.599C15.5089 262.14 15.4522 262.687 15.2401 263.161L24.6356 271.175L20.6011 256.351L15.2147 261.194ZM14.3337 260.214L20.2136 254.927L15.5643 237.845L13.9272 260.014C14.069 260.068 14.2051 260.135 14.3337 260.214ZM31.3984 290.104C31.3177 290.103 31.2366 290.106 31.1553 290.111L27.0282 274.948L33.4369 280.414L31.3984 290.104ZM34.592 292.608C34.5884 292.594 34.5847 292.579 34.5809 292.565C34.3075 291.545 33.5876 290.764 32.6879 290.375L34.5786 281.388L39.1469 285.284C38.7268 284.359 38.314 283.43 37.9086 282.496L34.8876 279.919L54.172 188.253C54.5483 188.267 54.9329 188.225 55.3156 188.122C55.4558 188.085 55.5921 188.04 55.7242 187.989L115.178 286.348C114.458 286.973 113.989 287.849 113.871 288.8L34.592 292.608ZM34.1973 295.171C34.431 294.793 34.589 294.369 34.657 293.924L113.935 290.116C113.947 290.17 113.96 290.224 113.975 290.277C114.359 291.711 115.499 292.74 116.851 293.051L112.806 367.102C112.679 367.12 112.553 367.146 112.427 367.18C112.035 367.285 111.678 367.456 111.366 367.678L34.1973 295.171ZM110.464 368.638L34.2524 297.031L74.9254 366.431C74.9965 366.407 75.0689 366.385 75.1425 366.365C75.3285 366.315 75.515 366.282 75.7005 366.265L78.419 341.368C78.8168 341.758 79.2162 342.147 79.6174 342.533L77.0104 366.409C78.0505 366.741 78.905 367.58 79.2086 368.713C79.2328 368.803 79.253 368.894 79.2694 368.984L110.047 369.656C110.129 369.295 110.271 368.951 110.464 368.638ZM110.018 370.974L84.9111 370.425L122.948 376.923L115.743 372.621C115.329 373.076 114.784 373.423 114.146 373.594C112.374 374.068 110.554 373.017 110.079 371.246C110.055 371.155 110.035 371.064 110.018 370.974ZM116.418 371.489L126.549 377.538L133.195 378.673C134.919 379.441 136.657 380.184 138.408 380.901L129.685 379.411L187.807 414.117C187.856 414.063 187.907 414.011 187.959 413.96L173.711 391.39C174.299 391.502 174.888 391.612 175.478 391.719L189.071 413.253C189.179 413.212 189.29 413.176 189.403 413.146C190.012 412.983 190.626 413 191.19 413.164L212.975 370.697C212.307 370.195 211.795 369.473 211.562 368.603C211.541 368.523 211.522 368.444 211.506 368.364L116.558 370.956C116.526 371.138 116.479 371.316 116.418 371.489ZM116.521 369.639L211.469 367.047C211.537 366.58 211.689 366.132 211.914 365.725L120.282 292.178C119.847 292.563 119.318 292.855 118.719 293.016C118.535 293.065 118.351 293.1 118.167 293.122L114.121 367.173C115.239 367.465 116.173 368.332 116.493 369.528C116.503 369.565 116.512 369.602 116.521 369.639ZM121.106 291.149L212.738 364.697C213.173 364.312 213.702 364.02 214.301 363.859C214.664 363.762 215.029 363.72 215.387 363.727L235.176 262.119C234.043 261.715 233.09 260.856 232.593 259.7L121.576 288.94C121.644 289.723 121.471 290.49 121.106 291.149ZM121.24 287.666L232.258 258.426C232.149 257.435 232.381 256.464 232.875 255.65L153.189 189.207C152.69 189.651 152.083 189.988 151.394 190.173C150.778 190.338 150.156 190.365 149.564 190.272L119.492 285.832C120.247 286.222 120.872 286.858 121.24 287.666ZM118.235 285.435L148.307 189.875C147.196 189.333 146.318 188.331 145.973 187.043C145.923 186.858 145.886 186.672 145.861 186.487L58.1201 185.1C57.9579 185.956 57.5096 186.736 56.8522 187.307L116.306 285.667C116.438 285.615 116.574 285.571 116.714 285.533C117.225 285.396 117.741 285.368 118.235 285.435ZM58.1402 183.782L145.881 185.17C146.15 183.563 147.299 182.173 148.944 181.667L135.125 90.2063C134.47 90.1931 133.839 90.0127 133.285 89.6965L57.2508 181.855C57.6188 182.283 57.8987 182.798 58.0544 183.379C58.0905 183.513 58.1189 183.648 58.1402 183.782ZM56.2337 181.018L132.268 88.8587C131.9 88.4313 131.62 87.9166 131.464 87.3353C131.433 87.2208 131.408 87.1062 131.388 86.9916L62.6635 86.9999L50.7908 101.562L54.7788 180.535C55.2951 180.598 55.7894 180.764 56.2337 181.018ZM53.4627 180.602L49.5483 103.086L34.2873 121.803L30.0226 131.469L41.2175 126.924C40.9322 127.511 40.6499 128.1 40.3707 128.69L29.2581 133.202L26.1504 140.245L31.8472 150.044C31.663 150.605 31.4814 151.166 31.3023 151.729L25.4927 141.735L22.0923 149.442L19.2581 187.823L50.4445 184.17C50.5329 182.543 51.6507 181.085 53.3107 180.64C53.3613 180.626 53.412 180.614 53.4627 180.602ZM50.5987 185.479L19.1593 189.161L15.8557 233.898L21.3108 253.941L26.981 248.842C27.09 249.334 27.201 249.825 27.3139 250.315L21.6983 255.364L26.4143 272.692L33.7458 278.945L52.8825 187.981C51.8139 187.555 50.9472 186.66 50.5987 185.479ZM134.761 82.4846C134.575 82.5063 134.389 82.5417 134.203 82.5915C132.697 82.995 131.637 84.2325 131.388 85.6738L63.738 85.682L81.7534 63.5861L102.365 48.5558L101.909 55.688C102.368 55.3653 102.829 55.0446 103.291 54.7259L103.75 47.5458L116.344 38.3618L127.809 40.4446C128.485 40.1173 129.163 39.794 129.843 39.4746L117.814 37.2896L128.259 29.6728L137.846 27.0937L134.761 82.4846ZM138.357 84.0799C137.806 83.3093 136.99 82.7696 136.077 82.558L139.186 26.7333L151.674 23.374L239.953 34.1517C239.946 34.4359 239.97 34.7246 240.028 35.0134L138.357 84.0799ZM139 87.1143C139.118 86.5417 139.108 85.9336 138.947 85.3304C138.941 85.3092 138.935 85.2882 138.929 85.2672L240.504 36.247C241.101 37.2443 242.119 37.9153 243.253 38.0854L246.839 126.706C246.775 126.719 246.711 126.735 246.648 126.752C245.643 127.021 244.837 127.661 244.337 128.486L139 87.1143ZM136.428 90.0082C137.33 89.709 138.055 89.1037 138.518 88.3407L243.855 129.712C243.737 130.285 243.747 130.892 243.909 131.495C243.938 131.603 243.97 131.707 244.007 131.81L153.729 183.16C152.897 182.103 151.612 181.468 150.247 181.469L136.428 90.0082ZM154.033 188.194C154.637 187.198 154.85 185.966 154.524 184.751C154.483 184.599 154.435 184.451 154.38 184.306L244.659 132.955C245.176 133.583 245.88 134.032 246.662 134.239L236.204 253.544C235.975 253.568 235.744 253.61 235.513 253.672C234.824 253.856 234.217 254.194 233.719 254.637L154.033 188.194ZM240.017 255.062C239.372 254.313 238.491 253.798 237.522 253.605L247.975 134.353C248.2 134.334 248.427 134.295 248.653 134.234C249.273 134.068 249.817 133.761 250.26 133.356L341.656 204.347C341.211 205.183 341.069 206.184 341.333 207.171C341.336 207.182 341.339 207.193 341.342 207.204L240.017 255.062ZM240.604 259.956C241.083 259.016 241.229 257.902 240.935 256.802C240.878 256.589 240.806 256.384 240.721 256.187L341.905 208.396C342.306 208.966 342.851 209.412 343.474 209.696L316.948 311.223C316.512 311.186 316.063 311.222 315.616 311.342C314.943 311.523 314.358 311.87 313.896 312.328L240.604 259.956ZM236.47 262.371C236.909 262.39 237.358 262.343 237.805 262.224C238.608 262.008 239.3 261.586 239.838 261.029L313.13 313.401C312.74 314.207 312.627 315.153 312.877 316.086C312.893 316.143 312.909 316.2 312.927 316.256L218.39 365.259C217.949 364.678 217.353 364.237 216.68 363.98L236.47 262.371ZM219.177 367.581C219.176 367.257 219.133 366.927 219.045 366.598C219.029 366.541 219.013 366.485 218.995 366.43L313.533 317.426C314.073 318.137 314.845 318.639 315.705 318.848L312.177 371.14L298.256 380.815L219.177 367.581ZM214.148 371.298C214.825 371.51 215.569 371.539 216.306 371.342C217.59 370.998 218.55 370.047 218.959 368.881L296.706 381.892L284.319 390.501L274.267 393.191L275.418 382.531C274.958 382.706 274.497 382.88 274.036 383.052L272.903 393.556L260.439 396.891L232.622 393.235C230.808 393.464 228.985 393.668 227.155 393.845L257.108 397.783L193.235 414.874C193.021 414.441 192.719 414.07 192.357 413.776L214.148 371.298ZM317.02 318.936L313.563 370.177L332.557 356.975L350.931 333.977L346.564 334.082C346.973 333.635 347.38 333.186 347.785 332.734L352.004 332.634L366.331 314.702L365.903 308.964C366.3 308.345 366.695 307.724 367.085 307.1L367.539 313.189L384.21 292.323L386.632 286.394L320.393 314.214C320.861 316.238 319.643 318.283 317.621 318.825C317.421 318.878 317.22 318.915 317.02 318.936ZM319.884 312.999L387.336 284.668L389.323 279.804L346.504 209.769C346.366 209.823 346.224 209.871 346.077 209.91C345.632 210.029 345.183 210.066 344.749 210.029L318.222 311.558C318.895 311.864 319.477 312.361 319.884 312.999ZM347.629 209.082L389.942 278.29L392.527 271.961L395.791 232.6L393.782 232.88C393.842 232.429 393.899 231.977 393.955 231.525L395.903 231.254L399.599 186.697L394.286 164.071L348.385 204.155C348.571 204.462 348.718 204.801 348.816 205.166C349.21 206.638 348.701 208.14 347.629 209.082ZM347.518 203.162L393.945 162.62L390.024 145.921L383.26 140.283L383.015 141.388C382.766 140.739 382.512 140.091 382.256 139.446L337.355 102.017C336.935 102.375 336.431 102.648 335.864 102.803L345.369 202.305C346.162 202.366 346.911 202.67 347.518 203.162ZM344.057 202.431L334.552 102.93C333.276 102.833 332.114 102.105 331.476 100.981L251.465 129.821C251.621 130.699 251.464 131.572 251.068 132.315L342.464 203.306C342.904 202.904 343.443 202.598 344.057 202.431ZM251.02 128.581L331.03 99.7411C330.883 98.9159 331.011 98.0952 331.356 97.3824L246.688 36.8642C246.206 37.3938 245.572 37.7959 244.828 37.995C244.743 38.018 244.657 38.0379 244.571 38.0549L248.155 126.652C249.348 126.809 250.418 127.519 251.02 128.581ZM247.398 35.7518L332.122 96.3101C332.584 95.8525 333.168 95.5054 333.841 95.325C334.029 95.2746 334.218 95.239 334.406 95.2174L336.861 52.4394C335.747 52.1455 334.818 51.2795 334.498 50.0872C334.483 50.0289 334.469 49.9705 334.456 49.9121L307.652 50.1244C306.951 49.6861 306.247 49.2524 305.539 48.8232L329.928 48.6301L247.572 35.2406C247.526 35.4153 247.468 35.5861 247.398 35.7518ZM247.686 33.9241L332.063 47.6421L234.169 7.80241L285.434 38.2461C282.54 36.9426 279.606 35.7109 276.635 34.5532L227.505 5.37768C227.402 5.50861 227.289 5.63208 227.167 5.74675L242.472 30.6243C242.586 30.5819 242.704 30.5445 242.824 30.5124C244.89 29.9587 247.014 31.185 247.567 33.2512C247.627 33.4755 247.667 33.7005 247.686 33.9241ZM241.333 31.2878L226.044 6.43728C225.951 6.47131 225.856 6.50152 225.758 6.52764C225.11 6.70139 224.455 6.67061 223.862 6.47491L216.266 22.0344C215.785 22.0159 215.305 21.9992 214.824 21.9844L222.714 5.82115C222.316 5.47392 221.997 5.02871 221.799 4.50951L155.068 22.4609L240.213 32.856C240.448 32.2512 240.832 31.7096 241.333 31.2878ZM338.177 52.5146L335.721 95.2929C337.068 95.6073 338.202 96.6346 338.585 98.0638C338.862 99.0973 338.694 100.145 338.198 101.004L382.442 137.886L384.759 127.447L384.745 127.425C384.277 127.153 383.902 126.719 383.712 126.176L376.534 126.519C376.323 126.088 376.111 125.658 375.897 125.23L383.19 124.882L381.734 122.501L366.417 108.456C365.458 106.946 364.477 105.451 363.475 103.97L379.246 118.431L338.841 52.3477C338.751 52.3804 338.659 52.4095 338.565 52.4348C338.435 52.4694 338.306 52.4959 338.177 52.5146ZM272.542 396.897C272.477 396.908 272.413 396.923 272.348 396.94C271.636 397.131 271.09 397.63 270.813 398.255L263.857 397.341L272.751 394.961L272.542 396.897ZM274.424 397.379C274.25 397.239 274.058 397.125 273.852 397.039L274.116 394.596L281.128 392.719L274.424 397.379ZM308.665 383.893C308.667 383.924 308.668 383.955 308.67 383.986L288.074 389.497L298.567 382.204L308.665 383.893ZM311.546 380.491C311.406 380.51 311.265 380.538 311.125 380.576C310.058 380.862 309.252 381.636 308.884 382.594L300.117 381.127L312.063 372.824L311.546 380.491ZM313.499 380.829C313.296 380.724 313.082 380.641 312.861 380.58L313.449 371.86L329.674 360.584L313.499 380.829ZM366.117 333.614C366.12 333.624 366.123 333.634 366.126 333.644L336.35 354.339L352.65 333.936L366.117 333.614ZM367.524 330.71C366.799 330.981 366.276 331.585 366.085 332.297L353.724 332.592L366.475 316.633L367.524 330.71ZM389.499 285.189C389.561 285.281 389.628 285.369 389.699 285.453L387.122 288.678L388.35 285.672L389.499 285.189ZM391.858 280.024C391.701 280.042 391.543 280.073 391.386 280.115C391.292 280.14 391.2 280.169 391.11 280.201L390.795 279.686L392.164 276.334L391.858 280.024ZM408.284 230.858C408.44 231.204 408.674 231.499 408.96 231.725L394.186 267.898L397.129 232.413L408.284 230.858ZM409.264 227.856C408.631 228.214 408.205 228.846 408.101 229.553L397.241 231.067L400.576 190.859L409.264 227.856ZM400.81 158.375C401.136 158.624 401.507 158.812 401.902 158.928L399.952 182.438L395.409 163.09L400.81 158.375ZM399.908 154.161C399.519 154.881 399.393 155.745 399.622 156.598C399.697 156.878 399.806 157.141 399.943 157.382L395.068 161.639L391.707 147.324L399.908 154.161ZM139.315 24.4307C139.442 24.4121 139.57 24.3858 139.697 24.3516C140.817 24.0517 141.648 23.2144 141.989 22.1917L148.184 22.948L139.264 25.3478L139.315 24.4307ZM136.596 23.5936C136.994 23.9573 137.476 24.2204 137.999 24.3575L137.924 25.7083L131.225 27.5104L136.596 23.5936ZM104.37 37.8346C104.413 37.8256 104.457 37.8153 104.5 37.8037C105.211 37.613 105.758 37.1141 106.035 36.4891L114.553 38.0365L103.859 45.8352L104.37 37.8346ZM102.893 37.6586C102.946 37.684 103.001 37.7073 103.056 37.7286L102.474 46.8452L85.0332 59.5634L102.893 37.6586ZM52.6491 85.6834C52.6308 85.5167 52.5996 85.3492 52.5549 85.1822C52.5323 85.0979 52.5067 85.0153 52.4781 84.9343L77.5598 66.6441L62.0375 85.6823L52.6491 85.6834ZM50.1695 89.2582C50.1821 89.255 50.1947 89.2517 50.2073 89.2483C51.3582 88.9399 52.205 88.0633 52.5267 87.0012L60.963 87.0001L50.6917 99.598L50.1695 89.2582ZM48.6355 89.2848C48.7075 89.3007 48.7802 89.3142 48.8534 89.3252L49.4491 101.122L36.2927 117.258L48.6355 89.2848ZM24.0443 136.622C24.4051 136.213 24.6006 135.67 24.5641 135.107L27.5034 133.914L25.3316 138.836L24.0443 136.622ZM6.4755 189.32C6.24638 188.619 5.80217 188.042 5.23685 187.643L20.5053 153.039L17.9252 187.979L6.4755 189.32ZM4.81206 193.321C5.85271 192.8 6.53591 191.768 6.63034 190.628L17.8264 189.317L14.8164 230.079L4.81206 193.321ZM9.29069 175.191L21.4522 140.216L20.7948 149.118L9.29069 175.191ZM12.9102 255.893L14.5249 234.026L5.3355 200.263L12.9102 255.893ZM15.6413 265.235L25.2495 273.43L29.4333 288.802L15.6413 265.235ZM124.715 30.6261L116.024 36.9643L107.148 35.352L124.715 30.6261ZM151.579 22.0349L201.514 8.60176L142.854 20.9697L151.579 22.0349ZM113.638 32.2413L127.681 28.4638L134.019 23.842L113.638 32.2413ZM80.8395 62.6216L96.9191 42.9L56.2223 80.573L80.8395 62.6216ZM42.4312 100.082L33.1535 121.109L26.4864 129.286L42.4312 100.082ZM24.6177 133.663L31.1481 125.654L28.2679 132.181L24.6177 133.663ZM22.9805 137.414L24.6739 140.327L22.3818 145.521L22.9805 137.414ZM383.582 138.835L385.749 129.067L386.264 129.909L389.523 143.788L383.582 138.835ZM391.206 145.191L388.462 133.503L400.183 152.675L391.206 145.191ZM367.683 315.12L382.446 296.642L368.797 330.06L367.683 315.12ZM212.774 411.01L260.526 398.232L269.009 399.347L212.774 411.01ZM284.882 391.715L277.994 396.502L301.081 387.38L284.882 391.715ZM360.208 339.362L333.467 357.948L317.553 377.866L360.208 339.362ZM385.358 292.997L377.074 313.279L389.119 288.29L385.358 292.997ZM402.708 250.518L393.823 272.272L393.344 278.045L402.708 250.518ZM400.929 186.599L408.722 219.784L402.897 162.879L400.929 186.599ZM182.382 412.413L81.7888 371.229L126.084 378.796L182.382 412.413Z" fill="url(#paint1_radial_114_1277)"/>
<defs>
<radialGradient id="paint0_radial_114_1277" cx="0" cy="0" r="1" gradientUnits="userSpaceOnUse" gradientTransform="translate(-32.0234 82.4858) rotate(25.3877) scale(284.643 476.582)">
<stop stop-color="#86E9FF"/>
<stop offset="0.520536" stop-color="#027A5D" stop-opacity="0.53"/>
<stop offset="1" stop-color="#027A5D" stop-opacity="0"/>
</radialGradient>
<radialGradient id="paint1_radial_114_1277" cx="0" cy="0" r="1" gradientUnits="userSpaceOnUse" gradientTransform="translate(-32.0234 82.4858) rotate(25.3877) scale(284.643 476.582)">
<stop stop-color="#86E9FF"/>
<stop offset="0.520536" stop-color="#027A5D" stop-opacity="0.53"/>
<stop offset="1" stop-color="#027A5D" stop-opacity="0"/>
</radialGradient>
</defs>
</svg>
