<?xml version="1.0"?>
<svg xmlns="http://www.w3.org/2000/svg" viewBox="0 0 78.267 58.6">
  <defs>
    <style>.cls-1{fill:#bfbfbf;}.cls-2{fill:#fff;}.cls-3{fill:#dd4f52;}</style>
  </defs>
  <title>007Asset 8</title>
  <g id="Layer_2">
    <g id="guides">
      <path class="cls-1" d="M8,1.261H1.913A2.062,2.062,0,0,0,0,3.414V55.077a1.886,1.886,0,0,0,1.913,1.957H35.394a5.248,5.248,0,0,0,7.479,0H76.354a1.886,1.886,0,0,0,1.913-1.957V3.414a2.062,2.062,0,0,0-1.913-2.153H8Z"/>
      <path class="cls-2" d="M74.274,2.809A54.615,54.615,0,0,0,39.133,3h0a54.612,54.612,0,0,0-35.14-.191c-.187.063-1.673.484-1.86.548V57h2.7a45.781,45.781,0,0,1,32.6,0h3.4a45.781,45.781,0,0,1,32.6,0h2.7V3.357C75.947,3.293,74.461,2.872,74.274,2.809Z"/>
      <path class="cls-1" d="M44.933,13.4a.883.883,0,0,0,1.2.5,29.6,29.6,0,0,1,21.9,0c.1,0,.2.1.3.1a.76.76,0,0,0,.8-.6.8.8,0,0,0-.4-1.2,31.286,31.286,0,0,0-23.3,0A.883.883,0,0,0,44.933,13.4Z"/>
      <path class="cls-1" d="M68.733,19.8a31.286,31.286,0,0,0-23.3,0,.919.919,0,0,0,.7,1.7,29.6,29.6,0,0,1,21.9,0c.1,0,.2.1.3.1a.76.76,0,0,0,.8-.6A.8.8,0,0,0,68.733,19.8Z"/>
      <path class="cls-1" d="M68.733,27.4a31.286,31.286,0,0,0-23.3,0,.919.919,0,1,0,.7,1.7,29.6,29.6,0,0,1,21.9,0c.1,0,.2.1.3.1a.76.76,0,0,0,.8-.6A.8.8,0,0,0,68.733,27.4Z"/>
      <path class="cls-1" d="M68.733,42.6a31.286,31.286,0,0,0-23.3,0,.919.919,0,1,0,.7,1.7,29.6,29.6,0,0,1,21.9,0c.1,0,.2.1.3.1a.76.76,0,0,0,.8-.6A.785.785,0,0,0,68.733,42.6Z"/>
      <path class="cls-1" d="M68.733,35a31.286,31.286,0,0,0-23.3,0,.919.919,0,0,0,.7,1.7,29.6,29.6,0,0,1,21.9,0c.1,0,.2.1.3.1a.76.76,0,0,0,.8-.6A.8.8,0,0,0,68.733,35Z"/>
      <path class="cls-1" d="M9.533,12.2a.8.8,0,0,0-.4,1.2.76.76,0,0,0,.8.6c.1,0,.2-.1.3-.1a29.6,29.6,0,0,1,21.9,0,.919.919,0,0,0,.7-1.7A31.286,31.286,0,0,0,9.533,12.2Z"/>
      <path class="cls-1" d="M32.833,19.8a31.286,31.286,0,0,0-23.3,0,.8.8,0,0,0-.4,1.2.76.76,0,0,0,.8.6c.1,0,.2-.1.3-.1a29.6,29.6,0,0,1,21.9,0,.919.919,0,1,0,.7-1.7Z"/>
      <path class="cls-1" d="M32.833,27.4a31.286,31.286,0,0,0-23.3,0,.8.8,0,0,0-.4,1.2.76.76,0,0,0,.8.6c.1,0,.2-.1.3-.1a29.6,29.6,0,0,1,21.9,0,.919.919,0,1,0,.7-1.7Z"/>
      <path class="cls-1" d="M32.833,42.6a31.286,31.286,0,0,0-23.3,0,.785.785,0,0,0-.4,1.2.76.76,0,0,0,.8.6c.1,0,.2-.1.3-.1a29.6,29.6,0,0,1,21.9,0,.919.919,0,0,0,.7-1.7Z"/>
      <path class="cls-1" d="M32.833,35a31.286,31.286,0,0,0-23.3,0,.8.8,0,0,0-.4,1.2.76.76,0,0,0,.8.6c.1,0,.2-.1.3-.1a29.6,29.6,0,0,1,21.9,0,.919.919,0,1,0,.7-1.7Z"/>
      <path class="cls-3" d="M62.676.288v18.07l2.881-3.145,2.894,3.145V1.205A54.318,54.318,0,0,0,62.676.288Z"/>
    </g>
  </g>
</svg>
