<svg width="64" height="64" viewBox="0 0 64 64" fill="none" xmlns="http://www.w3.org/2000/svg">
<path d="M30.2916 16.4085C29.3418 16.1452 28.4801 15.6679 27.7619 15.0319L15.0792 38.0667C16.0156 38.3684 16.8584 38.8805 17.5519 39.5469L30.2916 16.4085Z" fill="white"/>
<path d="M19.3915 42.88C19.4758 43.2937 19.5201 43.7218 19.5201 44.16C19.5201 44.7123 19.4497 45.2484 19.3176 45.76H44.8425C44.7104 45.2484 44.64 44.7123 44.64 44.16C44.64 43.7218 44.6843 43.2937 44.7686 42.88L19.3915 42.88Z" fill="white"/>
<path d="M36.2552 15.0167L49.0587 38.0738C48.1236 38.3789 47.2825 38.8939 46.5914 39.563L33.7304 16.4023C34.679 16.1356 35.5391 15.6553 36.2552 15.0167Z" fill="white"/>
<path fill-rule="evenodd" clip-rule="evenodd" d="M50.9885 41.6581C49.6361 41.6581 48.536 42.7591 48.536 44.1124C48.536 45.4656 49.6361 46.5666 50.9885 46.5666C52.3409 46.5666 53.4412 45.4656 53.4412 44.1124C53.4412 42.7591 52.3409 41.6581 50.9885 41.6581ZM50.9885 49.5047C48.0172 49.5047 45.6001 47.0859 45.6001 44.1124C45.6001 41.139 48.0172 38.72 50.9885 38.72C53.9598 38.72 56.3772 41.139 56.3772 44.1124C56.3772 47.0859 53.9598 49.5047 50.9885 49.5047Z" fill="white"/>
<path fill-rule="evenodd" clip-rule="evenodd" d="M31.9485 7.7381C30.5961 7.7381 29.496 8.8391 29.496 10.1924C29.496 11.5456 30.5961 12.6466 31.9485 12.6466C33.3009 12.6466 34.4012 11.5456 34.4012 10.1924C34.4012 8.8391 33.3009 7.7381 31.9485 7.7381ZM31.9485 15.5847C28.9772 15.5847 26.5601 13.1659 26.5601 10.1924C26.5601 7.21899 28.9772 4.79999 31.9485 4.79999C34.9198 4.79999 37.3372 7.21899 37.3372 10.1924C37.3372 13.1659 34.9198 15.5847 31.9485 15.5847Z" fill="white"/>
<path fill-rule="evenodd" clip-rule="evenodd" d="M13.0685 41.6581C11.7161 41.6581 10.616 42.7591 10.616 44.1124C10.616 45.4656 11.7161 46.5666 13.0685 46.5666C14.4209 46.5666 15.5212 45.4656 15.5212 44.1124C15.5212 42.7591 14.4209 41.6581 13.0685 41.6581ZM13.0685 49.5047C10.0972 49.5047 7.68005 47.0859 7.68005 44.1124C7.68005 41.139 10.0972 38.72 13.0685 38.72C16.0398 38.72 18.4572 41.139 18.4572 44.1124C18.4572 47.0859 16.0398 49.5047 13.0685 49.5047Z" fill="white"/>
</svg>
