<svg width="970" height="356" viewBox="0 0 970 356" fill="none" xmlns="http://www.w3.org/2000/svg">
<path d="M933.8 61.5H524.5V73.5H933.8C947 73.5 957.8 84.3 957.8 97.5V257.7C957.8 270.9 947 281.7 933.8 281.7H909.6L918.9 272.4H905.9L890.6 287.7L905.9 303H918.9L909.6 293.7H933.8C953.7 293.7 969.8 277.6 969.8 257.7V97.5C969.8 77.6 953.7 61.5 933.8 61.5ZM478.5 82.7H491.5L506.8 67.4L491.5 52.1H478.5L487.8 61.4H41.5V73.4H487.7L478.5 82.7ZM410.8 272.4H397.8L382.5 287.7L397.8 303H410.8L401.5 293.7H521.9V281.7H401.6L410.8 272.4Z" fill="url(#paint0_linear_765_2)"/>
<path d="M18 0H355C364.9 0 373 8.1 373 18V117C373 126.9 364.9 135 355 135H18C8.1 135 0 126.9 0 117V18C0 8 8.1 0 18 0Z" fill="#F2F2F2"/>
<path fill-rule="evenodd" clip-rule="evenodd" d="M322.299 34.5C324.299 33.2 326.599 32.5 328.999 32.5C332.199 32.5 335.199 33.8 337.499 36C339.699 38.2 340.999 41.3 340.999 44.5C340.999 46.9 340.299 49.2 338.999 51.2C337.699 53.2 335.799 54.7 333.599 55.6C331.399 56.5 328.999 56.7 326.699 56.3C324.399 55.8 322.199 54.7 320.599 53C318.899 51.3 317.799 49.2 317.299 46.9C316.799 44.6 317.099 42.2 317.999 40C318.799 37.7 320.399 35.9 322.299 34.5ZM327.199 49.1L334.999 41.3L333.599 39.9L327.199 46.3L324.299 43.4L322.899 44.8L327.199 49.1Z" fill="#333333"/>
<path d="M33.3984 58.2L38.7984 42.9H42.1984L47.5984 58.2H44.5984L43.2984 54.4H37.5984L36.2984 58.2H33.3984ZM42.5984 52.2L40.4984 46H40.3984L38.2984 52.2H42.5984Z" fill="#171717"/>
<path d="M48.5977 52.5C48.5977 49 50.6977 46.6 54.0977 46.6C56.8977 46.6 58.7977 48.2 58.9977 50.7H56.3976C56.1976 49.6 55.3977 48.8 54.0977 48.8C52.3977 48.8 51.2976 50.2 51.2976 52.5C51.2976 54.8 52.3977 56.3 54.0977 56.3C55.2977 56.3 56.1976 55.6 56.3976 54.4H58.9977C58.7977 56.8 56.9977 58.5 54.0977 58.5C50.6977 58.4 48.5977 56 48.5977 52.5Z" fill="#171717"/>
<path d="M60.6992 55C60.6992 52.4 62.7992 51.8 65.0992 51.5C67.0992 51.3 67.8992 51.2 67.8992 50.5C67.8992 49.4 67.1992 48.7 65.9992 48.7C64.6992 48.7 63.8992 49.4 63.6992 50.2L61.1992 49.8C61.7992 47.7 63.5992 46.6 66.0992 46.6C68.2992 46.6 70.7992 47.5 70.7992 50.5V58.2H68.1992V56.6H68.0992C67.5992 57.6 66.4992 58.4 64.6992 58.4C62.2992 58.5 60.6992 57.3 60.6992 55ZM67.8992 54.1V52.7C67.4992 53 66.0992 53.2 65.3992 53.3C64.1992 53.5 63.2992 53.9 63.2992 54.9C63.2992 55.9 64.0992 56.4 65.1992 56.4C66.8992 56.5 67.8992 55.4 67.8992 54.1Z" fill="#171717"/>
<path d="M72.7969 52.5C72.7969 48.7 74.8969 46.6 77.4969 46.6C79.4969 46.6 80.3969 47.8 80.7969 48.6H80.8969V42.9H83.5969V58.2H80.8969V56.4H80.6969C80.2969 57.2 79.3969 58.4 77.3969 58.4C74.7969 58.4 72.7969 56.3 72.7969 52.5ZM80.9969 52.5C80.9969 50.3 79.9969 48.8 78.2969 48.8C76.4969 48.8 75.5969 50.3 75.5969 52.5C75.5969 54.6 76.4969 56.2 78.2969 56.2C79.9969 56.2 80.9969 54.7 80.9969 52.5Z" fill="#171717"/>
<path d="M86 52.6C86 49.1 88.1 46.7 91.4 46.7C94.2 46.7 96.6 48.5 96.6 52.5V53.3H88.6C88.6 55.3 89.8 56.4 91.5 56.4C92.7 56.4 93.6 55.9 93.9 54.9L96.4 55.2C95.9 57.2 94.1 58.5 91.4 58.5C88.2 58.4 86 56.2 86 52.6ZM94.1 51.4C94.1 49.8 93 48.7 91.5 48.7C89.9 48.7 88.8 49.9 88.7 51.4H94.1Z" fill="#171717"/>
<path d="M99 46.8H101.6V48.7H101.7C102.2 47.4 103.3 46.6 104.9 46.6C106.4 46.6 107.6 47.4 108 48.7H108.1C108.6 47.4 109.9 46.6 111.5 46.6C113.6 46.6 115.1 48 115.1 50.5V58.2H112.4V50.9C112.4 49.5 111.5 48.8 110.4 48.8C109.1 48.8 108.3 49.7 108.3 51V58.1H105.7V50.7C105.7 49.5 104.9 48.8 103.8 48.8C102.6 48.8 101.7 49.8 101.7 51.2V58.2H99V46.8Z" fill="#171717"/>
<path d="M117.298 62.2L117.898 60.1C119.098 60.4 119.898 60.4 120.398 59L120.598 58.4L116.398 46.7H119.298L121.898 55.4H121.998L124.598 46.7H127.498L122.898 59.5C122.298 61.3 120.998 62.4 118.898 62.4C118.398 62.5 117.698 62.4 117.298 62.2Z" fill="#171717"/>
<path d="M141.299 50.1C141.099 49.3 140.399 48.7 139.199 48.7C138.099 48.7 137.199 49.2 137.199 50C137.199 50.7 137.699 51.1 138.799 51.3L140.799 51.7C142.999 52.2 143.999 53.2 143.999 54.8C143.999 57 141.999 58.5 139.099 58.5C136.299 58.5 134.499 57.3 134.199 55.2L136.799 54.9C136.999 55.9 137.799 56.5 139.099 56.5C140.399 56.5 141.199 55.9 141.199 55.1C141.199 54.5 140.699 54 139.699 53.8L137.699 53.4C135.499 52.9 134.499 51.8 134.499 50.2C134.499 48.1 136.399 46.7 139.099 46.7C141.799 46.7 143.299 47.9 143.699 49.9L141.299 50.1Z" fill="#171717"/>
<path d="M151.998 48.9H149.698V54.8C149.698 55.9 150.198 56.1 150.898 56.1C151.198 56.1 151.498 56 151.698 56L152.198 58.1C151.898 58.2 151.398 58.3 150.598 58.4C148.598 58.5 146.998 57.4 146.998 55.2V48.8H145.398V46.7H146.998V44H149.698V46.7H151.998V48.9Z" fill="#171717"/>
<path d="M153.699 55C153.699 52.4 155.799 51.8 158.099 51.5C160.099 51.3 160.899 51.2 160.899 50.5C160.899 49.4 160.199 48.7 158.999 48.7C157.699 48.7 156.899 49.4 156.699 50.2L154.199 49.8C154.799 47.7 156.599 46.6 159.099 46.6C161.299 46.6 163.799 47.5 163.799 50.5V58.2H161.199V56.6H161.099C160.599 57.6 159.499 58.4 157.699 58.4C155.299 58.5 153.699 57.3 153.699 55ZM160.899 54.1V52.7C160.499 53 159.099 53.2 158.399 53.3C157.199 53.5 156.299 53.9 156.299 54.9C156.299 55.9 157.099 56.4 158.199 56.4C159.899 56.5 160.899 55.4 160.899 54.1Z" fill="#171717"/>
<path d="M166.299 46.8H168.899V48.7H168.999C169.399 47.4 170.499 46.6 171.799 46.6C172.099 46.6 172.499 46.6 172.799 46.7V49.2C172.599 49.1 171.999 49 171.499 49C169.999 49 168.899 50 168.899 51.5V58.2H166.199V46.8H166.299Z" fill="#171717"/>
<path d="M180.998 48.9H178.698V54.8C178.698 55.9 179.198 56.1 179.898 56.1C180.198 56.1 180.498 56 180.698 56L181.198 58.1C180.898 58.2 180.398 58.3 179.598 58.4C177.598 58.5 175.998 57.4 175.998 55.2V48.8H174.398V46.7H175.998V44H178.698V46.7H180.998V48.9Z" fill="#171717"/>
<path d="M35.9984 79.9L39.9984 89.5H40.0984L44.0984 79.9H45.7984V91.5H44.3984V82.7H44.2984L40.6984 91.5H39.3984L35.7984 82.7H35.6984V91.5H34.3984V79.9H35.9984Z" fill="#808080"/>
<path d="M47.8984 89.0001C47.8984 87.0001 49.6984 86.6001 51.2984 86.4001C52.8984 86.2001 53.4984 86.3 53.4984 85.6C53.4984 84.5 52.8984 83.8 51.6984 83.8C50.3984 83.8 49.6984 84.5 49.3984 85.1L48.0984 84.6C48.7984 83 50.2984 82.6 51.5984 82.6C52.6984 82.6 54.7984 82.9 54.7984 85.7V91.4001H53.4984V90.3H53.3984C53.0984 90.9 52.2984 91.7 50.7984 91.7C49.1984 91.7 47.8984 90.7001 47.8984 89.0001ZM53.5984 88.4001V87.2C53.3984 87.5 51.8984 87.6 51.2984 87.7C50.2984 87.8 49.2984 88.2 49.2984 89.2C49.2984 90.1 50.0984 90.6 51.0984 90.6C52.6984 90.5 53.5984 89.4001 53.5984 88.4001Z" fill="#808080"/>
<path d="M56.8969 94.6001L57.1969 93.4001C58.1969 93.6001 58.7969 93.5001 59.2969 92.2001L59.4969 91.5001L56.2969 82.7001H57.7969L60.1969 89.6001H60.2969L62.6969 82.7001H64.1969L60.4969 92.7001C59.9969 94.1001 59.0969 94.7001 57.8969 94.7001C57.3969 94.8001 57.0969 94.7001 56.8969 94.6001Z" fill="#808080"/>
<path d="M74.4992 91.5001H73.0992V81.4001H72.9992L70.1992 83.3V81.9001L73.0992 80.0001H74.4992V91.5001Z" fill="#808080"/>
<path d="M77.8984 90.5001L81.6984 86.3C82.9984 84.8 83.6984 84.0001 83.6984 83.0001C83.6984 81.8001 82.6984 81.0001 81.4984 81.0001C80.1984 81.0001 79.2984 81.9 79.2984 83.2H77.9984C77.9984 81.2 79.4984 79.8 81.5984 79.8C83.5984 79.8 85.0984 81.2001 85.0984 83.0001C85.0984 84.3001 84.4984 85.3001 82.4984 87.4001L79.8984 90.2V90.3H85.2984V91.5001H77.9984V90.5001H77.8984Z" fill="#808080"/>
<path d="M91.2969 83.9001H89.3969V89.0001C89.3969 90.1001 89.9969 90.3 90.5969 90.3C90.8969 90.3 91.0969 90.3 91.1969 90.2L91.4969 91.4001C91.2969 91.5001 90.9969 91.6 90.4969 91.6C89.3969 91.6 88.0969 90.9001 88.0969 89.4001V84.0001H86.7969V82.9001H88.0969V80.8H89.3969V82.9001H91.2969V83.9001Z" fill="#808080"/>
<path d="M94.8976 91.5H93.5977V79.9H94.8976V84.2H94.9977C95.3977 83.3 96.1977 82.7 97.5977 82.7C99.3977 82.7 100.598 83.7 100.598 86V91.5H99.2976V86.1C99.2976 84.7 98.4976 83.9 97.2976 83.9C95.9976 83.9 94.9977 84.8 94.9977 86.3V91.5H94.8976Z" fill="#808080"/>
<path d="M528 0H865C874.9 0 883 8.1 883 18V117C883 126.9 874.9 135 865 135H528C518.1 135 510 126.9 510 117V18C510 8 518.1 0 528 0Z" fill="#F2F2F2"/>
<path d="M846 55.5C852.075 55.5 857 50.5751 857 44.5C857 38.4249 852.075 33.5 846 33.5C839.925 33.5 835 38.4249 835 44.5C835 50.5751 839.925 55.5 846 55.5Z" stroke="#B3B3B3" stroke-miterlimit="10"/>
<path d="M845.999 52.8C850.583 52.8 854.299 49.0839 854.299 44.5C854.299 39.916 850.583 36.2 845.999 36.2C841.415 36.2 837.699 39.916 837.699 44.5C837.699 49.0839 841.415 52.8 845.999 52.8Z" stroke="#B3B3B3" stroke-width="0.75" stroke-miterlimit="10"/>
<path d="M528 220.2H865C874.9 220.2 883 228.3 883 238.2V337.2C883 347.1 874.9 355.2 865 355.2H528C518.1 355.2 510 347.1 510 337.2V238.2C510 228.2 518.1 220.2 528 220.2Z" fill="#F2F2F2"/>
<path d="M846 275.7C852.075 275.7 857 270.775 857 264.7C857 258.625 852.075 253.7 846 253.7C839.925 253.7 835 258.625 835 264.7C835 270.775 839.925 275.7 846 275.7Z" stroke="#B3B3B3" stroke-miterlimit="10"/>
<path d="M845.999 273C850.583 273 854.299 269.284 854.299 264.7C854.299 260.116 850.583 256.4 845.999 256.4C841.415 256.4 837.699 260.116 837.699 264.7C837.699 269.284 841.415 273 845.999 273Z" stroke="#B3B3B3" stroke-width="0.75" stroke-miterlimit="10"/>
<path d="M18 220.2H355C364.9 220.2 373 228.3 373 238.2V337.2C373 347.1 364.9 355.2 355 355.2H18C8.1 355.2 0 347.1 0 337.2V238.2C0 228.2 8.1 220.2 18 220.2Z" fill="#F2F2F2"/>
<path d="M329 275.7C335.075 275.7 340 270.775 340 264.7C340 258.625 335.075 253.7 329 253.7C322.925 253.7 318 258.625 318 264.7C318 270.775 322.925 275.7 329 275.7Z" stroke="#B3B3B3" stroke-miterlimit="10"/>
<path d="M328.999 273C333.583 273 337.299 269.284 337.299 264.7C337.299 260.116 333.583 256.4 328.999 256.4C324.415 256.4 320.699 260.116 320.699 264.7C320.699 269.284 324.415 273 328.999 273Z" stroke="#B3B3B3" stroke-width="0.75" stroke-miterlimit="10"/>
<path d="M544.402 265.1H550.102C553.602 265.1 555.502 267.1 555.502 270C555.502 272.1 554.602 273.6 552.802 274.3L556.102 280.4H553.002L550.002 274.8H547.202V280.4H544.402V265.1ZM549.702 272.5C551.802 272.5 552.702 271.6 552.702 270C552.702 268.4 551.802 267.4 549.702 267.4H547.202V272.5H549.702Z" fill="#171717"/>
<path d="M557.301 274.8C557.301 271.3 559.401 268.9 562.701 268.9C565.501 268.9 567.901 270.7 567.901 274.7V275.5H559.901C559.901 277.5 561.101 278.6 562.801 278.6C564.001 278.6 564.901 278.1 565.201 277.1L567.701 277.4C567.201 279.4 565.401 280.7 562.701 280.7C559.401 280.6 557.301 278.3 557.301 274.8ZM565.301 273.6C565.301 272 564.201 270.9 562.701 270.9C561.101 270.9 560.001 272.1 559.901 273.6H565.301Z" fill="#171717"/>
<path d="M576.803 272.3C576.603 271.5 575.903 270.9 574.703 270.9C573.603 270.9 572.703 271.4 572.703 272.2C572.703 272.9 573.203 273.3 574.303 273.5L576.303 273.9C578.503 274.4 579.503 275.4 579.503 277C579.503 279.2 577.503 280.7 574.603 280.7C571.803 280.7 570.003 279.5 569.703 277.4L572.303 277.1C572.503 278.1 573.303 278.7 574.603 278.7C575.903 278.7 576.703 278.1 576.703 277.3C576.703 276.7 576.203 276.2 575.203 276L573.203 275.6C571.003 275.1 570.003 274 570.003 272.4C570.003 270.3 571.903 268.9 574.603 268.9C577.303 268.9 578.803 270.1 579.203 272.1L576.803 272.3Z" fill="#171717"/>
<path d="M589.001 269H591.701V280.5H589.101V278.5H589.001C588.501 279.8 587.301 280.7 585.601 280.7C583.301 280.7 581.801 279.1 581.801 276.4V269.1H584.501V276C584.501 277.5 585.401 278.4 586.701 278.4C587.901 278.4 589.101 277.5 589.101 275.8V269H589.001Z" fill="#171717"/>
<path d="M597.204 280.4H594.504V265.1H597.204V280.4Z" fill="#171717"/>
<path d="M605.702 271H603.402V276.9C603.402 278 603.902 278.2 604.602 278.2C604.902 278.2 605.202 278.1 605.402 278.1L605.902 280.2C605.602 280.3 605.102 280.4 604.302 280.5C602.302 280.6 600.702 279.5 600.702 277.3V270.9H599.102V268.8H600.702V266.1H603.402V268.8H605.702V271Z" fill="#171717"/>
<path d="M614.401 272.3C614.201 271.5 613.501 270.9 612.301 270.9C611.201 270.9 610.301 271.4 610.301 272.2C610.301 272.9 610.801 273.3 611.901 273.5L613.901 273.9C616.101 274.4 617.101 275.4 617.101 277C617.101 279.2 615.101 280.7 612.201 280.7C609.401 280.7 607.601 279.5 607.301 277.4L609.901 277.1C610.101 278.1 610.901 278.7 612.201 278.7C613.501 278.7 614.301 278.1 614.301 277.3C614.301 276.7 613.801 276.2 612.801 276L610.801 275.6C608.601 275.1 607.601 274 607.601 272.4C607.601 270.3 609.501 268.9 612.201 268.9C614.901 268.9 616.401 270.1 616.801 272.1L614.401 272.3Z" fill="#171717"/>
<path d="M624.004 277.2C624.004 274.6 626.104 274 628.404 273.7C630.404 273.5 631.204 273.4 631.204 272.7C631.204 271.6 630.504 270.9 629.304 270.9C628.004 270.9 627.204 271.6 627.004 272.4L624.504 272C625.104 269.9 626.904 268.8 629.404 268.8C631.604 268.8 634.104 269.7 634.104 272.7V280.4H631.504V278.8H631.404C630.904 279.8 629.804 280.6 628.004 280.6C625.604 280.6 624.004 279.5 624.004 277.2ZM631.204 276.3V274.9C630.804 275.2 629.404 275.4 628.704 275.5C627.504 275.7 626.604 276.1 626.604 277.1C626.604 278.1 627.404 278.6 628.504 278.6C630.204 278.7 631.204 277.6 631.204 276.3Z" fill="#171717"/>
<path d="M642.303 280.4H639.303L635.203 268.9H638.103L640.703 277.4H640.803L643.403 268.9H646.303L642.303 280.4Z" fill="#171717"/>
<path d="M647.402 277.2C647.402 274.6 649.502 274 651.802 273.7C653.802 273.5 654.602 273.4 654.602 272.7C654.602 271.6 653.902 270.9 652.702 270.9C651.402 270.9 650.602 271.6 650.402 272.4L647.902 272C648.502 269.9 650.302 268.8 652.802 268.8C655.002 268.8 657.502 269.7 657.502 272.7V280.4H654.902V278.8H654.802C654.302 279.8 653.202 280.6 651.402 280.6C649.102 280.6 647.402 279.5 647.402 277.2ZM654.602 276.3V274.9C654.202 275.2 652.802 275.4 652.102 275.5C650.902 275.7 650.002 276.1 650.002 277.1C650.002 278.1 650.802 278.6 651.902 278.6C653.602 278.7 654.602 277.6 654.602 276.3Z" fill="#171717"/>
<path d="M659.801 265.9C659.801 265.1 660.501 264.4 661.401 264.4C662.301 264.4 663.001 265.1 663.001 265.9C663.001 266.7 662.301 267.4 661.401 267.4C660.501 267.3 659.801 266.7 659.801 265.9ZM660.001 269H662.701V280.5H660.001V269Z" fill="#171717"/>
<path d="M668.204 280.4H665.504V265.1H668.204V280.4Z" fill="#171717"/>
<path d="M670.402 277.2C670.402 274.6 672.502 274 674.802 273.7C676.802 273.5 677.602 273.4 677.602 272.7C677.602 271.6 676.902 270.9 675.702 270.9C674.402 270.9 673.602 271.6 673.402 272.4L670.902 272C671.502 269.9 673.302 268.8 675.802 268.8C678.002 268.8 680.502 269.7 680.502 272.7V280.4H677.902V278.8H677.802C677.302 279.8 676.202 280.6 674.402 280.6C672.102 280.6 670.402 279.5 670.402 277.2ZM677.602 276.3V274.9C677.202 275.2 675.802 275.4 675.102 275.5C673.902 275.7 673.002 276.1 673.002 277.1C673.002 278.1 673.802 278.6 674.902 278.6C676.602 278.7 677.602 277.6 677.602 276.3Z" fill="#171717"/>
<path d="M683.104 265.1H685.804V270.8H685.904C686.304 270 687.204 268.8 689.204 268.8C691.804 268.8 693.904 270.9 693.904 274.7C693.904 278.5 691.904 280.6 689.204 280.6C687.204 280.6 686.304 279.4 685.904 278.6H685.704V280.4H683.004V265.1H683.104ZM688.504 278.4C690.304 278.4 691.204 276.8 691.204 274.7C691.204 272.6 690.304 271 688.504 271C686.804 271 685.804 272.4 685.804 274.7C685.804 277 686.804 278.4 688.504 278.4Z" fill="#171717"/>
<path d="M699.001 280.4H696.301V265.1H699.001V280.4Z" fill="#171717"/>
<path d="M701.203 274.8C701.203 271.3 703.303 268.9 706.603 268.9C709.403 268.9 711.803 270.7 711.803 274.7V275.5H703.803C703.803 277.5 705.003 278.6 706.703 278.6C707.903 278.6 708.803 278.1 709.103 277.1L711.603 277.4C711.103 279.4 709.303 280.7 706.603 280.7C703.303 280.6 701.203 278.3 701.203 274.8ZM709.303 273.6C709.303 272 708.203 270.9 706.703 270.9C705.103 270.9 704.003 272.1 703.903 273.6H709.303Z" fill="#171717"/>
<path d="M543.301 313.7L547.601 302.1H549.101L553.401 313.7H551.901L550.701 310.4H546.001L544.801 313.7H543.301ZM550.201 309.2L548.301 304H548.201L546.301 309.2H550.201Z" fill="#808080"/>
<path d="M560.402 305H561.702V313.7H560.402V312.2H560.302C559.902 313.1 559.002 313.8 557.702 313.8C556.102 313.8 554.902 312.7 554.902 310.5V305H556.202V310.4C556.202 311.7 557.002 312.5 558.102 312.5C559.102 312.5 560.302 311.8 560.302 310.1V305H560.402Z" fill="#808080"/>
<path d="M564.202 315.4L565.302 314.6C565.702 315.1 566.202 315.9 567.802 315.9C569.202 315.9 570.202 315.2 570.202 313.8V312H570.102C569.802 312.5 569.302 313.5 567.602 313.5C565.502 313.5 563.902 312 563.902 309.2C563.902 306.5 565.402 304.8 567.602 304.8C569.302 304.8 569.802 305.8 570.102 306.3H570.202V304.9H571.502V313.9C571.502 316.1 569.802 317.1 567.702 317.1C565.802 317.2 564.702 316.3 564.202 315.4ZM570.202 309.3C570.202 307.4 569.302 306.1 567.702 306.1C566.002 306.1 565.202 307.5 565.202 309.3C565.202 311.1 566.102 312.4 567.702 312.4C569.302 312.4 570.202 311.2 570.202 309.3Z" fill="#808080"/>
<path d="M579.5 305H580.8V313.7H579.5V312.2H579.4C579 313.1 578.1 313.8 576.8 313.8C575.2 313.8 574 312.7 574 310.5V305H575.3V310.4C575.3 311.7 576.1 312.5 577.2 312.5C578.2 312.5 579.4 311.8 579.4 310.1V305H579.5Z" fill="#808080"/>
<path d="M588.201 307.3C588.001 306.7 587.501 306.1 586.301 306.1C585.201 306.1 584.401 306.6 584.401 307.4C584.401 308.1 584.901 308.4 585.901 308.7L587.201 309C588.801 309.4 589.501 310.1 589.501 311.4C589.501 312.9 588.101 314 586.101 314C584.301 314 583.101 313.2 582.801 311.7L584.101 311.4C584.301 312.3 585.001 312.8 586.101 312.8C587.301 312.8 588.101 312.2 588.101 311.4C588.101 310.8 587.701 310.4 586.801 310.2L585.301 309.9C583.701 309.5 583.001 308.7 583.001 307.5C583.001 306 584.401 305 586.201 305C587.901 305 588.901 305.8 589.301 307.1L588.201 307.3Z" fill="#808080"/>
<path d="M595.402 306.1H593.502V311.2C593.502 312.3 594.102 312.5 594.702 312.5C595.002 312.5 595.202 312.5 595.302 312.4L595.602 313.6C595.402 313.7 595.102 313.8 594.602 313.8C593.502 313.8 592.202 313.1 592.202 311.6V306.2H590.902V305.1H592.202V303H593.502V305.1H595.402V306.1Z" fill="#808080"/>
<path d="M601.902 310.8H603.302C603.402 311.9 604.502 312.6 605.802 312.6C607.302 312.6 608.402 311.8 608.402 310.5C608.402 309.2 607.402 308.3 605.702 308.3H604.802V307.1H605.702C607.102 307.1 608.002 306.3 608.002 305.1C608.002 303.9 607.202 303.1 605.902 303.1C604.702 303.1 603.602 303.8 603.502 304.9H602.102C602.202 303.1 603.802 301.8 605.802 301.8C608.002 301.8 609.302 303.3 609.302 304.9C609.302 306.2 608.602 307.2 607.402 307.5V307.6C608.902 307.8 609.702 308.9 609.702 310.4C609.702 312.3 608.002 313.7 605.802 313.7C603.602 313.9 602.002 312.6 601.902 310.8Z" fill="#808080"/>
<path d="M612.102 305H613.402V306.3H613.502C613.802 305.4 614.702 304.8 615.802 304.8C616.002 304.8 616.402 304.8 616.502 304.8V306.2C616.402 306.2 616.002 306.1 615.702 306.1C614.402 306.1 613.502 307 613.502 308.1V313.6H612.202V305H612.102Z" fill="#808080"/>
<path d="M617.402 309.4C617.402 306.7 618.902 304.9 621.102 304.9C622.802 304.9 623.302 305.9 623.602 306.4H623.702V302.1H625.002V313.7H623.702V312.4H623.502C623.202 312.9 622.602 313.9 621.002 313.9C618.902 313.9 617.402 312.1 617.402 309.4ZM623.802 309.3C623.802 307.3 622.902 306 621.302 306C619.602 306 618.802 307.4 618.802 309.3C618.802 311.2 619.702 312.6 621.302 312.6C622.902 312.7 623.802 311.3 623.802 309.3Z" fill="#808080"/>
<path d="M544.402 45.2V29.9H549.702C554.302 29.9 557.002 32.8 557.002 37.5C557.002 42.3 554.202 45.2 549.602 45.2H544.402ZM549.402 42.8C552.602 42.8 554.202 41.1 554.202 37.5C554.202 34 552.602 32.3 549.502 32.3H547.102V42.8H549.402Z" fill="#171717"/>
<path d="M559 39.6C559 36.1 561.1 33.7 564.4 33.7C567.2 33.7 569.6 35.5 569.6 39.5V40.3H561.6C561.6 42.3 562.8 43.4 564.5 43.4C565.7 43.4 566.6 42.9 566.9 41.9L569.4 42.2C568.9 44.2 567.1 45.5 564.4 45.5C561.1 45.4 559 43.2 559 39.6ZM567.1 38.4C567.1 36.8 566 35.7 564.5 35.7C562.9 35.7 561.8 36.9 561.7 38.4H567.1Z" fill="#171717"/>
<path d="M571.402 42C571.402 39.4 573.502 38.8 575.802 38.5C577.802 38.3 578.602 38.2 578.602 37.5C578.602 36.4 577.902 35.7 576.702 35.7C575.402 35.7 574.602 36.4 574.402 37.2L571.902 36.8C572.502 34.7 574.302 33.6 576.802 33.6C579.002 33.6 581.502 34.5 581.502 37.5V45.2H578.902V43.6H578.802C578.302 44.6 577.202 45.4 575.402 45.4C573.002 45.5 571.402 44.3 571.402 42ZM578.602 41.1V39.7C578.202 40 576.802 40.2 576.102 40.3C574.902 40.5 574.002 40.9 574.002 41.9C574.002 42.9 574.802 43.4 575.902 43.4C577.602 43.5 578.602 42.4 578.602 41.1Z" fill="#171717"/>
<path d="M583.5 39.5C583.5 35.7 585.6 33.6 588.2 33.6C590.2 33.6 591.1 34.8 591.5 35.6H591.6V29.9H594.3V45.2H591.6V43.4H591.4C591 44.2 590.1 45.4 588.1 45.4C585.5 45.4 583.5 43.3 583.5 39.5ZM591.7 39.5C591.7 37.3 590.7 35.8 589 35.8C587.2 35.8 586.3 37.3 586.3 39.5C586.3 41.6 587.2 43.2 589 43.2C590.7 43.2 591.7 41.7 591.7 39.5Z" fill="#171717"/>
<path d="M599.899 45.2H597.199V29.9H599.899V45.2Z" fill="#171717"/>
<path d="M602.5 30.7C602.5 29.9 603.2 29.2 604.1 29.2C605 29.2 605.7 29.9 605.7 30.7C605.7 31.5 605 32.2 604.1 32.2C603.2 32.1 602.5 31.5 602.5 30.7ZM602.7 33.8H605.4V45.3H602.7V33.8Z" fill="#171717"/>
<path d="M610.899 45.2H608.199V33.7H610.799V35.6H610.899C611.399 34.3 612.599 33.5 614.299 33.5C616.699 33.5 618.199 35.1 618.199 37.8V45.1H615.499V38.3C615.499 36.8 614.699 35.9 613.299 35.9C611.899 35.9 610.899 36.9 610.899 38.5V45.2Z" fill="#171717"/>
<path d="M620.5 39.6C620.5 36.1 622.6 33.7 625.9 33.7C628.7 33.7 631.1 35.5 631.1 39.5V40.3H623.1C623.1 42.3 624.3 43.4 626 43.4C627.2 43.4 628.1 42.9 628.4 41.9L630.9 42.2C630.4 44.2 628.6 45.5 625.9 45.5C622.6 45.4 620.5 43.2 620.5 39.6ZM628.6 38.4C628.6 36.8 627.5 35.7 626 35.7C624.4 35.7 623.3 36.9 623.2 38.4H628.6Z" fill="#171717"/>
<path d="M638.102 39.5C638.102 35.9 640.202 33.6 643.602 33.6C647.002 33.6 649.102 36 649.102 39.5C649.102 43 647.002 45.4 643.602 45.4C640.302 45.4 638.102 43.1 638.102 39.5ZM646.402 39.5C646.402 37.4 645.502 35.7 643.702 35.7C641.802 35.7 640.902 37.4 640.902 39.5C640.902 41.6 641.802 43.3 643.702 43.3C645.502 43.3 646.402 41.6 646.402 39.5Z" fill="#171717"/>
<path d="M657.202 35.9H654.802V45.3H652.102V35.9H650.402V33.8H652.102V32.7C652.102 30.4 653.702 29.2 655.702 29.2C656.602 29.2 657.402 29.4 657.802 29.5L657.302 31.6C657.102 31.5 656.702 31.4 656.302 31.4C655.302 31.4 654.902 31.9 654.902 32.8V33.7H657.302V35.9H657.202Z" fill="#171717"/>
<path d="M664.5 33.8H667.1V35.7H667.2C667.7 34.4 668.8 33.6 670.4 33.6C671.9 33.6 673.1 34.4 673.5 35.7H673.6C674.1 34.4 675.4 33.6 677 33.6C679.1 33.6 680.6 35 680.6 37.5V45.2H677.9V37.9C677.9 36.5 677 35.8 675.9 35.8C674.6 35.8 673.8 36.7 673.8 38V45.1H671.2V37.7C671.2 36.5 670.4 35.8 669.3 35.8C668.1 35.8 667.2 36.8 667.2 38.2V45.2H664.5V33.8Z" fill="#171717"/>
<path d="M682.801 42C682.801 39.4 684.901 38.8 687.201 38.5C689.201 38.3 690.001 38.2 690.001 37.5C690.001 36.4 689.301 35.7 688.101 35.7C686.801 35.7 686.001 36.4 685.801 37.2L683.301 36.8C683.901 34.7 685.701 33.6 688.201 33.6C690.401 33.6 692.901 34.5 692.901 37.5V45.2H690.301V43.6H690.201C689.701 44.6 688.601 45.4 686.801 45.4C684.501 45.5 682.801 44.3 682.801 42ZM690.001 41.1V39.7C689.601 40 688.201 40.2 687.501 40.3C686.301 40.5 685.401 40.9 685.401 41.9C685.401 42.9 686.201 43.4 687.301 43.4C689.001 43.5 690.001 42.4 690.001 41.1Z" fill="#171717"/>
<path d="M698.2 45.2H695.5V33.7H698.1V35.6H698.2C698.7 34.3 699.9 33.5 701.6 33.5C704 33.5 705.5 35.1 705.5 37.8V45.1H702.8V38.3C702.8 36.8 702 35.9 700.6 35.9C699.2 35.9 698.2 36.9 698.2 38.5V45.2Z" fill="#171717"/>
<path d="M707.801 39.5C707.801 35.7 709.901 33.6 712.501 33.6C714.501 33.6 715.401 34.8 715.801 35.6H715.901V29.9H718.601V45.2H715.901V43.4H715.701C715.301 44.2 714.401 45.4 712.401 45.4C709.801 45.4 707.801 43.3 707.801 39.5ZM716.001 39.5C716.001 37.3 715.001 35.8 713.301 35.8C711.501 35.8 710.601 37.3 710.601 39.5C710.601 41.6 711.501 43.2 713.301 43.2C715.001 43.2 716.001 41.7 716.001 39.5Z" fill="#171717"/>
<path d="M721 42C721 39.4 723.1 38.8 725.4 38.5C727.4 38.3 728.2 38.2 728.2 37.5C728.2 36.4 727.5 35.7 726.3 35.7C725 35.7 724.2 36.4 724 37.2L721.5 36.8C722.1 34.7 723.9 33.6 726.4 33.6C728.6 33.6 731.1 34.5 731.1 37.5V45.2H728.5V43.6H728.4C727.9 44.6 726.8 45.4 725 45.4C722.6 45.5 721 44.3 721 42ZM728.1 41.1V39.7C727.7 40 726.3 40.2 725.6 40.3C724.4 40.5 723.5 40.9 723.5 41.9C723.5 42.9 724.3 43.4 725.4 43.4C727.1 43.5 728.1 42.4 728.1 41.1Z" fill="#171717"/>
<path d="M739.299 35.9H736.999V41.8C736.999 42.9 737.499 43.1 738.199 43.1C738.499 43.1 738.799 43 738.999 43L739.499 45.1C739.199 45.2 738.699 45.3 737.899 45.4C735.899 45.5 734.299 44.4 734.299 42.2V35.8H732.699V33.7H734.299V31H736.999V33.7H739.299V35.9Z" fill="#171717"/>
<path d="M740.902 39.5C740.902 35.9 743.002 33.6 746.402 33.6C749.802 33.6 751.902 36 751.902 39.5C751.902 43 749.802 45.4 746.402 45.4C743.102 45.4 740.902 43.1 740.902 39.5ZM749.202 39.5C749.202 37.4 748.302 35.7 746.502 35.7C744.602 35.7 743.702 37.4 743.702 39.5C743.702 41.6 744.602 43.3 746.502 43.3C748.302 43.3 749.202 41.6 749.202 39.5Z" fill="#171717"/>
<path d="M754.202 33.8H756.802V35.7H756.902C757.302 34.4 758.402 33.6 759.702 33.6C760.002 33.6 760.402 33.6 760.702 33.7V36.2C760.502 36.1 759.902 36 759.402 36C757.902 36 756.802 37 756.802 38.5V45.2H754.102V33.8H754.202Z" fill="#171717"/>
<path d="M762.802 49.2L763.402 47.1C764.602 47.4 765.402 47.4 765.902 46L766.102 45.4L761.902 33.7H764.802L767.402 42.4H767.502L770.102 33.7H773.002L768.402 46.5C767.802 48.3 766.502 49.4 764.402 49.4C763.802 49.5 763.202 49.4 762.802 49.2Z" fill="#171717"/>
<path d="M551.901 67.4H551.801C551.401 68.2 550.501 69.4 548.501 69.4C545.801 69.4 543.801 67.3 543.801 63.5C543.801 59.7 545.901 57.6 548.501 57.6C550.501 57.6 551.401 58.8 551.801 59.6H552.001V57.7H554.701V73.5H552.001V67.4H551.901ZM552.001 63.5C552.001 61.3 551.001 59.8 549.301 59.8C547.501 59.8 546.601 61.3 546.601 63.5C546.601 65.6 547.501 67.2 549.301 67.2C551.001 67.2 552.001 65.7 552.001 63.5Z" fill="#171717"/>
<path d="M564.7 57.8H567.4V69.3H564.8V67.3H564.7C564.2 68.6 563 69.5001 561.3 69.5001C559 69.5001 557.5 67.9 557.5 65.2V57.9001H560.2V64.8C560.2 66.3 561.1 67.2 562.4 67.2C563.6 67.2 564.8 66.3 564.8 64.6V57.8H564.7Z" fill="#171717"/>
<path d="M569.902 54.7C569.902 53.9 570.602 53.2 571.502 53.2C572.402 53.2 573.102 53.9 573.102 54.7C573.102 55.5 572.402 56.2 571.502 56.2C570.602 56.1 569.902 55.5 569.902 54.7ZM570.202 57.8H572.902V69.3H570.202V57.8Z" fill="#171717"/>
<path d="M575.5 67.5001L581.4 60.1V60.0001H575.7V57.8H584.7V59.6L579.1 66.9001V67.0001H584.9V69.2H575.5V67.5001Z" fill="#171717"/>
<path d="M592.199 65.2C592.199 63.4 593.399 62.3 595.099 61.1C594.199 60 593.499 58.9 593.499 57.5C593.499 55.3 595.099 53.7 597.499 53.7C599.899 53.7 601.399 55.3 601.399 57.2C601.399 58.6 600.599 59.8 599.399 60.7L598.399 61.4L601.199 64.7C601.599 63.9 601.799 63 601.799 62H604.099C604.099 64.1 603.499 65.6 602.799 66.6L604.999 69.2H602.099L601.099 68.1C599.999 69 598.499 69.4 597.199 69.4C594.099 69.4 592.199 67.6 592.199 65.2ZM596.499 62.8L596.299 63C595.299 63.7 594.899 64.5 594.899 65.1C594.899 66.3 595.899 67.3 597.399 67.3C598.199 67.3 598.999 67 599.799 66.5L596.499 62.8ZM597.799 59.2C598.599 58.7 598.999 58.1 598.999 57.4C598.999 56.7 598.399 56 597.399 56C596.399 56 595.799 56.8 595.799 57.6C595.799 58.3 596.299 59 596.899 59.8L597.799 59.2Z" fill="#171717"/>
<path d="M611.301 63.6C611.301 60.1 613.401 57.7 616.701 57.7C619.501 57.7 621.901 59.5 621.901 63.5V64.3H613.901C613.901 66.3 615.101 67.4 616.801 67.4C618.001 67.4 618.901 66.9 619.201 65.9L621.701 66.2C621.201 68.2 619.401 69.5 616.701 69.5C613.401 69.4 611.301 67.2 611.301 63.6ZM619.301 62.4C619.301 60.8 618.201 59.7 616.701 59.7C615.101 59.7 614.001 60.9 613.901 62.4H619.301Z" fill="#171717"/>
<path d="M628.501 62.0001L630.901 57.8H633.801L630.301 63.5001L633.801 69.2H631.001L628.601 65.1L626.201 69.2H623.301L626.801 63.5001L623.401 57.8H626.301L628.501 62.0001Z" fill="#171717"/>
<path d="M634.902 63.6C634.902 60.1 637.002 57.7 640.302 57.7C643.102 57.7 645.502 59.5 645.502 63.5V64.3H637.502C637.502 66.3 638.702 67.4 640.402 67.4C641.602 67.4 642.502 66.9 642.802 65.9L645.302 66.2C644.802 68.2 643.002 69.5 640.302 69.5C637.002 69.4 634.902 67.2 634.902 63.6ZM642.902 62.4C642.902 60.8 641.802 59.7 640.302 59.7C638.702 59.7 637.602 60.9 637.502 62.4H642.902Z" fill="#171717"/>
<path d="M647.799 57.8H650.399V59.7H650.499C650.899 58.4 651.999 57.6 653.299 57.6C653.599 57.6 653.999 57.6 654.299 57.7V60.2C654.099 60.1 653.499 60 652.999 60C651.499 60 650.399 61 650.399 62.5V69.2H647.699V57.8H647.799Z" fill="#171717"/>
<path d="M655.199 63.5C655.199 60 657.299 57.6 660.699 57.6C663.499 57.6 665.399 59.2 665.599 61.7H662.999C662.799 60.6 661.999 59.8 660.699 59.8C658.999 59.8 657.899 61.2 657.899 63.5C657.899 65.8 658.999 67.3 660.699 67.3C661.899 67.3 662.799 66.6 662.999 65.4H665.599C665.399 67.8 663.599 69.5 660.699 69.5C657.199 69.4 655.199 67 655.199 63.5Z" fill="#171717"/>
<path d="M667.602 54.7C667.602 53.9 668.302 53.2 669.202 53.2C670.102 53.2 670.802 53.9 670.802 54.7C670.802 55.5 670.102 56.2 669.202 56.2C668.302 56.1 667.602 55.5 667.602 54.7ZM667.802 57.8H670.502V69.3H667.802V57.8Z" fill="#171717"/>
<path d="M679.901 61.1C679.701 60.3 679.001 59.7 677.801 59.7C676.701 59.7 675.801 60.2 675.801 61C675.801 61.7 676.301 62.1 677.401 62.3L679.401 62.7C681.601 63.2 682.601 64.2 682.601 65.8C682.601 68 680.601 69.5 677.701 69.5C674.901 69.5 673.101 68.3 672.801 66.2L675.401 65.9C675.601 66.9 676.401 67.5 677.701 67.5C679.001 67.5 679.801 66.9 679.801 66.1C679.801 65.5 679.301 65 678.301 64.8L676.301 64.4C674.101 63.9 673.101 62.8 673.101 61.2C673.101 59.1 675.001 57.7 677.701 57.7C680.401 57.7 681.901 58.9 682.301 60.9L679.901 61.1Z" fill="#171717"/>
<path d="M684.301 63.6C684.301 60.1 686.401 57.7 689.701 57.7C692.501 57.7 694.901 59.5 694.901 63.5V64.3H686.901C686.901 66.3 688.101 67.4 689.801 67.4C691.001 67.4 691.901 66.9 692.201 65.9L694.701 66.2C694.201 68.2 692.401 69.5 689.701 69.5C686.401 69.4 684.301 67.2 684.301 63.6ZM692.401 62.4C692.401 60.8 691.301 59.7 689.801 59.7C688.201 59.7 687.101 60.9 687.001 62.4H692.401Z" fill="#171717"/>
<path d="M703.799 61.1C703.599 60.3 702.899 59.7 701.699 59.7C700.599 59.7 699.699 60.2 699.699 61C699.699 61.7 700.199 62.1 701.299 62.3L703.299 62.7C705.499 63.2 706.499 64.2 706.499 65.8C706.499 68 704.499 69.5 701.599 69.5C698.799 69.5 696.999 68.3 696.699 66.2L699.299 65.9C699.499 66.9 700.299 67.5 701.599 67.5C702.899 67.5 703.699 66.9 703.699 66.1C703.699 65.5 703.199 65 702.199 64.8L700.199 64.4C697.999 63.9 696.999 62.8 696.999 61.2C696.999 59.1 698.899 57.7 701.599 57.7C704.299 57.7 705.799 58.9 706.199 60.9L703.799 61.1Z" fill="#171717"/>
<path d="M546.002 90.9L550.002 100.5H550.102L554.102 90.9H555.802V102.5H554.402V93.7H554.302L550.702 102.5H549.402L545.802 93.7H545.702V102.5H544.402V90.9H546.002Z" fill="#808080"/>
<path d="M557.902 100C557.902 98 559.702 97.6 561.302 97.4C562.902 97.2 563.502 97.3 563.502 96.6C563.502 95.5 562.902 94.8 561.702 94.8C560.402 94.8 559.702 95.5 559.402 96.1L558.102 95.6C558.802 94 560.302 93.6 561.602 93.6C562.702 93.6 564.802 93.9 564.802 96.7V102.4H563.502V101.3H563.402C563.102 101.9 562.302 102.7 560.802 102.7C559.202 102.7 557.902 101.7 557.902 100ZM563.602 99.4V98.2C563.402 98.5 561.902 98.6 561.302 98.7C560.302 98.8 559.302 99.2 559.302 100.2C559.302 101.1 560.102 101.6 561.102 101.6C562.702 101.5 563.602 100.4 563.602 99.4Z" fill="#808080"/>
<path d="M566.901 105.6L567.201 104.4C568.201 104.6 568.801 104.5 569.301 103.2L569.501 102.5L566.301 93.7H567.801L570.201 100.6H570.301L572.701 93.7H574.201L570.501 103.7C570.001 105.1 569.101 105.7 567.901 105.7C567.401 105.8 567.101 105.7 566.901 105.6Z" fill="#808080"/>
<path d="M580.402 101.5L584.202 97.3C585.502 95.8 586.202 95.0001 586.202 94.0001C586.202 92.8001 585.202 92.0001 584.002 92.0001C582.702 92.0001 581.802 92.9 581.802 94.2H580.502C580.502 92.2 582.002 90.8 584.102 90.8C586.102 90.8 587.602 92.2001 587.602 94.0001C587.602 95.3001 587.002 96.3001 585.002 98.4001L582.402 101.2V101.3H587.802V102.5H580.402V101.5Z" fill="#808080"/>
<path d="M589.902 96.7C589.902 92.9 591.402 90.7 593.902 90.7C596.402 90.7 597.902 92.9 597.902 96.7C597.902 100.5 596.402 102.7 593.902 102.7C591.402 102.7 589.902 100.5 589.902 96.7ZM596.602 96.7C596.602 93.7 595.602 92 593.902 92C592.202 92 591.202 93.7 591.202 96.7C591.202 99.7 592.202 101.4 593.902 101.4C595.602 101.4 596.602 99.7 596.602 96.7Z" fill="#808080"/>
<path d="M603.902 94.9001H602.002V100C602.002 101.1 602.602 101.3 603.202 101.3C603.502 101.3 603.702 101.3 603.802 101.2L604.102 102.4C603.902 102.5 603.602 102.6 603.102 102.6C602.002 102.6 600.702 101.9 600.702 100.4V95.0001H599.402V93.9001H600.702V91.8H602.002V93.9001H603.902V94.9001Z" fill="#808080"/>
<path d="M607.503 102.5H606.203V90.9H607.503V95.2H607.603C608.003 94.3 608.803 93.7 610.203 93.7C612.003 93.7 613.203 94.7 613.203 97V102.5H611.903V97.1C611.903 95.7 611.103 94.9 609.903 94.9C608.603 94.9 607.603 95.8 607.603 97.3V102.5H607.503Z" fill="#808080"/>
<path d="M619.703 100C619.703 98 621.503 97.6 623.103 97.4C624.703 97.2 625.303 97.3 625.303 96.6C625.303 95.5 624.703 94.8 623.503 94.8C622.203 94.8 621.503 95.5 621.203 96.1L619.903 95.6C620.603 94 622.103 93.6 623.403 93.6C624.503 93.6 626.603 93.9 626.603 96.7V102.4H625.303V101.3H625.203C624.903 101.9 624.103 102.7 622.603 102.7C621.003 102.7 619.703 101.7 619.703 100ZM625.303 99.4V98.2C625.103 98.5 623.603 98.6 623.003 98.7C622.003 98.8 621.003 99.2 621.003 100.2C621.003 101.1 621.803 101.6 622.803 101.6C624.403 101.5 625.303 100.4 625.303 99.4Z" fill="#808080"/>
<path d="M630.402 102.5H629.102V93.8H630.402V95.2H630.502C630.902 94.3 631.702 93.7 633.002 93.7C634.802 93.7 636.002 94.8 636.002 97V102.5H634.702V97.1C634.702 95.7 633.902 94.9 632.702 94.9C631.402 94.9 630.502 95.8 630.502 97.3V102.5H630.402Z" fill="#808080"/>
<path d="M638.102 98.2C638.102 95.5 639.602 93.7 641.802 93.7C643.502 93.7 644.002 94.7 644.302 95.2H644.402V90.9H645.702V102.5H644.402V101.2H644.202C643.902 101.7 643.302 102.7 641.702 102.7C639.602 102.7 638.102 100.9 638.102 98.2ZM644.402 98.2C644.402 96.2 643.502 94.9 641.902 94.9C640.202 94.9 639.402 96.3 639.402 98.2C639.402 100.1 640.302 101.5 641.902 101.5C643.502 101.5 644.402 100.1 644.402 98.2Z" fill="#808080"/>
<path d="M652.902 101.5L656.702 97.3C658.002 95.8 658.702 95.0001 658.702 94.0001C658.702 92.8001 657.702 92.0001 656.502 92.0001C655.202 92.0001 654.302 92.9 654.302 94.2H653.002C653.002 92.2 654.502 90.8 656.602 90.8C658.602 90.8 660.102 92.2001 660.102 94.0001C660.102 95.3001 659.502 96.3001 657.502 98.4001L654.902 101.2V101.3H660.302V102.5H653.002V101.5H652.902Z" fill="#808080"/>
<path d="M668.102 92.2L662.102 92.1V90.9H669.502V92.2L664.302 102.5H662.802L668.102 92.2Z" fill="#808080"/>
<path d="M675.504 94.9001H673.604V100C673.604 101.1 674.204 101.3 674.804 101.3C675.104 101.3 675.304 101.3 675.404 101.2L675.704 102.4C675.504 102.5 675.204 102.6 674.704 102.6C673.604 102.6 672.304 101.9 672.304 100.4V95.0001H671.004V93.9001H672.304V91.8H673.604V93.9001H675.504V94.9001Z" fill="#808080"/>
<path d="M679.101 102.5H677.801V90.9H679.101V95.2H679.201C679.601 94.3 680.401 93.7 681.801 93.7C683.601 93.7 684.801 94.7 684.801 97V102.5H683.401V97.1C683.401 95.7 682.601 94.9 681.401 94.9C680.101 94.9 679.101 95.8 679.101 97.3V102.5Z" fill="#808080"/>
<path d="M35.4008 265.1H45.3008V267.4H38.1008V271.5H44.8008V273.8H38.1008V278H45.3008V280.3H35.3008V265.1H35.4008Z" fill="#171717"/>
<path d="M52.5008 273.2L54.9008 269H57.8008L54.3008 274.7L57.8008 280.4H55.0008L52.6008 276.3L50.2008 280.4H47.3008L50.8008 274.7L47.4008 269H50.3008L52.5008 273.2Z" fill="#171717"/>
<path d="M59.3008 277.2C59.3008 274.6 61.4008 274 63.7008 273.7C65.7008 273.5 66.5008 273.4 66.5008 272.7C66.5008 271.6 65.8008 270.9 64.6008 270.9C63.3008 270.9 62.5008 271.6 62.3008 272.4L59.8008 272C60.4008 269.9 62.2008 268.8 64.7008 268.8C66.9008 268.8 69.4008 269.7 69.4008 272.7V280.4H66.8008V278.8H66.7008C66.2008 279.8 65.1008 280.6 63.3008 280.6C60.9008 280.6 59.3008 279.5 59.3008 277.2ZM66.5008 276.3V274.9C66.1008 275.2 64.7008 275.4 64.0008 275.5C62.8008 275.7 61.9008 276.1 61.9008 277.1C61.9008 278.1 62.7008 278.6 63.8008 278.6C65.4008 278.7 66.5008 277.6 66.5008 276.3Z" fill="#171717"/>
<path d="M71.9023 269H74.5023V270.9H74.6024C75.1024 269.6 76.2023 268.8 77.8023 268.8C79.3023 268.8 80.5023 269.6 80.9023 270.9H81.0023C81.5023 269.6 82.8023 268.8 84.4023 268.8C86.5023 268.8 88.0023 270.2 88.0023 272.7V280.4H85.3023V273.1C85.3023 271.7 84.4023 271 83.3023 271C82.0023 271 81.2023 271.9 81.2023 273.2V280.3H78.6024V272.9C78.6024 271.7 77.8023 271 76.7023 271C75.5023 271 74.6024 272 74.6024 273.4V280.4H71.9023V269Z" fill="#171717"/>
<path d="M95.9023 269H98.6024V270.9H98.8023C99.2023 270.1 100.102 268.9 102.102 268.9C104.702 268.9 106.802 271 106.802 274.8C106.802 278.6 104.802 280.7 102.102 280.7C100.102 280.7 99.2023 279.5 98.8023 278.7H98.7023V284.8H96.0023V269H95.9023ZM101.302 278.4C103.102 278.4 104.002 276.8 104.002 274.7C104.002 272.6 103.102 271 101.302 271C99.6023 271 98.6024 272.4 98.6024 274.7C98.6024 277 99.5023 278.4 101.302 278.4Z" fill="#171717"/>
<path d="M108.602 274.8C108.602 271.3 110.702 268.9 114.002 268.9C116.802 268.9 119.202 270.7 119.202 274.7V275.5H111.202C111.202 277.5 112.402 278.6 114.102 278.6C115.302 278.6 116.202 278.1 116.502 277.1L119.002 277.4C118.502 279.4 116.702 280.7 114.002 280.7C110.702 280.6 108.602 278.3 108.602 274.8ZM116.602 273.6C116.602 272 115.502 270.9 114.002 270.9C112.402 270.9 111.302 272.1 111.202 273.6H116.602Z" fill="#171717"/>
<path d="M121.502 269H124.102V270.9H124.202C124.602 269.6 125.702 268.8 127.002 268.8C127.302 268.8 127.702 268.8 128.002 268.9V271.4C127.802 271.3 127.202 271.2 126.702 271.2C125.202 271.2 124.102 272.2 124.102 273.7V280.4H121.402V269H121.502Z" fill="#171717"/>
<path d="M129.602 265.9C129.602 265.1 130.302 264.4 131.202 264.4C132.102 264.4 132.802 265.1 132.802 265.9C132.802 266.7 132.102 267.4 131.202 267.4C130.302 267.3 129.602 266.7 129.602 265.9ZM129.802 269H132.502V280.5H129.802V269Z" fill="#171717"/>
<path d="M134.801 274.7C134.801 271.1 136.901 268.8 140.301 268.8C143.701 268.8 145.801 271.2 145.801 274.7C145.801 278.2 143.701 280.6 140.301 280.6C136.901 280.6 134.801 278.3 134.801 274.7ZM143.001 274.7C143.001 272.6 142.101 270.9 140.301 270.9C138.401 270.9 137.501 272.6 137.501 274.7C137.501 276.8 138.401 278.5 140.301 278.5C142.101 278.5 143.001 276.8 143.001 274.7Z" fill="#171717"/>
<path d="M147.602 274.7C147.602 270.9 149.702 268.8 152.302 268.8C154.302 268.8 155.202 270 155.602 270.8H155.702V265.1H158.402V280.4H155.702V278.6H155.502C155.102 279.4 154.202 280.6 152.202 280.6C149.602 280.6 147.602 278.5 147.602 274.7ZM155.802 274.7C155.802 272.5 154.802 271 153.102 271C151.302 271 150.402 272.5 150.402 274.7C150.402 276.8 151.302 278.4 153.102 278.4C154.802 278.4 155.802 276.9 155.802 274.7Z" fill="#171717"/>
<path d="M41.1 302.1V310.4C41.1 312.6 39.8 313.9 37.8 313.9C35.9 313.9 34.5 312.8 34.5 311H35.9C35.9 312 36.7 312.6 37.8 312.6C39 312.6 39.7 311.8 39.7 310.4V302.1H41.1Z" fill="#808080"/>
<path d="M49.3008 305H50.6008V313.7H49.3008V312.2H49.2008C48.8008 313.1 47.9008 313.8 46.6008 313.8C45.0008 313.8 43.8008 312.7 43.8008 310.5V305H45.1008V310.4C45.1008 311.7 45.9008 312.5 47.0008 312.5C48.0008 312.5 49.2008 311.8 49.2008 310.1V305H49.3008Z" fill="#808080"/>
<path d="M54.4016 313.7H53.1016V305H54.4016V306.4H54.5016C54.9016 305.5 55.7016 304.9 57.0016 304.9C58.8016 304.9 60.0016 306 60.0016 308.2V313.7H58.7015V308.3C58.7015 306.9 57.9015 306.1 56.7015 306.1C55.4015 306.1 54.5016 307 54.5016 308.5V313.7H54.4016Z" fill="#808080"/>
<path d="M62 309.4C62 306.7 63.6 304.9 65.9 304.9C67.7 304.9 69.6 306 69.6 309.3V309.9H63.4C63.5 311.8 64.5 312.8 66.1 312.8C67.1 312.8 67.9 312.3 68.3 311.4L69.6 311.8C69.2 313.1 67.9 314 66.1 314C63.6 313.9 62 312.1 62 309.4ZM68.3 308.6C68.3 307.1 67.4 306 65.9 306C64.4 306 63.4 307.2 63.3 308.6H68.3Z" fill="#808080"/>
<path d="M76.1992 312.7L79.9992 308.5C81.2992 307 81.9992 306.2 81.9992 305.2C81.9992 304 80.9992 303.2 79.7992 303.2C78.4992 303.2 77.5992 304.1 77.5992 305.4H76.2992C76.2992 303.4 77.7992 302 79.8992 302C81.8992 302 83.3992 303.4 83.3992 305.2C83.3992 306.5 82.7992 307.5 80.7992 309.6L78.1992 312.4V312.5H83.5992V313.7H76.2992V312.7H76.1992Z" fill="#808080"/>
<path d="M85.8984 310.8H87.2984C87.3984 311.9 88.4984 312.6 89.7984 312.6C91.2984 312.6 92.3984 311.8 92.3984 310.5C92.3984 309.2 91.3984 308.3 89.6984 308.3H88.7984V307.1H89.6984C91.0984 307.1 91.9984 306.3 91.9984 305.1C91.9984 303.9 91.1984 303.1 89.8984 303.1C88.6984 303.1 87.5984 303.8 87.4984 304.9H86.0984C86.1984 303.1 87.7984 301.8 89.7984 301.8C91.9984 301.8 93.2984 303.3 93.2984 304.9C93.2984 306.2 92.5984 307.2 91.3984 307.5V307.6C92.8984 307.8 93.6984 308.9 93.6984 310.4C93.6984 312.3 91.9984 313.7 89.7984 313.7C87.5984 313.9 85.9984 312.6 85.8984 310.8Z" fill="#808080"/>
<path d="M96.1016 305H97.4016V306.3H97.5016C97.8016 305.4 98.7015 304.8 99.8015 304.8C100.002 304.8 100.402 304.8 100.502 304.8V306.2C100.402 306.2 100.002 306.1 99.7015 306.1C98.4015 306.1 97.5016 307 97.5016 308.1V313.6H96.2015V305H96.1016Z" fill="#808080"/>
<path d="M101.398 309.4C101.398 306.7 102.898 304.9 105.098 304.9C106.798 304.9 107.298 305.9 107.598 306.4H107.698V302.1H108.998V313.7H107.698V312.4H107.498C107.198 312.9 106.598 313.9 104.998 313.9C102.898 313.9 101.398 312.1 101.398 309.4ZM107.798 309.3C107.798 307.3 106.898 306 105.298 306C103.598 306 102.798 307.4 102.798 309.3C102.798 311.2 103.698 312.6 105.298 312.6C106.898 312.7 107.798 311.3 107.798 309.3Z" fill="#808080"/>
<path d="M120 306.1H118.1V311.2C118.1 312.3 118.7 312.5 119.3 312.5C119.6 312.5 119.8 312.5 119.9 312.4L120.2 313.6C120 313.7 119.7 313.8 119.2 313.8C118.1 313.8 116.8 313.1 116.8 311.6V306.2H115.5V305.1H116.8V303H118.1V305.1H120V306.1Z" fill="#808080"/>
<path d="M121.602 309.4C121.602 306.7 123.202 304.9 125.602 304.9C128.002 304.9 129.602 306.7 129.602 309.4C129.602 312.1 128.002 313.9 125.602 313.9C123.202 313.9 121.602 312.1 121.602 309.4ZM128.102 309.4C128.102 307.7 127.302 306.1 125.502 306.1C123.702 306.1 122.902 307.7 122.902 309.4C122.902 311.1 123.702 312.7 125.502 312.7C127.302 312.7 128.102 311.1 128.102 309.4Z" fill="#808080"/>
<path d="M141.998 302.1V310.4C141.998 312.6 140.698 313.9 138.698 313.9C136.798 313.9 135.398 312.8 135.398 311H136.798C136.798 312 137.598 312.6 138.698 312.6C139.898 312.6 140.598 311.8 140.598 310.4V302.1H141.998Z" fill="#808080"/>
<path d="M150.199 305H151.499V313.7H150.199V312.2H150.099C149.699 313.1 148.799 313.8 147.499 313.8C145.899 313.8 144.699 312.7 144.699 310.5V305H145.999V310.4C145.999 311.7 146.799 312.5 147.899 312.5C148.899 312.5 150.099 311.8 150.099 310.1V305H150.199Z" fill="#808080"/>
<path d="M155.3 313.7H154V302.1H155.3V313.7Z" fill="#808080"/>
<path d="M157.702 316.8L158.002 315.6C159.002 315.8 159.602 315.7 160.102 314.4L160.302 313.7L157.102 304.9H158.602L161.002 311.8H161.102L163.502 304.9H165.002L161.302 314.9C160.802 316.3 159.902 316.9 158.702 316.9C158.202 317 157.802 316.9 157.702 316.8Z" fill="#808080"/>
<path d="M176.699 303.4L170.699 303.3V302.1H178.099V303.4L172.899 313.7H171.399L176.699 303.4Z" fill="#808080"/>
<path d="M184.102 306.1H182.202V311.2C182.202 312.3 182.802 312.5 183.402 312.5C183.702 312.5 183.902 312.5 184.002 312.4L184.302 313.6C184.102 313.7 183.802 313.8 183.302 313.8C182.202 313.8 180.902 313.1 180.902 311.6V306.2H179.602V305.1H180.902V303H182.202V305.1H184.102V306.1Z" fill="#808080"/>
<path d="M187.698 313.7H186.398V302.1H187.698V306.4H187.798C188.198 305.5 188.998 304.9 190.398 304.9C192.198 304.9 193.398 305.9 193.398 308.2V313.7H192.098V308.3C192.098 306.9 191.298 306.1 190.098 306.1C188.798 306.1 187.798 307 187.798 308.5V313.7H187.698Z" fill="#808080"/>
<defs>
<linearGradient id="paint0_linear_765_2" x1="362.167" y1="400.507" x2="972.381" y2="-602.659" gradientUnits="userSpaceOnUse">
<stop stop-color="#A5FBFF"/>
<stop offset="0.2303" stop-color="#86A1FF" stop-opacity="0.7"/>
<stop offset="0.5247" stop-color="#CF36D2" stop-opacity="0.28"/>
<stop offset="0.7186" stop-color="#99309B" stop-opacity="0"/>
</linearGradient>
</defs>
</svg>
