<svg width="970" height="356" viewBox="0 0 970 356" fill="none" xmlns="http://www.w3.org/2000/svg">
<path d="M933.8 61.5H524.5V73.5H933.8C947 73.5 957.8 84.3 957.8 97.5V257.7C957.8 270.9 947 281.7 933.8 281.7H909.6L918.9 272.4H905.9L890.6 287.7L905.9 303H918.9L909.6 293.7H933.8C953.7 293.7 969.8 277.6 969.8 257.7V97.5C969.8 77.6 953.7 61.5 933.8 61.5ZM478.5 82.7H491.5L506.8 67.4L491.5 52.1H478.5L487.8 61.4H41.5V73.4H487.7L478.5 82.7ZM410.8 272.4H397.8L382.5 287.7L397.8 303H410.8L401.5 293.7H521.9V281.7H401.6L410.8 272.4Z" fill="url(#paint0_linear_903_176)"/>
<path d="M18 0H355C364.9 0 373 8.1 373 18V117C373 126.9 364.9 135 355 135H18C8.1 135 0 126.9 0 117V18C0 8 8.1 0 18 0Z" fill="#F2F2F2"/>
<path fill-rule="evenodd" clip-rule="evenodd" d="M322.299 34.5C324.299 33.2 326.599 32.5 328.999 32.5C332.199 32.5 335.199 33.8 337.499 36C339.699 38.2 340.999 41.3 340.999 44.5C340.999 46.9 340.299 49.2 338.999 51.2C337.699 53.2 335.799 54.7 333.599 55.6C331.399 56.5 328.999 56.7 326.699 56.3C324.399 55.8 322.199 54.7 320.599 53C318.899 51.3 317.799 49.2 317.299 46.9C316.799 44.6 317.099 42.2 317.999 40C318.799 37.7 320.399 35.9 322.299 34.5ZM327.199 49.1L334.999 41.3L333.599 39.9L327.199 46.3L324.299 43.4L322.899 44.8L327.199 49.1Z" fill="#333333"/>
<path d="M33.3984 58.2L38.7984 42.9H42.1984L47.5984 58.2H44.5984L43.2984 54.4H37.5984L36.2984 58.2H33.3984ZM42.5984 52.2L40.4984 46H40.3984L38.2984 52.2H42.5984Z" fill="#171717"/>
<path d="M48.5977 52.5C48.5977 49 50.6977 46.6 54.0977 46.6C56.8977 46.6 58.7977 48.2 58.9977 50.7H56.3976C56.1976 49.6 55.3977 48.8 54.0977 48.8C52.3977 48.8 51.2976 50.2 51.2976 52.5C51.2976 54.8 52.3977 56.3 54.0977 56.3C55.2977 56.3 56.1976 55.6 56.3976 54.4H58.9977C58.7977 56.8 56.9977 58.5 54.0977 58.5C50.6977 58.4 48.5977 56 48.5977 52.5Z" fill="#171717"/>
<path d="M60.6992 55C60.6992 52.4 62.7992 51.8 65.0992 51.5C67.0992 51.3 67.8992 51.2 67.8992 50.5C67.8992 49.4 67.1992 48.7 65.9992 48.7C64.6992 48.7 63.8992 49.4 63.6992 50.2L61.1992 49.8C61.7992 47.7 63.5992 46.6 66.0992 46.6C68.2992 46.6 70.7992 47.5 70.7992 50.5V58.2H68.1992V56.6H68.0992C67.5992 57.6 66.4992 58.4 64.6992 58.4C62.2992 58.5 60.6992 57.3 60.6992 55ZM67.8992 54.1V52.7C67.4992 53 66.0992 53.2 65.3992 53.3C64.1992 53.5 63.2992 53.9 63.2992 54.9C63.2992 55.9 64.0992 56.4 65.1992 56.4C66.8992 56.5 67.8992 55.4 67.8992 54.1Z" fill="#171717"/>
<path d="M72.7969 52.5C72.7969 48.7 74.8969 46.6 77.4969 46.6C79.4969 46.6 80.3969 47.8 80.7969 48.6H80.8969V42.9H83.5969V58.2H80.8969V56.4H80.6969C80.2969 57.2 79.3969 58.4 77.3969 58.4C74.7969 58.4 72.7969 56.3 72.7969 52.5ZM80.9969 52.5C80.9969 50.3 79.9969 48.8 78.2969 48.8C76.4969 48.8 75.5969 50.3 75.5969 52.5C75.5969 54.6 76.4969 56.2 78.2969 56.2C79.9969 56.2 80.9969 54.7 80.9969 52.5Z" fill="#171717"/>
<path d="M86 52.6C86 49.1 88.1 46.7 91.4 46.7C94.2 46.7 96.6 48.5 96.6 52.5V53.3H88.6C88.6 55.3 89.8 56.4 91.5 56.4C92.7 56.4 93.6 55.9 93.9 54.9L96.4 55.2C95.9 57.2 94.1 58.5 91.4 58.5C88.2 58.4 86 56.2 86 52.6ZM94.1 51.4C94.1 49.8 93 48.7 91.5 48.7C89.9 48.7 88.8 49.9 88.7 51.4H94.1Z" fill="#171717"/>
<path d="M99 46.8H101.6V48.7H101.7C102.2 47.4 103.3 46.6 104.9 46.6C106.4 46.6 107.6 47.4 108 48.7H108.1C108.6 47.4 109.9 46.6 111.5 46.6C113.6 46.6 115.1 48 115.1 50.5V58.2H112.4V50.9C112.4 49.5 111.5 48.8 110.4 48.8C109.1 48.8 108.3 49.7 108.3 51V58.1H105.7V50.7C105.7 49.5 104.9 48.8 103.8 48.8C102.6 48.8 101.7 49.8 101.7 51.2V58.2H99V46.8V46.8Z" fill="#171717"/>
<path d="M117.298 62.2L117.898 60.1C119.098 60.4 119.898 60.4 120.398 59L120.598 58.4L116.398 46.7H119.298L121.898 55.4H121.998L124.598 46.7H127.498L122.898 59.5C122.298 61.3 120.998 62.4 118.898 62.4C118.398 62.5 117.698 62.4 117.298 62.2Z" fill="#171717"/>
<path d="M141.299 50.1C141.099 49.3 140.399 48.7 139.199 48.7C138.099 48.7 137.199 49.2 137.199 50C137.199 50.7 137.699 51.1 138.799 51.3L140.799 51.7C142.999 52.2 143.999 53.2 143.999 54.8C143.999 57 141.999 58.5 139.099 58.5C136.299 58.5 134.499 57.3 134.199 55.2L136.799 54.9C136.999 55.9 137.799 56.5 139.099 56.5C140.399 56.5 141.199 55.9 141.199 55.1C141.199 54.5 140.699 54 139.699 53.8L137.699 53.4C135.499 52.9 134.499 51.8 134.499 50.2C134.499 48.1 136.399 46.7 139.099 46.7C141.799 46.7 143.299 47.9 143.699 49.9L141.299 50.1Z" fill="#171717"/>
<path d="M151.998 48.9H149.698V54.8C149.698 55.9 150.198 56.1 150.898 56.1C151.198 56.1 151.498 56 151.698 56L152.198 58.1C151.898 58.2 151.398 58.3 150.598 58.4C148.598 58.5 146.998 57.4 146.998 55.2V48.8H145.398V46.7H146.998V44H149.698V46.7H151.998V48.9Z" fill="#171717"/>
<path d="M153.699 55C153.699 52.4 155.799 51.8 158.099 51.5C160.099 51.3 160.899 51.2 160.899 50.5C160.899 49.4 160.199 48.7 158.999 48.7C157.699 48.7 156.899 49.4 156.699 50.2L154.199 49.8C154.799 47.7 156.599 46.6 159.099 46.6C161.299 46.6 163.799 47.5 163.799 50.5V58.2H161.199V56.6H161.099C160.599 57.6 159.499 58.4 157.699 58.4C155.299 58.5 153.699 57.3 153.699 55ZM160.899 54.1V52.7C160.499 53 159.099 53.2 158.399 53.3C157.199 53.5 156.299 53.9 156.299 54.9C156.299 55.9 157.099 56.4 158.199 56.4C159.899 56.5 160.899 55.4 160.899 54.1Z" fill="#171717"/>
<path d="M166.299 46.8H168.899V48.7H168.999C169.399 47.4 170.499 46.6 171.799 46.6C172.099 46.6 172.499 46.6 172.799 46.7V49.2C172.599 49.1 171.999 49 171.499 49C169.999 49 168.899 50 168.899 51.5V58.2H166.199V46.8H166.299Z" fill="#171717"/>
<path d="M180.998 48.9H178.698V54.8C178.698 55.9 179.198 56.1 179.898 56.1C180.198 56.1 180.498 56 180.698 56L181.198 58.1C180.898 58.2 180.398 58.3 179.598 58.4C177.598 58.5 175.998 57.4 175.998 55.2V48.8H174.398V46.7H175.998V44H178.698V46.7H180.998V48.9Z" fill="#171717"/>
<path d="M35.9984 79.9L39.9984 89.5H40.0984L44.0984 79.9H45.7984V91.5H44.3984V82.7H44.2984L40.6984 91.5H39.3984L35.7984 82.7H35.6984V91.5H34.3984V79.9H35.9984Z" fill="#808080"/>
<path d="M47.8984 89.0001C47.8984 87.0001 49.6984 86.6001 51.2984 86.4001C52.8984 86.2001 53.4984 86.3 53.4984 85.6C53.4984 84.5 52.8984 83.8 51.6984 83.8C50.3984 83.8 49.6984 84.5 49.3984 85.1L48.0984 84.6C48.7984 83 50.2984 82.6 51.5984 82.6C52.6984 82.6 54.7984 82.9 54.7984 85.7V91.4001H53.4984V90.3H53.3984C53.0984 90.9 52.2984 91.7 50.7984 91.7C49.1984 91.7 47.8984 90.7001 47.8984 89.0001ZM53.5984 88.4001V87.2C53.3984 87.5 51.8984 87.6 51.2984 87.7C50.2984 87.8 49.2984 88.2 49.2984 89.2C49.2984 90.1 50.0984 90.6 51.0984 90.6C52.6984 90.5 53.5984 89.4001 53.5984 88.4001Z" fill="#808080"/>
<path d="M56.8969 94.6001L57.1969 93.4001C58.1969 93.6001 58.7969 93.5001 59.2969 92.2001L59.4969 91.5001L56.2969 82.7001H57.7969L60.1969 89.6001H60.2969L62.6969 82.7001H64.1969L60.4969 92.7001C59.9969 94.1001 59.0969 94.7001 57.8969 94.7001C57.3969 94.8001 57.0969 94.7001 56.8969 94.6001Z" fill="#808080"/>
<path d="M74.4992 91.5001H73.0992V81.4001H72.9992L70.1992 83.3V81.9001L73.0992 80.0001H74.4992V91.5001V91.5001Z" fill="#808080"/>
<path d="M77.8984 90.5001L81.6984 86.3C82.9984 84.8 83.6984 84.0001 83.6984 83.0001C83.6984 81.8001 82.6984 81.0001 81.4984 81.0001C80.1984 81.0001 79.2984 81.9 79.2984 83.2H77.9984C77.9984 81.2 79.4984 79.8 81.5984 79.8C83.5984 79.8 85.0984 81.2001 85.0984 83.0001C85.0984 84.3001 84.4984 85.3001 82.4984 87.4001L79.8984 90.2V90.3H85.2984V91.5001H77.9984V90.5001H77.8984Z" fill="#808080"/>
<path d="M91.2969 83.9001H89.3969V89.0001C89.3969 90.1001 89.9969 90.3 90.5969 90.3C90.8969 90.3 91.0969 90.3 91.1969 90.2L91.4969 91.4001C91.2969 91.5001 90.9969 91.6 90.4969 91.6C89.3969 91.6 88.0969 90.9001 88.0969 89.4001V84.0001H86.7969V82.9001H88.0969V80.8H89.3969V82.9001H91.2969V83.9001V83.9001Z" fill="#808080"/>
<path d="M94.8976 91.5H93.5977V79.9H94.8976V84.2H94.9977C95.3977 83.3 96.1977 82.7 97.5977 82.7C99.3977 82.7 100.598 83.7 100.598 86V91.5H99.2976V86.1C99.2976 84.7 98.4976 83.9 97.2976 83.9C95.9976 83.9 94.9977 84.8 94.9977 86.3V91.5H94.8976Z" fill="#808080"/>
<path d="M528 0H865C874.9 0 883 8.1 883 18V117C883 126.9 874.9 135 865 135H528C518.1 135 510 126.9 510 117V18C510 8 518.1 0 528 0Z" fill="#F2F2F2"/>
<path d="M846 55.5C852.075 55.5 857 50.5751 857 44.5C857 38.4249 852.075 33.5 846 33.5C839.925 33.5 835 38.4249 835 44.5C835 50.5751 839.925 55.5 846 55.5Z" stroke="#B3B3B3" stroke-miterlimit="10"/>
<path d="M845.999 52.8C850.583 52.8 854.299 49.0839 854.299 44.5C854.299 39.916 850.583 36.2 845.999 36.2C841.415 36.2 837.699 39.916 837.699 44.5C837.699 49.0839 841.415 52.8 845.999 52.8Z" stroke="#B3B3B3" stroke-width="0.75" stroke-miterlimit="10"/>
<path d="M528 220.2H865C874.9 220.2 883 228.3 883 238.2V337.2C883 347.1 874.9 355.2 865 355.2H528C518.1 355.2 510 347.1 510 337.2V238.2C510 228.2 518.1 220.2 528 220.2Z" fill="#F2F2F2"/>
<path d="M846 275.7C852.075 275.7 857 270.775 857 264.7C857 258.625 852.075 253.7 846 253.7C839.925 253.7 835 258.625 835 264.7C835 270.775 839.925 275.7 846 275.7Z" stroke="#B3B3B3" stroke-miterlimit="10"/>
<path d="M845.999 273C850.583 273 854.299 269.284 854.299 264.7C854.299 260.116 850.583 256.4 845.999 256.4C841.415 256.4 837.699 260.116 837.699 264.7C837.699 269.284 841.415 273 845.999 273Z" stroke="#B3B3B3" stroke-width="0.75" stroke-miterlimit="10"/>
<path d="M18 220.2H355C364.9 220.2 373 228.3 373 238.2V337.2C373 347.1 364.9 355.2 355 355.2H18C8.1 355.2 0 347.1 0 337.2V238.2C0 228.2 8.1 220.2 18 220.2Z" fill="#F2F2F2"/>
<path d="M329 275.7C335.075 275.7 340 270.775 340 264.7C340 258.625 335.075 253.7 329 253.7C322.925 253.7 318 258.625 318 264.7C318 270.775 322.925 275.7 329 275.7Z" stroke="#B3B3B3" stroke-miterlimit="10"/>
<path d="M328.999 273C333.583 273 337.299 269.284 337.299 264.7C337.299 260.116 333.583 256.4 328.999 256.4C324.415 256.4 320.699 260.116 320.699 264.7C320.699 269.284 324.415 273 328.999 273Z" stroke="#B3B3B3" stroke-width="0.75" stroke-miterlimit="10"/>
<path d="M34.4023 265.1H40.1024C43.6024 265.1 45.5023 267.1 45.5023 270C45.5023 272.1 44.6023 273.6 42.8023 274.3L46.1024 280.4H43.0023L40.0023 274.8H37.2023V280.4H34.4023V265.1ZM39.7023 272.5C41.8023 272.5 42.7023 271.6 42.7023 270C42.7023 268.4 41.8023 267.4 39.7023 267.4H37.2023V272.5H39.7023Z" fill="#171717"/>
<path d="M47.3008 274.8C47.3008 271.3 49.4008 268.9 52.7008 268.9C55.5008 268.9 57.9008 270.7 57.9008 274.7V275.5H49.9008C49.9008 277.5 51.1008 278.6 52.8008 278.6C54.0008 278.6 54.9008 278.1 55.2008 277.1L57.7008 277.4C57.2008 279.4 55.4008 280.7 52.7008 280.7C49.4008 280.6 47.3008 278.3 47.3008 274.8ZM55.3008 273.6C55.3008 272 54.2008 270.9 52.7008 270.9C51.1008 270.9 50.0008 272.1 49.9008 273.6H55.3008Z" fill="#171717"/>
<path d="M66.8031 272.3C66.6031 271.5 65.9031 270.9 64.7031 270.9C63.6031 270.9 62.7031 271.4 62.7031 272.2C62.7031 272.9 63.2031 273.3 64.3031 273.5L66.3031 273.9C68.5031 274.4 69.5031 275.4 69.5031 277C69.5031 279.2 67.5031 280.7 64.6031 280.7C61.8031 280.7 60.0031 279.5 59.7031 277.4L62.3031 277.1C62.5031 278.1 63.3031 278.7 64.6031 278.7C65.9031 278.7 66.7031 278.1 66.7031 277.3C66.7031 276.7 66.2031 276.2 65.2031 276L63.2031 275.6C61.0031 275.1 60.0031 274 60.0031 272.4C60.0031 270.3 61.9031 268.9 64.6031 268.9C67.3031 268.9 68.8031 270.1 69.2031 272.1L66.8031 272.3Z" fill="#171717"/>
<path d="M79.0008 269H81.7008V280.5H79.1008V278.5H79.0008C78.5008 279.8 77.3008 280.7 75.6008 280.7C73.3008 280.7 71.8008 279.1 71.8008 276.4V269.1H74.5008V276C74.5008 277.5 75.4008 278.4 76.7008 278.4C77.9008 278.4 79.1008 277.5 79.1008 275.8V269H79.0008Z" fill="#171717"/>
<path d="M87.2039 280.4H84.5039V265.1H87.2039V280.4Z" fill="#171717"/>
<path d="M95.7015 271H93.4016V276.9C93.4016 278 93.9016 278.2 94.6016 278.2C94.9016 278.2 95.2016 278.1 95.4016 278.1L95.9016 280.2C95.6016 280.3 95.1015 280.4 94.3015 280.5C92.3015 280.6 90.7015 279.5 90.7015 277.3V270.9H89.1016V268.8H90.7015V266.1H93.4016V268.8H95.7015V271V271Z" fill="#171717"/>
<path d="M104.401 272.3C104.201 271.5 103.501 270.9 102.301 270.9C101.201 270.9 100.301 271.4 100.301 272.2C100.301 272.9 100.801 273.3 101.901 273.5L103.901 273.9C106.101 274.4 107.101 275.4 107.101 277C107.101 279.2 105.101 280.7 102.201 280.7C99.4008 280.7 97.6008 279.5 97.3008 277.4L99.9008 277.1C100.101 278.1 100.901 278.7 102.201 278.7C103.501 278.7 104.301 278.1 104.301 277.3C104.301 276.7 103.801 276.2 102.801 276L100.801 275.6C98.6008 275.1 97.6008 274 97.6008 272.4C97.6008 270.3 99.5008 268.9 102.201 268.9C104.901 268.9 106.401 270.1 106.801 272.1L104.401 272.3Z" fill="#171717"/>
<path d="M114.004 277.2C114.004 274.6 116.104 274 118.404 273.7C120.404 273.5 121.204 273.4 121.204 272.7C121.204 271.6 120.504 270.9 119.304 270.9C118.004 270.9 117.204 271.6 117.004 272.4L114.504 272C115.104 269.9 116.904 268.8 119.404 268.8C121.604 268.8 124.104 269.7 124.104 272.7V280.4H121.504V278.8H121.404C120.904 279.8 119.804 280.6 118.004 280.6C115.604 280.6 114.004 279.5 114.004 277.2ZM121.204 276.3V274.9C120.804 275.2 119.404 275.4 118.704 275.5C117.504 275.7 116.604 276.1 116.604 277.1C116.604 278.1 117.404 278.6 118.504 278.6C120.204 278.7 121.204 277.6 121.204 276.3Z" fill="#171717"/>
<path d="M132.303 280.4H129.303L125.203 268.9H128.103L130.703 277.4H130.803L133.403 268.9H136.303L132.303 280.4Z" fill="#171717"/>
<path d="M137.402 277.2C137.402 274.6 139.502 274 141.802 273.7C143.802 273.5 144.602 273.4 144.602 272.7C144.602 271.6 143.902 270.9 142.702 270.9C141.402 270.9 140.602 271.6 140.402 272.4L137.902 272C138.502 269.9 140.302 268.8 142.802 268.8C145.002 268.8 147.502 269.7 147.502 272.7V280.4H144.902V278.8H144.802C144.302 279.8 143.202 280.6 141.402 280.6C139.102 280.6 137.402 279.5 137.402 277.2ZM144.602 276.3V274.9C144.202 275.2 142.802 275.4 142.102 275.5C140.902 275.7 140.002 276.1 140.002 277.1C140.002 278.1 140.802 278.6 141.902 278.6C143.602 278.7 144.602 277.6 144.602 276.3Z" fill="#171717"/>
<path d="M149.801 265.9C149.801 265.1 150.501 264.4 151.401 264.4C152.301 264.4 153.001 265.1 153.001 265.9C153.001 266.7 152.301 267.4 151.401 267.4C150.501 267.3 149.801 266.7 149.801 265.9ZM150.001 269H152.701V280.5H150.001V269Z" fill="#171717"/>
<path d="M158.204 280.4H155.504V265.1H158.204V280.4Z" fill="#171717"/>
<path d="M160.402 277.2C160.402 274.6 162.502 274 164.802 273.7C166.802 273.5 167.602 273.4 167.602 272.7C167.602 271.6 166.902 270.9 165.702 270.9C164.402 270.9 163.602 271.6 163.402 272.4L160.902 272C161.502 269.9 163.302 268.8 165.802 268.8C168.002 268.8 170.502 269.7 170.502 272.7V280.4H167.902V278.8H167.802C167.302 279.8 166.202 280.6 164.402 280.6C162.102 280.6 160.402 279.5 160.402 277.2ZM167.602 276.3V274.9C167.202 275.2 165.802 275.4 165.102 275.5C163.902 275.7 163.002 276.1 163.002 277.1C163.002 278.1 163.802 278.6 164.902 278.6C166.602 278.7 167.602 277.6 167.602 276.3Z" fill="#171717"/>
<path d="M173.104 265.1H175.804V270.8H175.904C176.304 270 177.204 268.8 179.204 268.8C181.804 268.8 183.904 270.9 183.904 274.7C183.904 278.5 181.904 280.6 179.204 280.6C177.204 280.6 176.304 279.4 175.904 278.6H175.704V280.4H173.004V265.1H173.104ZM178.504 278.4C180.304 278.4 181.204 276.8 181.204 274.7C181.204 272.6 180.304 271 178.504 271C176.804 271 175.804 272.4 175.804 274.7C175.804 277 176.804 278.4 178.504 278.4Z" fill="#171717"/>
<path d="M189.001 280.4H186.301V265.1H189.001V280.4Z" fill="#171717"/>
<path d="M191.203 274.8C191.203 271.3 193.303 268.9 196.603 268.9C199.403 268.9 201.803 270.7 201.803 274.7V275.5H193.803C193.803 277.5 195.003 278.6 196.703 278.6C197.903 278.6 198.803 278.1 199.103 277.1L201.603 277.4C201.103 279.4 199.303 280.7 196.603 280.7C193.303 280.6 191.203 278.3 191.203 274.8ZM199.303 273.6C199.303 272 198.203 270.9 196.703 270.9C195.103 270.9 194.003 272.1 193.903 273.6H199.303Z" fill="#171717"/>
<path d="M33.3008 313.7L37.6008 302.1H39.1008L43.4008 313.7H41.9008L40.7008 310.4H36.0008L34.8008 313.7H33.3008ZM40.2008 309.2L38.3008 304H38.2008L36.3008 309.2H40.2008Z" fill="#808080"/>
<path d="M50.4023 305H51.7023V313.7H50.4023V312.2H50.3023C49.9023 313.1 49.0023 313.8 47.7023 313.8C46.1023 313.8 44.9023 312.7 44.9023 310.5V305H46.2023V310.4C46.2023 311.7 47.0024 312.5 48.1024 312.5C49.1024 312.5 50.3023 311.8 50.3023 310.1V305H50.4023Z" fill="#808080"/>
<path d="M54.2023 315.4L55.3023 314.6C55.7023 315.1 56.2023 315.9 57.8023 315.9C59.2023 315.9 60.2023 315.2 60.2023 313.8V312H60.1024C59.8024 312.5 59.3024 313.5 57.6024 313.5C55.5024 313.5 53.9023 312 53.9023 309.2C53.9023 306.5 55.4024 304.8 57.6024 304.8C59.3024 304.8 59.8024 305.8 60.1024 306.3H60.2023V304.9H61.5023V313.9C61.5023 316.1 59.8023 317.1 57.7023 317.1C55.8023 317.2 54.7023 316.3 54.2023 315.4ZM60.2023 309.3C60.2023 307.4 59.3023 306.1 57.7023 306.1C56.0023 306.1 55.2023 307.5 55.2023 309.3C55.2023 311.1 56.1023 312.4 57.7023 312.4C59.3023 312.4 60.2023 311.2 60.2023 309.3Z" fill="#808080"/>
<path d="M69.5 305H70.8V313.7H69.5V312.2H69.4C69 313.1 68.1 313.8 66.8 313.8C65.2 313.8 64 312.7 64 310.5V305H65.3V310.4C65.3 311.7 66.1 312.5 67.2 312.5C68.2 312.5 69.4 311.8 69.4 310.1V305H69.5Z" fill="#808080"/>
<path d="M78.2008 307.3C78.0008 306.7 77.5008 306.1 76.3008 306.1C75.2008 306.1 74.4008 306.6 74.4008 307.4C74.4008 308.1 74.9008 308.4 75.9008 308.7L77.2008 309C78.8008 309.4 79.5008 310.1 79.5008 311.4C79.5008 312.9 78.1008 314 76.1008 314C74.3008 314 73.1008 313.2 72.8008 311.7L74.1008 311.4C74.3008 312.3 75.0008 312.8 76.1008 312.8C77.3008 312.8 78.1008 312.2 78.1008 311.4C78.1008 310.8 77.7008 310.4 76.8008 310.2L75.3008 309.9C73.7008 309.5 73.0008 308.7 73.0008 307.5C73.0008 306 74.4008 305 76.2008 305C77.9008 305 78.9008 305.8 79.3008 307.1L78.2008 307.3Z" fill="#808080"/>
<path d="M85.4023 306.1H83.5023V311.2C83.5023 312.3 84.1023 312.5 84.7023 312.5C85.0023 312.5 85.2023 312.5 85.3023 312.4L85.6024 313.6C85.4024 313.7 85.1024 313.8 84.6024 313.8C83.5024 313.8 82.2023 313.1 82.2023 311.6V306.2H80.9023V305.1H82.2023V303H83.5023V305.1H85.4023V306.1V306.1Z" fill="#808080"/>
<path d="M91.9023 310.8H93.3023C93.4023 311.9 94.5023 312.6 95.8023 312.6C97.3023 312.6 98.4023 311.8 98.4023 310.5C98.4023 309.2 97.4023 308.3 95.7023 308.3H94.8023V307.1H95.7023C97.1023 307.1 98.0023 306.3 98.0023 305.1C98.0023 303.9 97.2023 303.1 95.9023 303.1C94.7023 303.1 93.6023 303.8 93.5023 304.9H92.1024C92.2024 303.1 93.8023 301.8 95.8023 301.8C98.0023 301.8 99.3023 303.3 99.3023 304.9C99.3023 306.2 98.6023 307.2 97.4023 307.5V307.6C98.9023 307.8 99.7023 308.9 99.7023 310.4C99.7023 312.3 98.0023 313.7 95.8023 313.7C93.6023 313.9 92.0023 312.6 91.9023 310.8Z" fill="#808080"/>
<path d="M102.102 305H103.402V306.3H103.502C103.802 305.4 104.702 304.8 105.802 304.8C106.002 304.8 106.402 304.8 106.502 304.8V306.2C106.402 306.2 106.002 306.1 105.702 306.1C104.402 306.1 103.502 307 103.502 308.1V313.6H102.202V305H102.102Z" fill="#808080"/>
<path d="M107.402 309.4C107.402 306.7 108.902 304.9 111.102 304.9C112.802 304.9 113.302 305.9 113.602 306.4H113.702V302.1H115.002V313.7H113.702V312.4H113.502C113.202 312.9 112.602 313.9 111.002 313.9C108.902 313.9 107.402 312.1 107.402 309.4ZM113.802 309.3C113.802 307.3 112.902 306 111.302 306C109.602 306 108.802 307.4 108.802 309.3C108.802 311.2 109.702 312.6 111.302 312.6C112.902 312.7 113.802 311.3 113.802 309.3Z" fill="#808080"/>
<path d="M544.402 45.2V29.9H549.702C554.302 29.9 557.002 32.8 557.002 37.5C557.002 42.3 554.202 45.2 549.602 45.2H544.402ZM549.402 42.8C552.602 42.8 554.202 41.1 554.202 37.5C554.202 34 552.602 32.3 549.502 32.3H547.102V42.8H549.402Z" fill="#171717"/>
<path d="M559 39.6C559 36.1 561.1 33.7 564.4 33.7C567.2 33.7 569.6 35.5 569.6 39.5V40.3H561.6C561.6 42.3 562.8 43.4 564.5 43.4C565.7 43.4 566.6 42.9 566.9 41.9L569.4 42.2C568.9 44.2 567.1 45.5 564.4 45.5C561.1 45.4 559 43.2 559 39.6ZM567.1 38.4C567.1 36.8 566 35.7 564.5 35.7C562.9 35.7 561.8 36.9 561.7 38.4H567.1Z" fill="#171717"/>
<path d="M571.402 42C571.402 39.4 573.502 38.8 575.802 38.5C577.802 38.3 578.602 38.2 578.602 37.5C578.602 36.4 577.902 35.7 576.702 35.7C575.402 35.7 574.602 36.4 574.402 37.2L571.902 36.8C572.502 34.7 574.302 33.6 576.802 33.6C579.002 33.6 581.502 34.5 581.502 37.5V45.2H578.902V43.6H578.802C578.302 44.6 577.202 45.4 575.402 45.4C573.002 45.5 571.402 44.3 571.402 42ZM578.602 41.1V39.7C578.202 40 576.802 40.2 576.102 40.3C574.902 40.5 574.002 40.9 574.002 41.9C574.002 42.9 574.802 43.4 575.902 43.4C577.502 43.5 578.602 42.4 578.602 41.1Z" fill="#171717"/>
<path d="M583.5 39.5C583.5 35.7 585.6 33.6 588.2 33.6C590.2 33.6 591.1 34.8 591.5 35.6H591.6V29.9H594.3V45.2H591.6V43.4H591.4C591 44.2 590.1 45.4 588.1 45.4C585.5 45.4 583.5 43.3 583.5 39.5ZM591.7 39.5C591.7 37.3 590.7 35.8 589 35.8C587.2 35.8 586.3 37.3 586.3 39.5C586.3 41.6 587.2 43.2 589 43.2C590.7 43.2 591.7 41.7 591.7 39.5Z" fill="#171717"/>
<path d="M599.899 45.2H597.199V29.9H599.899V45.2Z" fill="#171717"/>
<path d="M602.5 30.7C602.5 29.9 603.2 29.2 604.1 29.2C605 29.2 605.7 29.9 605.7 30.7C605.7 31.5 605 32.2 604.1 32.2C603.2 32.1 602.5 31.5 602.5 30.7ZM602.7 33.8H605.4V45.3H602.7V33.8Z" fill="#171717"/>
<path d="M610.899 45.2H608.199V33.7H610.799V35.6H610.899C611.399 34.3 612.599 33.5 614.299 33.5C616.699 33.5 618.199 35.1 618.199 37.8V45.1H615.499V38.3C615.499 36.8 614.699 35.9 613.299 35.9C611.899 35.9 610.899 36.9 610.899 38.5V45.2V45.2Z" fill="#171717"/>
<path d="M620.5 39.6C620.5 36.1 622.6 33.7 625.9 33.7C628.7 33.7 631.1 35.5 631.1 39.5V40.3H623.1C623.1 42.3 624.3 43.4 626 43.4C627.2 43.4 628.1 42.9 628.4 41.9L630.9 42.2C630.4 44.2 628.6 45.5 625.9 45.5C622.6 45.4 620.5 43.2 620.5 39.6ZM628.6 38.4C628.6 36.8 627.5 35.7 626 35.7C624.4 35.7 623.3 36.9 623.2 38.4H628.6Z" fill="#171717"/>
<path d="M638.102 39.5C638.102 35.9 640.202 33.6 643.602 33.6C647.002 33.6 649.102 36 649.102 39.5C649.102 43 647.002 45.4 643.602 45.4C640.302 45.4 638.102 43.1 638.102 39.5ZM646.402 39.5C646.402 37.4 645.502 35.7 643.702 35.7C641.802 35.7 640.902 37.4 640.902 39.5C640.902 41.6 641.802 43.3 643.702 43.3C645.502 43.3 646.402 41.6 646.402 39.5Z" fill="#171717"/>
<path d="M657.202 35.9H654.802V45.3H652.102V35.9H650.402V33.8H652.102V32.7C652.102 30.4 653.702 29.2 655.702 29.2C656.602 29.2 657.402 29.4 657.802 29.5L657.302 31.6C657.102 31.5 656.702 31.4 656.302 31.4C655.302 31.4 654.902 31.9 654.902 32.8V33.7H657.302V35.9H657.202Z" fill="#171717"/>
<path d="M664.5 33.8H667.1V35.7H667.2C667.7 34.4 668.8 33.6 670.4 33.6C671.9 33.6 673.1 34.4 673.5 35.7H673.6C674.1 34.4 675.4 33.6 677 33.6C679.1 33.6 680.6 35 680.6 37.5V45.2H677.9V37.9C677.9 36.5 677 35.8 675.9 35.8C674.6 35.8 673.8 36.7 673.8 38V45.1H671.2V37.7C671.2 36.5 670.4 35.8 669.3 35.8C668.1 35.8 667.2 36.8 667.2 38.2V45.2H664.5V33.8Z" fill="#171717"/>
<path d="M682.801 42C682.801 39.4 684.901 38.8 687.201 38.5C689.201 38.3 690.001 38.2 690.001 37.5C690.001 36.4 689.301 35.7 688.101 35.7C686.801 35.7 686.001 36.4 685.801 37.2L683.301 36.8C683.901 34.7 685.701 33.6 688.201 33.6C690.401 33.6 692.901 34.5 692.901 37.5V45.2H690.301V43.6H690.201C689.701 44.6 688.601 45.4 686.801 45.4C684.501 45.5 682.801 44.3 682.801 42ZM690.001 41.1V39.7C689.601 40 688.201 40.2 687.501 40.3C686.301 40.5 685.401 40.9 685.401 41.9C685.401 42.9 686.201 43.4 687.301 43.4C689.001 43.5 690.001 42.4 690.001 41.1Z" fill="#171717"/>
<path d="M698.2 45.2H695.5V33.7H698.1V35.6H698.2C698.7 34.3 699.9 33.5 701.6 33.5C704 33.5 705.5 35.1 705.5 37.8V45.1H702.8V38.3C702.8 36.8 702 35.9 700.6 35.9C699.2 35.9 698.2 36.9 698.2 38.5V45.2V45.2Z" fill="#171717"/>
<path d="M707.801 39.5C707.801 35.7 709.901 33.6 712.501 33.6C714.501 33.6 715.401 34.8 715.801 35.6H715.901V29.9H718.601V45.2H715.901V43.4H715.701C715.301 44.2 714.401 45.4 712.401 45.4C709.801 45.4 707.801 43.3 707.801 39.5ZM716.001 39.5C716.001 37.3 715.001 35.8 713.301 35.8C711.501 35.8 710.601 37.3 710.601 39.5C710.601 41.6 711.501 43.2 713.301 43.2C715.001 43.2 716.001 41.7 716.001 39.5Z" fill="#171717"/>
<path d="M721 42C721 39.4 723.1 38.8 725.4 38.5C727.4 38.3 728.2 38.2 728.2 37.5C728.2 36.4 727.5 35.7 726.3 35.7C725 35.7 724.2 36.4 724 37.2L721.5 36.8C722.1 34.7 723.9 33.6 726.4 33.6C728.6 33.6 731.1 34.5 731.1 37.5V45.2H728.5V43.6H728.4C727.9 44.6 726.8 45.4 725 45.4C722.6 45.5 721 44.3 721 42ZM728.1 41.1V39.7C727.7 40 726.3 40.2 725.6 40.3C724.4 40.5 723.5 40.9 723.5 41.9C723.5 42.9 724.3 43.4 725.4 43.4C727.1 43.5 728.1 42.4 728.1 41.1Z" fill="#171717"/>
<path d="M739.299 35.9H736.999V41.8C736.999 42.9 737.499 43.1 738.199 43.1C738.499 43.1 738.799 43 738.999 43L739.499 45.1C739.199 45.2 738.699 45.3 737.899 45.4C735.899 45.5 734.299 44.4 734.299 42.2V35.8H732.699V33.7H734.299V31H736.999V33.7H739.299V35.9V35.9Z" fill="#171717"/>
<path d="M740.902 39.5C740.902 35.9 743.002 33.6 746.402 33.6C749.802 33.6 751.902 36 751.902 39.5C751.902 43 749.802 45.4 746.402 45.4C743.102 45.4 740.902 43.1 740.902 39.5ZM749.202 39.5C749.202 37.4 748.302 35.7 746.502 35.7C744.602 35.7 743.702 37.4 743.702 39.5C743.702 41.6 744.602 43.3 746.502 43.3C748.302 43.3 749.202 41.6 749.202 39.5Z" fill="#171717"/>
<path d="M754.202 33.8H756.802V35.7H756.902C757.302 34.4 758.402 33.6 759.702 33.6C760.002 33.6 760.402 33.6 760.702 33.7V36.2C760.502 36.1 759.902 36 759.402 36C757.902 36 756.802 37 756.802 38.5V45.2H754.102V33.8H754.202Z" fill="#171717"/>
<path d="M762.802 49.2L763.402 47.1C764.602 47.4 765.402 47.4 765.902 46L766.102 45.4L761.902 33.7H764.802L767.402 42.4H767.502L770.102 33.7H773.002L768.402 46.5C767.802 48.3 766.502 49.4 764.402 49.4C763.802 49.5 763.202 49.4 762.802 49.2Z" fill="#171717"/>
<path d="M551.901 67.4H551.801C551.401 68.2 550.501 69.4 548.501 69.4C545.801 69.4 543.801 67.3 543.801 63.5C543.801 59.7 545.901 57.6 548.501 57.6C550.501 57.6 551.401 58.8 551.801 59.6H552.001V57.7H554.701V73.5H552.001V67.4H551.901ZM552.001 63.5C552.001 61.3 551.001 59.8 549.301 59.8C547.501 59.8 546.601 61.3 546.601 63.5C546.601 65.6 547.501 67.2 549.301 67.2C551.001 67.2 552.001 65.7 552.001 63.5Z" fill="#171717"/>
<path d="M564.7 57.8H567.4V69.3H564.8V67.3H564.7C564.2 68.6 563 69.5001 561.3 69.5001C559 69.5001 557.5 67.9 557.5 65.2V57.9001H560.2V64.8C560.2 66.3 561.1 67.2 562.4 67.2C563.6 67.2 564.8 66.3 564.8 64.6V57.8H564.7Z" fill="#171717"/>
<path d="M569.902 54.7C569.902 53.9 570.602 53.2 571.502 53.2C572.402 53.2 573.102 53.9 573.102 54.7C573.102 55.5 572.402 56.2 571.502 56.2C570.602 56.1 569.902 55.5 569.902 54.7ZM570.202 57.8H572.902V69.3H570.202V57.8Z" fill="#171717"/>
<path d="M575.5 67.5001L581.4 60.1V60.0001H575.7V57.8H584.7V59.6L579.1 66.9001V67.0001H584.9V69.2H575.5V67.5001V67.5001Z" fill="#171717"/>
<path d="M592.199 65.2C592.199 63.4 593.399 62.3 595.099 61.1C594.199 60 593.499 58.9 593.499 57.5C593.499 55.3 595.099 53.7 597.499 53.7C599.899 53.7 601.399 55.3 601.399 57.2C601.399 58.6 600.599 59.8 599.399 60.7L598.399 61.4L601.199 64.7C601.599 63.9 601.799 63 601.799 62H604.099C604.099 64.1 603.499 65.6 602.799 66.6L604.999 69.2H602.099L601.099 68.1C599.999 69 598.499 69.4 597.199 69.4C594.099 69.4 592.199 67.6 592.199 65.2ZM596.499 62.8L596.299 63C595.299 63.7 594.899 64.5 594.899 65.1C594.899 66.3 595.899 67.3 597.399 67.3C598.199 67.3 598.999 67 599.799 66.5L596.499 62.8ZM597.799 59.2C598.599 58.7 598.999 58.1 598.999 57.4C598.999 56.7 598.399 56 597.399 56C596.399 56 595.799 56.8 595.799 57.6C595.799 58.3 596.299 59 596.899 59.8L597.799 59.2Z" fill="#171717"/>
<path d="M611.301 63.6C611.301 60.1 613.401 57.7 616.701 57.7C619.501 57.7 621.901 59.5 621.901 63.5V64.3H613.901C613.901 66.3 615.101 67.4 616.801 67.4C618.001 67.4 618.901 66.9 619.201 65.9L621.701 66.2C621.201 68.2 619.401 69.5 616.701 69.5C613.401 69.4 611.301 67.2 611.301 63.6ZM619.301 62.4C619.301 60.8 618.201 59.7 616.701 59.7C615.101 59.7 614.001 60.9 613.901 62.4H619.301Z" fill="#171717"/>
<path d="M628.501 62.0001L630.901 57.8H633.801L630.301 63.5001L633.801 69.2H631.001L628.601 65.1L626.201 69.2H623.301L626.801 63.5001L623.401 57.8H626.301L628.501 62.0001Z" fill="#171717"/>
<path d="M634.902 63.6C634.902 60.1 637.002 57.7 640.302 57.7C643.102 57.7 645.502 59.5 645.502 63.5V64.3H637.502C637.502 66.3 638.702 67.4 640.402 67.4C641.602 67.4 642.502 66.9 642.802 65.9L645.302 66.2C644.802 68.2 643.002 69.5 640.302 69.5C637.002 69.4 634.902 67.2 634.902 63.6ZM642.902 62.4C642.902 60.8 641.802 59.7 640.302 59.7C638.702 59.7 637.602 60.9 637.502 62.4H642.902Z" fill="#171717"/>
<path d="M647.799 57.8H650.399V59.7H650.499C650.899 58.4 651.999 57.6 653.299 57.6C653.599 57.6 653.999 57.6 654.299 57.7V60.2C654.099 60.1 653.499 60 652.999 60C651.499 60 650.399 61 650.399 62.5V69.2H647.699V57.8H647.799Z" fill="#171717"/>
<path d="M655.199 63.5C655.199 60 657.299 57.6 660.699 57.6C663.499 57.6 665.399 59.2 665.599 61.7H662.999C662.799 60.6 661.999 59.8 660.699 59.8C658.999 59.8 657.899 61.2 657.899 63.5C657.899 65.8 658.999 67.3 660.699 67.3C661.899 67.3 662.799 66.6 662.999 65.4H665.599C665.399 67.8 663.599 69.5 660.699 69.5C657.199 69.4 655.199 67 655.199 63.5Z" fill="#171717"/>
<path d="M667.602 54.7C667.602 53.9 668.302 53.2 669.202 53.2C670.102 53.2 670.802 53.9 670.802 54.7C670.802 55.5 670.102 56.2 669.202 56.2C668.302 56.1 667.602 55.5 667.602 54.7ZM667.802 57.8H670.502V69.3H667.802V57.8Z" fill="#171717"/>
<path d="M679.901 61.1C679.701 60.3 679.001 59.7 677.801 59.7C676.701 59.7 675.801 60.2 675.801 61C675.801 61.7 676.301 62.1 677.401 62.3L679.401 62.7C681.601 63.2 682.601 64.2 682.601 65.8C682.601 68 680.601 69.5 677.701 69.5C674.901 69.5 673.101 68.3 672.801 66.2L675.401 65.9C675.601 66.9 676.401 67.5 677.701 67.5C679.001 67.5 679.801 66.9 679.801 66.1C679.801 65.5 679.301 65 678.301 64.8L676.301 64.4C674.101 63.9 673.101 62.8 673.101 61.2C673.101 59.1 675.001 57.7 677.701 57.7C680.401 57.7 681.901 58.9 682.301 60.9L679.901 61.1Z" fill="#171717"/>
<path d="M684.301 63.6C684.301 60.1 686.401 57.7 689.701 57.7C692.501 57.7 694.901 59.5 694.901 63.5V64.3H686.901C686.901 66.3 688.101 67.4 689.801 67.4C691.001 67.4 691.901 66.9 692.201 65.9L694.701 66.2C694.201 68.2 692.401 69.5 689.701 69.5C686.401 69.4 684.301 67.2 684.301 63.6ZM692.401 62.4C692.401 60.8 691.301 59.7 689.801 59.7C688.201 59.7 687.101 60.9 687.001 62.4H692.401Z" fill="#171717"/>
<path d="M703.799 61.1C703.599 60.3 702.899 59.7 701.699 59.7C700.599 59.7 699.699 60.2 699.699 61C699.699 61.7 700.199 62.1 701.299 62.3L703.299 62.7C705.499 63.2 706.499 64.2 706.499 65.8C706.499 68 704.499 69.5 701.599 69.5C698.799 69.5 696.999 68.3 696.699 66.2L699.299 65.9C699.499 66.9 700.299 67.5 701.599 67.5C702.899 67.5 703.699 66.9 703.699 66.1C703.699 65.5 703.199 65 702.199 64.8L700.199 64.4C697.999 63.9 696.999 62.8 696.999 61.2C696.999 59.1 698.899 57.7 701.599 57.7C704.299 57.7 705.799 58.9 706.199 60.9L703.799 61.1Z" fill="#171717"/>
<path d="M546.002 90.9L550.002 100.5H550.102L554.102 90.9H555.802V102.5H554.402V93.7H554.302L550.702 102.5H549.402L545.802 93.7H545.702V102.5H544.402V90.9H546.002Z" fill="#808080"/>
<path d="M557.902 100C557.902 98 559.702 97.6 561.302 97.4C562.902 97.2 563.502 97.3 563.502 96.6C563.502 95.5 562.902 94.8 561.702 94.8C560.402 94.8 559.702 95.5 559.402 96.1L558.102 95.6C558.802 94 560.302 93.6 561.602 93.6C562.702 93.6 564.802 93.9 564.802 96.7V102.4H563.502V101.3H563.402C563.102 101.9 562.302 102.7 560.802 102.7C559.202 102.7 557.902 101.7 557.902 100ZM563.602 99.4V98.2C563.402 98.5 561.902 98.6 561.302 98.7C560.302 98.8 559.302 99.2 559.302 100.2C559.302 101.1 560.102 101.6 561.102 101.6C562.702 101.5 563.602 100.4 563.602 99.4Z" fill="#808080"/>
<path d="M566.901 105.6L567.201 104.4C568.201 104.6 568.801 104.5 569.301 103.2L569.501 102.5L566.301 93.7H567.801L570.201 100.6H570.301L572.701 93.7H574.201L570.501 103.7C570.001 105.1 569.101 105.7 567.901 105.7C567.401 105.8 567.101 105.7 566.901 105.6Z" fill="#808080"/>
<path d="M580.402 101.5L584.202 97.3C585.502 95.8 586.202 95.0001 586.202 94.0001C586.202 92.8001 585.202 92.0001 584.002 92.0001C582.702 92.0001 581.802 92.9 581.802 94.2H580.502C580.502 92.2 582.002 90.8 584.102 90.8C586.102 90.8 587.602 92.2001 587.602 94.0001C587.602 95.3001 587.002 96.3001 585.002 98.4001L582.402 101.2V101.3H587.802V102.5H580.402V101.5Z" fill="#808080"/>
<path d="M589.902 96.7C589.902 92.9 591.402 90.7 593.902 90.7C596.402 90.7 597.902 92.9 597.902 96.7C597.902 100.5 596.402 102.7 593.902 102.7C591.402 102.7 589.902 100.5 589.902 96.7ZM596.602 96.7C596.602 93.7 595.602 92 593.902 92C592.202 92 591.202 93.7 591.202 96.7C591.202 99.7 592.202 101.4 593.902 101.4C595.602 101.4 596.602 99.7 596.602 96.7Z" fill="#808080"/>
<path d="M603.902 94.9001H602.002V100C602.002 101.1 602.602 101.3 603.202 101.3C603.502 101.3 603.702 101.3 603.802 101.2L604.102 102.4C603.902 102.5 603.602 102.6 603.102 102.6C602.002 102.6 600.702 101.9 600.702 100.4V95.0001H599.402V93.9001H600.702V91.8H602.002V93.9001H603.902V94.9001V94.9001Z" fill="#808080"/>
<path d="M607.503 102.5H606.203V90.9H607.503V95.2H607.603C608.003 94.3 608.803 93.7 610.203 93.7C612.003 93.7 613.203 94.7 613.203 97V102.5H611.903V97.1C611.903 95.7 611.103 94.9 609.903 94.9C608.603 94.9 607.603 95.8 607.603 97.3V102.5H607.503Z" fill="#808080"/>
<path d="M619.703 100C619.703 98 621.503 97.6 623.103 97.4C624.703 97.2 625.303 97.3 625.303 96.6C625.303 95.5 624.703 94.8 623.503 94.8C622.203 94.8 621.503 95.5 621.203 96.1L619.903 95.6C620.603 94 622.103 93.6 623.403 93.6C624.503 93.6 626.603 93.9 626.603 96.7V102.4H625.303V101.3H625.203C624.903 101.9 624.103 102.7 622.603 102.7C621.003 102.7 619.703 101.7 619.703 100ZM625.303 99.4V98.2C625.103 98.5 623.603 98.6 623.003 98.7C622.003 98.8 621.003 99.2 621.003 100.2C621.003 101.1 621.803 101.6 622.803 101.6C624.403 101.5 625.303 100.4 625.303 99.4Z" fill="#808080"/>
<path d="M630.402 102.5H629.102V93.8H630.402V95.2H630.502C630.902 94.3 631.702 93.7 633.002 93.7C634.802 93.7 636.002 94.8 636.002 97V102.5H634.702V97.1C634.702 95.7 633.902 94.9 632.702 94.9C631.402 94.9 630.502 95.8 630.502 97.3V102.5H630.402Z" fill="#808080"/>
<path d="M638.102 98.2C638.102 95.5 639.602 93.7 641.802 93.7C643.502 93.7 644.002 94.7 644.302 95.2H644.402V90.9H645.702V102.5H644.402V101.2H644.202C643.902 101.7 643.302 102.7 641.702 102.7C639.602 102.7 638.102 100.9 638.102 98.2ZM644.402 98.2C644.402 96.2 643.502 94.9 641.902 94.9C640.202 94.9 639.402 96.3 639.402 98.2C639.402 100.1 640.302 101.5 641.902 101.5C643.602 101.5 644.402 100.1 644.402 98.2Z" fill="#808080"/>
<path d="M652.902 101.5L656.702 97.3C658.002 95.8 658.702 95.0001 658.702 94.0001C658.702 92.8001 657.702 92.0001 656.502 92.0001C655.202 92.0001 654.302 92.9 654.302 94.2H653.002C653.002 92.2 654.502 90.8 656.602 90.8C658.602 90.8 660.102 92.2001 660.102 94.0001C660.102 95.3001 659.502 96.3001 657.502 98.4001L654.902 101.2V101.3H660.302V102.5H653.002V101.5H652.902Z" fill="#808080"/>
<path d="M668.102 92.2L662.102 92.1V90.9H669.502V92.2L664.302 102.5H662.802L668.102 92.2Z" fill="#808080"/>
<path d="M675.504 94.9001H673.604V100C673.604 101.1 674.204 101.3 674.804 101.3C675.104 101.3 675.304 101.3 675.404 101.2L675.704 102.4C675.504 102.5 675.204 102.6 674.704 102.6C673.604 102.6 672.304 101.9 672.304 100.4V95.0001H671.004V93.9001H672.304V91.8H673.604V93.9001H675.504V94.9001Z" fill="#808080"/>
<path d="M679.101 102.5H677.801V90.9H679.101V95.2H679.201C679.601 94.3 680.401 93.7 681.801 93.7C683.601 93.7 684.801 94.7 684.801 97V102.5H683.401V97.1C683.401 95.7 682.601 94.9 681.401 94.9C680.101 94.9 679.101 95.8 679.101 97.3V102.5Z" fill="#808080"/>
<path d="M544.401 265.1H554.301V267.4H547.101V271.5H553.801V273.8H547.101V278H554.301V280.3H544.301V265.1H544.401Z" fill="#171717"/>
<path d="M561.501 273.2L563.901 269H566.801L563.301 274.7L566.801 280.4H564.001L561.601 276.3L559.201 280.4H556.301L559.801 274.7L556.401 269H559.301L561.501 273.2Z" fill="#171717"/>
<path d="M568.301 277.2C568.301 274.6 570.401 274 572.701 273.7C574.701 273.5 575.501 273.4 575.501 272.7C575.501 271.6 574.801 270.9 573.601 270.9C572.301 270.9 571.501 271.6 571.301 272.4L568.801 272C569.401 269.9 571.201 268.8 573.701 268.8C575.901 268.8 578.401 269.7 578.401 272.7V280.4H575.801V278.8H575.701C575.201 279.8 574.101 280.6 572.301 280.6C569.901 280.6 568.301 279.5 568.301 277.2ZM575.501 276.3V274.9C575.101 275.2 573.701 275.4 573.001 275.5C571.801 275.7 570.901 276.1 570.901 277.1C570.901 278.1 571.701 278.6 572.801 278.6C574.401 278.7 575.501 277.6 575.501 276.3Z" fill="#171717"/>
<path d="M580.902 269H583.502V270.9H583.602C584.102 269.6 585.202 268.8 586.802 268.8C588.302 268.8 589.502 269.6 589.902 270.9H590.002C590.502 269.6 591.802 268.8 593.402 268.8C595.502 268.8 597.002 270.2 597.002 272.7V280.4H594.302V273.1C594.302 271.7 593.402 271 592.302 271C591.002 271 590.202 271.9 590.202 273.2V280.3H587.602V272.9C587.602 271.7 586.802 271 585.702 271C584.502 271 583.602 272 583.602 273.4V280.4H580.902V269Z" fill="#171717"/>
<path d="M604.902 269H607.602V270.9H607.802C608.202 270.1 609.102 268.9 611.102 268.9C613.702 268.9 615.802 271 615.802 274.8C615.802 278.6 613.802 280.7 611.102 280.7C609.102 280.7 608.202 279.5 607.802 278.7H607.702V284.8H605.002V269H604.902ZM610.302 278.4C612.102 278.4 613.002 276.8 613.002 274.7C613.002 272.6 612.102 271 610.302 271C608.602 271 607.602 272.4 607.602 274.7C607.602 277 608.502 278.4 610.302 278.4Z" fill="#171717"/>
<path d="M617.602 274.8C617.602 271.3 619.702 268.9 623.002 268.9C625.802 268.9 628.202 270.7 628.202 274.7V275.5H620.202C620.202 277.5 621.402 278.6 623.102 278.6C624.302 278.6 625.202 278.1 625.502 277.1L628.002 277.4C627.502 279.4 625.702 280.7 623.002 280.7C619.702 280.6 617.602 278.3 617.602 274.8ZM625.602 273.6C625.602 272 624.502 270.9 623.002 270.9C621.402 270.9 620.302 272.1 620.202 273.6H625.602Z" fill="#171717"/>
<path d="M630.502 269H633.102V270.9H633.202C633.602 269.6 634.702 268.8 636.002 268.8C636.302 268.8 636.702 268.8 637.002 268.9V271.4C636.802 271.3 636.202 271.2 635.702 271.2C634.202 271.2 633.102 272.2 633.102 273.7V280.4H630.402V269H630.502Z" fill="#171717"/>
<path d="M638.602 265.9C638.602 265.1 639.302 264.4 640.202 264.4C641.102 264.4 641.802 265.1 641.802 265.9C641.802 266.7 641.102 267.4 640.202 267.4C639.302 267.3 638.602 266.7 638.602 265.9ZM638.802 269H641.502V280.5H638.802V269Z" fill="#171717"/>
<path d="M643.801 274.7C643.801 271.1 645.901 268.8 649.301 268.8C652.701 268.8 654.801 271.2 654.801 274.7C654.801 278.2 652.701 280.6 649.301 280.6C645.901 280.6 643.801 278.3 643.801 274.7ZM652.001 274.7C652.001 272.6 651.101 270.9 649.301 270.9C647.401 270.9 646.501 272.6 646.501 274.7C646.501 276.8 647.401 278.5 649.301 278.5C651.101 278.5 652.001 276.8 652.001 274.7Z" fill="#171717"/>
<path d="M656.602 274.7C656.602 270.9 658.702 268.8 661.302 268.8C663.302 268.8 664.202 270 664.602 270.8H664.702V265.1H667.402V280.4H664.702V278.6H664.502C664.102 279.4 663.202 280.6 661.202 280.6C658.602 280.6 656.602 278.5 656.602 274.7ZM664.802 274.7C664.802 272.5 663.802 271 662.102 271C660.302 271 659.402 272.5 659.402 274.7C659.402 276.8 660.302 278.4 662.102 278.4C663.802 278.4 664.802 276.9 664.802 274.7Z" fill="#171717"/>
<path d="M548.864 302.364H550.273V310.682C550.273 311.424 550.136 312.055 549.864 312.574C549.591 313.093 549.206 313.487 548.71 313.756C548.214 314.025 547.629 314.159 546.955 314.159C546.318 314.159 545.752 314.044 545.256 313.812C544.759 313.578 544.369 313.244 544.085 312.812C543.801 312.381 543.659 311.867 543.659 311.273H545.045C545.045 311.602 545.127 311.89 545.29 312.136C545.456 312.379 545.684 312.568 545.972 312.705C546.259 312.841 546.587 312.909 546.955 312.909C547.36 312.909 547.705 312.824 547.989 312.653C548.273 312.483 548.489 312.233 548.636 311.903C548.788 311.57 548.864 311.163 548.864 310.682V302.364ZM558.415 310.432V305.273H559.756V314H558.415V312.523H558.324C558.119 312.966 557.801 313.343 557.369 313.653C556.938 313.96 556.392 314.114 555.733 314.114C555.188 314.114 554.703 313.994 554.278 313.756C553.854 313.513 553.521 313.15 553.278 312.665C553.036 312.176 552.915 311.561 552.915 310.818V305.273H554.256V310.727C554.256 311.364 554.434 311.871 554.79 312.25C555.15 312.629 555.608 312.818 556.165 312.818C556.498 312.818 556.837 312.733 557.182 312.562C557.53 312.392 557.822 312.131 558.057 311.778C558.295 311.426 558.415 310.977 558.415 310.432ZM563.553 308.75V314H562.212V305.273H563.507V306.636H563.621C563.825 306.193 564.136 305.837 564.553 305.568C564.969 305.295 565.507 305.159 566.166 305.159C566.757 305.159 567.274 305.28 567.717 305.523C568.161 305.761 568.505 306.125 568.751 306.614C568.998 307.098 569.121 307.712 569.121 308.455V314H567.78V308.545C567.78 307.86 567.602 307.326 567.246 306.943C566.89 306.557 566.401 306.364 565.78 306.364C565.352 306.364 564.969 306.456 564.632 306.642C564.299 306.828 564.036 307.098 563.842 307.455C563.649 307.811 563.553 308.242 563.553 308.75ZM575.23 314.182C574.389 314.182 573.664 313.996 573.054 313.625C572.448 313.25 571.98 312.727 571.651 312.057C571.325 311.383 571.162 310.598 571.162 309.705C571.162 308.811 571.325 308.023 571.651 307.341C571.98 306.655 572.438 306.121 573.026 305.739C573.616 305.352 574.306 305.159 575.094 305.159C575.548 305.159 575.997 305.235 576.44 305.386C576.884 305.538 577.287 305.784 577.651 306.125C578.014 306.462 578.304 306.909 578.52 307.466C578.736 308.023 578.844 308.708 578.844 309.523V310.091H572.116V308.932H577.48C577.48 308.439 577.382 308 577.185 307.614C576.991 307.227 576.715 306.922 576.355 306.699C575.999 306.475 575.579 306.364 575.094 306.364C574.56 306.364 574.098 306.496 573.707 306.761C573.321 307.023 573.024 307.364 572.815 307.784C572.607 308.205 572.503 308.655 572.503 309.136V309.909C572.503 310.568 572.616 311.127 572.844 311.585C573.075 312.04 573.395 312.386 573.804 312.625C574.213 312.86 574.688 312.977 575.23 312.977C575.582 312.977 575.901 312.928 576.185 312.83C576.473 312.727 576.721 312.576 576.929 312.375C577.137 312.17 577.298 311.917 577.412 311.614L578.707 311.977C578.571 312.417 578.342 312.803 578.02 313.136C577.698 313.466 577.3 313.723 576.827 313.909C576.353 314.091 575.821 314.182 575.23 314.182ZM585.361 314V312.977L589.202 308.773C589.652 308.28 590.024 307.852 590.315 307.489C590.607 307.121 590.823 306.777 590.963 306.455C591.107 306.129 591.179 305.788 591.179 305.432C591.179 305.023 591.08 304.669 590.884 304.369C590.69 304.07 590.425 303.839 590.088 303.676C589.751 303.513 589.372 303.432 588.952 303.432C588.505 303.432 588.115 303.525 587.781 303.71C587.452 303.892 587.196 304.148 587.014 304.477C586.836 304.807 586.747 305.193 586.747 305.636H585.406C585.406 304.955 585.563 304.356 585.878 303.841C586.192 303.326 586.62 302.924 587.162 302.636C587.707 302.348 588.319 302.205 588.997 302.205C589.679 302.205 590.283 302.348 590.81 302.636C591.336 302.924 591.749 303.312 592.048 303.801C592.348 304.29 592.497 304.833 592.497 305.432C592.497 305.86 592.42 306.278 592.264 306.688C592.113 307.093 591.848 307.545 591.469 308.045C591.094 308.542 590.573 309.148 589.906 309.864L587.293 312.659V312.75H592.702V314H585.361ZM594.526 311.614V310.455L599.639 302.364H600.48V304.159H599.912L596.048 310.273V310.364H602.935V311.614H594.526ZM600.003 314V311.261V310.722V302.364H601.344V314H600.003ZM608.882 305.273V306.409H604.359V305.273H608.882ZM605.678 303.182H607.018V311.5C607.018 311.879 607.073 312.163 607.183 312.352C607.297 312.538 607.441 312.663 607.615 312.727C607.793 312.788 607.981 312.818 608.178 312.818C608.325 312.818 608.446 312.811 608.541 312.795C608.636 312.777 608.712 312.761 608.768 312.75L609.041 313.955C608.95 313.989 608.823 314.023 608.661 314.057C608.498 314.095 608.291 314.114 608.041 314.114C607.662 314.114 607.291 314.032 606.928 313.869C606.568 313.706 606.268 313.458 606.03 313.125C605.795 312.792 605.678 312.371 605.678 311.864V303.182ZM612.428 308.75V314H611.087V302.364H612.428V306.636H612.541C612.746 306.186 613.053 305.828 613.462 305.562C613.875 305.294 614.424 305.159 615.109 305.159C615.704 305.159 616.225 305.278 616.672 305.517C617.119 305.752 617.465 306.114 617.712 306.602C617.962 307.087 618.087 307.705 618.087 308.455V314H616.746V308.545C616.746 307.852 616.566 307.316 616.206 306.938C615.85 306.555 615.356 306.364 614.723 306.364C614.284 306.364 613.89 306.456 613.541 306.642C613.196 306.828 612.924 307.098 612.723 307.455C612.526 307.811 612.428 308.242 612.428 308.75ZM628.835 305.273V306.409H624.312V305.273H628.835ZM625.631 303.182H626.972V311.5C626.972 311.879 627.027 312.163 627.136 312.352C627.25 312.538 627.394 312.663 627.568 312.727C627.746 312.788 627.934 312.818 628.131 312.818C628.278 312.818 628.4 312.811 628.494 312.795C628.589 312.777 628.665 312.761 628.722 312.75L628.994 313.955C628.903 313.989 628.777 314.023 628.614 314.057C628.451 314.095 628.244 314.114 627.994 314.114C627.616 314.114 627.244 314.032 626.881 313.869C626.521 313.706 626.222 313.458 625.983 313.125C625.748 312.792 625.631 312.371 625.631 311.864V303.182ZM634.304 314.182C633.516 314.182 632.825 313.994 632.23 313.619C631.639 313.244 631.177 312.72 630.844 312.045C630.514 311.371 630.349 310.583 630.349 309.682C630.349 308.773 630.514 307.979 630.844 307.301C631.177 306.623 631.639 306.097 632.23 305.722C632.825 305.347 633.516 305.159 634.304 305.159C635.092 305.159 635.781 305.347 636.372 305.722C636.967 306.097 637.429 306.623 637.759 307.301C638.092 307.979 638.259 308.773 638.259 309.682C638.259 310.583 638.092 311.371 637.759 312.045C637.429 312.72 636.967 313.244 636.372 313.619C635.781 313.994 635.092 314.182 634.304 314.182ZM634.304 312.977C634.902 312.977 635.395 312.824 635.781 312.517C636.168 312.21 636.454 311.807 636.639 311.307C636.825 310.807 636.918 310.265 636.918 309.682C636.918 309.098 636.825 308.555 636.639 308.051C636.454 307.547 636.168 307.14 635.781 306.83C635.395 306.519 634.902 306.364 634.304 306.364C633.705 306.364 633.213 306.519 632.827 306.83C632.44 307.14 632.154 307.547 631.969 308.051C631.783 308.555 631.69 309.098 631.69 309.682C631.69 310.265 631.783 310.807 631.969 311.307C632.154 311.807 632.44 312.21 632.827 312.517C633.213 312.824 633.705 312.977 634.304 312.977ZM649.442 302.364H650.851V310.682C650.851 311.424 650.714 312.055 650.442 312.574C650.169 313.093 649.785 313.487 649.288 313.756C648.792 314.025 648.207 314.159 647.533 314.159C646.896 314.159 646.33 314.044 645.834 313.812C645.338 313.578 644.947 313.244 644.663 312.812C644.379 312.381 644.237 311.867 644.237 311.273H645.624C645.624 311.602 645.705 311.89 645.868 312.136C646.035 312.379 646.262 312.568 646.55 312.705C646.838 312.841 647.165 312.909 647.533 312.909C647.938 312.909 648.283 312.824 648.567 312.653C648.851 312.483 649.067 312.233 649.214 311.903C649.366 311.57 649.442 311.163 649.442 310.682V302.364ZM658.993 310.432V305.273H660.334V314H658.993V312.523H658.902C658.697 312.966 658.379 313.343 657.947 313.653C657.516 313.96 656.97 314.114 656.311 314.114C655.766 314.114 655.281 313.994 654.857 313.756C654.432 313.513 654.099 313.15 653.857 312.665C653.614 312.176 653.493 311.561 653.493 310.818V305.273H654.834V310.727C654.834 311.364 655.012 311.871 655.368 312.25C655.728 312.629 656.186 312.818 656.743 312.818C657.076 312.818 657.415 312.733 657.76 312.562C658.108 312.392 658.4 312.131 658.635 311.778C658.874 311.426 658.993 310.977 658.993 310.432ZM664.131 302.364V314H662.79V302.364H664.131ZM667.45 317.273C667.223 317.273 667.02 317.254 666.842 317.216C666.664 317.182 666.541 317.148 666.473 317.114L666.814 315.932C667.14 316.015 667.428 316.045 667.678 316.023C667.928 316 668.149 315.888 668.342 315.688C668.539 315.491 668.719 315.17 668.882 314.727L669.132 314.045L665.905 305.273H667.359L669.768 312.227H669.859L672.268 305.273H673.723L670.018 315.273C669.852 315.723 669.645 316.097 669.399 316.392C669.153 316.691 668.867 316.913 668.541 317.057C668.219 317.201 667.856 317.273 667.45 317.273ZM679.97 314V312.977L683.811 308.773C684.262 308.28 684.633 307.852 684.925 307.489C685.216 307.121 685.432 306.777 685.572 306.455C685.716 306.129 685.788 305.788 685.788 305.432C685.788 305.023 685.69 304.669 685.493 304.369C685.3 304.07 685.035 303.839 684.697 303.676C684.36 303.513 683.982 303.432 683.561 303.432C683.114 303.432 682.724 303.525 682.391 303.71C682.061 303.892 681.805 304.148 681.624 304.477C681.446 304.807 681.357 305.193 681.357 305.636H680.016C680.016 304.955 680.173 304.356 680.487 303.841C680.802 303.326 681.23 302.924 681.771 302.636C682.317 302.348 682.929 302.205 683.607 302.205C684.288 302.205 684.893 302.348 685.419 302.636C685.946 302.924 686.358 303.312 686.658 303.801C686.957 304.29 687.107 304.833 687.107 305.432C687.107 305.86 687.029 306.278 686.874 306.688C686.722 307.093 686.457 307.545 686.078 308.045C685.703 308.542 685.182 309.148 684.516 309.864L681.902 312.659V312.75H687.311V314H679.97ZM689.658 314V312.977L693.499 308.773C693.949 308.28 694.321 307.852 694.612 307.489C694.904 307.121 695.12 306.777 695.26 306.455C695.404 306.129 695.476 305.788 695.476 305.432C695.476 305.023 695.377 304.669 695.18 304.369C694.987 304.07 694.722 303.839 694.385 303.676C694.048 303.513 693.669 303.432 693.249 303.432C692.802 303.432 692.411 303.525 692.078 303.71C691.749 303.892 691.493 304.148 691.311 304.477C691.133 304.807 691.044 305.193 691.044 305.636H689.703C689.703 304.955 689.86 304.356 690.175 303.841C690.489 303.326 690.917 302.924 691.459 302.636C692.004 302.348 692.616 302.205 693.294 302.205C693.976 302.205 694.58 302.348 695.107 302.636C695.633 302.924 696.046 303.312 696.345 303.801C696.644 304.29 696.794 304.833 696.794 305.432C696.794 305.86 696.716 306.278 696.561 306.688C696.41 307.093 696.144 307.545 695.766 308.045C695.391 308.542 694.87 309.148 694.203 309.864L691.589 312.659V312.75H696.999V314H689.658ZM700.709 308.75V314H699.368V305.273H700.663V306.636H700.777C700.982 306.193 701.292 305.837 701.709 305.568C702.125 305.295 702.663 305.159 703.322 305.159C703.913 305.159 704.43 305.28 704.874 305.523C705.317 305.761 705.661 306.125 705.908 306.614C706.154 307.098 706.277 307.712 706.277 308.455V314H704.936V308.545C704.936 307.86 704.758 307.326 704.402 306.943C704.046 306.557 703.557 306.364 702.936 306.364C702.508 306.364 702.125 306.456 701.788 306.642C701.455 306.828 701.192 307.098 700.999 307.455C700.805 307.811 700.709 308.242 700.709 308.75ZM712.023 314.182C711.295 314.182 710.653 313.998 710.097 313.631C709.54 313.259 709.104 312.737 708.79 312.062C708.475 311.384 708.318 310.583 708.318 309.659C708.318 308.742 708.475 307.947 708.79 307.273C709.104 306.598 709.542 306.078 710.102 305.71C710.663 305.343 711.311 305.159 712.045 305.159C712.614 305.159 713.063 305.254 713.392 305.443C713.725 305.629 713.979 305.841 714.153 306.08C714.331 306.314 714.47 306.508 714.568 306.659H714.682V302.364H716.023V314H714.727V312.659H714.568C714.47 312.818 714.33 313.019 714.148 313.261C713.966 313.5 713.706 313.714 713.369 313.903C713.032 314.089 712.583 314.182 712.023 314.182ZM712.205 312.977C712.742 312.977 713.197 312.837 713.568 312.557C713.939 312.273 714.222 311.881 714.415 311.381C714.608 310.877 714.705 310.295 714.705 309.636C714.705 308.985 714.61 308.415 714.42 307.926C714.231 307.434 713.951 307.051 713.58 306.778C713.208 306.502 712.75 306.364 712.205 306.364C711.636 306.364 711.163 306.509 710.784 306.801C710.409 307.089 710.127 307.481 709.938 307.977C709.752 308.47 709.659 309.023 709.659 309.636C709.659 310.258 709.754 310.822 709.943 311.33C710.136 311.833 710.42 312.235 710.795 312.534C711.174 312.83 711.644 312.977 712.205 312.977Z" fill="#808080"/>
<defs>
<linearGradient id="paint0_linear_903_176" x1="362.167" y1="400.507" x2="972.381" y2="-602.659" gradientUnits="userSpaceOnUse">
<stop stop-color="#A5FBFF"/>
<stop offset="0.2303" stop-color="#86A1FF" stop-opacity="0.7"/>
<stop offset="0.5247" stop-color="#CF36D2" stop-opacity="0.28"/>
<stop offset="0.7186" stop-color="#99309B" stop-opacity="0"/>
</linearGradient>
</defs>
</svg>
