<svg width="18" height="19" viewBox="0 0 18 19" fill="none" xmlns="http://www.w3.org/2000/svg">
<path d="M10.0666 9.961V15.7976C10.0667 15.8973 10.0407 15.9953 9.9911 16.0817C9.9415 16.1681 9.8701 16.2399 9.7841 16.2899L7.61867 17.4882L7.61858 17.4879L6.53588 18.087C6.49305 18.1121 6.44436 18.1254 6.39474 18.1256C6.34513 18.1257 6.29636 18.1127 6.25339 18.0878C6.21042 18.063 6.17477 18.0271 6.15007 17.984C6.12536 17.9409 6.11247 17.8919 6.11271 17.8422V12.1696C6.11272 12.0698 6.08649 11.9717 6.03666 11.8853C5.98684 11.7989 5.91517 11.7272 5.82889 11.6774L0.931061 8.8417C0.888041 8.8169 0.852321 8.7811 0.827471 8.738C0.802631 8.6949 0.789551 8.646 0.789551 8.5962C0.789551 8.5465 0.802631 8.4975 0.827471 8.4545C0.852321 8.4114 0.888041 8.3756 0.931061 8.3507L2.01312 7.7513H2.01256L4.17669 6.55232C4.26283 6.50261 4.36048 6.47644 4.45987 6.47644C4.55926 6.47644 4.65691 6.50261 4.74305 6.55232L9.7802 9.47C9.8662 9.5198 9.9375 9.5913 9.9871 9.6775C10.0367 9.7637 10.0628 9.8615 10.0628 9.961" fill="black"/>
<path d="M17.9855 5.36445V14.6162C17.9853 14.7181 17.9583 14.8182 17.9074 14.9063C17.8564 14.9945 17.7832 15.0677 17.6952 15.1185L13.2551 17.6888C13.2111 17.7144 13.1613 17.7279 13.1105 17.728C13.0597 17.7281 13.0098 17.7148 12.9658 17.6894C12.9217 17.664 12.8852 17.6274 12.8597 17.5833C12.8343 17.5393 12.8209 17.4892 12.8209 17.4383V11.0534V8.3544C12.8209 8.2524 12.7942 8.1523 12.7435 8.0639C12.6927 7.9755 12.6198 7.902 12.5318 7.8508L4.6848 3.30952C4.6408 3.2841 4.60425 3.24751 4.57883 3.20342C4.55342 3.15934 4.54004 3.10932 4.54004 3.05839C4.54004 3.00747 4.55342 2.95745 4.57883 2.91336C4.60425 2.86927 4.6408 2.83268 4.6848 2.80726L9.1314 0.23565C9.2196 0.18479 9.3195 0.15802 9.4211 0.15802C9.5228 0.15802 9.6227 0.18479 9.7108 0.23565L17.7004 4.8622C17.7885 4.91303 17.8616 4.98619 17.9126 5.07435C17.9636 5.16251 17.9905 5.26256 17.9907 5.36445" fill="black"/>
</svg>
