<svg width="2426" height="1681" viewBox="0 0 2426 1681" fill="none" xmlns="http://www.w3.org/2000/svg">
<path d="M1008.24 1497.11C1553.93 1767.62 2121.28 1734.7 2275.46 1423.58C2429.64 1112.46 2112.26 640.962 1566.57 370.451C1020.88 99.9404 453.526 132.859 299.347 443.976C145.168 755.094 462.549 1226.6 1008.24 1497.11Z" fill="url(#paint0_radial_112_149)"/>
<g filter="url(#filter0_f_112_149)">
<path d="M1935.39 662.797C1935.39 662.797 2283.52 831.75 2188.66 1184.36C2108.44 1482.55 1614.9 1431.76 1635.4 1173.61C1649.46 996.746 1580.04 932.599 1492.79 846.169C1354.39 709.066 1514.75 453.876 1935.39 662.797Z" fill="url(#paint1_radial_112_149)"/>
</g>
<g filter="url(#filter1_f_112_149)">
<path d="M745.404 904.779C745.404 1191.14 977.545 1423.28 1263.9 1423.28C1550.26 1423.28 1782.4 1191.14 1782.4 904.779C1782.4 618.42 1550.26 386.279 1263.9 386.279C977.545 386.279 745.404 618.42 745.404 904.779Z" fill="url(#paint2_radial_112_149)"/>
</g>
<g filter="url(#filter2_i_112_149)">
<circle cx="1263.9" cy="904.779" r="114.5" fill="url(#paint3_radial_112_149)"/>
</g>
<g filter="url(#filter3_f_112_149)">
<path d="M484.187 250.858C484.187 250.858 258.031 237.169 250.588 404.599C244.289 546.189 532.205 643.094 565.334 532.198C588.031 456.216 638.403 446.438 702.719 431.765C804.741 408.487 758.265 265.433 484.187 250.858Z" fill="url(#paint4_radial_112_149)"/>
</g>
<path d="M1091.87 652.902C1023.6 646.946 970.491 658.096 939.93 684.632C909.423 711.119 902.806 751.718 921.216 800.847C939.632 849.991 982.141 905.093 1042.79 958.351C1103.42 1011.6 1179.09 1060.28 1259.09 1097.51C1339.1 1134.74 1419.37 1158.63 1488.56 1165.8C1557.77 1172.98 1612.3 1163.06 1644.54 1137.59C1660.64 1124.86 1670.79 1108.57 1674.84 1089.4C1678.9 1070.23 1676.86 1048.15 1668.54 1023.85C1651.9 975.237 1611 920.305 1551.57 866.829M1176.28 614.466C1049.54 566.71 938.213 548.566 862.306 563.217C824.362 570.541 796.565 585.809 779.638 607.92C762.716 630.025 756.603 659.041 762.165 693.981C773.295 763.902 830.431 852.796 923.415 944.647C1016.38 1036.48 1139.01 1125.17 1269.21 1194.74C1399.42 1264.32 1528.62 1310.18 1633.54 1324.1C1686.01 1331.06 1730.65 1329.8 1765.83 1320.78C1801.01 1311.75 1826.69 1294.97 1841.3 1270.91C1855.92 1246.85 1859.03 1216.21 1850.94 1180.63C1842.85 1145.04 1823.56 1104.54 1793.43 1060.81C1733.17 973.339 1633.55 878.761 1512.49 794.116M468.168 501.972C377.849 658.41 661.486 991.258 1101.69 1245.41C1541.89 1499.56 1971.97 1578.77 2062.29 1422.34C2152.61 1265.9 1868.97 933.051 1428.77 678.899C988.561 424.747 558.488 345.534 468.168 501.972Z" stroke="white" stroke-opacity="0.1"/>
<path fill-rule="evenodd" clip-rule="evenodd" d="M1265.87 854.897C1265.38 854.448 1265.13 854.439 1265.09 854.439C1265.04 854.439 1264.79 854.448 1264.31 854.897C1263.8 855.357 1263.21 856.152 1262.56 857.378C1261.28 859.826 1260.04 863.526 1258.98 868.299C1257.79 873.668 1256.85 880.229 1256.25 887.574C1259.12 888.965 1262.08 890.477 1265.09 892.1C1268.09 890.476 1271.05 888.964 1273.92 887.573C1273.33 880.229 1272.39 873.667 1271.19 868.299C1270.13 863.526 1268.9 859.826 1267.61 857.378C1266.97 856.152 1266.37 855.357 1265.87 854.897ZM1262.57 893.478C1260.36 892.305 1258.19 891.195 1256.06 890.152C1255.9 892.517 1255.77 894.954 1255.68 897.452C1256.81 896.777 1257.95 896.105 1259.11 895.437C1260.27 894.769 1261.42 894.115 1262.57 893.478ZM1253.93 886.47C1255.66 866.329 1260 852.037 1265.09 852.037C1270.17 852.037 1274.52 866.328 1276.24 886.469C1294.56 877.892 1309.11 874.506 1311.66 878.908C1314.2 883.311 1303.99 894.216 1287.4 905.779C1303.99 917.343 1314.2 928.248 1311.66 932.65C1309.11 937.053 1294.56 933.667 1276.24 925.089C1274.52 945.231 1270.17 959.522 1265.09 959.522C1260 959.522 1255.66 945.23 1253.93 925.089C1235.62 933.667 1221.06 937.053 1218.51 932.65C1215.97 928.248 1226.18 917.343 1242.77 905.779C1226.18 894.216 1215.97 883.311 1218.51 878.908C1221.06 874.506 1235.62 877.892 1253.93 886.47ZM1244.89 904.324C1238.82 900.136 1233.61 896.039 1229.55 892.321C1225.95 889.016 1223.36 886.1 1221.88 883.762C1221.14 882.591 1220.75 881.676 1220.6 881.013C1220.46 880.367 1220.57 880.146 1220.59 880.11C1220.62 880.074 1220.75 879.861 1221.38 879.663C1222.03 879.46 1223.02 879.34 1224.4 879.395C1227.17 879.505 1230.99 880.289 1235.66 881.757C1240.91 883.408 1247.07 885.873 1253.73 889.03C1253.5 892.212 1253.33 895.526 1253.23 898.939C1250.32 900.73 1247.53 902.532 1244.89 904.324ZM1244.89 907.235C1238.82 911.423 1233.61 915.52 1229.55 919.238C1225.95 922.543 1223.36 925.459 1221.88 927.797C1221.14 928.968 1220.75 929.883 1220.6 930.546C1220.46 931.192 1220.57 931.413 1220.59 931.449C1220.62 931.484 1220.75 931.698 1221.38 931.896C1222.03 932.099 1223.02 932.219 1224.4 932.164C1227.17 932.054 1230.99 931.27 1235.66 929.802C1240.91 928.151 1247.07 925.686 1253.73 922.529C1253.5 919.346 1253.33 916.033 1253.23 912.62C1250.32 910.829 1247.53 909.027 1244.89 907.235ZM1253.17 909.754C1251.05 908.429 1249 907.102 1247.03 905.779C1249 904.457 1251.05 903.129 1253.17 901.805C1253.15 903.117 1253.14 904.443 1253.14 905.78C1253.14 907.116 1253.15 908.442 1253.17 909.754ZM1255.6 911.252C1255.56 909.454 1255.54 907.628 1255.54 905.78C1255.54 903.931 1255.56 902.105 1255.6 900.307C1257.14 899.373 1258.71 898.442 1260.31 897.518C1261.91 896.593 1263.51 895.698 1265.09 894.834C1266.66 895.698 1268.26 896.593 1269.86 897.518C1271.46 898.442 1273.03 899.373 1274.57 900.308C1274.61 902.106 1274.63 903.931 1274.63 905.78C1274.63 907.628 1274.61 909.453 1274.57 911.251C1273.03 912.186 1271.46 913.117 1269.86 914.041C1268.26 914.966 1266.66 915.861 1265.09 916.725C1263.51 915.861 1261.91 914.966 1260.31 914.041C1258.71 913.117 1257.14 912.186 1255.6 911.252ZM1255.68 914.107C1255.77 916.605 1255.9 919.042 1256.06 921.407C1258.19 920.364 1260.36 919.254 1262.57 918.081C1261.42 917.443 1260.27 916.79 1259.11 916.122C1257.95 915.454 1256.81 914.782 1255.68 914.107ZM1265.09 919.459C1262.08 921.082 1259.12 922.594 1256.25 923.985C1256.85 931.33 1257.79 937.892 1258.98 943.26C1260.04 948.034 1261.28 951.733 1262.56 954.181C1263.21 955.407 1263.8 956.202 1264.31 956.662C1264.79 957.111 1265.04 957.12 1265.09 957.12C1265.13 957.12 1265.38 957.111 1265.87 956.662C1266.37 956.202 1266.97 955.407 1267.61 954.181C1268.9 951.733 1270.13 948.034 1271.19 943.26C1272.39 937.892 1273.33 931.33 1273.92 923.986C1271.05 922.595 1268.09 921.083 1265.09 919.459ZM1276.44 922.529C1283.11 925.687 1289.26 928.151 1294.51 929.802C1299.18 931.27 1303 932.054 1305.77 932.164C1307.15 932.219 1308.14 932.099 1308.79 931.896C1309.42 931.698 1309.56 931.484 1309.58 931.449C1309.6 931.413 1309.72 931.192 1309.57 930.546C1309.42 929.883 1309.03 928.968 1308.29 927.797C1306.81 925.459 1304.22 922.543 1300.62 919.238C1296.56 915.52 1291.35 911.423 1285.28 907.235C1282.64 909.027 1279.85 910.829 1276.94 912.619C1276.84 916.033 1276.68 919.347 1276.44 922.529ZM1285.28 904.324C1291.35 900.136 1296.56 896.039 1300.62 892.321C1304.22 889.016 1306.81 886.1 1308.29 883.762C1309.03 882.591 1309.42 881.676 1309.57 881.013C1309.72 880.367 1309.6 880.146 1309.58 880.11C1309.56 880.075 1309.42 879.861 1308.79 879.663C1308.14 879.46 1307.15 879.34 1305.77 879.395C1303 879.505 1299.18 880.289 1294.51 881.757C1289.26 883.408 1283.11 885.872 1276.44 889.029C1276.68 892.212 1276.84 895.526 1276.94 898.94C1279.85 900.73 1282.64 902.532 1285.28 904.324ZM1277 901.806C1279.12 903.13 1281.17 904.458 1283.14 905.779C1281.17 907.101 1279.12 908.429 1277 909.753C1277.03 908.441 1277.04 907.116 1277.04 905.78C1277.04 904.443 1277.03 903.118 1277 901.806ZM1274.49 897.453C1274.4 894.955 1274.28 892.517 1274.12 890.152C1271.99 891.194 1269.81 892.304 1267.6 893.478C1268.75 894.115 1269.9 894.769 1271.06 895.437C1272.22 896.105 1273.36 896.778 1274.49 897.453ZM1274.12 921.407C1271.99 920.365 1269.81 919.255 1267.6 918.081C1268.75 917.443 1269.9 916.79 1271.06 916.122C1272.22 915.453 1273.36 914.781 1274.49 914.106C1274.4 916.604 1274.28 919.042 1274.12 921.407Z" fill="white"/>
<path fill-rule="evenodd" clip-rule="evenodd" d="M1230.74 890.729C1232.82 890.729 1234.52 892.421 1234.52 894.51C1234.52 896.598 1232.82 898.291 1230.74 898.291C1228.65 898.291 1226.96 896.598 1226.96 894.51C1226.96 892.421 1228.65 890.729 1230.74 890.729Z" fill="white"/>
<path fill-rule="evenodd" clip-rule="evenodd" d="M1290.8 877.781C1292.89 877.781 1294.58 879.474 1294.58 881.562C1294.58 883.651 1292.89 885.343 1290.8 885.343C1288.71 885.343 1287.02 883.651 1287.02 881.562C1287.02 879.474 1288.71 877.781 1290.8 877.781Z" fill="white"/>
<path fill-rule="evenodd" clip-rule="evenodd" d="M1257.47 937.127C1259.56 937.127 1261.25 938.819 1261.25 940.906C1261.25 942.993 1259.56 944.685 1257.47 944.685C1255.38 944.685 1253.69 942.993 1253.69 940.906C1253.69 938.819 1255.38 937.127 1257.47 937.127Z" fill="white"/>
<path fill-rule="evenodd" clip-rule="evenodd" d="M1264.88 899.349C1268.41 899.349 1271.28 902.215 1271.28 905.751C1271.28 909.286 1268.41 912.152 1264.88 912.152C1261.34 912.152 1258.47 909.286 1258.47 905.751C1258.47 902.215 1261.34 899.349 1264.88 899.349Z" fill="white"/>
<path d="M907.794 911.854L1183.79 902.854" stroke="url(#paint5_linear_112_149)" stroke-width="2.5" stroke-linecap="round"/>
<path d="M985.794 916.854L1263.79 908.854" stroke="url(#paint6_linear_112_149)" stroke-width="2.5" stroke-linecap="round"/>
<path d="M1287.79 904.855L1469.79 1067.86" stroke="url(#paint7_linear_112_149)" stroke-width="2.5" stroke-linecap="round"/>
<g filter="url(#filter4_i_112_149)">
<path d="M1783.05 952.242C1827.95 972.102 1880.46 951.796 1900.32 906.886C1920.18 861.977 1899.87 809.471 1854.96 789.611C1810.06 769.751 1757.55 790.057 1737.69 834.967C1717.83 879.876 1738.14 932.382 1783.05 952.242Z" fill="url(#paint8_radial_112_149)"/>
</g>
<path d="M1838.16 865.683C1838.98 860.15 1834.82 857.175 1829.14 855.19L1830.98 847.694L1826.48 846.556L1824.68 853.855C1823.5 853.556 1822.28 853.274 1821.07 852.995L1822.88 845.648L1818.38 844.511L1816.53 852.005C1815.55 851.778 1814.59 851.555 1813.66 851.32L1813.66 851.296L1807.45 849.725L1806.25 854.599C1806.25 854.599 1809.59 855.375 1809.52 855.423C1811.35 855.884 1811.68 857.107 1811.62 858.077L1809.52 866.617C1809.64 866.649 1809.81 866.696 1809.99 866.769C1809.84 866.731 1809.68 866.689 1809.51 866.649L1806.57 878.612C1806.34 879.174 1805.78 880.016 1804.5 879.696C1804.55 879.763 1801.23 878.868 1801.23 878.868L1798.99 884.092L1804.85 885.572C1805.94 885.849 1807.01 886.139 1808.06 886.412L1806.2 893.994L1810.7 895.131L1812.55 887.629C1813.77 887.967 1814.97 888.279 1816.14 888.573L1814.3 896.04L1818.8 897.177L1820.66 889.609C1828.35 891.081 1834.12 890.487 1836.55 883.45C1838.51 877.783 1836.45 874.515 1832.41 872.383C1835.36 871.696 1837.57 869.734 1838.16 865.683V865.683ZM1827.87 880.303C1826.48 885.97 1817.06 882.907 1814.01 882.138L1816.48 872.093C1819.54 872.865 1829.33 874.394 1827.87 880.303ZM1829.27 865.602C1828 870.756 1820.16 868.137 1817.61 867.495L1819.86 858.385C1822.4 859.027 1830.59 860.225 1829.27 865.602V865.602Z" fill="url(#paint9_linear_112_149)"/>
<g filter="url(#filter5_i_112_149)">
<path d="M1528.71 1124.47C1568.96 1077.2 1639.91 1071.52 1687.18 1111.77C1734.45 1152.02 1740.13 1222.97 1699.88 1270.24C1659.63 1317.51 1588.68 1323.2 1541.41 1282.94C1494.14 1242.69 1488.45 1171.74 1528.71 1124.47Z" fill="url(#paint10_radial_112_149)"/>
<path d="M1528.71 1124.47C1568.96 1077.2 1639.91 1071.52 1687.18 1111.77C1734.45 1152.02 1740.13 1222.97 1699.88 1270.24C1659.63 1317.51 1588.68 1323.2 1541.41 1282.94C1494.14 1242.69 1488.45 1171.74 1528.71 1124.47Z" fill="url(#paint11_radial_112_149)"/>
</g>
<path d="M1626.41 1196.62L1620.79 1181.47L1605.63 1187.08L1602.36 1178.27L1626.35 1169.38L1635.22 1193.36L1626.41 1196.62ZM1640.8 1208.4L1637.53 1199.58L1628.71 1202.85L1631.98 1211.67L1640.8 1208.4ZM1622.48 1205.16L1607.33 1210.77L1601.71 1195.61L1592.89 1198.87L1592.9 1198.87L1601.78 1222.85L1625.76 1213.97L1622.48 1205.16ZM1599.41 1189.39L1596.14 1180.57L1587.33 1183.84L1590.59 1192.66L1599.41 1189.39Z" fill="url(#paint12_linear_112_149)"/>
<path d="M1607.93 1193.3L1607.93 1193.3L1616.88 1189.98L1620.19 1198.92L1620.2 1198.94L1620.18 1198.94L1611.24 1202.25L1607.93 1193.31L1607.93 1193.3L1607.93 1193.3Z" fill="url(#paint13_linear_112_149)"/>
<g filter="url(#filter6_i_112_149)">
<path d="M831.012 977.752C796.827 946.391 794.537 893.255 825.898 859.069C857.259 824.883 910.396 822.594 944.581 853.955C978.767 885.316 981.057 938.452 949.695 972.638C918.334 1006.82 865.198 1009.11 831.012 977.752Z" fill="url(#paint14_radial_112_149)"/>
</g>
<g opacity="0.5">
<path d="M881.772 892.172L881.744 893.352L890.253 925.11L890.661 925.346L903.068 912.682L881.772 892.172Z" fill="white" fill-opacity="0.82"/>
<path d="M881.773 892.171L873.585 920.582L890.662 925.345L886.531 909.931L881.773 892.171Z" fill="white" fill-opacity="0.333"/>
<path d="M891.409 928.137L891.287 928.406L894.318 939.719L894.642 940.201L903.826 915.475L891.409 928.137Z" fill="white" fill-opacity="0.82"/>
<path d="M894.642 940.2L891.409 928.136L874.334 923.377L894.642 940.2Z" fill="white" fill-opacity="0.333"/>
<path d="M890.661 925.345L903.068 912.681L886.531 909.931L890.661 925.345Z" fill="white"/>
<path d="M873.585 920.582L890.661 925.346L886.531 909.931L873.585 920.582Z" fill="white" fill-opacity="0.82"/>
</g>
<g filter="url(#filter7_i_112_149)">
<path d="M636.44 445.348C659.044 422.662 658.977 385.947 636.291 363.344C613.605 340.74 576.891 340.807 554.287 363.493C531.684 386.179 531.75 422.893 554.436 445.497C577.122 468.1 613.836 468.034 636.44 445.348Z" fill="url(#paint15_radial_112_149)"/>
</g>
<g filter="url(#filter8_f_112_149)">
<path d="M687.62 955.83C707.093 946.908 715.648 923.889 706.726 904.415C697.804 884.941 674.785 876.387 655.311 885.309C635.837 894.231 627.283 917.25 636.205 936.724C645.126 956.198 668.146 964.752 687.62 955.83Z" fill="url(#paint16_radial_112_149)"/>
</g>
<g filter="url(#filter9_f_112_149)">
<path d="M882.558 682.066C902.91 675.385 913.992 653.471 907.312 633.119C900.631 612.767 878.717 601.684 858.365 608.365C838.013 615.045 826.93 636.96 833.611 657.312C840.291 677.663 862.206 688.746 882.558 682.066Z" fill="url(#paint17_radial_112_149)"/>
</g>
<g filter="url(#filter10_i_112_149)">
<path d="M774.735 576.39C732.045 573.308 694.938 605.417 691.856 648.108C688.774 690.799 720.883 727.905 763.574 730.988C806.265 734.07 843.372 701.96 846.454 659.269C849.536 616.578 817.426 579.472 774.735 576.39Z" fill="url(#paint18_radial_112_149)"/>
<path d="M774.735 576.39C732.045 573.308 694.938 605.417 691.856 648.108C688.774 690.799 720.883 727.905 763.574 730.988C806.265 734.07 843.372 701.96 846.454 659.269C849.536 616.578 817.426 579.472 774.735 576.39Z" fill="url(#paint19_radial_112_149)"/>
</g>
<path fill-rule="evenodd" clip-rule="evenodd" d="M765.278 661.722C765.592 664.744 768.081 667.426 769.539 667.577C769.591 667.582 775.179 667.498 778.962 663.131C781.905 659.734 781.73 655.948 778.6 655.343C777.457 655.235 764.682 655.963 765.278 661.722V661.722ZM780.012 645.111L780.01 645.108L780.014 645.106C777.871 642.604 774.892 640.931 771.614 640.389C769.621 640.056 767.658 640.158 765.823 640.618C765.494 640.693 765.179 640.784 764.879 640.891C764.668 640.96 764.457 641.028 764.251 641.107L764.295 641.128C763.677 641.406 763.109 641.78 762.613 642.235C757.797 646.7 770.441 652.646 777.533 653.846C780.412 656.687 782.795 648.078 780.013 645.111" fill="#D6F4FF" fill-opacity="0.08"/>
<path fill-rule="evenodd" clip-rule="evenodd" d="M766.26 642.916C763.99 645.297 757.601 646.173 756.652 645.711L756.648 645.698C756.702 645.624 756.758 645.551 756.813 645.478C757.719 644.291 758.807 643.249 760.039 642.391C761.035 641.695 762.116 641.124 763.257 640.69C764.188 640.35 765.064 640.464 765.352 640.502C768.047 641.005 766.278 642.897 766.26 642.916Z" fill="url(#paint20_linear_112_149)"/>
<path fill-rule="evenodd" clip-rule="evenodd" d="M761.59 661.647C761.579 662.513 760.888 665.823 760.664 666.075C760.512 666.059 760.193 666.025 759.362 665.369C758.339 664.549 757.433 663.6 756.666 662.545C755.782 661.332 755.092 659.993 754.621 658.577C753.888 656.374 753.708 654.034 754.094 651.755C754.226 650.968 754.42 650.207 754.671 649.476C754.969 648.607 755.352 647.77 755.813 646.974C756.634 648.515 757.64 649.955 758.44 651.507C759.202 652.985 760.194 655.354 760.391 655.857C761.623 658.984 761.6 660.783 761.59 661.647Z" fill="url(#paint21_linear_112_149)"/>
<path fill-rule="evenodd" clip-rule="evenodd" d="M783.165 656.619C782.856 658.467 782.202 660.173 781.278 661.684C779.264 663.202 768.464 656.83 768.358 656.762C766.893 655.82 762.432 652.952 762.542 649.637C762.698 644.869 772.894 643.233 777.156 643.82C777.663 643.911 779.208 644.187 779.991 645.057C781.33 646.655 782.306 648.513 782.854 650.508C783.402 652.503 783.508 654.586 783.165 656.619ZM773.237 667.952C771.881 668.317 770.567 667.666 771.128 666.525C772.205 664.334 778.635 662.977 779.989 663.072C780.156 663.084 780.206 663.205 780.113 663.318C778.324 665.479 775.937 667.088 773.237 667.952Z" fill="url(#paint22_linear_112_149)"/>
<g filter="url(#filter11_f_112_149)">
<path d="M1864.82 970.67C1845.64 982.707 1839.85 1008.01 1851.89 1027.19C1863.93 1046.37 1889.24 1052.16 1908.41 1040.12C1927.59 1028.08 1933.38 1002.78 1921.34 983.6C1909.31 964.421 1884 958.632 1864.82 970.67Z" fill="url(#paint23_radial_112_149)"/>
</g>
<g filter="url(#filter12_i_112_149)">
<path d="M1508.74 780.987C1483.96 797.582 1477.33 831.124 1493.93 855.903C1510.52 880.682 1544.06 887.316 1568.84 870.72C1593.62 854.124 1600.26 820.583 1583.66 795.804C1567.06 771.025 1533.52 764.391 1508.74 780.987Z" fill="url(#paint24_radial_112_149)"/>
</g>
<g filter="url(#filter13_if_112_149)">
<path d="M1163.76 945.078C1145.83 955.975 1140.12 979.349 1151.02 997.285C1161.91 1015.22 1185.29 1020.93 1203.22 1010.03C1221.16 999.131 1226.87 975.757 1215.97 957.822C1205.07 939.886 1181.7 934.18 1163.76 945.078Z" fill="url(#paint25_radial_112_149)"/>
</g>
<path d="M1773.23 321.106C1808.84 316.231 1833.76 283.41 1828.88 247.798C1824.01 212.187 1791.19 187.271 1755.57 192.146C1719.96 197.022 1695.05 229.843 1699.92 265.455C1704.8 301.066 1737.62 325.982 1773.23 321.106Z" fill="url(#paint26_radial_112_149)"/>
<g filter="url(#filter14_ii_112_149)">
<path d="M1652.73 531.151C1641 593.299 1681.87 653.188 1744.02 664.918C1806.17 676.648 1866.06 635.776 1877.79 573.629C1889.52 511.481 1848.64 451.591 1786.5 439.861C1724.35 428.131 1664.46 469.003 1652.73 531.151Z" fill="url(#paint27_radial_112_149)"/>
</g>
<path d="M1738.54 574.068L1774.75 562.958L1764.88 550.697L1738.54 574.068ZM1755.03 538.456L1764.9 550.699L1786.95 528.711L1755.03 538.456Z" fill="url(#paint28_linear_112_149)"/>
<g filter="url(#filter15_f_112_149)">
<path d="M1858.87 370.223C1870.57 375.255 1884.13 369.85 1889.16 358.15C1894.2 346.451 1888.79 332.887 1877.09 327.855C1865.39 322.823 1851.83 328.228 1846.8 339.927C1841.76 351.627 1847.17 365.19 1858.87 370.223Z" fill="url(#paint29_radial_112_149)"/>
</g>
<path d="M790.389 1224.34C822.136 1179.83 811.791 1118.01 767.281 1086.26C722.771 1054.51 660.953 1064.86 629.205 1109.37C597.457 1153.88 607.803 1215.7 652.313 1247.45C696.822 1279.19 758.641 1268.85 790.389 1224.34Z" fill="url(#paint30_radial_112_149)"/>
<path fill-rule="evenodd" clip-rule="evenodd" d="M729.807 1150.96L705.832 1141.22L685.411 1157.12L688.965 1182.75L712.94 1192.48L733.361 1176.59L729.807 1150.96ZM728.116 1152.28L706.126 1143.34L687.396 1157.92L690.656 1181.43L712.646 1190.36L731.376 1175.78L728.116 1152.28Z" fill="url(#paint31_linear_112_149)"/>
<path d="M698.335 1153.52L697.612 1163.11L719.081 1160.13L715.777 1151.1L698.335 1153.52Z" fill="url(#paint32_linear_112_149)"/>
<path d="M705.676 1168.26L705.757 1173.85L714.846 1172.59L713.403 1167.18L714.711 1162.01L703.01 1163.63L705.676 1168.26Z" fill="url(#paint33_linear_112_149)"/>
<path d="M703.825 1168.51L698.02 1166.04L692.839 1171.09L702.795 1183.69L706.115 1183.23L709.34 1179.28L709.099 1177.54L704.648 1174.44L703.825 1168.51Z" fill="url(#paint34_linear_112_149)"/>
<path d="M715.254 1166.93L720.169 1162.97L726.526 1166.42L720.373 1181.25L717.054 1181.71L712.878 1178.79L712.636 1177.05L716.076 1172.86L715.254 1166.93Z" fill="url(#paint35_linear_112_149)"/>
<path d="M798.889 284.851C820.612 310.049 858.649 312.867 883.847 291.145C909.045 269.422 911.863 231.386 890.141 206.187C868.418 180.989 830.382 178.171 805.183 199.893C779.985 221.616 777.167 259.653 798.889 284.851Z" fill="url(#paint36_radial_112_149)"/>
<path d="M1124.4 765.279L1140.4 765.279M1124.9 765.28L1124.9 781.279" stroke="white"/>
<path d="M1404.4 765.279L1388.4 765.279M1403.9 765.28L1403.9 781.279" stroke="white"/>
<path d="M1124.4 1045.28L1140.4 1045.28M1124.9 1045.28L1124.9 1029.28" stroke="white"/>
<path d="M1404.4 1045.28L1388.4 1045.28M1403.9 1045.28L1403.9 1029.28" stroke="white"/>
<path d="M1414.25 769.48C1414.25 771.664 1416.03 772.943 1419.13 772.943C1422.21 772.943 1423.99 771.645 1423.99 769.48C1423.99 767.311 1422.21 766.018 1419.13 766.013C1416.04 766.013 1414.26 767.292 1414.25 769.48ZM1415.48 769.48C1415.48 769.023 1415.65 768.631 1415.96 768.317L1421.57 771.115C1420.97 771.382 1420.15 771.525 1419.13 771.525C1416.77 771.525 1415.48 770.754 1415.48 769.48ZM1422.32 770.616L1416.71 767.832C1417.31 767.569 1418.13 767.431 1419.13 767.431C1421.49 767.435 1422.78 768.206 1422.78 769.48C1422.78 769.923 1422.63 770.307 1422.32 770.616ZM1415.7 775.948L1415.7 774.619L1415.18 774.572C1413.93 774.466 1412.67 774.171 1412.1 774.046L1412.1 775.025C1412.7 775.246 1414.09 775.736 1415.19 775.879L1415.7 775.948ZM1414.25 780.724C1414.25 782.908 1416.03 784.186 1419.13 784.186C1422.21 784.186 1423.99 782.889 1423.99 780.724C1423.99 778.554 1422.21 777.262 1419.13 777.257C1416.04 777.257 1414.26 778.536 1414.25 780.724ZM1415.48 780.724C1415.48 780.267 1415.65 779.875 1415.96 779.561L1421.57 782.358C1420.97 782.626 1420.15 782.769 1419.13 782.769C1416.77 782.769 1415.48 781.998 1415.48 780.724ZM1422.32 781.86L1416.71 779.076C1417.31 778.813 1418.13 778.674 1419.13 778.674C1421.49 778.679 1422.78 779.45 1422.78 780.724C1422.78 781.167 1422.63 781.55 1422.32 781.86ZM1415.7 787.192L1415.7 785.862L1415.18 785.816C1413.93 785.71 1412.67 785.415 1412.1 785.29L1412.1 786.269C1412.7 786.49 1414.09 786.98 1415.19 787.123L1415.7 787.192ZM1414.25 791.968C1414.25 794.151 1416.03 795.43 1419.13 795.43C1422.21 795.43 1423.99 794.133 1423.99 791.968C1423.99 789.798 1422.21 788.505 1419.13 788.501C1416.04 788.501 1414.26 789.78 1414.25 791.968ZM1415.48 791.968C1415.48 791.511 1415.65 791.118 1415.96 790.805L1421.57 793.602C1420.97 793.87 1420.15 794.013 1419.13 794.013C1416.77 794.013 1415.48 793.242 1415.48 791.968ZM1422.32 793.104L1416.71 790.32C1417.31 790.057 1418.13 789.918 1419.13 789.918C1421.49 789.923 1422.78 790.694 1422.78 791.968C1422.78 792.411 1422.63 792.794 1422.32 793.104ZM1415.7 798.436L1415.7 797.106L1415.18 797.06C1413.93 796.954 1412.67 796.658 1412.1 796.534L1412.1 797.512C1412.7 797.734 1414.09 798.223 1415.19 798.366L1415.7 798.436ZM1414.25 803.212C1414.25 805.395 1416.03 806.674 1419.13 806.674C1422.21 806.674 1423.99 805.377 1423.99 803.212C1423.99 801.042 1422.21 799.749 1419.13 799.745C1416.04 799.745 1414.26 801.023 1414.25 803.212ZM1415.48 803.212C1415.48 802.755 1415.65 802.362 1415.96 802.048L1421.57 804.846C1420.97 805.114 1420.15 805.257 1419.13 805.257C1416.77 805.257 1415.48 804.486 1415.48 803.212ZM1422.32 804.347L1416.71 801.564C1417.31 801.3 1418.13 801.162 1419.13 801.162C1421.49 801.167 1422.78 801.937 1422.78 803.212C1422.78 803.655 1422.63 804.038 1422.32 804.347Z" fill="white" fill-opacity="0.333"/>
<path d="M1437.78 774.171C1439.81 773.847 1440.99 772.264 1440.99 770.265C1440.99 767.818 1439.16 766.013 1436.13 766.013C1433.11 766.013 1431.28 767.809 1431.28 770.265C1431.28 772.343 1432.58 773.861 1434.45 774.171L1434.45 772.73C1433.24 772.486 1432.58 771.47 1432.58 770.274C1432.58 768.654 1433.82 767.431 1436.13 767.431C1438.43 767.431 1439.69 768.649 1439.69 770.279C1439.69 771.484 1439.01 772.495 1437.78 772.73L1437.78 774.171ZM1431.26 778.663C1431.26 780.662 1432.72 781.968 1434.92 781.968C1437.12 781.968 1438.59 780.662 1438.59 778.663C1438.59 776.664 1437.12 775.357 1434.92 775.357C1432.72 775.357 1431.26 776.664 1431.26 778.663ZM1432.42 778.667C1432.42 777.361 1433.56 776.751 1434.92 776.751C1436.28 776.751 1437.43 777.361 1437.43 778.667C1437.43 779.964 1436.28 780.574 1434.92 780.574C1433.56 780.574 1432.42 779.964 1432.42 778.667ZM1436.76 788.731C1437.87 788.445 1438.59 787.582 1438.59 786.049C1438.59 784.447 1437.74 783.312 1436.49 783.312C1435.48 783.312 1434.81 783.921 1434.52 785.251L1434.25 786.451C1434.1 787.134 1433.8 787.453 1433.35 787.453C1432.8 787.453 1432.37 786.866 1432.37 785.961C1432.37 785.135 1432.73 784.604 1433.43 784.438L1433.22 783.104C1431.97 783.335 1431.26 784.378 1431.26 785.971C1431.26 787.683 1432.17 788.87 1433.45 788.87C1434.46 788.87 1435.07 788.233 1435.37 786.931L1435.63 785.805C1435.82 785.024 1436.08 784.687 1436.56 784.692C1437.11 784.687 1437.49 785.278 1437.49 786.063C1437.49 786.922 1437.02 787.319 1436.54 787.48L1436.76 788.731ZM1431.4 790.297L1431.4 791.677L1435.78 791.677C1436.73 791.677 1437.4 792.346 1437.4 793.131C1437.4 793.897 1436.89 794.428 1436.12 794.428L1431.4 794.428L1431.4 795.804L1435.92 795.804C1436.78 795.804 1437.4 796.326 1437.4 797.226C1437.4 797.955 1436.99 798.555 1436.03 798.555L1431.4 798.555L1431.4 799.936L1436.16 799.936C1437.78 799.936 1438.59 799.031 1438.59 797.748C1438.59 796.727 1438.1 795.961 1437.34 795.619L1437.34 795.545C1438.12 795.236 1438.59 794.585 1438.59 793.639C1438.59 792.702 1438.12 792.005 1437.34 791.709L1437.34 791.621L1438.5 791.621L1438.5 790.297L1431.4 790.297ZM1431.26 804.682C1431.26 806.681 1432.72 807.987 1434.92 807.987C1437.12 807.987 1438.59 806.681 1438.59 804.682C1438.59 802.683 1437.12 801.376 1434.92 801.376C1432.72 801.376 1431.26 802.683 1431.26 804.682ZM1432.42 804.686C1432.42 803.38 1433.56 802.77 1434.92 802.77C1436.28 802.77 1437.43 803.38 1437.43 804.686C1437.43 805.983 1436.28 806.593 1434.92 806.593C1433.56 806.593 1432.42 805.983 1432.42 804.686ZM1436.76 814.75C1437.87 814.464 1438.59 813.601 1438.59 812.068C1438.59 810.466 1437.74 809.331 1436.49 809.331C1435.48 809.331 1434.81 809.94 1434.52 811.27L1434.25 812.47C1434.1 813.153 1433.8 813.472 1433.35 813.472C1432.8 813.472 1432.37 812.885 1432.37 811.98C1432.37 811.154 1432.73 810.623 1433.43 810.457L1433.22 809.123C1431.97 809.354 1431.26 810.397 1431.26 811.99C1431.26 813.702 1432.17 814.889 1433.45 814.889C1434.46 814.889 1435.07 814.252 1435.37 812.95L1435.63 811.823C1435.82 811.043 1436.08 810.706 1436.56 810.711C1437.11 810.706 1437.49 811.297 1437.49 812.082C1437.49 812.941 1437.02 813.338 1436.54 813.499L1436.76 814.75ZM1431.4 819.776L1431.4 821.202L1435.53 821.202L1435.53 825.916L1431.4 825.916L1431.4 827.347L1440.86 827.347L1440.86 825.916L1436.75 825.916L1436.75 821.202L1440.86 821.202L1440.86 819.776L1431.4 819.776ZM1434.34 833.714C1433.14 833.719 1432.57 832.823 1432.57 832.048C1432.57 831.194 1433.19 830.603 1434.15 830.603L1438.5 830.603L1438.5 829.222L1433.98 829.222C1432.23 829.222 1431.31 830.187 1431.31 831.549C1431.31 832.615 1431.88 833.34 1432.63 833.668L1432.63 833.742L1431.4 833.742L1431.4 835.099L1438.5 835.099L1438.5 833.714L1434.34 833.714ZM1431.4 836.974L1431.4 838.322L1432.51 838.322L1432.51 838.437C1432.06 838.686 1431.27 839.194 1431.27 840.487C1431.27 842.204 1432.64 843.451 1434.94 843.451C1437.23 843.451 1438.59 842.186 1438.59 840.473C1438.59 839.157 1437.78 838.682 1437.35 838.437L1437.35 838.354L1440.86 838.354L1440.86 836.974L1431.4 836.974ZM1434.95 838.326C1436.43 838.326 1437.41 838.973 1437.41 840.177C1437.41 841.429 1436.36 842.056 1434.95 842.056C1433.53 842.056 1432.44 841.41 1432.44 840.177C1432.44 838.991 1433.46 838.326 1434.95 838.326Z" fill="white"/>
<defs>
<filter id="filter0_f_112_149" x="1224.22" y="363.611" width="1200.82" height="1244.64" filterUnits="userSpaceOnUse" color-interpolation-filters="sRGB">
<feFlood flood-opacity="0" result="BackgroundImageFix"/>
<feBlend mode="normal" in="SourceGraphic" in2="BackgroundImageFix" result="shape"/>
<feGaussianBlur stdDeviation="110" result="effect1_foregroundBlur_112_149"/>
</filter>
<filter id="filter1_f_112_149" x="636.72" y="277.595" width="1254.37" height="1254.37" filterUnits="userSpaceOnUse" color-interpolation-filters="sRGB">
<feFlood flood-opacity="0" result="BackgroundImageFix"/>
<feBlend mode="normal" in="SourceGraphic" in2="BackgroundImageFix" result="shape"/>
<feGaussianBlur stdDeviation="54.3423" result="effect1_foregroundBlur_112_149"/>
</filter>
<filter id="filter2_i_112_149" x="1149.4" y="790.279" width="229" height="229" filterUnits="userSpaceOnUse" color-interpolation-filters="sRGB">
<feFlood flood-opacity="0" result="BackgroundImageFix"/>
<feBlend mode="normal" in="SourceGraphic" in2="BackgroundImageFix" result="shape"/>
<feColorMatrix in="SourceAlpha" type="matrix" values="0 0 0 0 0 0 0 0 0 0 0 0 0 0 0 0 0 0 127 0" result="hardAlpha"/>
<feOffset/>
<feGaussianBlur stdDeviation="37"/>
<feComposite in2="hardAlpha" operator="arithmetic" k2="-1" k3="1"/>
<feColorMatrix type="matrix" values="0 0 0 0 1 0 0 0 0 1 0 0 0 0 1 0 0 0 0.25 0"/>
<feBlend mode="normal" in2="shape" result="effect1_innerShadow_112_149"/>
</filter>
<filter id="filter3_f_112_149" x="0.486084" y="0.588135" width="1001.97" height="829.718" filterUnits="userSpaceOnUse" color-interpolation-filters="sRGB">
<feFlood flood-opacity="0" result="BackgroundImageFix"/>
<feBlend mode="normal" in="SourceGraphic" in2="BackgroundImageFix" result="shape"/>
<feGaussianBlur stdDeviation="125" result="effect1_foregroundBlur_112_149"/>
</filter>
<filter id="filter4_i_112_149" x="1730.07" y="781.992" width="177.869" height="177.869" filterUnits="userSpaceOnUse" color-interpolation-filters="sRGB">
<feFlood flood-opacity="0" result="BackgroundImageFix"/>
<feBlend mode="normal" in="SourceGraphic" in2="BackgroundImageFix" result="shape"/>
<feColorMatrix in="SourceAlpha" type="matrix" values="0 0 0 0 0 0 0 0 0 0 0 0 0 0 0 0 0 0 127 0" result="hardAlpha"/>
<feOffset/>
<feGaussianBlur stdDeviation="12.6198"/>
<feComposite in2="hardAlpha" operator="arithmetic" k2="-1" k3="1"/>
<feColorMatrix type="matrix" values="0 0 0 0 0.917667 0 0 0 0 0.683333 0 0 0 0 1 0 0 0 0.65 0"/>
<feBlend mode="normal" in2="shape" result="effect1_innerShadow_112_149"/>
</filter>
<filter id="filter5_i_112_149" x="1501.88" y="1084.94" width="224.837" height="224.837" filterUnits="userSpaceOnUse" color-interpolation-filters="sRGB">
<feFlood flood-opacity="0" result="BackgroundImageFix"/>
<feBlend mode="normal" in="SourceGraphic" in2="BackgroundImageFix" result="shape"/>
<feColorMatrix in="SourceAlpha" type="matrix" values="0 0 0 0 0 0 0 0 0 0 0 0 0 0 0 0 0 0 127 0" result="hardAlpha"/>
<feOffset/>
<feGaussianBlur stdDeviation="16.5"/>
<feComposite in2="hardAlpha" operator="arithmetic" k2="-1" k3="1"/>
<feColorMatrix type="matrix" values="0 0 0 0 0.844 0 0 0 0 0.5125 0 0 0 0 1 0 0 0 0.56 0"/>
<feBlend mode="normal" in2="shape" result="effect1_innerShadow_112_149"/>
</filter>
<filter id="filter6_i_112_149" x="803.797" y="831.854" width="168" height="168" filterUnits="userSpaceOnUse" color-interpolation-filters="sRGB">
<feFlood flood-opacity="0" result="BackgroundImageFix"/>
<feBlend mode="normal" in="SourceGraphic" in2="BackgroundImageFix" result="shape"/>
<feColorMatrix in="SourceAlpha" type="matrix" values="0 0 0 0 0 0 0 0 0 0 0 0 0 0 0 0 0 0 127 0" result="hardAlpha"/>
<feOffset/>
<feGaussianBlur stdDeviation="23"/>
<feComposite in2="hardAlpha" operator="arithmetic" k2="-1" k3="1"/>
<feColorMatrix type="matrix" values="0 0 0 0 0.917667 0 0 0 0 0.683333 0 0 0 0 1 0 0 0 0.42 0"/>
<feBlend mode="normal" in2="shape" result="effect1_innerShadow_112_149"/>
</filter>
<filter id="filter7_i_112_149" x="537.378" y="346.435" width="115.971" height="115.971" filterUnits="userSpaceOnUse" color-interpolation-filters="sRGB">
<feFlood flood-opacity="0" result="BackgroundImageFix"/>
<feBlend mode="normal" in="SourceGraphic" in2="BackgroundImageFix" result="shape"/>
<feColorMatrix in="SourceAlpha" type="matrix" values="0 0 0 0 0 0 0 0 0 0 0 0 0 0 0 0 0 0 127 0" result="hardAlpha"/>
<feOffset/>
<feGaussianBlur stdDeviation="10"/>
<feComposite in2="hardAlpha" operator="arithmetic" k2="-1" k3="1"/>
<feColorMatrix type="matrix" values="0 0 0 0 0.304167 0 0 0 0 0.706576 0 0 0 0 1 0 0 0 0.25 0"/>
<feBlend mode="normal" in2="shape" result="effect1_innerShadow_112_149"/>
</filter>
<filter id="filter8_f_112_149" x="624.671" y="873.775" width="93.5887" height="93.5889" filterUnits="userSpaceOnUse" color-interpolation-filters="sRGB">
<feFlood flood-opacity="0" result="BackgroundImageFix"/>
<feBlend mode="normal" in="SourceGraphic" in2="BackgroundImageFix" result="shape"/>
<feGaussianBlur stdDeviation="4" result="effect1_foregroundBlur_112_149"/>
</filter>
<filter id="filter9_f_112_149" x="827.666" y="602.42" width="85.5909" height="85.5908" filterUnits="userSpaceOnUse" color-interpolation-filters="sRGB">
<feFlood flood-opacity="0" result="BackgroundImageFix"/>
<feBlend mode="normal" in="SourceGraphic" in2="BackgroundImageFix" result="shape"/>
<feGaussianBlur stdDeviation="2" result="effect1_foregroundBlur_112_149"/>
</filter>
<filter id="filter10_i_112_149" x="691.651" y="576.185" width="155.007" height="155.007" filterUnits="userSpaceOnUse" color-interpolation-filters="sRGB">
<feFlood flood-opacity="0" result="BackgroundImageFix"/>
<feBlend mode="normal" in="SourceGraphic" in2="BackgroundImageFix" result="shape"/>
<feColorMatrix in="SourceAlpha" type="matrix" values="0 0 0 0 0 0 0 0 0 0 0 0 0 0 0 0 0 0 127 0" result="hardAlpha"/>
<feOffset/>
<feGaussianBlur stdDeviation="13.5"/>
<feComposite in2="hardAlpha" operator="arithmetic" k2="-1" k3="1"/>
<feColorMatrix type="matrix" values="0 0 0 0 0.917667 0 0 0 0 0.683333 0 0 0 0 1 0 0 0 0.44 0"/>
<feBlend mode="normal" in2="shape" result="effect1_innerShadow_112_149"/>
</filter>
<filter id="filter11_f_112_149" x="1837.61" y="956.391" width="98.0107" height="98.0107" filterUnits="userSpaceOnUse" color-interpolation-filters="sRGB">
<feFlood flood-opacity="0" result="BackgroundImageFix"/>
<feBlend mode="normal" in="SourceGraphic" in2="BackgroundImageFix" result="shape"/>
<feGaussianBlur stdDeviation="4" result="effect1_foregroundBlur_112_149"/>
</filter>
<filter id="filter12_i_112_149" x="1484.79" y="771.848" width="108.011" height="108.011" filterUnits="userSpaceOnUse" color-interpolation-filters="sRGB">
<feFlood flood-opacity="0" result="BackgroundImageFix"/>
<feBlend mode="normal" in="SourceGraphic" in2="BackgroundImageFix" result="shape"/>
<feColorMatrix in="SourceAlpha" type="matrix" values="0 0 0 0 0 0 0 0 0 0 0 0 0 0 0 0 0 0 127 0" result="hardAlpha"/>
<feOffset/>
<feGaussianBlur stdDeviation="10"/>
<feComposite in2="hardAlpha" operator="arithmetic" k2="-1" k3="1"/>
<feColorMatrix type="matrix" values="0 0 0 0 1 0 0 0 0 0.451667 0 0 0 0 0.416667 0 0 0 0.41 0"/>
<feBlend mode="normal" in2="shape" result="effect1_innerShadow_112_149"/>
</filter>
<filter id="filter13_if_112_149" x="1141.49" y="930.548" width="89.0111" height="89.011" filterUnits="userSpaceOnUse" color-interpolation-filters="sRGB">
<feFlood flood-opacity="0" result="BackgroundImageFix"/>
<feBlend mode="normal" in="SourceGraphic" in2="BackgroundImageFix" result="shape"/>
<feColorMatrix in="SourceAlpha" type="matrix" values="0 0 0 0 0 0 0 0 0 0 0 0 0 0 0 0 0 0 127 0" result="hardAlpha"/>
<feOffset dx="9" dy="-9"/>
<feGaussianBlur stdDeviation="7"/>
<feComposite in2="hardAlpha" operator="arithmetic" k2="-1" k3="1"/>
<feColorMatrix type="matrix" values="0 0 0 0 0.649181 0 0 0 0 0.455382 0 0 0 0 0.895833 0 0 0 1 0"/>
<feBlend mode="normal" in2="shape" result="effect1_innerShadow_112_149"/>
<feGaussianBlur stdDeviation="2" result="effect2_foregroundBlur_112_149"/>
</filter>
<filter id="filter14_ii_112_149" x="1635.72" y="437.854" width="244.072" height="238.072" filterUnits="userSpaceOnUse" color-interpolation-filters="sRGB">
<feFlood flood-opacity="0" result="BackgroundImageFix"/>
<feBlend mode="normal" in="SourceGraphic" in2="BackgroundImageFix" result="shape"/>
<feColorMatrix in="SourceAlpha" type="matrix" values="0 0 0 0 0 0 0 0 0 0 0 0 0 0 0 0 0 0 127 0" result="hardAlpha"/>
<feOffset/>
<feGaussianBlur stdDeviation="13.5"/>
<feComposite in2="hardAlpha" operator="arithmetic" k2="-1" k3="1"/>
<feColorMatrix type="matrix" values="0 0 0 0 1 0 0 0 0 0.566083 0 0 0 0 0.470833 0 0 0 0.16 0"/>
<feBlend mode="normal" in2="shape" result="effect1_innerShadow_112_149"/>
<feColorMatrix in="SourceAlpha" type="matrix" values="0 0 0 0 0 0 0 0 0 0 0 0 0 0 0 0 0 0 127 0" result="hardAlpha"/>
<feOffset dx="-15" dy="9"/>
<feGaussianBlur stdDeviation="12"/>
<feComposite in2="hardAlpha" operator="arithmetic" k2="-1" k3="1"/>
<feColorMatrix type="matrix" values="0 0 0 0 0.666667 0 0 0 0 0.317647 0 0 0 0 0.176471 0 0 0 0.24 0"/>
<feBlend mode="normal" in2="effect1_innerShadow_112_149" result="effect2_innerShadow_112_149"/>
</filter>
<filter id="filter15_f_112_149" x="1840.91" y="321.973" width="54.1318" height="54.1321" filterUnits="userSpaceOnUse" color-interpolation-filters="sRGB">
<feFlood flood-opacity="0" result="BackgroundImageFix"/>
<feBlend mode="normal" in="SourceGraphic" in2="BackgroundImageFix" result="shape"/>
<feGaussianBlur stdDeviation="2" result="effect1_foregroundBlur_112_149"/>
</filter>
<radialGradient id="paint0_radial_112_149" cx="0" cy="0" r="1" gradientUnits="userSpaceOnUse" gradientTransform="translate(1287.81 934.389) rotate(-153.631) scale(1103.43 629.07)">
<stop stop-color="#B413FF"/>
<stop offset="0.539562" stop-color="#312FB1" stop-opacity="0.32"/>
<stop offset="1" stop-opacity="0"/>
</radialGradient>
<radialGradient id="paint1_radial_112_149" cx="0" cy="0" r="1" gradientUnits="userSpaceOnUse" gradientTransform="translate(1598.13 1215.28) rotate(-45.5366) scale(769.592 699.757)">
<stop offset="0.25" stop-color="#8BBDD9"/>
<stop offset="0.53125" stop-color="#4E40F1"/>
<stop offset="0.703125" stop-color="#670138"/>
<stop offset="1" stop-color="#FF9548"/>
</radialGradient>
<radialGradient id="paint2_radial_112_149" cx="0" cy="0" r="1" gradientUnits="userSpaceOnUse" gradientTransform="translate(1263.9 904.779) rotate(90) scale(497.911)">
<stop offset="0.302083" stop-color="#A5FBFF"/>
<stop offset="0.385417" stop-color="#7694FF" stop-opacity="0.7"/>
<stop offset="0.729167" stop-color="#742ECE" stop-opacity="0.28"/>
<stop offset="1" stop-color="#9000D5" stop-opacity="0"/>
</radialGradient>
<radialGradient id="paint3_radial_112_149" cx="0" cy="0" r="1" gradientUnits="userSpaceOnUse" gradientTransform="translate(1263.9 904.779) rotate(90) scale(109.953)">
<stop offset="0.210997" stop-color="#A5D4FF"/>
<stop offset="0.90625" stop-color="#86A1FF" stop-opacity="0"/>
</radialGradient>
<radialGradient id="paint4_radial_112_149" cx="0" cy="0" r="1" gradientUnits="userSpaceOnUse" gradientTransform="translate(562.428 458.938) rotate(-121.7) scale(281.085 264.006)">
<stop offset="0.282141" stop-color="#FF87FA"/>
<stop offset="0.552418" stop-color="#87B0FF"/>
<stop offset="1" stop-color="#22CAFF"/>
</radialGradient>
<linearGradient id="paint5_linear_112_149" x1="1183.61" y1="902.828" x2="1174.59" y2="956.567" gradientUnits="userSpaceOnUse">
<stop offset="0.190577" stop-color="#EDBAFF"/>
<stop offset="0.427388" stop-color="#D8AFF9" stop-opacity="0"/>
</linearGradient>
<linearGradient id="paint6_linear_112_149" x1="985.919" y1="916.855" x2="986.358" y2="901.106" gradientUnits="userSpaceOnUse">
<stop offset="0.190577" stop-color="#BAFBFF"/>
<stop offset="0.427388" stop-color="#AFD4F9" stop-opacity="0"/>
</linearGradient>
<linearGradient id="paint7_linear_112_149" x1="1469.71" y1="1067.89" x2="1310.74" y2="884.707" gradientUnits="userSpaceOnUse">
<stop offset="0.190577" stop-color="#BAFBFF"/>
<stop offset="0.427388" stop-color="#AFD4F9" stop-opacity="0"/>
</linearGradient>
<radialGradient id="paint8_radial_112_149" cx="0" cy="0" r="1" gradientUnits="userSpaceOnUse" gradientTransform="translate(1891.71 861.499) rotate(172.789) scale(174.997 159.034)">
<stop offset="0.345524" stop-color="#54146A" stop-opacity="0.44"/>
<stop offset="0.71875" stop-color="#EB6E53"/>
<stop offset="0.895833" stop-color="#DEFFFB"/>
</radialGradient>
<linearGradient id="paint9_linear_112_149" x1="1799.33" y1="853.402" x2="1837.88" y2="897.602" gradientUnits="userSpaceOnUse">
<stop stop-color="#FFB877" stop-opacity="0.34"/>
<stop offset="1" stop-color="#B75300" stop-opacity="0"/>
</linearGradient>
<radialGradient id="paint10_radial_112_149" cx="0" cy="0" r="1" gradientUnits="userSpaceOnUse" gradientTransform="translate(1699.89 1270.85) rotate(-141.03) scale(258.213)">
<stop stop-color="#C84F3F"/>
<stop offset="0.692708" stop-color="#C89C41"/>
<stop offset="0.880208" stop-color="white"/>
</radialGradient>
<radialGradient id="paint11_radial_112_149" cx="0" cy="0" r="1" gradientUnits="userSpaceOnUse" gradientTransform="translate(1687.79 1258.85) rotate(-141.44) scale(241.271 214.882)">
<stop stop-color="#45122B"/>
<stop offset="0.692708" stop-color="#1B1200"/>
<stop offset="0.880208" stop-color="#FFE7D1"/>
</radialGradient>
<linearGradient id="paint12_linear_112_149" x1="1588.09" y1="1182.92" x2="1640.74" y2="1212.35" gradientUnits="userSpaceOnUse">
<stop offset="0.273858" stop-color="#C69C4A" stop-opacity="0.28"/>
<stop offset="1" stop-color="#FF6B00" stop-opacity="0"/>
</linearGradient>
<linearGradient id="paint13_linear_112_149" x1="1588.09" y1="1182.92" x2="1640.74" y2="1212.35" gradientUnits="userSpaceOnUse">
<stop offset="0.273858" stop-color="#C69C4A" stop-opacity="0.28"/>
<stop offset="1" stop-color="#FF6B00" stop-opacity="0"/>
</linearGradient>
<radialGradient id="paint14_radial_112_149" cx="0" cy="0" r="1" gradientUnits="userSpaceOnUse" gradientTransform="translate(987.904 894.279) rotate(172.835) scale(176.377 141.046)">
<stop stop-color="#F9FDFF"/>
<stop offset="0.828199" stop-color="#5B4BB9"/>
<stop offset="1" stop-color="#386480"/>
</radialGradient>
<radialGradient id="paint15_radial_112_149" cx="0" cy="0" r="1" gradientUnits="userSpaceOnUse" gradientTransform="translate(600.744 306.693) rotate(92.329) scale(192.189)">
<stop offset="0.473925" stop-color="#0C0C0C"/>
<stop offset="0.890625" stop-color="#2F3A55"/>
</radialGradient>
<radialGradient id="paint16_radial_112_149" cx="0" cy="0" r="1" gradientUnits="userSpaceOnUse" gradientTransform="translate(637.458 988.137) rotate(-62.68) scale(121.455)">
<stop offset="0.473925" stop-color="#130F1A"/>
<stop offset="0.823158" stop-color="#3B2A5E"/>
<stop offset="0.991368" stop-color="#8543B1"/>
</radialGradient>
<radialGradient id="paint17_radial_112_149" cx="0" cy="0" r="1" gradientUnits="userSpaceOnUse" gradientTransform="translate(816.19 624.842) rotate(26.6875) scale(104.648)">
<stop offset="0.473925" stop-color="#190F2E"/>
<stop offset="0.945943" stop-color="#7D4087"/>
</radialGradient>
<radialGradient id="paint18_radial_112_149" cx="0" cy="0" r="1" gradientUnits="userSpaceOnUse" gradientTransform="translate(686.743 588.238) rotate(44.1751) scale(222.777)">
<stop offset="0.630208" stop-color="#00C2FF"/>
<stop offset="1" stop-color="white"/>
</radialGradient>
<radialGradient id="paint19_radial_112_149" cx="0" cy="0" r="1" gradientUnits="userSpaceOnUse" gradientTransform="translate(842.759 678.882) rotate(-159.422) scale(178.057)">
<stop stop-color="#FFA3A3" stop-opacity="0"/>
<stop offset="0.737543" stop-color="#4A658E"/>
<stop offset="0.9375" stop-color="#A99CEC"/>
</radialGradient>
<linearGradient id="paint20_linear_112_149" x1="781.754" y1="648.393" x2="755.254" y2="659.393" gradientUnits="userSpaceOnUse">
<stop stop-color="#7DC2EA"/>
<stop offset="1" stop-color="#5C94B9"/>
</linearGradient>
<linearGradient id="paint21_linear_112_149" x1="781.754" y1="648.393" x2="755.254" y2="659.393" gradientUnits="userSpaceOnUse">
<stop stop-color="#7DC2EA"/>
<stop offset="1" stop-color="#5C94B9"/>
</linearGradient>
<linearGradient id="paint22_linear_112_149" x1="781.754" y1="648.393" x2="755.254" y2="659.393" gradientUnits="userSpaceOnUse">
<stop stop-color="#7DC2EA"/>
<stop offset="1" stop-color="#5C94B9"/>
</linearGradient>
<radialGradient id="paint23_radial_112_149" cx="0" cy="0" r="1" gradientUnits="userSpaceOnUse" gradientTransform="translate(1927.79 1012.85) rotate(-171.644) scale(89.4512)">
<stop stop-color="#AB432C"/>
<stop offset="0.609037" stop-color="#460615"/>
<stop offset="0.866261" stop-color="#543871"/>
</radialGradient>
<radialGradient id="paint24_radial_112_149" cx="0" cy="0" r="1" gradientUnits="userSpaceOnUse" gradientTransform="translate(1552.9 812.506) rotate(150.815) scale(86.4523 93.1025)">
<stop stop-color="#200F31"/>
<stop offset="0.837244" stop-color="#82118C"/>
</radialGradient>
<radialGradient id="paint25_radial_112_149" cx="0" cy="0" r="1" gradientUnits="userSpaceOnUse" gradientTransform="translate(1173.48 984.247) rotate(-25.7712) scale(52.4976)">
<stop stop-color="#77099E"/>
<stop offset="0.697917" stop-color="#6B2DAA"/>
<stop offset="1" stop-color="#6CE8FF"/>
</radialGradient>
<radialGradient id="paint26_radial_112_149" cx="0" cy="0" r="1" gradientUnits="userSpaceOnUse" gradientTransform="translate(1752.79 203.354) rotate(105.784) scale(194.847)">
<stop offset="0.473925" stop-color="#111111"/>
<stop offset="1" stop-color="#A24F2C"/>
</radialGradient>
<radialGradient id="paint27_radial_112_149" cx="0" cy="0" r="1" gradientUnits="userSpaceOnUse" gradientTransform="translate(1813.81 499.65) rotate(132.296) scale(211.583)">
<stop offset="0.59537" stop-color="#111111"/>
<stop offset="0.895026" stop-color="#433649"/>
</radialGradient>
<linearGradient id="paint28_linear_112_149" x1="1786.79" y1="529.855" x2="1738.79" y2="578.855" gradientUnits="userSpaceOnUse">
<stop stop-color="#14FFB9" stop-opacity="0.26"/>
<stop offset="1" stop-color="#007955" stop-opacity="0"/>
</linearGradient>
<radialGradient id="paint29_radial_112_149" cx="0" cy="0" r="1" gradientUnits="userSpaceOnUse" gradientTransform="translate(1874.3 334.354) rotate(123.341) scale(45.4863)">
<stop offset="0.473925" stop-color="#111111"/>
<stop offset="0.866261" stop-color="#473120"/>
<stop offset="1" stop-color="#B35825"/>
</radialGradient>
<radialGradient id="paint30_radial_112_149" cx="0" cy="0" r="1" gradientUnits="userSpaceOnUse" gradientTransform="translate(611.189 1240.23) rotate(-34.6141) scale(240.519)">
<stop offset="0.473925" stop-color="#07090F"/>
<stop offset="0.702566" stop-color="#07193E"/>
<stop offset="0.926338" stop-color="#015980"/>
</radialGradient>
<linearGradient id="paint31_linear_112_149" x1="730.797" y1="1141.85" x2="683.797" y2="1195.85" gradientUnits="userSpaceOnUse">
<stop stop-color="#68DBFF" stop-opacity="0.26"/>
<stop offset="1" stop-color="#48D3FF" stop-opacity="0"/>
</linearGradient>
<linearGradient id="paint32_linear_112_149" x1="730.797" y1="1141.85" x2="683.797" y2="1195.85" gradientUnits="userSpaceOnUse">
<stop stop-color="#68DBFF" stop-opacity="0.26"/>
<stop offset="1" stop-color="#48D3FF" stop-opacity="0"/>
</linearGradient>
<linearGradient id="paint33_linear_112_149" x1="730.797" y1="1141.85" x2="683.797" y2="1195.85" gradientUnits="userSpaceOnUse">
<stop stop-color="#68DBFF" stop-opacity="0.26"/>
<stop offset="1" stop-color="#48D3FF" stop-opacity="0"/>
</linearGradient>
<linearGradient id="paint34_linear_112_149" x1="730.797" y1="1141.85" x2="683.797" y2="1195.85" gradientUnits="userSpaceOnUse">
<stop stop-color="#68DBFF" stop-opacity="0.26"/>
<stop offset="1" stop-color="#48D3FF" stop-opacity="0"/>
</linearGradient>
<linearGradient id="paint35_linear_112_149" x1="730.797" y1="1141.85" x2="683.797" y2="1195.85" gradientUnits="userSpaceOnUse">
<stop stop-color="#68DBFF" stop-opacity="0.26"/>
<stop offset="1" stop-color="#48D3FF" stop-opacity="0"/>
</linearGradient>
<radialGradient id="paint36_radial_112_149" cx="0" cy="0" r="1" gradientUnits="userSpaceOnUse" gradientTransform="translate(876.186 196.379) rotate(110.715) scale(127.684)">
<stop offset="0.473925" stop-color="#111111"/>
<stop offset="0.866261" stop-color="#1F2737"/>
</radialGradient>
</defs>
</svg>
