<svg width="2880" height="1450" viewBox="0 0 2880 1450" fill="none" xmlns="http://www.w3.org/2000/svg">
<g filter="url(#filter0_f_110_3)">
<ellipse cx="2202.68" cy="664.208" rx="496.5" ry="365.81" transform="rotate(-42.0652 2202.68 664.208)" fill="url(#paint0_radial_110_3)"/>
</g>
<g filter="url(#filter1_f_110_3)">
<ellipse cx="1801.5" cy="829.995" rx="710.5" ry="532" fill="url(#paint1_radial_110_3)"/>
</g>
<path d="M1935 773.995C1935 628.192 1816.8 509.995 1671 509.995C1525.2 509.995 1407 628.192 1407 773.995C1407 919.798 1525.2 1038 1671 1038C1816.8 1038 1935 919.798 1935 773.995Z" fill="url(#paint2_radial_110_3)"/>
<path d="M1532.82 835.086C1513.07 863.3 1504.58 889.215 1508.45 909.183C1512.31 929.114 1528.32 942.195 1554.33 946.527C1580.34 950.86 1615 946.206 1653.42 933.195C1691.83 920.186 1732.02 899.488 1768.33 874.025C1804.63 848.562 1835.19 819.629 1855.7 791.32C1876.21 763.002 1885.6 736.78 1882.61 716.352C1881.12 706.145 1876.58 697.636 1869.26 691.057C1861.93 684.475 1851.81 679.813 1839.15 677.328C1813.81 672.356 1779.63 676.353 1741.42 688.782M1537.3 788.694C1484.67 831.85 1448.81 875.742 1436.11 912.458C1429.76 930.811 1429.42 946.744 1434.79 959.666C1440.16 972.584 1451.25 982.535 1467.86 988.894C1501.08 1001.62 1554.12 999.088 1617.46 981.701C1680.78 964.317 1750.19 933.236 1813.18 894.053C1876.18 854.868 1928.6 810.166 1961.02 768C1977.23 746.917 1987.9 727.172 1992.81 709.594C1997.72 692.017 1996.87 676.624 1990.07 664.219C1983.27 651.813 1970.72 642.762 1953.2 637.342C1935.69 631.921 1913.21 630.139 1886.61 632.263C1833.4 636.511 1767.21 656.101 1699.96 687.516M1310.43 1068.59C1355.81 1147.21 1571.93 1107.4 1793.14 979.686C2014.35 851.971 2156.88 684.709 2111.5 606.096C2066.11 527.483 1849.99 567.289 1628.78 695.005C1407.57 822.72 1265.04 989.982 1310.43 1068.59Z" stroke="white" stroke-opacity="0.1" stroke-width="1.34474"/>
<g filter="url(#filter2_d_110_3)">
<path d="M1120.69 874.939C1251.89 842.981 1384.15 923.431 1416.11 1054.63C1448.07 1185.83 1367.62 1318.09 1236.42 1350.05C1105.22 1382 972.96 1301.56 941.003 1170.36C909.045 1039.16 989.495 906.897 1120.69 874.939Z" fill="url(#paint3_radial_110_3)"/>
</g>
<g filter="url(#filter3_f_110_3)">
<path d="M1795 713.5C1795 1033 1402.13 1292 917.5 1292C432.87 1292 40 1033 40 713.5C40 394.003 432.87 135 917.5 135C1402.13 135 1795 394.003 1795 713.5Z" fill="url(#paint4_radial_110_3)"/>
</g>
<path d="M1221 626C1221 433.253 1064.75 277 872 277C679.253 277 523 433.253 523 626C523 818.747 679.253 975 872 975C1064.75 975 1221 818.747 1221 626Z" fill="url(#paint5_radial_110_3)"/>
<g filter="url(#filter4_i_110_3)">
<circle r="71.6354" transform="matrix(0.5 0.866025 -0.868805 0.495153 1172.58 701.509)" fill="url(#paint6_radial_110_3)"/>
</g>
<g filter="url(#filter5_i_110_3)">
<circle cx="1039" cy="457.411" r="42.2199" transform="rotate(12.5962 1039 457.411)" fill="url(#paint7_radial_110_3)"/>
</g>
<circle cx="1732" cy="540.416" r="84.4398" transform="rotate(45 1732 540.416)" fill="url(#paint8_radial_110_3)"/>
<circle cx="1732" cy="540.416" r="84.4398" transform="rotate(45 1732 540.416)" fill="url(#paint9_radial_110_3)"/>
<circle r="122.816" transform="matrix(-4.37114e-08 1 -0.999984 -0.00558727 1617.19 385.129)" fill="url(#paint10_radial_110_3)"/>
<circle r="122.816" transform="matrix(-4.37114e-08 1 -0.999984 -0.00558727 1617.19 385.129)" fill="url(#paint11_radial_110_3)"/>
<circle r="107.197" transform="matrix(-0.0741375 0.997248 -0.998069 -0.0621072 2006.06 700.244)" fill="url(#paint12_radial_110_3)"/>
<circle r="107.197" transform="matrix(-0.0741375 0.997248 -0.998069 -0.0621072 2006.06 700.244)" fill="url(#paint13_radial_110_3)"/>
<defs>
<filter id="filter0_f_110_3" x="1525.99" y="0.774048" width="1353.37" height="1326.87" filterUnits="userSpaceOnUse" color-interpolation-filters="sRGB">
<feFlood flood-opacity="0" result="BackgroundImageFix"/>
<feBlend mode="normal" in="SourceGraphic" in2="BackgroundImageFix" result="shape"/>
<feGaussianBlur stdDeviation="117" result="effect1_foregroundBlur_110_3"/>
</filter>
<filter id="filter1_f_110_3" x="1003" y="209.995" width="1597" height="1240" filterUnits="userSpaceOnUse" color-interpolation-filters="sRGB">
<feFlood flood-opacity="0" result="BackgroundImageFix"/>
<feBlend mode="normal" in="SourceGraphic" in2="BackgroundImageFix" result="shape"/>
<feGaussianBlur stdDeviation="44" result="effect1_foregroundBlur_110_3"/>
</filter>
<filter id="filter2_d_110_3" x="932" y="840.937" width="535.113" height="535.113" filterUnits="userSpaceOnUse" color-interpolation-filters="sRGB">
<feFlood flood-opacity="0" result="BackgroundImageFix"/>
<feColorMatrix in="SourceAlpha" type="matrix" values="0 0 0 0 0 0 0 0 0 0 0 0 0 0 0 0 0 0 127 0" result="hardAlpha"/>
<feOffset dx="21" dy="-4"/>
<feGaussianBlur stdDeviation="11.5"/>
<feColorMatrix type="matrix" values="0 0 0 0 0.7375 0 0 0 0 0.284396 0 0 0 0 0 0 0 0 0.23 0"/>
<feBlend mode="normal" in2="BackgroundImageFix" result="effect1_dropShadow_110_3"/>
<feBlend mode="normal" in="SourceGraphic" in2="effect1_dropShadow_110_3" result="shape"/>
</filter>
<filter id="filter3_f_110_3" x="0" y="95" width="1835" height="1237" filterUnits="userSpaceOnUse" color-interpolation-filters="sRGB">
<feFlood flood-opacity="0" result="BackgroundImageFix"/>
<feBlend mode="normal" in="SourceGraphic" in2="BackgroundImageFix" result="shape"/>
<feGaussianBlur stdDeviation="20" result="effect1_foregroundBlur_110_3"/>
</filter>
<filter id="filter4_i_110_3" x="1100.76" y="630.034" width="143.64" height="142.949" filterUnits="userSpaceOnUse" color-interpolation-filters="sRGB">
<feFlood flood-opacity="0" result="BackgroundImageFix"/>
<feBlend mode="normal" in="SourceGraphic" in2="BackgroundImageFix" result="shape"/>
<feColorMatrix in="SourceAlpha" type="matrix" values="0 0 0 0 0 0 0 0 0 0 0 0 0 0 0 0 0 0 127 0" result="hardAlpha"/>
<feOffset/>
<feGaussianBlur stdDeviation="15"/>
<feComposite in2="hardAlpha" operator="arithmetic" k2="-1" k3="1"/>
<feColorMatrix type="matrix" values="0 0 0 0 1 0 0 0 0 0.656 0 0 0 0 0.4625 0 0 0 0.11 0"/>
<feBlend mode="normal" in2="shape" result="effect1_innerShadow_110_3"/>
</filter>
<filter id="filter5_i_110_3" x="996.767" y="415.182" width="84.4579" height="84.4579" filterUnits="userSpaceOnUse" color-interpolation-filters="sRGB">
<feFlood flood-opacity="0" result="BackgroundImageFix"/>
<feBlend mode="normal" in="SourceGraphic" in2="BackgroundImageFix" result="shape"/>
<feColorMatrix in="SourceAlpha" type="matrix" values="0 0 0 0 0 0 0 0 0 0 0 0 0 0 0 0 0 0 127 0" result="hardAlpha"/>
<feOffset/>
<feGaussianBlur stdDeviation="15"/>
<feComposite in2="hardAlpha" operator="arithmetic" k2="-1" k3="1"/>
<feColorMatrix type="matrix" values="0 0 0 0 1 0 0 0 0 0.656 0 0 0 0 0.4625 0 0 0 0.11 0"/>
<feBlend mode="normal" in2="shape" result="effect1_innerShadow_110_3"/>
</filter>
<radialGradient id="paint0_radial_110_3" cx="0" cy="0" r="1" gradientUnits="userSpaceOnUse" gradientTransform="translate(2202.48 664.506) rotate(-90) scale(378.548 496.698)">
<stop stop-color="#2F69FF" stop-opacity="0.92"/>
<stop offset="0.234375" stop-color="#2F82FF" stop-opacity="0.65"/>
<stop offset="1" stop-opacity="0"/>
</radialGradient>
<radialGradient id="paint1_radial_110_3" cx="0" cy="0" r="1" gradientUnits="userSpaceOnUse" gradientTransform="translate(1802.89 831.036) rotate(-90) scale(533.041 711.89)">
<stop stop-color="#00B167" stop-opacity="0.897763"/>
<stop offset="0.239583" stop-color="#00A08C" stop-opacity="0.630982"/>
<stop offset="0.473958" stop-color="#0084AD" stop-opacity="0.37"/>
<stop offset="1" stop-opacity="0"/>
</radialGradient>
<radialGradient id="paint2_radial_110_3" cx="0" cy="0" r="1" gradientUnits="userSpaceOnUse" gradientTransform="translate(1671 773.995) rotate(90) scale(264)">
<stop offset="0.130208" stop-color="#B0F1FF"/>
<stop offset="0.213542" stop-color="#5BD2B5" stop-opacity="0.791515"/>
<stop offset="0.375" stop-color="#00B167" stop-opacity="0.57"/>
<stop offset="0.848958" stop-color="#27573A" stop-opacity="0"/>
</radialGradient>
<radialGradient id="paint3_radial_110_3" cx="0" cy="0" r="1" gradientUnits="userSpaceOnUse" gradientTransform="translate(1020.44 1209.16) rotate(-31.7154) scale(442.73 405.647)">
<stop offset="0.536458"/>
<stop offset="0.827187" stop-color="#3A1C0B"/>
<stop offset="1" stop-color="#9ED574"/>
</radialGradient>
<radialGradient id="paint4_radial_110_3" cx="0" cy="0" r="1" gradientUnits="userSpaceOnUse" gradientTransform="translate(921.332 716.026) rotate(-90) scale(581.026 881.332)">
<stop stop-color="#FB6464"/>
<stop offset="1" stop-opacity="0"/>
</radialGradient>
<radialGradient id="paint5_radial_110_3" cx="0" cy="0" r="1" gradientUnits="userSpaceOnUse" gradientTransform="translate(872 626) rotate(90) scale(349)">
<stop offset="0.311069" stop-color="#DD7600"/>
<stop offset="0.623587" stop-color="#B85800" stop-opacity="0.32"/>
<stop offset="1" stop-color="#722D2D" stop-opacity="0"/>
</radialGradient>
<radialGradient id="paint6_radial_110_3" cx="0" cy="0" r="1" gradientUnits="userSpaceOnUse" gradientTransform="translate(122.333 -0.00300183) rotate(126.33) scale(154.712)">
<stop/>
<stop offset="0.567337" stop-color="#160815"/>
<stop offset="0.840936" stop-color="#460D13"/>
<stop offset="1" stop-color="#9C4F2E"/>
</radialGradient>
<radialGradient id="paint7_radial_110_3" cx="0" cy="0" r="1" gradientUnits="userSpaceOnUse" gradientTransform="translate(1068.88 415.189) rotate(126.33) scale(91.1831)">
<stop/>
<stop offset="0.25" stop-color="#160815"/>
<stop offset="0.375" stop-color="#460D13"/>
<stop offset="1" stop-color="#9C4F2E"/>
</radialGradient>
<radialGradient id="paint8_radial_110_3" cx="0" cy="0" r="1" gradientUnits="userSpaceOnUse" gradientTransform="translate(1716.94 471.306) rotate(76.3338) scale(236.106 237.008)">
<stop offset="0.417488" stop-color="#151515"/>
<stop offset="0.716991" stop-color="#166E50"/>
<stop offset="1" stop-color="white"/>
</radialGradient>
<radialGradient id="paint9_radial_110_3" cx="0" cy="0" r="1" gradientUnits="userSpaceOnUse" gradientTransform="translate(1661.71 596.782) rotate(-53.3585) scale(337.08 339.709)">
<stop offset="0.330413" stop-opacity="0"/>
<stop offset="0.713101" stop-color="#12488F"/>
</radialGradient>
<radialGradient id="paint10_radial_110_3" cx="0" cy="0" r="1" gradientUnits="userSpaceOnUse" gradientTransform="translate(100.913 22.2961) rotate(84.1395) scale(395.779 397.292)">
<stop offset="0.488901" stop-color="#0C0B0B"/>
<stop offset="0.690177" stop-color="#D67007"/>
<stop offset="0.76278" stop-color="white"/>
</radialGradient>
<radialGradient id="paint11_radial_110_3" cx="0" cy="0" r="1" gradientUnits="userSpaceOnUse" gradientTransform="translate(-0.209378 141.502) rotate(-7.04888) scale(350.408 350.885)">
<stop offset="0.418746" stop-opacity="0"/>
<stop offset="1" stop-color="#0B8760"/>
</radialGradient>
<radialGradient id="paint12_radial_110_3" cx="0" cy="0" r="1" gradientUnits="userSpaceOnUse" gradientTransform="translate(88.0794 19.4606) rotate(76.3338) scale(299.737 300.883)">
<stop offset="0.417488" stop-color="#151515"/>
<stop offset="0.716991" stop-color="#166E50"/>
<stop offset="1" stop-color="white"/>
</radialGradient>
<radialGradient id="paint13_radial_110_3" cx="0" cy="0" r="1" gradientUnits="userSpaceOnUse" gradientTransform="translate(145.827 200.075) rotate(-110.148) scale(364.664 367.508)">
<stop offset="0.330413" stop-opacity="0"/>
<stop offset="0.713101" stop-color="#12488F"/>
</radialGradient>
</defs>
</svg>
