<svg width="64" height="64" viewBox="0 0 64 64" fill="none" xmlns="http://www.w3.org/2000/svg">
<path d="M32.0001 40.8C32.4952 40.8 32.9772 40.7438 33.4401 40.6374V47.3627C32.9772 47.2562 32.4952 47.2 32.0001 47.2C31.5049 47.2 31.0229 47.2562 30.5601 47.3627V40.6374C31.0229 40.7438 31.5049 40.8 32.0001 40.8Z" fill="white"/>
<path d="M38.2229 11.9015C37.9919 12.8626 37.5439 13.7392 36.9338 14.4768L49.7772 20.8984C50.0082 19.9373 50.4562 19.0607 51.0664 18.3231L38.2229 11.9015Z" fill="white"/>
<path d="M27.0663 14.4768C26.4561 13.7392 26.0082 12.8626 25.7771 11.9015L12.9337 18.3231C13.5439 19.0607 13.9918 19.9373 14.2229 20.8984L27.0663 14.4768Z" fill="white"/>
<path d="M14.223 23.9014C13.9919 24.8625 13.544 25.7392 12.9339 26.4767L25.7772 32.8983C26.0083 31.9372 26.4562 31.0606 27.0664 30.323L14.223 23.9014Z" fill="white"/>
<path d="M51.0662 26.4767L38.2229 32.8983C37.9918 31.9372 37.5438 31.0606 36.9336 30.323L49.7771 23.9014C50.0082 24.8625 50.4561 25.7392 51.0662 26.4767Z" fill="white"/>
<path fill-rule="evenodd" clip-rule="evenodd" d="M27.2805 56.2446C25.7949 53.6713 26.6811 50.3686 29.2562 48.8819C31.8313 47.3952 35.1347 48.279 36.6204 50.8522C38.1061 53.4255 37.2198 56.7285 34.6448 58.2151C32.0697 59.7019 28.7662 58.8178 27.2805 56.2446ZM34.0759 52.3213C33.3997 51.15 31.8962 50.7479 30.7242 51.4245C29.5523 52.1011 29.1488 53.6043 29.825 54.7755C30.5012 55.9467 32.0049 56.3492 33.1768 55.6725C34.3488 54.9959 34.7521 53.4925 34.0759 52.3213Z" fill="white"/>
<path fill-rule="evenodd" clip-rule="evenodd" d="M51.2805 25.0446C49.7949 22.4713 50.6811 19.1686 53.2562 17.6819C55.8312 16.1952 59.1347 17.079 60.6204 19.6522C62.106 22.2255 61.2198 25.5285 58.6448 27.0151C56.0697 28.5019 52.7662 27.6178 51.2805 25.0446ZM58.0759 21.1213C57.3997 19.95 55.8962 19.5479 54.7242 20.2245C53.5522 20.9011 53.1488 22.4043 53.825 23.5755C54.5012 24.7468 56.0048 25.1492 57.1768 24.4725C58.3488 23.7959 58.7521 22.2925 58.0759 21.1213Z" fill="white"/>
<path fill-rule="evenodd" clip-rule="evenodd" d="M27.2805 13.0446C25.7949 10.4713 26.6811 7.16863 29.2562 5.68188C31.8313 4.19519 35.1347 5.07896 36.6204 7.6522C38.1061 10.2255 37.2198 13.5285 34.6448 15.0151C32.0697 16.5019 28.7662 15.6178 27.2805 13.0446ZM34.0759 9.12126C33.3997 7.95004 31.8962 7.54786 30.7242 8.2245C29.5523 8.90113 29.1488 10.4043 29.825 11.5755C30.5012 12.7467 32.0049 13.1492 33.1768 12.4725C34.3488 11.7959 34.7521 10.2925 34.0759 9.12126Z" fill="white"/>
<path fill-rule="evenodd" clip-rule="evenodd" d="M3.28052 25.0446C1.79485 22.4713 2.68111 19.1686 5.25624 17.6819C7.83125 16.1952 11.1347 17.079 12.6204 19.6522C14.106 22.2255 13.2198 25.5285 10.6448 27.0151C8.06967 28.5019 4.76618 27.6178 3.28052 25.0446ZM10.0759 21.1213C9.3997 19.95 7.89619 19.5479 6.72422 20.2245C5.55225 20.9011 5.14879 22.4043 5.825 23.5755C6.50121 24.7468 8.00485 25.1492 9.17682 24.4725C10.3488 23.7959 10.7521 22.2925 10.0759 21.1213Z" fill="white"/>
<path fill-rule="evenodd" clip-rule="evenodd" d="M27.2805 37.0446C25.7949 34.4713 26.6811 31.1686 29.2562 29.6819C31.8313 28.1952 35.1347 29.0789 36.6204 31.6522C38.1061 34.2254 37.2198 37.5284 34.6448 39.0151C32.0697 40.5019 28.7662 39.6178 27.2805 37.0446ZM34.0759 33.1212C33.3997 31.95 31.8962 31.5478 30.7242 32.2245C29.5523 32.9011 29.1488 34.4043 29.825 35.5755C30.5012 36.7467 32.0049 37.1491 33.1768 36.4725C34.3488 35.7959 34.7521 34.2925 34.0759 33.1212Z" fill="white"/>
</svg>
