<svg width="64" height="64" viewBox="0 0 64 64" fill="none" xmlns="http://www.w3.org/2000/svg">
<path d="M53.6582 33.2295L52.9697 34.4326L50.1769 39.3289L49.4754 40.5541C48.845 41.6711 47.9348 42.6006 46.8365 43.2488C45.7381 43.8973 44.4903 44.2414 43.2188 44.2473H20.806C20.3062 44.2459 19.8182 44.3999 19.4074 44.688C19.1447 44.8759 18.9225 45.1158 18.754 45.393L18.7233 45.4416C18.7117 45.4581 18.7014 45.4759 18.6929 45.4945L18.3617 46.0674L16.619 49.0949H26.3918C26.893 49.0967 27.3827 48.943 27.7947 48.6543C28.0786 48.4512 28.3149 48.188 28.4875 47.883C28.489 47.8728 28.489 47.8624 28.4875 47.8523L29.4983 46.0893H35.0885L33.3456 49.1171L32.7052 50.232L32.6441 50.3378C32.006 51.4523 31.089 52.3775 29.9854 53.0203C28.8818 53.6631 27.6304 54.0011 26.3569 54H12.4187C11.9944 54.0011 11.5777 53.8869 11.2118 53.6694C11.0035 53.5523 10.8139 53.4038 10.6498 53.2288C10.2991 52.8471 10.0778 52.3626 10.0174 51.8452C9.95709 51.3279 10.061 50.8045 10.3143 50.3509L10.6279 49.8044L11.0028 49.1521L12.7455 46.1246L13.8174 44.2473L14.4535 43.1367L14.5146 43.0266C15.1532 41.911 16.0708 40.9849 17.1751 40.3414C18.2794 39.6979 19.5317 39.3594 20.806 39.3599H43.0836C43.1359 39.3642 43.1882 39.3642 43.2405 39.3599C43.638 39.3461 44.026 39.2339 44.3709 39.0334C44.7159 38.833 45.0069 38.5502 45.2186 38.2095L45.2577 38.1391L47.3449 34.4812H12.4187C11.9951 34.481 11.5791 34.3687 11.2118 34.155C11.0044 34.0365 10.815 33.888 10.6498 33.7143C10.2966 33.3304 10.0744 32.842 10.0157 32.3211C9.95686 31.7999 10.0646 31.2735 10.323 30.8188L10.6498 30.2504L11.0245 29.5938L13.8174 24.6976L14.5188 23.4723C15.1563 22.3556 16.0735 21.4281 17.178 20.7837C18.2825 20.1391 19.5352 19.8004 20.8105 19.8013H43.2447C43.6422 19.7871 44.0303 19.6749 44.375 19.4746C44.7199 19.274 45.0109 18.9914 45.2231 18.6511L45.2622 18.5763V18.5498L45.6151 17.9328L47.3578 14.9051H37.5763C37.0762 14.9019 36.5876 15.0559 36.1776 15.3457C35.9152 15.5323 35.693 15.7706 35.5242 16.0464C35.5242 16.0464 35.5242 16.0817 35.4936 16.1039C35.4849 16.1161 35.4775 16.1294 35.4719 16.1434C35.4703 16.1538 35.4703 16.164 35.4719 16.1744L34.4827 17.9064H28.8623L30.605 14.8786L31.2978 13.6667C31.936 12.5507 32.8534 11.6241 33.9576 10.9806C35.0621 10.3369 36.3146 9.99865 37.5895 10H51.5624C51.9873 9.99955 52.4049 10.1124 52.773 10.3269C53.1412 10.5417 53.447 10.8506 53.6594 11.223C53.8719 11.5952 53.9837 12.0173 53.9835 12.4471C53.9833 12.8769 53.8711 13.2991 53.6582 13.6712L52.9568 14.8963L51.2139 17.924L50.1465 19.7925L49.445 21.0178C48.8128 22.1268 47.9048 23.0493 46.8108 23.6932C45.7171 24.3374 44.4755 24.6806 43.2101 24.6888H20.806C20.3887 24.6885 19.9783 24.7975 19.6148 25.0053C19.2513 25.2131 18.9473 25.5124 18.7321 25.8742C18.7312 25.886 18.7312 25.8977 18.7321 25.9095V25.9448L16.6755 29.5452H51.6147C52.0389 29.5443 52.4558 29.6585 52.8215 29.8758C53.3723 30.2084 53.7698 30.7485 53.9265 31.3775C54.0834 32.0063 53.9868 32.6727 53.6582 33.2295Z" fill="white"/>
</svg>
