<svg width="64" height="64" viewBox="0 0 64 64" fill="none" xmlns="http://www.w3.org/2000/svg">
<path fill-rule="evenodd" clip-rule="evenodd" d="M40.8446 22.79C38.047 21.6921 35.0341 21.1186 31.9913 21.1186C25.5959 21.1186 19.5804 23.6181 15.053 28.1564C10.5452 32.6747 8.04075 38.6766 8.00045 45.0564L7.99512 45.9132L8.74292 46.3366C12.347 48.3779 16.4229 49.4519 20.553 49.4519C20.6666 49.4519 20.7811 49.4511 20.8949 49.4494C24.4952 49.3978 28.057 48.536 31.286 46.9454C30.2679 46.3785 29.2921 45.74 28.3646 45.0361C22.7363 47.2433 16.3575 46.9712 10.9593 44.2067C11.4843 33.0112 20.7437 24.0432 31.9913 24.0432C35.1195 24.0432 38.2095 24.7321 41.0002 26.0411C41.0361 24.9573 40.9844 23.8709 40.8446 22.79Z" fill="white"/>
<path fill-rule="evenodd" clip-rule="evenodd" d="M55.982 44.8576C55.8964 36.9258 52.0164 29.689 45.5488 25.2808C45.5536 26.4414 45.4756 27.6014 45.3155 28.7545C49.9112 32.49 52.713 37.9906 53.0195 44.0169C43.1061 49.1019 30.7429 45.5407 25.1112 35.8236C23.5901 33.1988 22.6575 30.2641 22.3834 27.2655C21.4267 27.7849 20.5128 28.3824 19.6501 29.0524C20.105 31.9382 21.0936 34.7406 22.5688 37.2859C25.7723 42.8134 30.9226 46.7764 37.0705 48.4443C39.1564 49.0104 41.2772 49.2903 43.3862 49.2903C47.4955 49.2903 51.561 48.2274 55.2396 46.1447L55.9911 45.7189L55.982 44.8576Z" fill="white"/>
<path fill-rule="evenodd" clip-rule="evenodd" d="M32.8393 4.59297L32.0978 4.16L31.3561 4.59231C27.6919 6.72698 24.6477 9.78755 22.5524 13.4429C20.7431 16.5997 19.6729 20.1359 19.4219 23.7455C20.425 23.1519 21.4699 22.63 22.5504 22.184C23.4812 16.2337 26.9572 10.8559 32.0964 7.56966C41.5354 13.6113 44.6395 26.1379 38.9699 35.9206C37.4345 38.57 35.3351 40.8606 32.8478 42.6194C33.7769 43.1833 34.7523 43.6729 35.7659 44.0823C38.0653 42.2265 40.0227 39.9532 41.5123 37.3829C48.132 25.9611 44.2411 11.2517 32.8393 4.59297Z" fill="white"/>
<path fill-rule="evenodd" clip-rule="evenodd" d="M31.9931 29.545C30.6431 29.545 29.5451 30.6432 29.5451 31.9931C29.5451 33.343 30.6431 34.4413 31.9931 34.4413C33.343 34.4413 34.4413 33.343 34.4413 31.9931C34.4413 30.6432 33.343 29.545 31.9931 29.545ZM31.9931 37.3811C29.022 37.3811 26.6051 34.9642 26.6051 31.9931C26.6051 29.0222 29.022 26.6052 31.9931 26.6052C34.9642 26.6052 37.3813 29.0222 37.3813 31.9931C37.3813 34.9642 34.9642 37.3811 31.9931 37.3811Z" fill="white"/>
</svg>
