<svg width="739" height="515" viewBox="0 0 739 515" fill="none" xmlns="http://www.w3.org/2000/svg">
<path d="M369.525 324.58L477.376 348.718L477.396 429.269L369.545 453.406L261.693 429.269L261.674 348.718L369.525 324.58Z" fill="url(#paint0_linear_113_1067)"/>
<path d="M263.608 349.687L369.524 325.983L475.441 349.687V394.863L369.524 418.567L263.608 394.863V349.687Z" stroke="#00BB00" stroke-width="3.86968"/>
<path d="M369.524 324L477.375 348.138V396.413L369.524 420.55L261.673 396.413V348.138L369.524 324Z" fill="#111111"/>
<g filter="url(#filter0_d_113_1067)">
<path d="M263.608 349.687L369.524 325.983L475.441 349.687V394.863L369.524 418.567L263.608 394.863V349.687Z" stroke="#00BB00" stroke-width="3.86968"/>
</g>
<g filter="url(#filter1_d_113_1067)">
<path fill-rule="evenodd" clip-rule="evenodd" d="M385.964 361.781C380.87 360.538 375.385 359.888 369.845 359.888C358.202 359.888 347.25 362.718 339.007 367.857C330.8 372.974 326.24 379.77 326.167 386.994L326.157 387.964L327.519 388.444C334.08 390.755 341.501 391.971 349.02 391.971C349.227 391.971 349.436 391.97 349.643 391.968C356.198 391.91 362.682 390.934 368.561 389.133C366.707 388.491 364.931 387.768 363.242 386.971C352.995 389.47 341.382 389.162 331.554 386.032C332.51 373.355 349.368 363.2 369.845 363.2C375.541 363.2 381.166 363.98 386.247 365.462C386.312 364.235 386.218 363.005 385.964 361.781" fill="#00BB00"/>
<path fill-rule="evenodd" clip-rule="evenodd" d="M413.523 386.769C413.367 377.787 406.303 369.593 394.528 364.601C394.537 365.916 394.395 367.229 394.103 368.535C402.471 372.765 407.572 378.993 408.13 385.817C390.081 391.575 367.572 387.543 357.319 376.539C354.55 373.567 352.852 370.244 352.353 366.849C350.611 367.437 348.947 368.113 347.376 368.872C348.205 372.14 350.004 375.313 352.69 378.195C358.523 384.454 367.899 388.942 379.092 390.83C382.89 391.471 386.751 391.788 390.591 391.788C398.073 391.788 405.474 390.585 412.172 388.226L413.54 387.744L413.523 386.769Z" fill="#00BB00"/>
<path fill-rule="evenodd" clip-rule="evenodd" d="M371.389 341.176L370.039 340.685L368.689 341.175C362.018 343.592 356.475 347.058 352.66 351.197C349.366 354.771 347.418 358.775 346.961 362.863C348.787 362.191 350.69 361.6 352.657 361.095C354.351 354.357 360.68 348.267 370.037 344.546C387.221 351.387 392.873 365.572 382.551 376.649C379.755 379.649 375.933 382.243 371.405 384.234C373.096 384.873 374.872 385.427 376.717 385.891C380.904 383.79 384.467 381.215 387.179 378.305C399.231 365.372 392.147 348.716 371.389 341.176" fill="#00BB00"/>
<path fill-rule="evenodd" clip-rule="evenodd" d="M369.848 369.43C367.391 369.43 365.392 370.674 365.392 372.202C365.392 373.731 367.391 374.974 369.848 374.974C372.306 374.974 374.306 373.731 374.306 372.202C374.306 370.674 372.306 369.43 369.848 369.43M369.848 378.303C364.439 378.303 360.039 375.566 360.039 372.202C360.039 368.838 364.439 366.101 369.848 366.101C375.258 366.101 379.658 368.838 379.658 372.202C379.658 375.566 375.258 378.303 369.848 378.303" fill="#00BB00"/>
</g>
<g filter="url(#filter2_b_113_1067)">
<path d="M253.108 206.582L361.135 230.758L361.155 301.441L253.127 325.618L145.1 301.441L145.08 230.758L253.108 206.582Z" fill="url(#paint1_linear_113_1067)" fill-opacity="0.4"/>
</g>
<path d="M147.018 231.729L253.108 207.986L359.197 231.729V276.979L253.108 300.722L147.018 276.979V231.729Z" stroke="#0080FF" stroke-width="3.876"/>
<path d="M253.108 206L361.135 230.177V278.531L253.108 302.708L145.08 278.531V230.177L253.108 206Z" fill="#111111"/>
<g filter="url(#filter3_b_113_1067)">
<path d="M485.844 206.582L593.871 230.758L593.891 301.441L485.863 325.618L377.836 301.441L377.816 230.758L485.844 206.582Z" fill="url(#paint2_linear_113_1067)" fill-opacity="0.4"/>
</g>
<path d="M379.753 231.729L485.843 207.986L591.932 231.729V276.979L485.843 300.722L379.753 276.979V231.729Z" stroke="#0080FF" stroke-width="3.876"/>
<path d="M485.843 206L593.87 230.177V278.531L485.843 302.708L377.815 278.531V230.177L485.843 206Z" fill="#111111"/>
<g filter="url(#filter4_b_113_1067)">
<path d="M136.74 297.668L244.768 321.845L244.788 392.527L136.76 416.704L28.7324 392.527L28.7129 321.845L136.74 297.668Z" fill="url(#paint3_linear_113_1067)" fill-opacity="0.4"/>
</g>
<path d="M30.6499 322.815L136.739 299.072L242.829 322.815V368.065L136.739 391.808L30.6499 368.065V322.815Z" stroke="#0080FF" stroke-width="3.876"/>
<path d="M136.739 297.086L244.767 321.263V369.617L136.739 393.794L28.7119 369.617V321.263L136.739 297.086Z" fill="#111111"/>
<g filter="url(#filter5_b_113_1067)">
<path d="M369.476 297.668L477.503 321.845L477.523 392.527L369.495 416.704L261.468 392.527L261.448 321.845L369.476 297.668Z" fill="url(#paint4_linear_113_1067)" fill-opacity="0.4"/>
</g>
<path d="M263.386 322.815L369.476 299.072L475.565 322.815V368.065L369.476 391.808L263.386 368.065V322.815Z" stroke="#0080FF" stroke-width="3.876"/>
<path d="M369.476 297.086L477.503 321.263V369.617L369.476 393.794L261.448 369.617V321.263L369.476 297.086Z" fill="#111111"/>
<g filter="url(#filter6_b_113_1067)">
<path d="M602.212 297.668L710.24 321.845L710.259 392.527L602.232 416.704L494.204 392.527L494.185 321.845L602.212 297.668Z" fill="url(#paint5_linear_113_1067)" fill-opacity="0.4"/>
</g>
<path d="M496.123 322.815L602.212 299.072L708.302 322.815V368.065L602.212 391.808L496.123 368.065V322.815Z" stroke="#0080FF" stroke-width="3.876"/>
<path d="M602.212 297.086L710.24 321.263V369.617L602.212 393.794L494.185 369.617V321.263L602.212 297.086Z" fill="#111111"/>
<g filter="url(#filter7_b_113_1067)">
<path d="M253.108 387.516L361.135 411.693L361.155 482.376L253.127 506.553L145.1 482.376L145.08 411.693L253.108 387.516Z" fill="url(#paint6_linear_113_1067)" fill-opacity="0.4"/>
</g>
<path d="M147.018 412.664L253.108 388.921L359.197 412.664V457.913L253.108 481.656L147.018 457.913V412.664Z" stroke="#0080FF" stroke-width="3.876"/>
<path d="M253.108 386.935L361.135 411.112V459.465L253.108 483.642L145.08 459.465V411.112L253.108 386.935Z" fill="#111111"/>
<g filter="url(#filter8_b_113_1067)">
<path d="M485.844 387.516L593.871 411.693L593.891 482.376L485.863 506.553L377.836 482.376L377.816 411.693L485.844 387.516Z" fill="url(#paint7_linear_113_1067)" fill-opacity="0.4"/>
</g>
<path d="M379.753 412.664L485.843 388.921L591.932 412.664V457.913L485.843 481.656L379.753 457.913V412.664Z" stroke="#0080FF" stroke-width="3.876"/>
<path d="M485.843 386.935L593.87 411.112V459.465L485.843 483.642L377.815 459.465V411.112L485.843 386.935Z" fill="#111111"/>
<path fill-rule="evenodd" clip-rule="evenodd" d="M253.108 209.972L148.956 233.281V275.426L253.108 298.736L357.259 275.426V233.281L253.108 209.972ZM361.135 230.177L253.108 206L145.08 230.177V278.531L253.108 302.708L361.135 278.531V230.177ZM485.843 209.972L381.691 233.281V275.426L485.843 298.736L589.994 275.426V233.281L485.843 209.972ZM593.87 230.177L485.843 206L377.815 230.177V278.531L485.843 302.708L593.87 278.531V230.177ZM32.5879 324.367L136.739 301.058L240.891 324.367V366.512L136.739 389.822L32.5879 366.512V324.367ZM136.739 297.086L244.767 321.263V369.617L136.739 393.794L28.7119 369.617V321.263L136.739 297.086ZM369.476 301.058L265.324 324.367V366.512L369.476 389.822L473.627 366.512V324.367L369.476 301.058ZM477.503 321.263L369.476 297.086L261.448 321.263V369.617L369.476 393.794L477.503 369.617V321.263ZM498.061 324.367L602.212 301.058L706.364 324.367V366.512L602.212 389.822L498.061 366.512V324.367ZM602.212 297.086L710.24 321.263V369.617L602.212 393.794L494.185 369.617V321.263L602.212 297.086ZM253.108 390.906L148.956 414.216V456.361L253.108 479.671L357.259 456.361V414.216L253.108 390.906ZM361.135 411.112L253.108 386.935L145.08 411.112V459.465L253.108 483.642L361.135 459.465V411.112ZM381.691 414.216L485.843 390.906L589.994 414.216V456.361L485.843 479.671L381.691 456.361V414.216ZM485.843 386.935L593.87 411.112V459.465L485.843 483.642L377.815 459.465V411.112L485.843 386.935Z" fill="url(#paint8_radial_113_1067)"/>
<path d="M505.525 202.359C485.159 278.327 407.034 323.409 331.027 303.054C255.02 282.698 209.914 204.613 230.28 128.646C250.646 52.6786 328.772 7.59619 404.779 27.9516C480.785 48.307 525.891 126.392 505.525 202.359Z" fill="url(#paint9_radial_113_1067)"/>
<defs>
<filter id="filter0_d_113_1067" x="239.378" y="305.583" width="260.292" height="141.139" filterUnits="userSpaceOnUse" color-interpolation-filters="sRGB">
<feFlood flood-opacity="0" result="BackgroundImageFix"/>
<feColorMatrix in="SourceAlpha" type="matrix" values="0 0 0 0 0 0 0 0 0 0 0 0 0 0 0 0 0 0 127 0" result="hardAlpha"/>
<feOffset dy="3.87734"/>
<feGaussianBlur stdDeviation="11.1474"/>
<feColorMatrix type="matrix" values="0 0 0 0 0 0 0 0 0 0.733333 0 0 0 0 0 0 0 0 1 0"/>
<feBlend mode="normal" in2="BackgroundImageFix" result="effect1_dropShadow_113_1067"/>
<feBlend mode="normal" in="SourceGraphic" in2="effect1_dropShadow_113_1067" result="shape"/>
</filter>
<filter id="filter1_d_113_1067" x="315.467" y="336.977" width="108.763" height="70.4486" filterUnits="userSpaceOnUse" color-interpolation-filters="sRGB">
<feFlood flood-opacity="0" result="BackgroundImageFix"/>
<feColorMatrix in="SourceAlpha" type="matrix" values="0 0 0 0 0 0 0 0 0 0 0 0 0 0 0 0 0 0 127 0" result="hardAlpha"/>
<feOffset/>
<feGaussianBlur stdDeviation="1.85391"/>
<feColorMatrix type="matrix" values="0 0 0 0 0 0 0 0 0 0.733333 0 0 0 0 0 0 0 0 1 0"/>
<feBlend mode="normal" in2="BackgroundImageFix" result="effect1_dropShadow_113_1067"/>
<feBlend mode="normal" in="SourceGraphic" in2="effect1_dropShadow_113_1067" result="shape"/>
</filter>
<filter id="filter2_b_113_1067" x="111.08" y="172.582" width="284.075" height="187.036" filterUnits="userSpaceOnUse" color-interpolation-filters="sRGB">
<feFlood flood-opacity="0" result="BackgroundImageFix"/>
<feGaussianBlur in="BackgroundImage" stdDeviation="17"/>
<feComposite in2="SourceAlpha" operator="in" result="effect1_backgroundBlur_113_1067"/>
<feBlend mode="normal" in="SourceGraphic" in2="effect1_backgroundBlur_113_1067" result="shape"/>
</filter>
<filter id="filter3_b_113_1067" x="343.816" y="172.582" width="284.075" height="187.036" filterUnits="userSpaceOnUse" color-interpolation-filters="sRGB">
<feFlood flood-opacity="0" result="BackgroundImageFix"/>
<feGaussianBlur in="BackgroundImage" stdDeviation="17"/>
<feComposite in2="SourceAlpha" operator="in" result="effect1_backgroundBlur_113_1067"/>
<feBlend mode="normal" in="SourceGraphic" in2="effect1_backgroundBlur_113_1067" result="shape"/>
</filter>
<filter id="filter4_b_113_1067" x="-5.28711" y="263.668" width="284.075" height="187.036" filterUnits="userSpaceOnUse" color-interpolation-filters="sRGB">
<feFlood flood-opacity="0" result="BackgroundImageFix"/>
<feGaussianBlur in="BackgroundImage" stdDeviation="17"/>
<feComposite in2="SourceAlpha" operator="in" result="effect1_backgroundBlur_113_1067"/>
<feBlend mode="normal" in="SourceGraphic" in2="effect1_backgroundBlur_113_1067" result="shape"/>
</filter>
<filter id="filter5_b_113_1067" x="227.448" y="263.668" width="284.075" height="187.036" filterUnits="userSpaceOnUse" color-interpolation-filters="sRGB">
<feFlood flood-opacity="0" result="BackgroundImageFix"/>
<feGaussianBlur in="BackgroundImage" stdDeviation="17"/>
<feComposite in2="SourceAlpha" operator="in" result="effect1_backgroundBlur_113_1067"/>
<feBlend mode="normal" in="SourceGraphic" in2="effect1_backgroundBlur_113_1067" result="shape"/>
</filter>
<filter id="filter6_b_113_1067" x="460.185" y="263.668" width="284.075" height="187.036" filterUnits="userSpaceOnUse" color-interpolation-filters="sRGB">
<feFlood flood-opacity="0" result="BackgroundImageFix"/>
<feGaussianBlur in="BackgroundImage" stdDeviation="17"/>
<feComposite in2="SourceAlpha" operator="in" result="effect1_backgroundBlur_113_1067"/>
<feBlend mode="normal" in="SourceGraphic" in2="effect1_backgroundBlur_113_1067" result="shape"/>
</filter>
<filter id="filter7_b_113_1067" x="111.08" y="353.516" width="284.075" height="187.036" filterUnits="userSpaceOnUse" color-interpolation-filters="sRGB">
<feFlood flood-opacity="0" result="BackgroundImageFix"/>
<feGaussianBlur in="BackgroundImage" stdDeviation="17"/>
<feComposite in2="SourceAlpha" operator="in" result="effect1_backgroundBlur_113_1067"/>
<feBlend mode="normal" in="SourceGraphic" in2="effect1_backgroundBlur_113_1067" result="shape"/>
</filter>
<filter id="filter8_b_113_1067" x="343.816" y="353.516" width="284.075" height="187.036" filterUnits="userSpaceOnUse" color-interpolation-filters="sRGB">
<feFlood flood-opacity="0" result="BackgroundImageFix"/>
<feGaussianBlur in="BackgroundImage" stdDeviation="17"/>
<feComposite in2="SourceAlpha" operator="in" result="effect1_backgroundBlur_113_1067"/>
<feBlend mode="normal" in="SourceGraphic" in2="effect1_backgroundBlur_113_1067" result="shape"/>
</filter>
<linearGradient id="paint0_linear_113_1067" x1="261.468" y1="419.964" x2="477.629" y2="419.964" gradientUnits="userSpaceOnUse">
<stop offset="0.497385"/>
<stop offset="0.508869" stop-color="#242424"/>
</linearGradient>
<linearGradient id="paint1_linear_113_1067" x1="144.873" y1="302.121" x2="361.388" y2="302.121" gradientUnits="userSpaceOnUse">
<stop offset="0.497385"/>
<stop offset="0.508869" stop-color="#242424"/>
</linearGradient>
<linearGradient id="paint2_linear_113_1067" x1="377.61" y1="302.121" x2="594.125" y2="302.121" gradientUnits="userSpaceOnUse">
<stop offset="0.497385"/>
<stop offset="0.508869" stop-color="#242424"/>
</linearGradient>
<linearGradient id="paint3_linear_113_1067" x1="28.5062" y1="393.208" x2="245.021" y2="393.208" gradientUnits="userSpaceOnUse">
<stop offset="0.497385"/>
<stop offset="0.508869" stop-color="#242424"/>
</linearGradient>
<linearGradient id="paint4_linear_113_1067" x1="261.242" y1="393.208" x2="477.756" y2="393.208" gradientUnits="userSpaceOnUse">
<stop offset="0.497385"/>
<stop offset="0.508869" stop-color="#242424"/>
</linearGradient>
<linearGradient id="paint5_linear_113_1067" x1="493.978" y1="393.208" x2="710.493" y2="393.208" gradientUnits="userSpaceOnUse">
<stop offset="0.497385"/>
<stop offset="0.508869" stop-color="#242424"/>
</linearGradient>
<linearGradient id="paint6_linear_113_1067" x1="144.873" y1="483.056" x2="361.388" y2="483.056" gradientUnits="userSpaceOnUse">
<stop offset="0.497385"/>
<stop offset="0.508869" stop-color="#242424"/>
</linearGradient>
<linearGradient id="paint7_linear_113_1067" x1="377.61" y1="483.056" x2="594.125" y2="483.056" gradientUnits="userSpaceOnUse">
<stop offset="0.497385"/>
<stop offset="0.508869" stop-color="#242424"/>
</linearGradient>
<radialGradient id="paint8_radial_113_1067" cx="0" cy="0" r="1" gradientUnits="userSpaceOnUse" gradientTransform="translate(376.365 344.598) rotate(-176.394) scale(502.359 280.447)">
<stop stop-color="white"/>
<stop offset="0.417501" stop-color="#626ED8"/>
<stop offset="0.804278" stop-color="#1B115F" stop-opacity="0.42"/>
<stop offset="1" stop-color="#4A1648" stop-opacity="0"/>
</radialGradient>
<radialGradient id="paint9_radial_113_1067" cx="0" cy="0" r="1" gradientUnits="userSpaceOnUse" gradientTransform="translate(367.903 41.6342) rotate(90) scale(262.866)">
<stop offset="0.505208"/>
<stop offset="0.800551" stop-color="#351A86"/>
<stop offset="0.885417" stop-color="#2E38A6"/>
<stop offset="1" stop-color="#7985F1"/>
</radialGradient>
</defs>
</svg>
