<svg xmlns="http://www.w3.org/2000/svg" viewBox="0 0 400 225">
  <defs>
    <style>
      .cls-1 {
        isolation: isolate;
      }

      .cls-2 {
        fill: #56b5ef;
      }

      .cls-3 {
        opacity: 0.15;
        mix-blend-mode: multiply;
      }

      .cls-4 {
        fill: #fff;
      }

      .cls-5 {
        opacity: 0.2;
      }

      .cls-6 {
        fill: #231f20;
      }

      .cls-7 {
        fill: #ddd;
      }

      .cls-8 {
        fill: #8db7e2;
      }

      .cls-9 {
        fill: none;
      }
    </style>
  </defs>
  <title>question-set</title>
  <g class="cls-1">
    <g id="Layer_2" data-name="Layer 2">
      <g id="question_set_copy" data-name="question set copy">
        <g>
          <circle class="cls-2" cx="204" cy="113.5" r="85"/>
          <g>
            <g>
              <g class="cls-3">
                <rect x="168" y="82.5" width="93" height="85"/>
              </g>
              <rect class="cls-4" x="165" y="78.5" width="92" height="86"/>
            </g>
            <g>
              <g class="cls-3">
                <rect x="162" y="75.5" width="92" height="85"/>
              </g>
              <rect class="cls-4" x="157" y="70.5" width="93" height="87"/>
            </g>
            <g>
              <g class="cls-3">
                <rect x="153" y="67.5" width="92" height="85"/>
              </g>
              <rect class="cls-4" x="151" y="63.5" width="91" height="86"/>
            </g>
            <g>
              <g class="cls-5">
                <rect class="cls-6" x="157" y="95.88" width="82.24" height="12.27" rx="5.44" ry="5.44"/>
                <rect class="cls-6" x="161.84" y="99.51" width="69.11" height="4.84"/>
              </g>
              <g>
                <rect class="cls-7" x="157" y="94.15" width="82.24" height="12.27" rx="5.44" ry="5.44"/>
                <rect class="cls-8" x="161.84" y="97.78" width="69.11" height="4.84"/>
              </g>
            </g>
            <g>
              <g class="cls-5">
                <rect class="cls-6" x="157" y="113.85" width="82.24" height="12.27" rx="5.44" ry="5.44"/>
                <rect class="cls-6" x="161.84" y="117.65" width="57.02" height="4.84"/>
              </g>
              <g>
                <rect class="cls-7" x="157" y="112.12" width="82.24" height="12.27" rx="5.44" ry="5.44"/>
                <rect class="cls-8" x="161.84" y="115.92" width="57.02" height="4.84"/>
              </g>
            </g>
            <g>
              <g class="cls-5">
                <rect class="cls-6" x="157" y="131.99" width="82.24" height="12.27" rx="5.44" ry="5.44"/>
                <rect class="cls-6" x="161.84" y="135.79" width="64.27" height="4.84"/>
              </g>
              <g>
                <rect class="cls-7" x="157" y="130.26" width="82.24" height="12.27" rx="5.44" ry="5.44"/>
                <rect class="cls-8" x="161.84" y="134.06" width="64.27" height="4.84"/>
              </g>
            </g>
            <circle class="cls-8" cx="197.91" cy="79.04" r="10.98"/>
            <path class="cls-4" d="M196,82.5V81.07a2.91,2.91,0,0,1,.61-1.36A5.25,5.25,0,0,1,198,78.49a6,6,0,0,0,1.2-1,1.47,1.47,0,0,0,.31-.85.91.91,0,0,0-.37-.8,1.83,1.83,0,0,0-1.08-.28,6.24,6.24,0,0,0-2.78.8l-.88-1.78a7.75,7.75,0,0,1,3.85-1,4.09,4.09,0,0,1,2.66.8,2.63,2.63,0,0,1,1,2.15,2.85,2.85,0,0,1-.41,1.54,5.79,5.79,0,0,1-1.54,1.46,15,15,0,0,0-1.34.88c-.14.2-.56.46-.56.79V82.5Zm.3,2a1.36,1.36,0,0,1,.37-1,1.48,1.48,0,0,1,1.06-.35,1.44,1.44,0,0,1,1,.36,1.58,1.58,0,0,1,0,2,1.42,1.42,0,0,1-1,.37,1.46,1.46,0,0,1-1.06-.36A1.35,1.35,0,0,1,196.3,84.45Z"/>
          </g>
        </g>
        <rect class="cls-9" width="400" height="225"/>
      </g>
    </g>
  </g>
</svg>
